<svg width="150" height="23" viewBox="0 0 150 23" fill="none" xmlns="http://www.w3.org/2000/svg">
<mask id="path-1-outside-1_94_2819" maskUnits="userSpaceOnUse" x="0" y="0.518066" width="150" height="23" fill="black">
<rect fill="white" y="0.518066" width="150" height="23"/>
<path d="M10.67 2.07807C12.77 2.07807 14.53 2.33807 15.95 2.85807C17.37 3.37807 18.5 4.08807 19.34 4.98807C20.18 5.86807 20.78 6.88807 21.14 8.04807C21.52 9.20807 21.71 10.4281 21.71 11.7081C21.71 13.0081 21.51 14.2481 21.11 15.4281C20.71 16.6081 20.07 17.6581 19.19 18.5781C18.33 19.4781 17.2 20.1981 15.8 20.7381C14.4 21.2581 12.69 21.5181 10.67 21.5181H1.34V2.07807H10.67ZM4.76 18.5181H10.64C12.12 18.5181 13.35 18.3281 14.33 17.9481C15.31 17.5681 16.09 17.0581 16.67 16.4181C17.25 15.7581 17.66 15.0281 17.9 14.2281C18.14 13.4081 18.26 12.5681 18.26 11.7081C18.26 10.8481 18.14 10.0281 17.9 9.24807C17.66 8.44807 17.25 7.73807 16.67 7.11807C16.09 6.47807 15.31 5.97807 14.33 5.61807C13.35 5.23807 12.12 5.04807 10.64 5.04807H4.76V18.5181ZM25.5685 21.5181V2.07807H37.0585C38.4985 2.07807 39.7485 2.28807 40.8085 2.70807C41.8685 3.10807 42.6885 3.73807 43.2685 4.59807C43.8485 5.43807 44.1385 6.51807 44.1385 7.83807C44.1385 8.71807 43.9885 9.47807 43.6885 10.1181C43.3885 10.7381 42.9685 11.2481 42.4285 11.6481C41.8885 12.0481 41.2585 12.3581 40.5385 12.5781C39.8385 12.7981 39.0885 12.9381 38.2885 12.9981L37.9885 12.7881C39.2685 12.8081 40.3285 12.9281 41.1685 13.1481C42.0085 13.3481 42.6485 13.7381 43.0885 14.3181C43.5285 14.8781 43.7485 15.7081 43.7485 16.8081V21.5181H40.3585V16.9881C40.3585 16.2281 40.2185 15.6381 39.9385 15.2181C39.6785 14.7781 39.2185 14.4781 38.5585 14.3181C37.9185 14.1381 36.9985 14.0481 35.7985 14.0481H28.9885V21.5181H25.5685ZM28.9885 11.2581H37.0585C38.2585 11.2581 39.1685 10.9581 39.7885 10.3581C40.4085 9.75807 40.7185 8.96807 40.7185 7.98807C40.7185 7.04807 40.4085 6.32807 39.7885 5.82807C39.1685 5.30807 38.2585 5.04807 37.0585 5.04807H28.9885V11.2581ZM48.8729 2.07807H52.2929V21.5181H48.8729V2.07807ZM63.8614 21.5181L55.7914 2.07807H59.5114L66.4414 19.4481H65.3314L72.2314 2.07807H75.8914L67.9114 21.5181H63.8614ZM88.1877 21.8781C85.9077 21.8781 83.9177 21.4681 82.2177 20.6481C80.5377 19.8281 79.2277 18.6681 78.2877 17.1681C77.3677 15.6681 76.9077 13.8781 76.9077 11.7981C76.9077 9.71807 77.3677 7.92807 78.2877 6.42807C79.2277 4.90807 80.5377 3.74807 82.2177 2.94807C83.9177 2.12807 85.9077 1.71807 88.1877 1.71807C90.4877 1.71807 92.4777 2.12807 94.1577 2.94807C95.8377 3.74807 97.1377 4.90807 98.0577 6.42807C98.9977 7.92807 99.4677 9.71807 99.4677 11.7981C99.4677 13.8781 98.9977 15.6681 98.0577 17.1681C97.1377 18.6681 95.8377 19.8281 94.1577 20.6481C92.4777 21.4681 90.4877 21.8781 88.1877 21.8781ZM88.1877 18.8781C89.7077 18.8781 91.0477 18.6181 92.2077 18.0981C93.3677 17.5781 94.2777 16.7981 94.9377 15.7581C95.6177 14.6981 95.9577 13.3781 95.9577 11.7981C95.9577 10.2381 95.6177 8.93807 94.9377 7.89807C94.2777 6.83807 93.3677 6.04807 92.2077 5.52806C91.0477 4.98807 89.7077 4.71807 88.1877 4.71807C86.6877 4.71807 85.3477 4.98807 84.1677 5.52806C82.9877 6.04807 82.0577 6.83807 81.3777 7.89807C80.6977 8.93807 80.3577 10.2381 80.3577 11.7981C80.3577 13.3781 80.6977 14.6981 81.3777 15.7581C82.0577 16.7981 82.9877 17.5781 84.1677 18.0981C85.3477 18.6181 86.6877 18.8781 88.1877 18.8781ZM116.041 2.07807H120.091L111.631 12.6681L111.541 12.7581L105.061 21.5181H100.981L109.651 10.3581L109.741 10.2981L116.041 2.07807ZM105.361 2.07807L111.511 10.3281L111.541 10.3881L120.151 21.5181H115.831L109.501 12.6681L109.441 12.6081L101.281 2.07807H105.361ZM127.104 13.2381V18.5781H140.754V21.5181H123.684V2.07807H140.724V5.01807H127.104V10.4181H138.264V13.2381H127.104ZM148.405 18.2781V21.5181H144.415V18.2781H148.405Z"/>
</mask>
<path d="M10.67 2.07807C12.77 2.07807 14.53 2.33807 15.95 2.85807C17.37 3.37807 18.5 4.08807 19.34 4.98807C20.18 5.86807 20.78 6.88807 21.14 8.04807C21.52 9.20807 21.71 10.4281 21.71 11.7081C21.71 13.0081 21.51 14.2481 21.11 15.4281C20.71 16.6081 20.07 17.6581 19.19 18.5781C18.33 19.4781 17.2 20.1981 15.8 20.7381C14.4 21.2581 12.69 21.5181 10.67 21.5181H1.34V2.07807H10.67ZM4.76 18.5181H10.64C12.12 18.5181 13.35 18.3281 14.33 17.9481C15.31 17.5681 16.09 17.0581 16.67 16.4181C17.25 15.7581 17.66 15.0281 17.9 14.2281C18.14 13.4081 18.26 12.5681 18.26 11.7081C18.26 10.8481 18.14 10.0281 17.9 9.24807C17.66 8.44807 17.25 7.73807 16.67 7.11807C16.09 6.47807 15.31 5.97807 14.33 5.61807C13.35 5.23807 12.12 5.04807 10.64 5.04807H4.76V18.5181ZM25.5685 21.5181V2.07807H37.0585C38.4985 2.07807 39.7485 2.28807 40.8085 2.70807C41.8685 3.10807 42.6885 3.73807 43.2685 4.59807C43.8485 5.43807 44.1385 6.51807 44.1385 7.83807C44.1385 8.71807 43.9885 9.47807 43.6885 10.1181C43.3885 10.7381 42.9685 11.2481 42.4285 11.6481C41.8885 12.0481 41.2585 12.3581 40.5385 12.5781C39.8385 12.7981 39.0885 12.9381 38.2885 12.9981L37.9885 12.7881C39.2685 12.8081 40.3285 12.9281 41.1685 13.1481C42.0085 13.3481 42.6485 13.7381 43.0885 14.3181C43.5285 14.8781 43.7485 15.7081 43.7485 16.8081V21.5181H40.3585V16.9881C40.3585 16.2281 40.2185 15.6381 39.9385 15.2181C39.6785 14.7781 39.2185 14.4781 38.5585 14.3181C37.9185 14.1381 36.9985 14.0481 35.7985 14.0481H28.9885V21.5181H25.5685ZM28.9885 11.2581H37.0585C38.2585 11.2581 39.1685 10.9581 39.7885 10.3581C40.4085 9.75807 40.7185 8.96807 40.7185 7.98807C40.7185 7.04807 40.4085 6.32807 39.7885 5.82807C39.1685 5.30807 38.2585 5.04807 37.0585 5.04807H28.9885V11.2581ZM48.8729 2.07807H52.2929V21.5181H48.8729V2.07807ZM63.8614 21.5181L55.7914 2.07807H59.5114L66.4414 19.4481H65.3314L72.2314 2.07807H75.8914L67.9114 21.5181H63.8614ZM88.1877 21.8781C85.9077 21.8781 83.9177 21.4681 82.2177 20.6481C80.5377 19.8281 79.2277 18.6681 78.2877 17.1681C77.3677 15.6681 76.9077 13.8781 76.9077 11.7981C76.9077 9.71807 77.3677 7.92807 78.2877 6.42807C79.2277 4.90807 80.5377 3.74807 82.2177 2.94807C83.9177 2.12807 85.9077 1.71807 88.1877 1.71807C90.4877 1.71807 92.4777 2.12807 94.1577 2.94807C95.8377 3.74807 97.1377 4.90807 98.0577 6.42807C98.9977 7.92807 99.4677 9.71807 99.4677 11.7981C99.4677 13.8781 98.9977 15.6681 98.0577 17.1681C97.1377 18.6681 95.8377 19.8281 94.1577 20.6481C92.4777 21.4681 90.4877 21.8781 88.1877 21.8781ZM88.1877 18.8781C89.7077 18.8781 91.0477 18.6181 92.2077 18.0981C93.3677 17.5781 94.2777 16.7981 94.9377 15.7581C95.6177 14.6981 95.9577 13.3781 95.9577 11.7981C95.9577 10.2381 95.6177 8.93807 94.9377 7.89807C94.2777 6.83807 93.3677 6.04807 92.2077 5.52806C91.0477 4.98807 89.7077 4.71807 88.1877 4.71807C86.6877 4.71807 85.3477 4.98807 84.1677 5.52806C82.9877 6.04807 82.0577 6.83807 81.3777 7.89807C80.6977 8.93807 80.3577 10.2381 80.3577 11.7981C80.3577 13.3781 80.6977 14.6981 81.3777 15.7581C82.0577 16.7981 82.9877 17.5781 84.1677 18.0981C85.3477 18.6181 86.6877 18.8781 88.1877 18.8781ZM116.041 2.07807H120.091L111.631 12.6681L111.541 12.7581L105.061 21.5181H100.981L109.651 10.3581L109.741 10.2981L116.041 2.07807ZM105.361 2.07807L111.511 10.3281L111.541 10.3881L120.151 21.5181H115.831L109.501 12.6681L109.441 12.6081L101.281 2.07807H105.361ZM127.104 13.2381V18.5781H140.754V21.5181H123.684V2.07807H140.724V5.01807H127.104V10.4181H138.264V13.2381H127.104ZM148.405 18.2781V21.5181H144.415V18.2781H148.405Z" fill="#222222"/>
<path d="M15.95 2.85807L16.2939 1.91905V1.91905L15.95 2.85807ZM19.34 4.98807L18.6089 5.67043L18.6166 5.67854L19.34 4.98807ZM21.14 8.04807L20.1849 8.34446L20.1873 8.35194L20.1897 8.35937L21.14 8.04807ZM21.11 15.4281L22.0571 15.7491V15.7491L21.11 15.4281ZM19.19 18.5781L18.4674 17.8868L18.467 17.8872L19.19 18.5781ZM15.8 20.7381L16.1482 21.6756L16.1599 21.6711L15.8 20.7381ZM1.34 21.5181H0.34V22.5181H1.34V21.5181ZM1.34 2.07807V1.07807H0.34V2.07807H1.34ZM4.76 18.5181H3.76V19.5181H4.76V18.5181ZM14.33 17.9481L14.6915 18.8804L14.33 17.9481ZM16.67 16.4181L17.411 17.0896L17.4161 17.0839L17.4212 17.0782L16.67 16.4181ZM17.9 14.2281L18.8578 14.5154L18.8597 14.509L17.9 14.2281ZM17.9 9.24807L16.9422 9.53542L16.9442 9.54215L17.9 9.24807ZM16.67 7.11807L15.929 7.78959L15.9343 7.79545L15.9397 7.80122L16.67 7.11807ZM14.33 5.61807L13.9685 6.55043L13.9768 6.55366L13.9852 6.55674L14.33 5.61807ZM4.76 5.04807V4.04807H3.76V5.04807H4.76ZM10.67 3.07807C12.6949 3.07807 14.33 3.32976 15.6061 3.79708L16.2939 1.91905C14.73 1.34637 12.8451 1.07807 10.67 1.07807V3.07807ZM15.6061 3.79708C16.9118 4.27522 17.8978 4.90842 18.6089 5.67038L20.0711 4.30575C19.1022 3.26771 17.8282 2.48091 16.2939 1.91905L15.6061 3.79708ZM18.6166 5.67854C19.3502 6.44702 19.8708 7.3322 20.1849 8.34446L22.0951 7.75167C21.6892 6.44393 21.0098 5.28911 20.0634 4.29759L18.6166 5.67854ZM20.1897 8.35937C20.5352 9.41408 20.71 10.5286 20.71 11.7081H22.71C22.71 10.3275 22.5048 9.00205 22.0903 7.73676L20.1897 8.35937ZM20.71 11.7081C20.71 12.9037 20.5264 14.0349 20.1629 15.107L22.0571 15.7491C22.4936 14.4613 22.71 13.1125 22.71 11.7081H20.71ZM20.1629 15.107C19.8109 16.1457 19.2487 17.07 18.4674 17.8868L19.9126 19.2693C20.8913 18.2461 21.6091 17.0705 22.0571 15.7491L20.1629 15.107ZM18.467 17.8872C17.7275 18.6611 16.7305 19.3073 15.4401 19.8051L16.1599 21.6711C17.6695 21.0888 18.9325 20.295 19.913 19.2689L18.467 17.8872ZM15.4518 19.8006C14.1949 20.2675 12.6103 20.5181 10.67 20.5181V22.5181C12.7697 22.5181 14.6051 22.2486 16.1482 21.6755L15.4518 19.8006ZM10.67 20.5181H1.34V22.5181H10.67V20.5181ZM2.34 21.5181V2.07807H0.34V21.5181H2.34ZM1.34 3.07807H10.67V1.07807H1.34V3.07807ZM4.76 19.5181H10.64V17.5181H4.76V19.5181ZM10.64 19.5181C12.197 19.5181 13.5596 19.3194 14.6915 18.8804L13.9685 17.0157C13.1404 17.3368 12.043 17.5181 10.64 17.5181V19.5181ZM14.6915 18.8804C15.7856 18.4562 16.7063 17.8672 17.411 17.0896L15.929 15.7465C15.4737 16.2489 14.8344 16.6799 13.9685 17.0157L14.6915 18.8804ZM17.4212 17.0782C18.091 16.316 18.5744 15.4602 18.8578 14.5154L16.9422 13.9407C16.7456 14.5959 16.409 15.2002 15.9188 15.758L17.4212 17.0782ZM18.8597 14.509C19.1266 13.5971 19.26 12.6625 19.26 11.7081H17.26C17.26 12.4736 17.1534 13.219 16.9403 13.9472L18.8597 14.509ZM19.26 11.7081C19.26 10.7538 19.1266 9.83427 18.8558 8.95398L16.9442 9.54215C17.1534 10.2219 17.26 10.9424 17.26 11.7081H19.26ZM18.8578 8.96072C18.5728 8.01049 18.0838 7.16561 17.4003 6.43491L15.9397 7.80122C16.4162 8.31052 16.7472 8.88564 16.9422 9.53541L18.8578 8.96072ZM17.411 6.44655C16.702 5.66425 15.7751 5.0836 14.6748 4.6794L13.9852 6.55674C14.8449 6.87253 15.478 7.29188 15.929 7.78959L17.411 6.44655ZM14.6915 4.6857C13.5596 4.24678 12.197 4.04807 10.64 4.04807V6.04807C12.043 6.04807 13.1404 6.22935 13.9685 6.55043L14.6915 4.6857ZM10.64 4.04807H4.76V6.04807H10.64V4.04807ZM3.76 5.04807V18.5181H5.76V5.04807H3.76ZM25.5685 21.5181H24.5685V22.5181H25.5685V21.5181ZM25.5685 2.07807V1.07807H24.5685V2.07807H25.5685ZM40.8085 2.70807L40.4402 3.63775L40.4478 3.64077L40.4555 3.64367L40.8085 2.70807ZM43.2685 4.59807L42.4394 5.15724L42.4456 5.16626L43.2685 4.59807ZM43.6885 10.1181L44.5887 10.5537L44.594 10.5425L43.6885 10.1181ZM42.4285 11.6481L41.8333 10.8445L42.4285 11.6481ZM40.5385 12.5781L40.2463 11.6217L40.2387 11.6241L40.5385 12.5781ZM38.2885 12.9981L37.7151 13.8173L38.0074 14.022L38.3633 13.9953L38.2885 12.9981ZM37.9885 12.7881L38.0041 11.7882L34.7435 11.7372L37.4151 13.6073L37.9885 12.7881ZM41.1685 13.1481L40.9152 14.1154L40.926 14.1183L40.9369 14.1209L41.1685 13.1481ZM43.0885 14.3181L42.2918 14.9225L42.297 14.9292L42.3022 14.9359L43.0885 14.3181ZM43.7485 21.5181V22.5181H44.7485V21.5181H43.7485ZM40.3585 21.5181H39.3585V22.5181H40.3585V21.5181ZM39.9385 15.2181L39.0776 15.7268L39.0914 15.7502L39.1065 15.7728L39.9385 15.2181ZM38.5585 14.3181L38.2878 15.2807L38.3053 15.2856L38.3229 15.2899L38.5585 14.3181ZM28.9885 14.0481V13.0481H27.9885V14.0481H28.9885ZM28.9885 21.5181V22.5181H29.9885V21.5181H28.9885ZM28.9885 11.2581H27.9885V12.2581H28.9885V11.2581ZM39.7885 10.3581L40.4839 11.0767V11.0767L39.7885 10.3581ZM39.7885 5.82807L39.1459 6.59426L39.1533 6.60044L39.1608 6.60648L39.7885 5.82807ZM28.9885 5.04807V4.04807H27.9885V5.04807H28.9885ZM26.5685 21.5181V2.07807H24.5685V21.5181H26.5685ZM25.5685 3.07807H37.0585V1.07807H25.5685V3.07807ZM37.0585 3.07807C38.4042 3.07807 39.5238 3.27465 40.4402 3.63775L41.1769 1.77838C39.9733 1.30148 38.5928 1.07807 37.0585 1.07807V3.07807ZM40.4555 3.64367C41.3404 3.97761 41.986 4.4849 42.4394 5.15721L44.0976 4.03892C43.391 2.99123 42.3966 2.23852 41.1616 1.77246L40.4555 3.64367ZM42.4456 5.16626C42.8807 5.79639 43.1385 6.66189 43.1385 7.83807H45.1385C45.1385 6.37424 44.8163 5.07974 44.0914 4.02988L42.4456 5.16626ZM43.1385 7.83807C43.1385 8.60637 43.0075 9.21488 42.7831 9.69363L44.594 10.5425C44.9696 9.74125 45.1385 8.82976 45.1385 7.83807H43.1385ZM42.7884 9.68251C42.5569 10.1608 42.2401 10.5432 41.8333 10.8445L43.0237 12.4516C43.697 11.9529 44.2201 11.3154 44.5887 10.5536L42.7884 9.68251ZM41.8333 10.8445C41.3952 11.169 40.8703 11.431 40.2463 11.6217L40.8307 13.5344C41.6467 13.2851 42.3819 12.9271 43.0237 12.4516L41.8333 10.8445ZM40.2387 11.6241C39.6182 11.8191 38.9443 11.9461 38.2137 12.0009L38.3633 13.9953C39.2327 13.9301 40.0588 13.7771 40.8383 13.5321L40.2387 11.6241ZM38.862 12.1788L38.562 11.9688L37.4151 13.6073L37.7151 13.8173L38.862 12.1788ZM37.9729 13.7879C39.2067 13.8072 40.18 13.9229 40.9152 14.1154L41.4219 12.1807C40.477 11.9332 39.3303 11.8089 38.0041 11.7882L37.9729 13.7879ZM40.9369 14.1209C41.5953 14.2776 42.0168 14.5599 42.2918 14.9225L43.8852 13.7137C43.2802 12.9162 42.4217 12.4185 41.4001 12.1753L40.9369 14.1209ZM42.3022 14.9359C42.5463 15.2466 42.7485 15.8169 42.7485 16.8081H44.7485C44.7485 15.5993 44.5107 14.5096 43.8748 13.7002L42.3022 14.9359ZM42.7485 16.8081V21.5181H44.7485V16.8081H42.7485ZM43.7485 20.5181H40.3585V22.5181H43.7485V20.5181ZM41.3585 21.5181V16.9881H39.3585V21.5181H41.3585ZM41.3585 16.9881C41.3585 16.1242 41.2025 15.3112 40.7706 14.6634L39.1065 15.7728C39.2346 15.9649 39.3585 16.332 39.3585 16.9881H41.3585ZM40.7994 14.7093C40.3613 13.9679 39.6269 13.5481 38.7941 13.3462L38.3229 15.2899C38.8101 15.408 38.9957 15.5882 39.0776 15.7268L40.7994 14.7093ZM38.8293 13.3554C38.0572 13.1383 37.0292 13.0481 35.7985 13.0481V15.0481C36.9679 15.0481 37.7798 15.1378 38.2878 15.2807L38.8293 13.3554ZM35.7985 13.0481H28.9885V15.0481H35.7985V13.0481ZM27.9885 14.0481V21.5181H29.9885V14.0481H27.9885ZM28.9885 20.5181H25.5685V22.5181H28.9885V20.5181ZM28.9885 12.2581H37.0585V10.2581H28.9885V12.2581ZM37.0585 12.2581C38.4154 12.2581 39.6148 11.9178 40.4839 11.0767L39.0931 9.63946C38.7223 9.99834 38.1017 10.2581 37.0585 10.2581V12.2581ZM40.4839 11.0767C41.3258 10.262 41.7185 9.1987 41.7185 7.98807H39.7185C39.7185 8.73743 39.4913 9.25413 39.0931 9.63946L40.4839 11.0767ZM41.7185 7.98807C41.7185 6.80643 41.3152 5.77462 40.4163 5.04965L39.1608 6.60648C39.5018 6.88152 39.7185 7.2897 39.7185 7.98807H41.7185ZM40.4311 5.06187C39.5618 4.33273 38.3837 4.04807 37.0585 4.04807V6.04807C38.1334 6.04807 38.7753 6.2834 39.1459 6.59426L40.4311 5.06187ZM37.0585 4.04807H28.9885V6.04807H37.0585V4.04807ZM27.9885 5.04807V11.2581H29.9885V5.04807H27.9885ZM48.8729 2.07807V1.07807H47.8729V2.07807H48.8729ZM52.2929 2.07807H53.2929V1.07807H52.2929V2.07807ZM52.2929 21.5181V22.5181H53.2929V21.5181H52.2929ZM48.8729 21.5181H47.8729V22.5181H48.8729V21.5181ZM48.8729 3.07807H52.2929V1.07807H48.8729V3.07807ZM51.2929 2.07807V21.5181H53.2929V2.07807H51.2929ZM52.2929 20.5181H48.8729V22.5181H52.2929V20.5181ZM49.8729 21.5181V2.07807H47.8729V21.5181H49.8729ZM63.8614 21.5181L62.9378 21.9015L63.1938 22.5181H63.8614V21.5181ZM55.7914 2.07807V1.07807H54.2935L54.8678 2.46147L55.7914 2.07807ZM59.5114 2.07807L60.4402 1.70751L60.1891 1.07807H59.5114V2.07807ZM66.4414 19.4481V20.4481H67.917L67.3702 19.0775L66.4414 19.4481ZM65.3314 19.4481L64.402 19.0789L63.8582 20.4481H65.3314V19.4481ZM72.2314 2.07807V1.07807H71.5526L71.302 1.70889L72.2314 2.07807ZM75.8914 2.07807L76.8165 2.45781L77.3829 1.07807H75.8914V2.07807ZM67.9114 21.5181V22.5181H68.5819L68.8365 21.8978L67.9114 21.5181ZM64.785 21.1347L56.715 1.69467L54.8678 2.46147L62.9378 21.9015L64.785 21.1347ZM55.7914 3.07807H59.5114V1.07807H55.7914V3.07807ZM58.5826 2.44863L65.5126 19.8186L67.3702 19.0775L60.4402 1.70751L58.5826 2.44863ZM66.4414 18.4481H65.3314V20.4481H66.4414V18.4481ZM66.2608 19.8172L73.1608 2.44724L71.302 1.70889L64.402 19.0789L66.2608 19.8172ZM72.2314 3.07807H75.8914V1.07807H72.2314V3.07807ZM74.9663 1.69832L66.9863 21.1383L68.8365 21.8978L76.8165 2.45781L74.9663 1.69832ZM67.9114 20.5181H63.8614V22.5181H67.9114V20.5181ZM82.2177 20.6481L81.779 21.5467L81.7832 21.5488L82.2177 20.6481ZM78.2877 17.1681L77.4352 17.6909L77.4403 17.6991L78.2877 17.1681ZM78.2877 6.42807L77.4371 5.90209L77.4352 5.90524L78.2877 6.42807ZM82.2177 2.94807L82.6476 3.85094L82.6521 3.84876L82.2177 2.94807ZM94.1577 2.94807L93.719 3.84677L93.7277 3.85093L94.1577 2.94807ZM98.0577 6.42807L97.2022 6.94587L97.2062 6.95251L97.2103 6.95908L98.0577 6.42807ZM98.0577 17.1681L97.2103 16.637L97.2052 16.6452L98.0577 17.1681ZM94.1577 20.6481L93.719 19.7494L94.1577 20.6481ZM92.2077 18.0981L92.6167 19.0106L92.2077 18.0981ZM94.9377 15.7581L94.096 15.2181L94.0933 15.2222L94.9377 15.7581ZM94.9377 7.89807L94.0888 8.42662L94.0946 8.43604L94.1007 8.44531L94.9377 7.89807ZM92.2077 5.52806L91.7856 6.43465L91.7921 6.43766L91.7986 6.44057L92.2077 5.52806ZM84.1677 5.52806L84.571 6.44324L84.5838 6.43737L84.1677 5.52806ZM81.3777 7.89807L82.2147 8.44534L82.2194 8.43802L81.3777 7.89807ZM81.3777 15.7581L80.5359 16.298L80.5407 16.3053L81.3777 15.7581ZM84.1677 18.0981L83.7644 19.0132L84.1677 18.0981ZM88.1877 20.8781C86.0273 20.8781 84.1913 20.4898 82.6521 19.7474L81.7832 21.5488C83.644 22.4463 85.788 22.8781 88.1877 22.8781V20.8781ZM82.6563 19.7494C81.1344 19.0066 79.9701 17.9697 79.135 16.6371L77.4403 17.6991C78.4852 19.3664 79.941 20.6496 81.779 21.5467L82.6563 19.7494ZM79.1401 16.6452C78.3329 15.3292 77.9077 13.7275 77.9077 11.7981H75.9077C75.9077 14.0286 76.4024 16.0069 77.4352 17.6909L79.1401 16.6452ZM77.9077 11.7981C77.9077 9.86865 78.3329 8.26693 79.1401 6.95089L77.4352 5.90524C76.4024 7.5892 75.9077 9.56749 75.9077 11.7981H77.9077ZM79.1382 6.95403C79.9728 5.60441 81.1336 4.5719 82.6476 3.85093L81.7877 2.04521C79.9418 2.92423 78.4825 4.21172 77.4371 5.9021L79.1382 6.95403ZM82.6521 3.84876C84.1913 3.10631 86.0273 2.71807 88.1877 2.71807V0.718066C85.788 0.718066 83.644 1.14982 81.7832 2.04737L82.6521 3.84876ZM88.1877 2.71807C90.37 2.71807 92.2034 3.10699 93.719 3.84673L94.5963 2.0494C92.7519 1.14915 90.6053 0.718066 88.1877 0.718066V2.71807ZM93.7277 3.85093C95.2401 4.5711 96.3883 5.60119 97.2022 6.94587L98.9132 5.91026C97.887 4.21494 96.4352 2.92503 94.5876 2.04521L93.7277 3.85093ZM97.2103 6.95908C98.0342 8.27383 98.4677 9.87252 98.4677 11.7981H100.468C100.468 9.56361 99.9611 7.5823 98.905 5.89705L97.2103 6.95908ZM98.4677 11.7981C98.4677 13.7236 98.0342 15.3223 97.2103 16.6371L98.905 17.6991C99.9611 16.0138 100.468 14.0325 100.468 11.7981H98.4677ZM97.2052 16.6452C96.3909 17.9729 95.2393 19.0074 93.719 19.7494L94.5963 21.5467C96.436 20.6488 97.8844 19.3632 98.9101 17.6909L97.2052 16.6452ZM93.719 19.7494C92.2034 20.4891 90.37 20.8781 88.1877 20.8781V22.8781C90.6053 22.8781 92.7519 22.447 94.5963 21.5467L93.719 19.7494ZM88.1877 19.8781C89.8215 19.8781 91.3054 19.5984 92.6167 19.0106L91.7986 17.1856C90.7899 17.6377 89.5938 17.8781 88.1877 17.8781V19.8781ZM92.6167 19.0106C93.9495 18.4131 95.0134 17.5049 95.782 16.2939L94.0933 15.2222C93.5419 16.0912 92.7858 16.743 91.7986 17.1856L92.6167 19.0106ZM95.7794 16.298C96.5861 15.0404 96.9577 13.5209 96.9577 11.7981H94.9577C94.9577 13.2352 94.6492 14.3557 94.096 15.2181L95.7794 16.298ZM96.9577 11.7981C96.9577 10.0933 96.5852 8.59055 95.7746 7.35082L94.1007 8.44531C94.6501 9.28558 94.9577 10.3829 94.9577 11.7981H96.9577ZM95.7866 7.36951C95.0194 6.1374 93.9548 5.21537 92.6167 4.61556L91.7986 6.44057C92.7805 6.88076 93.5359 7.53873 94.0888 8.42662L95.7866 7.36951ZM92.6297 4.62148C91.315 4.00946 89.8264 3.71807 88.1877 3.71807V5.71807C89.5889 5.71807 90.7803 5.96667 91.7856 6.43465L92.6297 4.62148ZM88.1877 3.71807C86.5663 3.71807 85.081 4.01037 83.7515 4.61876L84.5838 6.43737C85.6143 5.96576 86.809 5.71807 88.1877 5.71807V3.71807ZM83.7644 4.61298C82.4091 5.21021 81.3247 6.12855 80.536 7.35811L82.2194 8.43802C82.7906 7.54758 83.5662 6.88592 84.5709 6.44315L83.7644 4.61298ZM80.5407 7.35082C79.7301 8.59055 79.3577 10.0933 79.3577 11.7981H81.3577C81.3577 10.3829 81.6652 9.28558 82.2146 8.44531L80.5407 7.35082ZM79.3577 11.7981C79.3577 13.5209 79.7292 15.0404 80.536 16.298L82.2194 15.2181C81.6661 14.3557 81.3577 13.2352 81.3577 11.7981H79.3577ZM80.5407 16.3053C81.3308 17.5137 82.4143 18.4182 83.7644 19.0132L84.5709 17.183C83.561 16.7379 82.7846 16.0825 82.2146 15.2108L80.5407 16.3053ZM83.7644 19.0132C85.0905 19.5975 86.5713 19.8781 88.1877 19.8781V17.8781C86.804 17.8781 85.6048 17.6386 84.5709 17.183L83.7644 19.0132ZM116.041 2.07807V1.07807H115.548L115.248 1.46976L116.041 2.07807ZM120.091 2.07807L120.873 2.70222L122.17 1.07807H120.091V2.07807ZM111.631 12.6681L112.338 13.3752L112.378 13.3358L112.413 13.2922L111.631 12.6681ZM111.541 12.7581L110.834 12.051L110.782 12.1036L110.737 12.1634L111.541 12.7581ZM105.061 21.5181V22.5181H105.565L105.865 22.1128L105.061 21.5181ZM100.981 21.5181L100.192 20.9046L98.9381 22.5181H100.981V21.5181ZM109.651 10.3581L109.097 9.52602L108.961 9.61619L108.862 9.74457L109.651 10.3581ZM109.741 10.2981L110.296 11.1301L110.434 11.0381L110.535 10.9064L109.741 10.2981ZM105.361 2.07807L106.163 1.4804L105.863 1.07807H105.361V2.07807ZM111.511 10.3281L112.406 9.88086L112.366 9.80152L112.313 9.7304L111.511 10.3281ZM111.541 10.3881L110.647 10.8353L110.691 10.9227L110.75 10.9999L111.541 10.3881ZM120.151 21.5181V22.5181H122.189L120.942 20.9062L120.151 21.5181ZM115.831 21.5181L115.018 22.0998L115.317 22.5181H115.831V21.5181ZM109.501 12.6681L110.315 12.0863L110.267 12.0193L110.208 11.961L109.501 12.6681ZM109.441 12.6081L108.651 13.2206L108.689 13.2705L108.734 13.3152L109.441 12.6081ZM101.281 2.07807V1.07807H99.2412L100.491 2.6906L101.281 2.07807ZM116.041 3.07807H120.091V1.07807H116.041V3.07807ZM119.31 1.45391L110.85 12.0439L112.413 13.2922L120.873 2.70222L119.31 1.45391ZM110.924 11.961L110.834 12.051L112.248 13.4652L112.338 13.3752L110.924 11.961ZM110.737 12.1634L104.257 20.9234L105.865 22.1128L112.345 13.3528L110.737 12.1634ZM105.061 20.5181H100.981V22.5181H105.061V20.5181ZM101.771 22.1316L110.441 10.9716L108.862 9.74457L100.192 20.9046L101.771 22.1316ZM110.206 11.1901L110.296 11.1301L109.187 9.46602L109.097 9.52602L110.206 11.1901ZM110.535 10.9064L116.835 2.68638L115.248 1.46976L108.948 9.68976L110.535 10.9064ZM104.56 2.67573L110.71 10.9257L112.313 9.7304L106.163 1.4804L104.56 2.67573ZM110.617 10.7753L110.647 10.8353L112.436 9.94086L112.406 9.88086L110.617 10.7753ZM110.75 10.9999L119.36 22.1299L120.942 20.9062L112.332 9.77619L110.75 10.9999ZM120.151 20.5181H115.831V22.5181H120.151V20.5181ZM116.645 20.9363L110.315 12.0863L108.688 13.2498L115.018 22.0998L116.645 20.9363ZM110.208 11.961L110.148 11.901L108.734 13.3152L108.794 13.3752L110.208 11.961ZM110.232 11.9955L102.072 1.46553L100.491 2.6906L108.651 13.2206L110.232 11.9955ZM101.281 3.07807H105.361V1.07807H101.281V3.07807ZM127.104 13.2381V12.2381H126.104V13.2381H127.104ZM127.104 18.5781H126.104V19.5781H127.104V18.5781ZM140.754 18.5781H141.754V17.5781H140.754V18.5781ZM140.754 21.5181V22.5181H141.754V21.5181H140.754ZM123.684 21.5181H122.684V22.5181H123.684V21.5181ZM123.684 2.07807V1.07807H122.684V2.07807H123.684ZM140.724 2.07807H141.724V1.07807H140.724V2.07807ZM140.724 5.01807V6.01807H141.724V5.01807H140.724ZM127.104 5.01807V4.01807H126.104V5.01807H127.104ZM127.104 10.4181H126.104V11.4181H127.104V10.4181ZM138.264 10.4181H139.264V9.41807H138.264V10.4181ZM138.264 13.2381V14.2381H139.264V13.2381H138.264ZM126.104 13.2381V18.5781H128.104V13.2381H126.104ZM127.104 19.5781H140.754V17.5781H127.104V19.5781ZM139.754 18.5781V21.5181H141.754V18.5781H139.754ZM140.754 20.5181H123.684V22.5181H140.754V20.5181ZM124.684 21.5181V2.07807H122.684V21.5181H124.684ZM123.684 3.07807H140.724V1.07807H123.684V3.07807ZM139.724 2.07807V5.01807H141.724V2.07807H139.724ZM140.724 4.01807H127.104V6.01807H140.724V4.01807ZM126.104 5.01807V10.4181H128.104V5.01807H126.104ZM127.104 11.4181H138.264V9.41807H127.104V11.4181ZM137.264 10.4181V13.2381H139.264V10.4181H137.264ZM138.264 12.2381H127.104V14.2381H138.264V12.2381ZM148.405 18.2781H149.405V17.2781H148.405V18.2781ZM148.405 21.5181V22.5181H149.405V21.5181H148.405ZM144.415 21.5181H143.415V22.5181H144.415V21.5181ZM144.415 18.2781V17.2781H143.415V18.2781H144.415ZM147.405 18.2781V21.5181H149.405V18.2781H147.405ZM148.405 20.5181H144.415V22.5181H148.405V20.5181ZM145.415 21.5181V18.2781H143.415V21.5181H145.415ZM144.415 19.2781H148.405V17.2781H144.415V19.2781Z" fill="#222222" mask="url(#path-1-outside-1_94_2819)"/>
</svg>
