<svg width="150" height="23" viewBox="0 0 150 23" fill="none" xmlns="http://www.w3.org/2000/svg">
<mask id="path-1-outside-1_92_2054" maskUnits="userSpaceOnUse" x="0" y="0" width="150" height="23" fill="black">
<rect fill="white" width="150" height="23"/>
<path d="M10.67 1.56C12.77 1.56 14.53 1.82 15.95 2.34C17.37 2.86 18.5 3.57 19.34 4.47C20.18 5.35 20.78 6.37 21.14 7.53C21.52 8.69 21.71 9.91 21.71 11.19C21.71 12.49 21.51 13.73 21.11 14.91C20.71 16.09 20.07 17.14 19.19 18.06C18.33 18.96 17.2 19.68 15.8 20.22C14.4 20.74 12.69 21 10.67 21H1.34V1.56H10.67ZM4.76 18H10.64C12.12 18 13.35 17.81 14.33 17.43C15.31 17.05 16.09 16.54 16.67 15.9C17.25 15.24 17.66 14.51 17.9 13.71C18.14 12.89 18.26 12.05 18.26 11.19C18.26 10.33 18.14 9.51 17.9 8.73C17.66 7.93 17.25 7.22 16.67 6.6C16.09 5.96 15.31 5.46 14.33 5.1C13.35 4.72 12.12 4.53 10.64 4.53H4.76V18ZM25.5685 21V1.56H37.0585C38.4985 1.56 39.7485 1.77 40.8085 2.19C41.8685 2.59 42.6885 3.22 43.2685 4.08C43.8485 4.92 44.1385 6 44.1385 7.32C44.1385 8.2 43.9885 8.96 43.6885 9.6C43.3885 10.22 42.9685 10.73 42.4285 11.13C41.8885 11.53 41.2585 11.84 40.5385 12.06C39.8385 12.28 39.0885 12.42 38.2885 12.48L37.9885 12.27C39.2685 12.29 40.3285 12.41 41.1685 12.63C42.0085 12.83 42.6485 13.22 43.0885 13.8C43.5285 14.36 43.7485 15.19 43.7485 16.29V21H40.3585V16.47C40.3585 15.71 40.2185 15.12 39.9385 14.7C39.6785 14.26 39.2185 13.96 38.5585 13.8C37.9185 13.62 36.9985 13.53 35.7985 13.53H28.9885V21H25.5685ZM28.9885 10.74H37.0585C38.2585 10.74 39.1685 10.44 39.7885 9.84C40.4085 9.24 40.7185 8.45 40.7185 7.47C40.7185 6.53 40.4085 5.81 39.7885 5.31C39.1685 4.79 38.2585 4.53 37.0585 4.53H28.9885V10.74ZM48.8729 1.56H52.2929V21H48.8729V1.56ZM63.8614 21L55.7914 1.56H59.5114L66.4414 18.93H65.3314L72.2314 1.56H75.8914L67.9114 21H63.8614ZM88.1877 21.36C85.9077 21.36 83.9177 20.95 82.2177 20.13C80.5377 19.31 79.2277 18.15 78.2877 16.65C77.3677 15.15 76.9077 13.36 76.9077 11.28C76.9077 9.2 77.3677 7.41 78.2877 5.91C79.2277 4.39 80.5377 3.23 82.2177 2.43C83.9177 1.61 85.9077 1.2 88.1877 1.2C90.4877 1.2 92.4777 1.61 94.1577 2.43C95.8377 3.23 97.1377 4.39 98.0577 5.91C98.9977 7.41 99.4677 9.2 99.4677 11.28C99.4677 13.36 98.9977 15.15 98.0577 16.65C97.1377 18.15 95.8377 19.31 94.1577 20.13C92.4777 20.95 90.4877 21.36 88.1877 21.36ZM88.1877 18.36C89.7077 18.36 91.0477 18.1 92.2077 17.58C93.3677 17.06 94.2777 16.28 94.9377 15.24C95.6177 14.18 95.9577 12.86 95.9577 11.28C95.9577 9.72 95.6177 8.42 94.9377 7.38C94.2777 6.32 93.3677 5.53 92.2077 5.01C91.0477 4.47 89.7077 4.2 88.1877 4.2C86.6877 4.2 85.3477 4.47 84.1677 5.01C82.9877 5.53 82.0577 6.32 81.3777 7.38C80.6977 8.42 80.3577 9.72 80.3577 11.28C80.3577 12.86 80.6977 14.18 81.3777 15.24C82.0577 16.28 82.9877 17.06 84.1677 17.58C85.3477 18.1 86.6877 18.36 88.1877 18.36ZM116.041 1.56H120.091L111.631 12.15L111.541 12.24L105.061 21H100.981L109.651 9.84L109.741 9.78L116.041 1.56ZM105.361 1.56L111.511 9.81L111.541 9.87L120.151 21H115.831L109.501 12.15L109.441 12.09L101.281 1.56H105.361ZM127.104 12.72V18.06H140.754V21H123.684V1.56H140.724V4.5H127.104V9.9H138.264V12.72H127.104ZM148.405 17.76V21H144.415V17.76H148.405Z"/>
</mask>
<path d="M10.67 1.56C12.77 1.56 14.53 1.82 15.95 2.34C17.37 2.86 18.5 3.57 19.34 4.47C20.18 5.35 20.78 6.37 21.14 7.53C21.52 8.69 21.71 9.91 21.71 11.19C21.71 12.49 21.51 13.73 21.11 14.91C20.71 16.09 20.07 17.14 19.19 18.06C18.33 18.96 17.2 19.68 15.8 20.22C14.4 20.74 12.69 21 10.67 21H1.34V1.56H10.67ZM4.76 18H10.64C12.12 18 13.35 17.81 14.33 17.43C15.31 17.05 16.09 16.54 16.67 15.9C17.25 15.24 17.66 14.51 17.9 13.71C18.14 12.89 18.26 12.05 18.26 11.19C18.26 10.33 18.14 9.51 17.9 8.73C17.66 7.93 17.25 7.22 16.67 6.6C16.09 5.96 15.31 5.46 14.33 5.1C13.35 4.72 12.12 4.53 10.64 4.53H4.76V18ZM25.5685 21V1.56H37.0585C38.4985 1.56 39.7485 1.77 40.8085 2.19C41.8685 2.59 42.6885 3.22 43.2685 4.08C43.8485 4.92 44.1385 6 44.1385 7.32C44.1385 8.2 43.9885 8.96 43.6885 9.6C43.3885 10.22 42.9685 10.73 42.4285 11.13C41.8885 11.53 41.2585 11.84 40.5385 12.06C39.8385 12.28 39.0885 12.42 38.2885 12.48L37.9885 12.27C39.2685 12.29 40.3285 12.41 41.1685 12.63C42.0085 12.83 42.6485 13.22 43.0885 13.8C43.5285 14.36 43.7485 15.19 43.7485 16.29V21H40.3585V16.47C40.3585 15.71 40.2185 15.12 39.9385 14.7C39.6785 14.26 39.2185 13.96 38.5585 13.8C37.9185 13.62 36.9985 13.53 35.7985 13.53H28.9885V21H25.5685ZM28.9885 10.74H37.0585C38.2585 10.74 39.1685 10.44 39.7885 9.84C40.4085 9.24 40.7185 8.45 40.7185 7.47C40.7185 6.53 40.4085 5.81 39.7885 5.31C39.1685 4.79 38.2585 4.53 37.0585 4.53H28.9885V10.74ZM48.8729 1.56H52.2929V21H48.8729V1.56ZM63.8614 21L55.7914 1.56H59.5114L66.4414 18.93H65.3314L72.2314 1.56H75.8914L67.9114 21H63.8614ZM88.1877 21.36C85.9077 21.36 83.9177 20.95 82.2177 20.13C80.5377 19.31 79.2277 18.15 78.2877 16.65C77.3677 15.15 76.9077 13.36 76.9077 11.28C76.9077 9.2 77.3677 7.41 78.2877 5.91C79.2277 4.39 80.5377 3.23 82.2177 2.43C83.9177 1.61 85.9077 1.2 88.1877 1.2C90.4877 1.2 92.4777 1.61 94.1577 2.43C95.8377 3.23 97.1377 4.39 98.0577 5.91C98.9977 7.41 99.4677 9.2 99.4677 11.28C99.4677 13.36 98.9977 15.15 98.0577 16.65C97.1377 18.15 95.8377 19.31 94.1577 20.13C92.4777 20.95 90.4877 21.36 88.1877 21.36ZM88.1877 18.36C89.7077 18.36 91.0477 18.1 92.2077 17.58C93.3677 17.06 94.2777 16.28 94.9377 15.24C95.6177 14.18 95.9577 12.86 95.9577 11.28C95.9577 9.72 95.6177 8.42 94.9377 7.38C94.2777 6.32 93.3677 5.53 92.2077 5.01C91.0477 4.47 89.7077 4.2 88.1877 4.2C86.6877 4.2 85.3477 4.47 84.1677 5.01C82.9877 5.53 82.0577 6.32 81.3777 7.38C80.6977 8.42 80.3577 9.72 80.3577 11.28C80.3577 12.86 80.6977 14.18 81.3777 15.24C82.0577 16.28 82.9877 17.06 84.1677 17.58C85.3477 18.1 86.6877 18.36 88.1877 18.36ZM116.041 1.56H120.091L111.631 12.15L111.541 12.24L105.061 21H100.981L109.651 9.84L109.741 9.78L116.041 1.56ZM105.361 1.56L111.511 9.81L111.541 9.87L120.151 21H115.831L109.501 12.15L109.441 12.09L101.281 1.56H105.361ZM127.104 12.72V18.06H140.754V21H123.684V1.56H140.724V4.5H127.104V9.9H138.264V12.72H127.104ZM148.405 17.76V21H144.415V17.76H148.405Z" fill="white"/>
<path d="M15.95 2.34L16.2939 1.40098V1.40098L15.95 2.34ZM19.34 4.47L18.6089 5.15236L18.6166 5.16048L19.34 4.47ZM21.14 7.53L20.1849 7.8264L20.1873 7.83387L20.1897 7.84131L21.14 7.53ZM21.11 14.91L22.0571 15.231V15.231L21.11 14.91ZM19.19 18.06L18.4674 17.3688L18.467 17.3691L19.19 18.06ZM15.8 20.22L16.1482 21.1575L16.1599 21.153L15.8 20.22ZM1.34 21H0.34V22H1.34V21ZM1.34 1.56V0.56H0.34V1.56H1.34ZM4.76 18H3.76V19H4.76V18ZM14.33 17.43L14.6915 18.3624L14.33 17.43ZM16.67 15.9L17.411 16.5715L17.4161 16.5659L17.4212 16.5601L16.67 15.9ZM17.9 13.71L18.8578 13.9974L18.8597 13.9909L17.9 13.71ZM17.9 8.73L16.9422 9.01735L16.9442 9.02409L17.9 8.73ZM16.67 6.6L15.929 7.27152L15.9343 7.27738L15.9397 7.28316L16.67 6.6ZM14.33 5.1L13.9685 6.03236L13.9768 6.03559L13.9852 6.03867L14.33 5.1ZM4.76 4.53V3.53H3.76V4.53H4.76ZM10.67 2.56C12.6949 2.56 14.33 2.8117 15.6061 3.27902L16.2939 1.40098C14.73 0.828302 12.8451 0.56 10.67 0.56V2.56ZM15.6061 3.27902C16.9118 3.75715 17.8978 4.39035 18.6089 5.15232L20.0711 3.78768C19.1022 2.74965 17.8282 1.96284 16.2939 1.40098L15.6061 3.27902ZM18.6166 5.16048C19.3502 5.92896 19.8708 6.81414 20.1849 7.8264L22.0951 7.2336C21.6892 5.92586 21.0098 4.77104 20.0634 3.77952L18.6166 5.16048ZM20.1897 7.84131C20.5352 8.89601 20.71 10.0106 20.71 11.19H22.71C22.71 9.80943 22.5048 8.48398 22.0903 7.21869L20.1897 7.84131ZM20.71 11.19C20.71 12.3856 20.5264 13.5168 20.1629 14.589L22.0571 15.231C22.4936 13.9432 22.71 12.5944 22.71 11.19H20.71ZM20.1629 14.589C19.8109 15.6276 19.2487 16.5519 18.4674 17.3688L19.9126 18.7512C20.8913 17.7281 21.6091 16.5524 22.0571 15.231L20.1629 14.589ZM18.467 17.3691C17.7275 18.1431 16.7305 18.7893 15.4401 19.287L16.1599 21.153C17.6695 20.5707 18.9325 19.7769 19.913 18.7509L18.467 17.3691ZM15.4518 19.2826C14.1949 19.7494 12.6103 20 10.67 20V22C12.7697 22 14.6051 21.7306 16.1482 21.1574L15.4518 19.2826ZM10.67 20H1.34V22H10.67V20ZM2.34 21V1.56H0.34V21H2.34ZM1.34 2.56H10.67V0.56H1.34V2.56ZM4.76 19H10.64V17H4.76V19ZM10.64 19C12.197 19 13.5596 18.8013 14.6915 18.3624L13.9685 16.4976C13.1404 16.8187 12.043 17 10.64 17V19ZM14.6915 18.3624C15.7856 17.9381 16.7063 17.3491 17.411 16.5715L15.929 15.2285C15.4737 15.7308 14.8344 16.1619 13.9685 16.4976L14.6915 18.3624ZM17.4212 16.5601C18.091 15.7979 18.5744 14.9421 18.8578 13.9973L16.9422 13.4227C16.7456 14.0779 16.409 14.6821 15.9188 15.2399L17.4212 16.5601ZM18.8597 13.9909C19.1266 13.0791 19.26 12.1444 19.26 11.19H17.26C17.26 11.9556 17.1534 12.7009 16.9403 13.4291L18.8597 13.9909ZM19.26 11.19C19.26 10.2357 19.1266 9.3162 18.8558 8.43591L16.9442 9.02409C17.1534 9.7038 17.26 10.4243 17.26 11.19H19.26ZM18.8578 8.44265C18.5728 7.49243 18.0838 6.64754 17.4003 5.91684L15.9397 7.28316C16.4162 7.79246 16.7472 8.36757 16.9422 9.01735L18.8578 8.44265ZM17.411 5.92848C16.702 5.14619 15.7751 4.56553 14.6748 4.16133L13.9852 6.03867C14.8449 6.35447 15.478 6.77381 15.929 7.27152L17.411 5.92848ZM14.6915 4.16764C13.5596 3.72871 12.197 3.53 10.64 3.53V5.53C12.043 5.53 13.1404 5.71129 13.9685 6.03236L14.6915 4.16764ZM10.64 3.53H4.76V5.53H10.64V3.53ZM3.76 4.53V18H5.76V4.53H3.76ZM25.5685 21H24.5685V22H25.5685V21ZM25.5685 1.56V0.56H24.5685V1.56H25.5685ZM40.8085 2.19L40.4402 3.11968L40.4478 3.1227L40.4555 3.1256L40.8085 2.19ZM43.2685 4.08L42.4394 4.63917L42.4456 4.64819L43.2685 4.08ZM43.6885 9.6L44.5887 10.0356L44.594 10.0244L43.6885 9.6ZM42.4285 11.13L41.8333 10.3264L42.4285 11.13ZM40.5385 12.06L40.2463 11.1036L40.2387 11.106L40.5385 12.06ZM38.2885 12.48L37.7151 13.2992L38.0074 13.5039L38.3633 13.4772L38.2885 12.48ZM37.9885 12.27L38.0041 11.2701L34.7435 11.2192L37.4151 13.0892L37.9885 12.27ZM41.1685 12.63L40.9152 13.5974L40.926 13.6002L40.9369 13.6028L41.1685 12.63ZM43.0885 13.8L42.2918 14.4044L42.297 14.4111L42.3022 14.4178L43.0885 13.8ZM43.7485 21V22H44.7485V21H43.7485ZM40.3585 21H39.3585V22H40.3585V21ZM39.9385 14.7L39.0776 15.2087L39.0914 15.2321L39.1065 15.2547L39.9385 14.7ZM38.5585 13.8L38.2878 14.7627L38.3053 14.7676L38.3229 14.7718L38.5585 13.8ZM28.9885 13.53V12.53H27.9885V13.53H28.9885ZM28.9885 21V22H29.9885V21H28.9885ZM28.9885 10.74H27.9885V11.74H28.9885V10.74ZM39.7885 9.84L40.4839 10.5586V10.5586L39.7885 9.84ZM39.7885 5.31L39.1459 6.07619L39.1533 6.08237L39.1608 6.08841L39.7885 5.31ZM28.9885 4.53V3.53H27.9885V4.53H28.9885ZM26.5685 21V1.56H24.5685V21H26.5685ZM25.5685 2.56H37.0585V0.56H25.5685V2.56ZM37.0585 2.56C38.4042 2.56 39.5238 2.75659 40.4402 3.11968L41.1769 1.26032C39.9733 0.783414 38.5928 0.56 37.0585 0.56V2.56ZM40.4555 3.1256C41.3404 3.45954 41.986 3.96683 42.4394 4.63914L44.0976 3.52086C43.391 2.47317 42.3966 1.72046 41.1616 1.2544L40.4555 3.1256ZM42.4456 4.64819C42.8807 5.27833 43.1385 6.14383 43.1385 7.32H45.1385C45.1385 5.85617 44.8163 4.56167 44.0914 3.51181L42.4456 4.64819ZM43.1385 7.32C43.1385 8.08831 43.0075 8.69681 42.7831 9.17557L44.594 10.0244C44.9696 9.22318 45.1385 8.31169 45.1385 7.32H43.1385ZM42.7884 9.16444C42.5569 9.6427 42.2401 10.0251 41.8333 10.3264L43.0237 11.9336C43.697 11.4349 44.2201 10.7973 44.5887 10.0356L42.7884 9.16444ZM41.8333 10.3264C41.3952 10.651 40.8703 10.913 40.2463 11.1036L40.8307 13.0164C41.6467 12.767 42.3819 12.409 43.0237 11.9336L41.8333 10.3264ZM40.2387 11.106C39.6182 11.301 38.9443 11.428 38.2137 11.4828L38.3633 13.4772C39.2327 13.412 40.0588 13.259 40.8383 13.014L40.2387 11.106ZM38.862 11.6608L38.562 11.4508L37.4151 13.0892L37.7151 13.2992L38.862 11.6608ZM37.9729 13.2699C39.2067 13.2892 40.18 13.4048 40.9152 13.5974L41.4219 11.6626C40.477 11.4152 39.3303 11.2908 38.0041 11.2701L37.9729 13.2699ZM40.9369 13.6028C41.5953 13.7596 42.0168 14.0419 42.2918 14.4044L43.8852 13.1956C43.2802 12.3981 42.4217 11.9004 41.4001 11.6572L40.9369 13.6028ZM42.3022 14.4178C42.5463 14.7285 42.7485 15.2988 42.7485 16.29H44.7485C44.7485 15.0812 44.5107 13.9915 43.8748 13.1822L42.3022 14.4178ZM42.7485 16.29V21H44.7485V16.29H42.7485ZM43.7485 20H40.3585V22H43.7485V20ZM41.3585 21V16.47H39.3585V21H41.3585ZM41.3585 16.47C41.3585 15.6061 41.2025 14.7931 40.7706 14.1453L39.1065 15.2547C39.2346 15.4469 39.3585 15.8139 39.3585 16.47H41.3585ZM40.7994 14.1913C40.3613 13.4499 39.6269 13.03 38.7941 12.8281L38.3229 14.7718C38.8101 14.89 38.9957 15.0701 39.0776 15.2087L40.7994 14.1913ZM38.8293 12.8373C38.0572 12.6202 37.0292 12.53 35.7985 12.53V14.53C36.9679 14.53 37.7798 14.6198 38.2878 14.7627L38.8293 12.8373ZM35.7985 12.53H28.9885V14.53H35.7985V12.53ZM27.9885 13.53V21H29.9885V13.53H27.9885ZM28.9885 20H25.5685V22H28.9885V20ZM28.9885 11.74H37.0585V9.74H28.9885V11.74ZM37.0585 11.74C38.4154 11.74 39.6148 11.3997 40.4839 10.5586L39.0931 9.1214C38.7223 9.48028 38.1017 9.74 37.0585 9.74V11.74ZM40.4839 10.5586C41.3258 9.74393 41.7185 8.68063 41.7185 7.47H39.7185C39.7185 8.21937 39.4913 8.73607 39.0931 9.1214L40.4839 10.5586ZM41.7185 7.47C41.7185 6.28837 41.3152 5.25655 40.4163 4.53159L39.1608 6.08841C39.5018 6.36345 39.7185 6.77163 39.7185 7.47H41.7185ZM40.4311 4.54381C39.5618 3.81467 38.3837 3.53 37.0585 3.53V5.53C38.1334 5.53 38.7753 5.76533 39.1459 6.07619L40.4311 4.54381ZM37.0585 3.53H28.9885V5.53H37.0585V3.53ZM27.9885 4.53V10.74H29.9885V4.53H27.9885ZM48.8729 1.56V0.56H47.8729V1.56H48.8729ZM52.2929 1.56H53.2929V0.56H52.2929V1.56ZM52.2929 21V22H53.2929V21H52.2929ZM48.8729 21H47.8729V22H48.8729V21ZM48.8729 2.56H52.2929V0.56H48.8729V2.56ZM51.2929 1.56V21H53.2929V1.56H51.2929ZM52.2929 20H48.8729V22H52.2929V20ZM49.8729 21V1.56H47.8729V21H49.8729ZM63.8614 21L62.9378 21.3834L63.1938 22H63.8614V21ZM55.7914 1.56V0.56H54.2935L54.8678 1.9434L55.7914 1.56ZM59.5114 1.56L60.4402 1.18944L60.1891 0.56H59.5114V1.56ZM66.4414 18.93V19.93H67.917L67.3702 18.5594L66.4414 18.93ZM65.3314 18.93L64.402 18.5608L63.8582 19.93H65.3314V18.93ZM72.2314 1.56V0.56H71.5526L71.302 1.19082L72.2314 1.56ZM75.8914 1.56L76.8165 1.93974L77.3829 0.56H75.8914V1.56ZM67.9114 21V22H68.5819L68.8365 21.3797L67.9114 21ZM64.785 20.6166L56.715 1.1766L54.8678 1.9434L62.9378 21.3834L64.785 20.6166ZM55.7914 2.56H59.5114V0.56H55.7914V2.56ZM58.5826 1.93056L65.5126 19.3006L67.3702 18.5594L60.4402 1.18944L58.5826 1.93056ZM66.4414 17.93H65.3314V19.93H66.4414V17.93ZM66.2608 19.2992L73.1608 1.92918L71.302 1.19082L64.402 18.5608L66.2608 19.2992ZM72.2314 2.56H75.8914V0.56H72.2314V2.56ZM74.9663 1.18026L66.9863 20.6203L68.8365 21.3797L76.8165 1.93974L74.9663 1.18026ZM67.9114 20H63.8614V22H67.9114V20ZM82.2177 20.13L81.779 21.0287L81.7832 21.0307L82.2177 20.13ZM78.2877 16.65L77.4352 17.1729L77.4403 17.181L78.2877 16.65ZM78.2877 5.91L77.4371 5.38403L77.4352 5.38717L78.2877 5.91ZM82.2177 2.43L82.6476 3.33287L82.6521 3.33069L82.2177 2.43ZM94.1577 2.43L93.719 3.32871L93.7277 3.33286L94.1577 2.43ZM98.0577 5.91L97.2022 6.4278L97.2062 6.43444L97.2103 6.44101L98.0577 5.91ZM98.0577 16.65L97.2103 16.119L97.2052 16.1272L98.0577 16.65ZM94.1577 20.13L93.719 19.2313L94.1577 20.13ZM92.2077 17.58L92.6167 18.4925L92.2077 17.58ZM94.9377 15.24L94.096 14.7L94.0933 14.7042L94.9377 15.24ZM94.9377 7.38L94.0888 7.90856L94.0946 7.91797L94.1007 7.92725L94.9377 7.38ZM92.2077 5.01L91.7856 5.91658L91.7921 5.91959L91.7986 5.92251L92.2077 5.01ZM84.1677 5.01L84.571 5.92518L84.5838 5.91931L84.1677 5.01ZM81.3777 7.38L82.2147 7.92727L82.2194 7.91995L81.3777 7.38ZM81.3777 15.24L80.5359 15.78L80.5407 15.7872L81.3777 15.24ZM84.1677 17.58L83.7644 18.4951L84.1677 17.58ZM88.1877 20.36C86.0273 20.36 84.1913 19.9718 82.6521 19.2293L81.7832 21.0307C83.644 21.9282 85.788 22.36 88.1877 22.36V20.36ZM82.6563 19.2313C81.1344 18.4885 79.9701 17.4516 79.135 16.119L77.4403 17.181C78.4852 18.8484 79.941 20.1315 81.779 21.0287L82.6563 19.2313ZM79.1401 16.1272C78.3329 14.8111 77.9077 13.2094 77.9077 11.28H75.9077C75.9077 13.5106 76.4024 15.4889 77.4352 17.1728L79.1401 16.1272ZM77.9077 11.28C77.9077 9.35058 78.3329 7.74887 79.1401 6.43283L77.4352 5.38717C76.4024 7.07113 75.9077 9.04942 75.9077 11.28H77.9077ZM79.1382 6.43597C79.9728 5.08634 81.1336 4.05383 82.6476 3.33286L81.7877 1.52714C79.9418 2.40617 78.4825 3.69365 77.4371 5.38403L79.1382 6.43597ZM82.6521 3.33069C84.1913 2.58824 86.0273 2.2 88.1877 2.2V0.199999C85.788 0.199999 83.644 0.631755 81.7832 1.5293L82.6521 3.33069ZM88.1877 2.2C90.37 2.2 92.2034 2.58892 93.719 3.32867L94.5963 1.53133C92.7519 0.631079 90.6053 0.199999 88.1877 0.199999V2.2ZM93.7277 3.33286C95.2401 4.05303 96.3883 5.08312 97.2022 6.4278L98.9132 5.3922C97.887 3.69688 96.4352 2.40697 94.5876 1.52714L93.7277 3.33286ZM97.2103 6.44101C98.0342 7.75577 98.4677 9.35446 98.4677 11.28H100.468C100.468 9.04554 99.9611 7.06423 98.905 5.37899L97.2103 6.44101ZM98.4677 11.28C98.4677 13.2055 98.0342 14.8042 97.2103 16.119L98.905 17.181C99.9611 15.4958 100.468 13.5145 100.468 11.28H98.4677ZM97.2052 16.1272C96.3909 17.4548 95.2393 18.4893 93.719 19.2313L94.5963 21.0287C96.436 20.1307 97.8844 18.8452 98.9101 17.1728L97.2052 16.1272ZM93.719 19.2313C92.2034 19.9711 90.37 20.36 88.1877 20.36V22.36C90.6053 22.36 92.7519 21.9289 94.5963 21.0287L93.719 19.2313ZM88.1877 19.36C89.8215 19.36 91.3054 19.0803 92.6167 18.4925L91.7986 16.6675C90.7899 17.1197 89.5938 17.36 88.1877 17.36V19.36ZM92.6167 18.4925C93.9495 17.895 95.0134 16.9869 95.782 15.7758L94.0933 14.7042C93.5419 15.5731 92.7858 16.225 91.7986 16.6675L92.6167 18.4925ZM95.7794 15.78C96.5861 14.5223 96.9577 13.0029 96.9577 11.28H94.9577C94.9577 12.7171 94.6492 13.8377 94.096 14.7L95.7794 15.78ZM96.9577 11.28C96.9577 9.57519 96.5852 8.07249 95.7746 6.83275L94.1007 7.92725C94.6501 8.76751 94.9577 9.86481 94.9577 11.28H96.9577ZM95.7866 6.85144C95.0194 5.61934 93.9548 4.69731 92.6167 4.09749L91.7986 5.92251C92.7805 6.36269 93.5359 7.02066 94.0888 7.90856L95.7866 6.85144ZM92.6297 4.10342C91.315 3.4914 89.8264 3.2 88.1877 3.2V5.2C89.5889 5.2 90.7803 5.4486 91.7856 5.91658L92.6297 4.10342ZM88.1877 3.2C86.5663 3.2 85.081 3.49231 83.7515 4.10069L84.5838 5.91931C85.6143 5.44769 86.809 5.2 88.1877 5.2V3.2ZM83.7644 4.09491C82.4091 4.69215 81.3247 5.61049 80.536 6.84004L82.2194 7.91995C82.7906 7.02951 83.5662 6.36785 84.5709 5.92508L83.7644 4.09491ZM80.5407 6.83275C79.7301 8.07249 79.3577 9.57519 79.3577 11.28H81.3577C81.3577 9.86481 81.6652 8.76751 82.2146 7.92725L80.5407 6.83275ZM79.3577 11.28C79.3577 13.0029 79.7292 14.5223 80.536 15.78L82.2194 14.7C81.6661 13.8377 81.3577 12.7171 81.3577 11.28H79.3577ZM80.5407 15.7872C81.3308 16.9956 82.4143 17.9001 83.7644 18.4951L84.5709 16.6649C83.561 16.2199 82.7846 15.5644 82.2146 14.6928L80.5407 15.7872ZM83.7644 18.4951C85.0905 19.0795 86.5713 19.36 88.1877 19.36V17.36C86.804 17.36 85.6048 17.1205 84.5709 16.6649L83.7644 18.4951ZM116.041 1.56V0.56H115.548L115.248 0.95169L116.041 1.56ZM120.091 1.56L120.873 2.18416L122.17 0.56H120.091V1.56ZM111.631 12.15L112.338 12.8571L112.378 12.8177L112.413 12.7742L111.631 12.15ZM111.541 12.24L110.834 11.5329L110.782 11.5855L110.737 11.6453L111.541 12.24ZM105.061 21V22H105.565L105.865 21.5947L105.061 21ZM100.981 21L100.192 20.3865L98.9381 22H100.981V21ZM109.651 9.84L109.097 9.00795L108.961 9.09812L108.862 9.2265L109.651 9.84ZM109.741 9.78L110.296 10.612L110.434 10.52L110.535 10.3883L109.741 9.78ZM105.361 1.56L106.163 0.962335L105.863 0.56H105.361V1.56ZM111.511 9.81L112.406 9.36279L112.366 9.28345L112.313 9.21233L111.511 9.81ZM111.541 9.87L110.647 10.3172L110.691 10.4046L110.75 10.4819L111.541 9.87ZM120.151 21V22H122.189L120.942 20.3881L120.151 21ZM115.831 21L115.018 21.5818L115.317 22H115.831V21ZM109.501 12.15L110.315 11.5682L110.267 11.5012L110.208 11.4429L109.501 12.15ZM109.441 12.09L108.651 12.7025L108.689 12.7524L108.734 12.7971L109.441 12.09ZM101.281 1.56V0.56H99.2412L100.491 2.17254L101.281 1.56ZM116.041 2.56H120.091V0.56H116.041V2.56ZM119.31 0.935845L110.85 11.5258L112.413 12.7742L120.873 2.18416L119.31 0.935845ZM110.924 11.4429L110.834 11.5329L112.248 12.9471L112.338 12.8571L110.924 11.4429ZM110.737 11.6453L104.257 20.4053L105.865 21.5947L112.345 12.8347L110.737 11.6453ZM105.061 20H100.981V22H105.061V20ZM101.771 21.6135L110.441 10.4535L108.862 9.2265L100.192 20.3865L101.771 21.6135ZM110.206 10.672L110.296 10.612L109.187 8.94795L109.097 9.00795L110.206 10.672ZM110.535 10.3883L116.835 2.16831L115.248 0.95169L108.948 9.17169L110.535 10.3883ZM104.56 2.15767L110.71 10.4077L112.313 9.21233L106.163 0.962335L104.56 2.15767ZM110.617 10.2572L110.647 10.3172L112.436 9.42279L112.406 9.36279L110.617 10.2572ZM110.75 10.4819L119.36 21.6119L120.942 20.3881L112.332 9.25813L110.75 10.4819ZM120.151 20H115.831V22H120.151V20ZM116.645 20.4182L110.315 11.5682L108.688 12.7318L115.018 21.5818L116.645 20.4182ZM110.208 11.4429L110.148 11.3829L108.734 12.7971L108.794 12.8571L110.208 11.4429ZM110.232 11.4775L102.072 0.947463L100.491 2.17254L108.651 12.7025L110.232 11.4775ZM101.281 2.56H105.361V0.56H101.281V2.56ZM127.104 12.72V11.72H126.104V12.72H127.104ZM127.104 18.06H126.104V19.06H127.104V18.06ZM140.754 18.06H141.754V17.06H140.754V18.06ZM140.754 21V22H141.754V21H140.754ZM123.684 21H122.684V22H123.684V21ZM123.684 1.56V0.56H122.684V1.56H123.684ZM140.724 1.56H141.724V0.56H140.724V1.56ZM140.724 4.5V5.5H141.724V4.5H140.724ZM127.104 4.5V3.5H126.104V4.5H127.104ZM127.104 9.9H126.104V10.9H127.104V9.9ZM138.264 9.9H139.264V8.9H138.264V9.9ZM138.264 12.72V13.72H139.264V12.72H138.264ZM126.104 12.72V18.06H128.104V12.72H126.104ZM127.104 19.06H140.754V17.06H127.104V19.06ZM139.754 18.06V21H141.754V18.06H139.754ZM140.754 20H123.684V22H140.754V20ZM124.684 21V1.56H122.684V21H124.684ZM123.684 2.56H140.724V0.56H123.684V2.56ZM139.724 1.56V4.5H141.724V1.56H139.724ZM140.724 3.5H127.104V5.5H140.724V3.5ZM126.104 4.5V9.9H128.104V4.5H126.104ZM127.104 10.9H138.264V8.9H127.104V10.9ZM137.264 9.9V12.72H139.264V9.9H137.264ZM138.264 11.72H127.104V13.72H138.264V11.72ZM148.405 17.76H149.405V16.76H148.405V17.76ZM148.405 21V22H149.405V21H148.405ZM144.415 21H143.415V22H144.415V21ZM144.415 17.76V16.76H143.415V17.76H144.415ZM147.405 17.76V21H149.405V17.76H147.405ZM148.405 20H144.415V22H148.405V20ZM145.415 21V17.76H143.415V21H145.415ZM144.415 18.76H148.405V16.76H144.415V18.76Z" fill="white" mask="url(#path-1-outside-1_92_2054)"/>
</svg>
