<svg width="23" height="24" viewBox="0 0 23 24" fill="none" xmlns="http://www.w3.org/2000/svg">
<g clip-path="url(#clip0_93_2158)">
<path d="M21.7425 10.1025L20.3942 9.02366C20.3888 9.01934 20.3834 9.01395 20.378 9.00964L21.6333 8.75844C21.8011 8.72502 21.9219 8.57767 21.9219 8.40625V7.32812C21.9219 7.12975 21.7609 6.96875 21.5625 6.96875H19.7656C19.5672 6.96875 19.4062 7.12975 19.4062 7.32812V7.95775C19.398 7.94661 19.3897 7.93547 19.3815 7.92433C19.3588 7.8618 19.3186 7.81077 19.2675 7.77016C19.0652 7.48373 18.892 7.19695 18.7791 6.94898L18.1718 5.61319C17.7847 4.76111 16.7483 4.09375 15.8125 4.09375H7.1875C6.25169 4.09375 5.21525 4.76111 4.8282 5.61319L4.22122 6.94863C4.10838 7.19659 3.93516 7.48373 3.73283 7.77016C3.6818 7.81077 3.64191 7.8618 3.61891 7.92433C3.61064 7.93547 3.60273 7.94625 3.59411 7.95775V7.32812C3.59411 7.12975 3.43311 6.96875 3.23473 6.96875H1.4375C1.23913 6.96875 1.07812 7.12975 1.07812 7.32812V8.40625C1.07812 8.57767 1.19887 8.72502 1.36706 8.75844L2.62236 9.00964C2.61697 9.01395 2.61158 9.01934 2.60619 9.02366L1.25745 10.1025C0.552359 10.6667 0 11.816 0 12.7188V18.8281C0 19.4225 0.483719 19.9062 1.07812 19.9062H3.95312C4.54753 19.9062 5.03125 19.4225 5.03125 18.8281V18.1094H17.9688V18.8281C17.9688 19.4225 18.4525 19.9062 19.0469 19.9062H21.9219C22.5163 19.9062 23 19.4225 23 18.8281V12.7188C23 11.816 22.4476 10.6667 21.7425 10.1025ZM18.4769 17.3906L17.6529 16.5666C17.3032 16.2169 16.6664 15.9531 16.1719 15.9531H6.64844C6.15394 15.9531 5.51713 16.2169 5.16745 16.5666L4.34341 17.3906H1.79688C1.20247 17.3906 0.71875 16.9069 0.71875 16.3125V14.5156H1.07812V14.875C1.07812 15.6678 1.72284 16.3125 2.51562 16.3125H3.59375C3.79212 16.3125 3.95312 16.1515 3.95312 15.9531C3.95312 15.7548 3.79212 15.5938 3.59375 15.5938H2.51562C2.11923 15.5938 1.79688 15.2714 1.79688 14.875V14.5156H2.51562C2.81391 14.5156 3.2775 14.7075 3.48845 14.9185C3.55853 14.9886 3.65053 15.0238 3.74253 15.0238C3.83453 15.0238 3.92653 14.9886 3.99661 14.9185C4.13713 14.778 4.13713 14.5508 3.99661 14.4103C3.64694 14.0607 3.01048 13.7969 2.51562 13.7969H0.71875V12.7188C0.71875 12.5919 0.738875 12.455 0.767266 12.3152C0.997266 12.5552 1.33184 12.7188 1.79688 12.7188H4.67188C4.76711 12.7188 4.85839 12.681 4.92595 12.6135L5.39062 12.1488L5.8553 12.6135C5.9225 12.681 6.01414 12.7188 6.10938 12.7188H10.2731L11.2459 13.6916C11.316 13.7617 11.408 13.7969 11.5 13.7969C11.592 13.7969 11.684 13.7617 11.7541 13.6916L12.7269 12.7188H16.8906C16.9859 12.7188 17.0775 12.681 17.1447 12.6135L17.6094 12.1488L18.074 12.6135C18.1413 12.681 18.2329 12.7188 18.3281 12.7188H21.2031C21.6682 12.7188 22.0027 12.5552 22.2327 12.3152C22.2611 12.455 22.2812 12.5919 22.2812 12.7188V13.7969H20.4844C19.9899 13.7969 19.3531 14.0607 19.0034 14.4103C18.8629 14.5508 18.8629 14.778 19.0034 14.9185C19.0735 14.9886 19.1655 15.0238 19.2575 15.0238C19.3495 15.0238 19.4415 14.9886 19.5115 14.9185C19.7225 14.7075 20.1861 14.5156 20.4844 14.5156H21.2031V14.875C21.2031 15.2714 20.8808 15.5938 20.4844 15.5938H19.4062C19.2079 15.5938 19.0469 15.7548 19.0469 15.9531C19.0469 16.1515 19.2079 16.3125 19.4062 16.3125H20.4844C21.2772 16.3125 21.9219 15.6678 21.9219 14.875V14.5156H22.2812V16.3125C22.2812 16.9069 21.7975 17.3906 21.2031 17.3906H18.4769ZM17.4606 17.3906H5.35972L5.67561 17.0747C5.88656 16.8638 6.35016 16.6719 6.64844 16.6719H16.1719C16.4702 16.6719 16.9338 16.8638 17.1447 17.0747L17.4606 17.3906ZM4.15438 8.40625H18.8456C19.1939 8.86661 19.5917 9.30217 19.945 9.585L20.3773 9.93072L17.8354 10.9474C17.8351 10.9474 17.8351 10.9478 17.8347 10.9478C17.7912 10.9654 17.7502 10.9916 17.715 11.0268L17.3557 11.3862L16.7418 12H12.5781C12.4829 12 12.3912 12.0377 12.324 12.1053L11.5 12.9293L10.676 12.1053C10.6088 12.0377 10.5171 12 10.4219 12H6.25816L5.6447 11.3865L5.28533 11.0272C5.25011 10.992 5.20914 10.9657 5.16566 10.9481C5.1653 10.9481 5.1653 10.9478 5.16494 10.9478L2.62308 9.93108L3.05541 9.58536C3.40831 9.30217 3.80614 8.86661 4.15438 8.40625ZM21.9007 11.4318C21.8284 11.8074 21.5956 12 21.2031 12H18.4769L18.1175 11.6406L18.1707 11.5874L21.0224 10.4468L21.2933 10.6638C21.5212 10.846 21.7314 11.1231 21.9007 11.4318ZM20.125 7.6875H21.2031V8.11156L20.125 8.32719V7.6875ZM4.87492 7.24619L5.48191 5.91075C5.75287 5.31527 6.5338 4.8125 7.1875 4.8125H15.8125C16.4662 4.8125 17.2471 5.31527 17.5177 5.91039L18.1251 7.24619C18.1883 7.38491 18.2706 7.53477 18.3608 7.6875H4.63917C4.72938 7.53477 4.81203 7.38491 4.87492 7.24619ZM1.79688 7.6875H2.875V8.32719L1.79688 8.11156V7.6875ZM1.70631 10.6638L1.97728 10.4468L4.82928 11.5874L4.88247 11.6406L4.52309 12H1.79688C1.40444 12 1.17156 11.8074 1.09933 11.4318C1.26859 11.1231 1.47847 10.846 1.70631 10.6638ZM3.95312 19.1875H1.07812C0.880109 19.1875 0.71875 19.0261 0.71875 18.8281V17.741C1.01991 17.9689 1.39078 18.1094 1.79688 18.1094H4.3125V18.8281C4.3125 19.0261 4.15114 19.1875 3.95312 19.1875ZM21.9219 19.1875H19.0469C18.8489 19.1875 18.6875 19.0261 18.6875 18.8281V18.1094H21.2031C21.6092 18.1094 21.9801 17.9689 22.2812 17.741V18.8281C22.2812 19.0261 22.1199 19.1875 21.9219 19.1875Z" fill="#FD3B3B"/>
</g>
<defs>
<clipPath id="clip0_93_2158">
<rect width="23" height="23" fill="white" transform="translate(0 0.5)"/>
</clipPath>
</defs>
</svg>
