<svg width="23" height="24" viewBox="0 0 23 24" fill="none" xmlns="http://www.w3.org/2000/svg">
<g clip-path="url(#clip0_93_2160)">
<path d="M22.5099 6.67518L18.4828 2.64813C17.8968 2.06203 16.9872 1.99366 16.3201 2.48556L14.1447 4.08955C14.0657 4.14777 14.016 4.23757 14.0087 4.33541C14.0013 4.43325 14.037 4.52943 14.1064 4.59883L14.6306 5.12307L12.3275 7.42619H10.6724L8.36918 5.12294L8.89351 4.59856C8.96292 4.52916 8.99854 4.43298 8.99122 4.33514C8.98385 4.2373 8.93417 4.1475 8.8552 4.08928L6.67988 2.48565C6.01301 1.99361 5.10343 2.06198 4.51715 2.64831L3.87947 3.28603C3.74794 3.41756 3.74794 3.63085 3.87947 3.76238C4.01101 3.89391 4.2243 3.89391 4.35583 3.76238L4.99355 3.12466C5.34237 2.77584 5.88332 2.7351 6.28007 3.02781L7.00386 3.5614L1.40323 9.16199L0.869639 8.43843C0.577151 8.04118 0.61785 7.49987 0.966402 7.15131L3.40325 4.71451C3.53479 4.58297 3.53479 4.36973 3.40325 4.23815C3.27177 4.10662 3.05848 4.10662 2.9269 4.23815L0.490047 6.67496C-0.0957843 7.26079 -0.164291 8.17042 0.327338 8.83801L1.93156 11.0135C1.98978 11.0924 2.07957 11.1421 2.17742 11.1494C2.18586 11.1501 2.19426 11.1504 2.20266 11.1504C2.29161 11.1504 2.37741 11.1151 2.44084 11.0517L2.96513 10.5274L3.35626 10.9185C2.52988 11.63 2.04638 12.6684 2.04638 13.7683C2.04638 15.5743 3.33533 17.1165 5.08402 17.4581C5.27417 18.4658 5.9919 19.2891 6.93863 19.6287V20.8386C6.93863 21.3919 7.38857 21.8421 7.94166 21.8421C8.37682 21.8421 8.74806 21.5635 8.88678 21.1755H9.36902C9.50769 21.5635 9.8787 21.8421 10.3137 21.8421C10.7488 21.8421 11.1201 21.5635 11.2588 21.1755H11.7412C11.8799 21.5634 12.251 21.8419 12.6861 21.8419C13.1211 21.8419 13.4922 21.5634 13.6309 21.1755H14.1133C14.252 21.5634 14.6232 21.8419 15.0582 21.8419C15.6114 21.8419 16.0614 21.3919 16.0614 20.8387V18.1906C16.5897 18.1177 17.0645 17.8759 17.4298 17.5214C18.1032 17.4792 18.7502 17.2573 19.3089 16.8757C19.4625 16.7708 19.502 16.5612 19.3971 16.4076C19.2922 16.254 19.0826 16.2145 18.929 16.3194C18.6331 16.5215 18.3068 16.6686 17.9642 16.7571C18.0723 16.5143 18.1421 16.2511 18.1658 15.9747C19.0356 15.5924 19.6052 14.7336 19.6052 13.7683C19.6052 13.0205 19.2617 12.3284 18.6868 11.8755L19.1658 11.3964C19.868 11.9809 20.2799 12.8485 20.2799 13.7682C20.2799 14.3703 20.1057 14.9539 19.776 15.4562C19.674 15.6117 19.7173 15.8205 19.8728 15.9226C19.9298 15.96 19.9939 15.9779 20.0573 15.9779C20.167 15.9779 20.2745 15.9244 20.3392 15.8258C20.7411 15.2135 20.9536 14.502 20.9536 13.7683C20.9536 12.6682 20.47 11.6298 19.6436 10.9188L20.0349 10.5274L20.5592 11.0517C20.6226 11.1151 20.7084 11.1503 20.7974 11.1503C20.8058 11.1503 20.8142 11.15 20.8226 11.1494C20.9205 11.142 21.0103 11.0924 21.0685 11.0134L22.6725 8.83805C23.1644 8.17082 23.096 7.26124 22.5099 6.67518ZM17.0792 9.78623C17.0792 9.70168 17.1122 9.62217 17.172 9.56238L18.121 8.61335L18.5686 9.061L17.6196 10.01C17.5598 10.0698 17.4804 10.1027 17.3958 10.1027C17.3113 10.1027 17.2318 10.0698 17.172 10.01C17.1122 9.95028 17.0792 9.87077 17.0792 9.78623ZM16.2454 6.7378L16.5447 7.03708L15.5956 7.9861C15.5358 8.04589 15.4564 8.07882 15.3718 8.07882C15.2872 8.07882 15.2078 8.04589 15.1479 7.9861C15.0245 7.8627 15.0245 7.66185 15.1479 7.53845L16.097 6.58943L16.2454 6.7378ZM15.107 5.59943L15.6207 6.11307L14.6716 7.0621C14.2856 7.44816 14.2856 8.07635 14.6716 8.46241C14.8586 8.64942 15.1073 8.75243 15.3718 8.75243C15.6363 8.75243 15.8849 8.64942 16.072 8.46241L17.021 7.51339L17.6446 8.13704L16.6956 9.08607C16.5086 9.27308 16.4056 9.52177 16.4056 9.78623C16.4056 10.0507 16.5086 10.2994 16.6956 10.4864C16.8826 10.6734 17.1313 10.7764 17.3958 10.7764C17.6603 10.7764 17.9089 10.6734 18.0959 10.4864L19.045 9.53736L19.5586 10.051L17.395 12.2146L12.9434 7.76306L15.107 5.59943ZM13.6892 18.2145H14.055V20.5018H13.6892V18.2145ZM11.3771 17.5409L13.2758 15.6769C13.2748 15.7057 13.2736 15.7344 13.2736 15.7634C13.2736 16.4627 13.5684 17.094 14.0397 17.5409H11.3771ZM8.94508 19.6012C9.07154 19.552 9.19364 19.4941 9.31071 19.4282V20.5018H8.94508V19.6012ZM11.3172 18.2145H11.6829V20.5018H11.3172V18.2145ZM10.7645 17.1983C10.7731 17.1081 10.7779 17.0169 10.7779 16.9246C10.7779 15.3409 9.48941 14.0524 7.90572 14.0524C7.84368 14.0524 7.78227 14.0551 7.72118 14.059L9.59906 12.2227C9.66932 13.2103 10.4948 13.9926 11.5 13.9926C12.5512 13.9926 13.4064 13.1374 13.4064 12.0862C13.4064 12.0412 13.4042 11.9968 13.4011 11.9526L15.3331 13.3441C14.8143 13.4278 14.3494 13.6744 13.9933 14.0302L13.9937 14.0281L10.7645 17.1983ZM4.794 12.3563L5.30957 12.8719L5.94109 14.8323C5.74357 15.0179 5.57219 15.2308 5.43324 15.4654C4.65268 15.2921 4.06819 14.5849 4.06819 13.7683C4.06824 13.2027 4.34119 12.6808 4.794 12.3563ZM11.5 10.8535C12.1797 10.8535 12.7327 11.4065 12.7327 12.0862C12.7327 12.766 12.1797 13.319 11.5 13.319C10.8203 13.319 10.2673 12.766 10.2673 12.0862C10.2673 11.4065 10.8203 10.8535 11.5 10.8535ZM16.7636 13.5443C16.7636 13.5443 12.6916 10.598 12.6441 10.5623C12.3252 10.3223 11.9289 10.1799 11.5 10.1799C11.004 10.1799 10.5517 10.3705 10.2122 10.6821L6.48546 14.3251L5.98884 12.7835L10.6725 8.09985H12.3275L17.0111 12.7834L16.7659 13.5453C16.7651 13.545 16.7643 13.5446 16.7636 13.5443ZM4.87904 8.6134L5.82807 9.56242C5.88786 9.62222 5.92079 9.70168 5.92079 9.78623C5.92079 9.87077 5.88786 9.95028 5.82807 10.01C5.76827 10.0698 5.68881 10.1027 5.60422 10.1027C5.51967 10.1027 5.44021 10.0698 5.38042 10.01L4.43139 9.061L4.87904 8.6134ZM2.24134 10.2985L1.80757 9.71031L7.55223 3.96565L8.1403 4.39915L2.24134 10.2985ZM3.95508 9.5374L4.90406 10.4864C5.09107 10.6734 5.33972 10.7764 5.60422 10.7764C5.86872 10.7764 6.11736 10.6734 6.30438 10.4864C6.49139 10.2994 6.59439 10.0507 6.59439 9.78623C6.59439 9.52177 6.49139 9.27308 6.30438 9.08607L5.35535 8.13704L5.36317 8.12923L5.979 7.51339L6.92803 8.46241C7.11504 8.64942 7.36369 8.75243 7.62819 8.75243C7.89269 8.75243 8.14134 8.64942 8.32835 8.46241C8.71441 8.07635 8.71441 7.44816 8.32835 7.0621L7.37932 6.11307L7.89296 5.59943L10.0566 7.76306L5.60498 12.2146L3.44144 10.0511L3.95508 9.5374ZM6.90301 6.58943L7.85204 7.53845C7.97544 7.66185 7.97544 7.8627 7.85204 7.9861C7.79225 8.04589 7.71273 8.07882 7.62819 8.07882C7.54365 8.07882 7.46413 8.04589 7.40434 7.9861L6.45536 7.03708L6.90301 6.58943ZM2.72003 13.7683C2.72003 12.8488 3.13188 11.9811 3.83397 11.3962L4.31311 11.8754C3.73806 12.3283 3.39454 13.0205 3.39454 13.7683C3.39454 14.3729 3.62018 14.9516 4.02992 15.3979C4.33737 15.7327 4.72779 15.9709 5.15724 16.091C5.09251 16.304 5.05194 16.5273 5.03869 16.7579C3.69305 16.4128 2.72003 15.1901 2.72003 13.7683ZM5.70722 16.9246C5.70722 15.7123 6.69349 14.7261 7.90572 14.7261C9.11794 14.7261 10.1042 15.7123 10.1042 16.9246C10.1042 18.1368 9.11794 19.123 7.90572 19.123C6.69349 19.123 5.70722 18.1368 5.70722 16.9246ZM7.94166 21.1684C7.76008 21.1684 7.61229 21.0205 7.61229 20.8386V19.7818C7.70878 19.7917 7.80662 19.7967 7.90567 19.7967C8.02966 19.7967 8.15153 19.7879 8.27143 19.7726V20.8386C8.27143 21.0205 8.1235 21.1684 7.94166 21.1684ZM10.3137 21.1684C10.1321 21.1684 9.98436 21.0205 9.98436 20.8386V18.9082L10.6435 18.2611V20.8386C10.6435 21.0205 10.4956 21.1684 10.3137 21.1684ZM12.6861 21.1683C12.5044 21.1683 12.3565 21.0204 12.3565 20.8387V18.2145H13.0156V20.8387C13.0156 21.0204 12.8678 21.1683 12.6861 21.1683ZM15.0582 21.1683C14.8765 21.1683 14.7287 21.0204 14.7287 20.8387V18.2145H15.3877V20.8387C15.3877 21.0204 15.2399 21.1683 15.0582 21.1683ZM15.7246 17.5407C14.7446 17.5407 13.9473 16.7434 13.9473 15.7634C13.9473 14.7834 14.7445 13.9861 15.7246 13.9861C16.7045 13.9861 17.5019 14.7834 17.5019 15.7634C17.5019 16.7434 16.7045 17.5407 15.7246 17.5407ZM18.9315 13.7683C18.9315 14.377 18.6172 14.9271 18.1186 15.2397C18.0059 14.7243 17.7307 14.2692 17.3494 13.9308L17.6903 12.872L18.2059 12.3564C18.6586 12.6808 18.9315 13.2026 18.9315 13.7683ZM20.7586 10.2984L14.8596 4.39938L15.4478 3.9657L21.1923 9.71022L20.7586 10.2984ZM22.1303 8.43816L21.5966 9.16185L15.9961 3.56135L16.7198 3.02772C17.1168 2.73505 17.6578 2.77575 18.0065 3.12444L22.0335 7.15149C22.3822 7.50018 22.4229 8.04131 22.1303 8.43816Z" fill="#FD3B3B"/>
<path d="M8.92241 16.9246C8.92241 16.364 8.46637 15.908 7.90579 15.908C7.34521 15.908 6.88916 16.364 6.88916 16.9246C6.88916 17.4852 7.34521 17.9412 7.90579 17.9412C8.46637 17.9412 8.92241 17.4852 8.92241 16.9246ZM7.56281 16.9246C7.56281 16.7355 7.71667 16.5816 7.90579 16.5816C8.09491 16.5816 8.24877 16.7355 8.24877 16.9246C8.24877 17.1137 8.09491 17.2676 7.90579 17.2676C7.71667 17.2676 7.56281 17.1137 7.56281 16.9246Z" fill="#FD3B3B"/>
<path d="M15.7246 14.7468C15.1641 14.7468 14.708 15.2029 14.708 15.7635C14.708 16.324 15.1641 16.7801 15.7246 16.7801C16.2852 16.7801 16.7413 16.324 16.7413 15.7635C16.7413 15.2029 16.2852 14.7468 15.7246 14.7468ZM15.7246 16.1064C15.5355 16.1064 15.3817 15.9526 15.3817 15.7635C15.3817 15.5743 15.5355 15.4205 15.7246 15.4205C15.9138 15.4205 16.0676 15.5743 16.0676 15.7635C16.0676 15.9526 15.9138 16.1064 15.7246 16.1064Z" fill="#FD3B3B"/>
</g>
<defs>
<clipPath id="clip0_93_2160">
<rect width="23" height="23" fill="white" transform="translate(0 0.5)"/>
</clipPath>
</defs>
</svg>
