<svg width="130" height="117" viewBox="0 0 130 117" fill="none" xmlns="http://www.w3.org/2000/svg">
<path d="M31.5 5.90625C31.2389 5.90625 30.9885 5.80254 30.8039 5.61793C30.6193 5.43333 30.5156 5.18295 30.5156 4.92188V2.95312C30.5156 2.69205 30.6193 2.44167 30.8039 2.25707C30.9885 2.07246 31.2389 1.96875 31.5 1.96875C31.7611 1.96875 32.0115 2.07246 32.1961 2.25707C32.3807 2.44167 32.4844 2.69205 32.4844 2.95312V4.92188C32.4844 5.18295 32.3807 5.43333 32.1961 5.61793C32.0115 5.80254 31.7611 5.90625 31.5 5.90625Z" fill="#FD3B3B"/>
<path d="M23.1327 8.14767C22.9598 8.14784 22.7898 8.10244 22.64 8.01603C22.4902 7.92963 22.3658 7.80527 22.2793 7.65548L21.2949 5.95055C21.1664 5.72458 21.1325 5.45696 21.2007 5.2061C21.2688 4.95524 21.4333 4.7415 21.6584 4.61153C21.8836 4.48155 22.1509 4.4459 22.4022 4.51234C22.6536 4.57878 22.8684 4.74193 22.9998 4.96617L23.9842 6.67111C24.0706 6.82068 24.1161 6.99034 24.1161 7.16305C24.1161 7.33575 24.0707 7.50543 23.9845 7.65505C23.8982 7.80466 23.7741 7.92894 23.6246 8.01541C23.4751 8.10188 23.3054 8.1475 23.1327 8.14767Z" fill="#FD3B3B"/>
<path d="M39.8672 8.14767C39.6944 8.1475 39.5248 8.10188 39.3753 8.01541C39.2258 7.92894 39.1017 7.80466 39.0154 7.65505C38.9291 7.50543 38.8837 7.33575 38.8838 7.16305C38.8838 6.99034 38.9293 6.82068 39.0157 6.67111L40 4.96617C40.1315 4.74193 40.3463 4.57878 40.5976 4.51234C40.8489 4.4459 41.1163 4.48155 41.3414 4.61153C41.5666 4.7415 41.7311 4.95524 41.7992 5.2061C41.8673 5.45696 41.8335 5.72458 41.705 5.95055L40.7206 7.65548C40.6341 7.80527 40.5097 7.92963 40.3599 8.01603C40.2101 8.10244 40.0401 8.14784 39.8672 8.14767Z" fill="#FD3B3B"/>
<path d="M58.7918 23.0019C58.8147 22.8266 58.8262 22.65 58.8262 22.4733C58.8227 21.5712 58.5104 20.6976 57.9415 19.9975C57.3726 19.2975 56.5812 18.8133 55.6989 18.6254C54.6901 18.4377 53.6477 18.6413 52.7837 19.1949C51.9197 19.7484 51.299 20.6102 51.0477 21.6051L47.626 33.6892C47.249 33.771 46.8861 33.908 46.5491 34.0958L37.8473 39.1968C36.5165 39.9808 35.4129 41.0978 34.6452 42.4379C33.8774 43.7781 33.472 45.295 33.4688 46.8395V59.0625C33.4688 59.3236 33.5725 59.5739 33.7571 59.7586C33.9417 59.9432 34.1921 60.0469 34.4531 60.0469C34.7142 60.0469 34.9646 59.9432 35.1492 59.7586C35.3338 59.5739 35.4375 59.3236 35.4375 59.0625V46.8395C35.44 45.6383 35.7554 44.4585 36.3526 43.4162C36.9499 42.374 37.8083 41.5054 38.8434 40.8959L47.5394 35.7978C47.7634 35.6665 48.0111 35.5808 48.2684 35.5456C48.5256 35.5104 48.7873 35.5265 49.0383 35.5928C49.2893 35.6592 49.5247 35.7746 49.731 35.9323C49.9372 36.09 50.1102 36.2869 50.2401 36.5118C50.3699 36.7366 50.454 36.985 50.4874 37.2424C50.5209 37.4999 50.5031 37.7614 50.4351 38.012C50.367 38.2626 50.2501 38.4972 50.091 38.7024C49.932 38.9076 49.7339 39.0793 49.5082 39.2077L43.8667 42.465C43.7538 42.5291 43.6548 42.615 43.5753 42.7176C43.4957 42.8202 43.4373 42.9375 43.4032 43.0628C43.3692 43.1881 43.3603 43.3188 43.3771 43.4476C43.3938 43.5763 43.4358 43.7005 43.5007 43.8129C43.5657 43.9253 43.6522 44.0238 43.7553 44.1026C43.8584 44.1815 43.9761 44.2392 44.1016 44.2724C44.2271 44.3055 44.358 44.3136 44.4866 44.296C44.6152 44.2784 44.7391 44.2355 44.8511 44.1699L50.4925 40.9126C51.2985 40.4496 51.9136 39.715 52.2279 38.8403C52.5422 37.9655 52.5353 37.0075 52.2083 36.1374L54.9104 26.0692C55.0329 25.5597 55.3426 25.1149 55.7779 24.8231C56.2132 24.5314 56.7423 24.414 57.2601 24.4942C57.7004 24.5875 58.0957 24.8283 58.3805 25.1768C58.6653 25.5254 58.8226 25.9607 58.8262 26.4108C58.8276 26.5839 58.8057 26.7563 58.7613 26.9236L54.4802 42.902C54.3304 43.4596 54.0207 43.9613 53.5894 44.3451L46.934 50.2612C46.4139 50.7233 45.9977 51.2905 45.7128 51.9253C45.4279 52.56 45.2808 53.248 45.2812 53.9437V59.0625C45.2812 59.3236 45.385 59.5739 45.5696 59.7586C45.7542 59.9432 46.0046 60.0469 46.2656 60.0469C46.5267 60.0469 46.7771 59.9432 46.9617 59.7586C47.1463 59.5739 47.25 59.3236 47.25 59.0625V53.9437C47.25 53.5267 47.3384 53.1145 47.5093 52.7341C47.6801 52.3537 47.9296 52.0138 48.2413 51.7368L54.8986 45.8197C55.6178 45.1791 56.1332 44.3416 56.3811 43.4109L60.6621 27.4345C60.7518 27.1004 60.7965 26.7558 60.795 26.4098C60.7906 25.7157 60.603 25.0351 60.2513 24.4367C59.8995 23.8383 59.3961 23.3434 58.7918 23.0019ZM53.0096 25.5613L50.6815 34.2316C50.3648 34.0213 50.0193 33.8579 49.6558 33.7463L52.9456 22.1307C53.0702 21.622 53.3806 21.1783 53.8158 20.8868C54.251 20.5954 54.7794 20.4773 55.2973 20.5557C55.7372 20.649 56.132 20.8902 56.4159 21.2391C56.6997 21.588 56.8556 22.0235 56.8575 22.4733V22.4871C55.9689 22.5097 55.112 22.8221 54.4174 23.3767C53.7228 23.9313 53.2284 24.6978 53.0096 25.5593V25.5613Z" fill="#FD3B3B"/>
<path d="M25.1527 39.1968L16.4449 34.0928C16.1099 33.9057 15.749 33.7694 15.3739 33.6883L11.9562 21.6169C11.7074 20.6186 11.0868 19.753 10.2212 19.197C9.35566 18.641 8.3104 18.4365 7.29909 18.6254C6.41726 18.8138 5.62642 19.2983 5.0579 19.9982C4.48938 20.6982 4.17737 21.5715 4.1737 22.4733C4.17368 22.65 4.18519 22.8266 4.20816 23.0019C3.44945 23.4284 2.85401 24.095 2.51545 24.8969C2.17689 25.6987 2.11442 26.5904 2.33784 27.4316L6.61889 43.4109C6.86788 44.3399 7.38361 45.1757 8.10234 45.8148L14.7587 51.7309C15.0711 52.0086 15.321 52.3494 15.4919 52.7309C15.6628 53.1124 15.7507 53.5258 15.75 53.9437V59.0625C15.75 59.3236 15.8537 59.574 16.0383 59.7586C16.2229 59.9432 16.4733 60.0469 16.7343 60.0469C16.9954 60.0469 17.2458 59.9432 17.4304 59.7586C17.615 59.574 17.7187 59.3236 17.7187 59.0625V53.9437C17.7186 53.2486 17.5713 52.5614 17.2864 51.9274C17.0015 51.2933 16.5856 50.7268 16.0659 50.2651L9.41156 44.349C8.97954 43.9656 8.66946 43.4639 8.51972 42.906L4.23769 26.9217C4.17025 26.6632 4.15595 26.3937 4.19564 26.1295C4.23533 25.8653 4.32819 25.6119 4.46861 25.3846C4.60903 25.1573 4.79408 24.9609 5.01258 24.8072C5.23108 24.6534 5.47849 24.5456 5.73984 24.4903C6.25772 24.4098 6.78692 24.5271 7.22226 24.8189C7.65761 25.1107 7.96721 25.5556 8.08955 26.0653L10.7917 36.1335C10.4647 37.0036 10.4577 37.9616 10.7721 38.8363C11.0864 39.7111 11.7015 40.4456 12.5074 40.9087L18.1489 44.166C18.2609 44.2316 18.3847 44.2745 18.5134 44.292C18.642 44.3096 18.7728 44.3016 18.8983 44.2684C19.0238 44.2352 19.1415 44.1776 19.2447 44.0987C19.3478 44.0198 19.4343 43.9214 19.4992 43.8089C19.5641 43.6965 19.6061 43.5724 19.6229 43.4436C19.6396 43.3149 19.6307 43.1841 19.5967 43.0588C19.5627 42.9336 19.5042 42.8162 19.4247 42.7136C19.3452 42.611 19.2461 42.5252 19.1332 42.461L13.4918 39.2077C13.1071 38.9872 12.8083 38.643 12.6442 38.2311C12.4801 37.8191 12.4603 37.3638 12.588 36.9392C12.7158 36.5146 12.9835 36.1457 13.3476 35.8927C13.7117 35.6397 14.1508 35.5174 14.5933 35.5458H14.6012C14.9012 35.5611 15.1935 35.6464 15.4546 35.7948L24.1565 40.8959C25.1916 41.5054 26.0501 42.374 26.6473 43.4162C27.2445 44.4585 27.5599 45.6383 27.5625 46.8395V59.0625C27.5625 59.3236 27.6662 59.574 27.8508 59.7586C28.0354 59.9432 28.2858 60.0469 28.5468 60.0469C28.8079 60.0469 29.0583 59.9432 29.2429 59.7586C29.4275 59.574 29.5312 59.3236 29.5312 59.0625V46.8395C29.528 45.295 29.1225 43.7781 28.3548 42.4379C27.587 41.0978 26.4834 39.9808 25.1527 39.1968ZM12.3184 34.2307L9.99038 25.5593C9.77242 24.6976 9.27859 23.9308 8.5842 23.3759C7.88981 22.8211 7.03299 22.5086 6.14442 22.4861V22.4733C6.14556 22.0233 6.30082 21.5872 6.58435 21.2378C6.86789 20.8884 7.26257 20.6466 7.70269 20.5528C8.22342 20.4728 8.75517 20.5919 9.19206 20.8863C9.62896 21.1807 9.93893 21.6289 10.0603 22.1415L13.3441 33.7444C12.9804 33.8558 12.6349 34.0196 12.3184 34.2307Z" fill="#FD3B3B"/>
<path d="M38.989 34.9246C39.2993 34.9219 39.6047 34.8463 39.8805 34.704C40.1563 34.5616 40.3948 34.3564 40.5768 34.105C40.7587 33.8536 40.8791 33.563 40.9282 33.2565C40.9773 32.95 40.9537 32.6363 40.8593 32.3407L38.4407 24.8968L44.7722 20.2958C45.1083 20.0516 45.3585 19.7074 45.4871 19.3123C45.6156 18.9172 45.6159 18.4916 45.4879 18.0964C45.3599 17.7012 45.1101 17.3566 44.7743 17.1119C44.4385 16.8673 44.034 16.7351 43.6185 16.7344H35.7908L33.3702 9.29053C33.2407 8.89665 32.9902 8.55369 32.6544 8.31056C32.3185 8.06742 31.9145 7.93652 31.4999 7.93652C31.0853 7.93652 30.6812 8.06742 30.3454 8.31056C30.0095 8.55369 29.759 8.89665 29.6296 9.29053L27.209 16.7344H19.3812C18.9655 16.7345 18.5605 16.8662 18.2243 17.1106C17.888 17.3551 17.6378 17.6996 17.5094 18.095C17.381 18.4904 17.381 18.9163 17.5095 19.3116C17.638 19.707 17.8883 20.0515 18.2246 20.2958L24.5561 24.8968L22.1375 32.3407C22.0089 32.7361 22.0089 33.1621 22.1374 33.5576C22.2659 33.953 22.5163 34.2977 22.8527 34.5421C23.1891 34.7865 23.5943 34.9181 24.0101 34.918C24.4259 34.9179 24.831 34.7862 25.1674 34.5417L31.4999 29.9417L37.8324 34.5417C38.1674 34.7891 38.5725 34.9233 38.989 34.9246ZM31.4999 27.971C31.0839 27.9712 30.6786 28.1032 30.3422 28.348L24.0107 32.949L26.4294 25.5052C26.5578 25.1097 26.5577 24.6838 26.4291 24.2884C26.3006 23.893 26.0501 23.5484 25.7137 23.3041L19.3812 18.7031H27.209C27.6244 18.7027 28.029 18.5709 28.365 18.3265C28.7009 18.0822 28.9509 17.7378 29.0793 17.3427L31.4999 9.88608V9.89887L33.9185 17.3427C34.0469 17.7381 34.2973 18.0827 34.6336 18.3271C34.97 18.5715 35.375 18.7031 35.7908 18.7031H43.6185L37.287 23.3031C36.9502 23.5474 36.6994 23.892 36.5707 24.2876C36.442 24.6832 36.4418 25.1095 36.5704 25.5052L38.989 32.949L32.6575 28.35C32.3214 28.1045 31.9161 27.9718 31.4999 27.971Z" fill="#FD3B3B"/>
<path d="M14.8108 13.1572L16.5147 14.1415C16.6267 14.2072 16.7506 14.25 16.8792 14.2676C17.0078 14.2852 17.1386 14.2772 17.2642 14.244C17.3897 14.2108 17.5074 14.1531 17.6105 14.0743C17.7136 13.9954 17.8001 13.897 17.865 13.7845C17.9299 13.6721 17.972 13.5479 17.9887 13.4192C18.0054 13.2905 17.9966 13.1597 17.9625 13.0344C17.9285 12.9091 17.8701 12.7918 17.7905 12.6892C17.711 12.5866 17.6119 12.5008 17.4991 12.4366L15.7951 11.4522C15.5692 11.3237 15.3015 11.2899 15.0507 11.358C14.7998 11.4261 14.5861 11.5906 14.4561 11.8158C14.3261 12.0409 14.2905 12.3083 14.3569 12.5596C14.4234 12.8109 14.5865 13.0257 14.8108 13.1572Z" fill="#FD3B3B"/>
<path d="M45.9939 14.2734C46.1666 14.2734 46.3364 14.2279 46.486 14.1415L48.19 13.1572C48.4142 13.0257 48.5774 12.8109 48.6438 12.5596C48.7103 12.3083 48.6746 12.0409 48.5446 11.8158C48.4147 11.5906 48.2009 11.4261 47.9501 11.358C47.6992 11.2899 47.4316 11.3237 47.2056 11.4522L45.5017 12.4366C45.314 12.5449 45.1674 12.7122 45.0844 12.9124C45.0015 13.1126 44.987 13.3345 45.0431 13.5438C45.0991 13.7531 45.2227 13.9381 45.3946 14.07C45.5665 14.2019 45.7772 14.2734 45.9939 14.2734Z" fill="#FD3B3B"/>
<path d="M1.536 83.648H3.664V94H1.536V83.648ZM6.1475 86.048H8.2275V94H6.1475V86.048ZM11.9235 85.872C12.4142 85.872 12.8675 85.936 13.2835 86.064C13.6995 86.192 14.0622 86.3893 14.3715 86.656C14.6808 86.9227 14.9208 87.264 15.0915 87.68C15.2622 88.0853 15.3475 88.5707 15.3475 89.136V94H13.2675V89.504C13.2675 88.832 13.1022 88.3413 12.7715 88.032C12.4515 87.712 11.9235 87.552 11.1875 87.552C10.6328 87.552 10.1315 87.6587 9.6835 87.872C9.2355 88.0853 8.87283 88.3573 8.5955 88.688C8.31817 89.008 8.15817 89.344 8.1155 89.696L8.0995 88.88C8.15283 88.5067 8.2755 88.144 8.4675 87.792C8.6595 87.44 8.9155 87.12 9.2355 86.832C9.56617 86.5333 9.9555 86.2987 10.4035 86.128C10.8515 85.9573 11.3582 85.872 11.9235 85.872ZM17.2413 86.048H19.3213V94H17.2413V86.048ZM23.0173 85.872C23.5079 85.872 23.9613 85.936 24.3773 86.064C24.7933 86.192 25.1559 86.3893 25.4653 86.656C25.7746 86.9227 26.0146 87.264 26.1853 87.68C26.3559 88.0853 26.4413 88.5707 26.4413 89.136V94H24.3612V89.504C24.3612 88.832 24.1959 88.3413 23.8653 88.032C23.5453 87.712 23.0173 87.552 22.2813 87.552C21.7266 87.552 21.2253 87.6587 20.7773 87.872C20.3293 88.0853 19.9666 88.3573 19.6893 88.688C19.4119 89.008 19.2519 89.344 19.2093 89.696L19.1933 88.88C19.2466 88.5067 19.3693 88.144 19.5613 87.792C19.7533 87.44 20.0093 87.12 20.3293 86.832C20.6599 86.5333 21.0493 86.2987 21.4973 86.128C21.9453 85.9573 22.4519 85.872 23.0173 85.872ZM33.023 94.192C32.0203 94.192 31.135 94.032 30.367 93.712C29.6097 93.392 29.0177 92.928 28.591 92.32C28.1643 91.7013 27.951 90.944 27.951 90.048C27.951 89.152 28.1643 88.3947 28.591 87.776C29.0177 87.1467 29.6097 86.672 30.367 86.352C31.135 86.032 32.0203 85.872 33.023 85.872C34.0257 85.872 34.9003 86.032 35.647 86.352C36.4043 86.672 36.9963 87.1467 37.423 87.776C37.8497 88.3947 38.063 89.152 38.063 90.048C38.063 90.944 37.8497 91.7013 37.423 92.32C36.9963 92.928 36.4043 93.392 35.647 93.712C34.9003 94.032 34.0257 94.192 33.023 94.192ZM33.023 92.592C33.5777 92.592 34.0737 92.496 34.511 92.304C34.959 92.1013 35.311 91.8133 35.567 91.44C35.823 91.056 35.951 90.592 35.951 90.048C35.951 89.504 35.823 89.04 35.567 88.656C35.311 88.2613 34.9643 87.9627 34.527 87.76C34.0897 87.5573 33.5883 87.456 33.023 87.456C32.4683 87.456 31.967 87.5573 31.519 87.76C31.071 87.9627 30.7137 88.256 30.447 88.64C30.191 89.024 30.063 89.4933 30.063 90.048C30.063 90.592 30.191 91.056 30.447 91.44C30.703 91.8133 31.055 92.1013 31.503 92.304C31.951 92.496 32.4577 92.592 33.023 92.592ZM43.6721 92.64H42.9201L45.8321 86.048H48.1041L44.2801 94H42.3121L38.5681 86.048H40.8561L43.6721 92.64ZM52.832 94.176C52.0427 94.176 51.3227 94.0053 50.672 93.664C50.032 93.312 49.52 92.8267 49.136 92.208C48.7627 91.5787 48.576 90.8533 48.576 90.032C48.576 89.1893 48.768 88.4587 49.152 87.84C49.536 87.2213 50.0533 86.7413 50.704 86.4C51.3653 86.048 52.112 85.872 52.944 85.872C53.8613 85.872 54.5973 86.0587 55.152 86.432C55.7173 86.7947 56.128 87.2907 56.384 87.92C56.64 88.5493 56.768 89.2533 56.768 90.032C56.768 90.5013 56.6933 90.9813 56.544 91.472C56.3947 91.952 56.1653 92.4 55.856 92.816C55.5467 93.2213 55.1413 93.552 54.64 93.808C54.1387 94.0533 53.536 94.176 52.832 94.176ZM53.504 92.576C54.1333 92.576 54.6773 92.4693 55.136 92.256C55.5947 92.0427 55.9467 91.744 56.192 91.36C56.4373 90.976 56.56 90.5333 56.56 90.032C56.56 89.488 56.432 89.0293 56.176 88.656C55.9307 88.272 55.5787 87.984 55.12 87.792C54.672 87.5893 54.1333 87.488 53.504 87.488C52.6187 87.488 51.9307 87.7227 51.44 88.192C50.9493 88.6507 50.704 89.264 50.704 90.032C50.704 90.544 50.8213 90.992 51.056 91.376C51.2907 91.7493 51.616 92.0427 52.032 92.256C52.4587 92.4693 52.9493 92.576 53.504 92.576ZM56.56 86.048H58.64V94H56.704C56.704 94 56.688 93.8987 56.656 93.696C56.6347 93.4827 56.6133 93.216 56.592 92.896C56.5707 92.576 56.56 92.2613 56.56 91.952V86.048ZM59.9625 86.048H66.1385V87.664H59.9625V86.048ZM62.0105 83.872H64.0905V94H62.0105V83.872ZM69.844 82.56V84.384H67.428V82.56H69.844ZM67.588 86.048H69.668V94H67.588V86.048ZM76.4293 94.192C75.4266 94.192 74.5413 94.032 73.7733 93.712C73.0159 93.392 72.4239 92.928 71.9973 92.32C71.5706 91.7013 71.3573 90.944 71.3573 90.048C71.3573 89.152 71.5706 88.3947 71.9973 87.776C72.4239 87.1467 73.0159 86.672 73.7733 86.352C74.5413 86.032 75.4266 85.872 76.4293 85.872C77.4319 85.872 78.3066 86.032 79.0533 86.352C79.8106 86.672 80.4026 87.1467 80.8293 87.776C81.2559 88.3947 81.4693 89.152 81.4693 90.048C81.4693 90.944 81.2559 91.7013 80.8293 92.32C80.4026 92.928 79.8106 93.392 79.0533 93.712C78.3066 94.032 77.4319 94.192 76.4293 94.192ZM76.4293 92.592C76.9839 92.592 77.4799 92.496 77.9173 92.304C78.3653 92.1013 78.7173 91.8133 78.9733 91.44C79.2293 91.056 79.3573 90.592 79.3573 90.048C79.3573 89.504 79.2293 89.04 78.9733 88.656C78.7173 88.2613 78.3706 87.9627 77.9333 87.76C77.4959 87.5573 76.9946 87.456 76.4293 87.456C75.8746 87.456 75.3733 87.5573 74.9253 87.76C74.4773 87.9627 74.1199 88.256 73.8533 88.64C73.5973 89.024 73.4693 89.4933 73.4693 90.048C73.4693 90.592 73.5973 91.056 73.8533 91.44C74.1093 91.8133 74.4613 92.1013 74.9093 92.304C75.3573 92.496 75.8639 92.592 76.4293 92.592ZM83.0069 86.048H85.0869V94H83.0069V86.048ZM88.7829 85.872C89.2735 85.872 89.7269 85.936 90.1429 86.064C90.5589 86.192 90.9215 86.3893 91.2309 86.656C91.5402 86.9227 91.7802 87.264 91.9509 87.68C92.1215 88.0853 92.2069 88.5707 92.2069 89.136V94H90.1269V89.504C90.1269 88.832 89.9615 88.3413 89.6309 88.032C89.3109 87.712 88.7829 87.552 88.0469 87.552C87.4922 87.552 86.9909 87.6587 86.5429 87.872C86.0949 88.0853 85.7322 88.3573 85.4549 88.688C85.1775 89.008 85.0175 89.344 84.9749 89.696L84.9589 88.88C85.0122 88.5067 85.1349 88.144 85.3269 87.792C85.5189 87.44 85.7749 87.12 86.0949 86.832C86.4255 86.5333 86.8149 86.2987 87.2629 86.128C87.7109 85.9573 88.2175 85.872 88.7829 85.872ZM13.312 109.272C13.216 110.104 12.9227 110.813 12.432 111.4C11.9413 111.987 11.2747 112.435 10.432 112.744C9.58933 113.053 8.58667 113.208 7.424 113.208C6.45333 113.208 5.56267 113.096 4.752 112.872C3.952 112.648 3.25867 112.312 2.672 111.864C2.096 111.416 1.648 110.861 1.328 110.2C1.008 109.528 0.848 108.744 0.848 107.848C0.848 106.952 1.008 106.168 1.328 105.496C1.648 104.824 2.096 104.264 2.672 103.816C3.25867 103.357 3.952 103.016 4.752 102.792C5.56267 102.557 6.45333 102.44 7.424 102.44C8.58667 102.44 9.58933 102.6 10.432 102.92C11.2853 103.24 11.9573 103.699 12.448 104.296C12.9387 104.883 13.2267 105.597 13.312 106.44H11.2C11.0613 105.992 10.8267 105.608 10.496 105.288C10.176 104.957 9.76 104.707 9.248 104.536C8.736 104.365 8.128 104.28 7.424 104.28C6.54933 104.28 5.78133 104.419 5.12 104.696C4.45867 104.963 3.94667 105.363 3.584 105.896C3.22133 106.419 3.04 107.069 3.04 107.848C3.04 108.616 3.22133 109.261 3.584 109.784C3.94667 110.307 4.45867 110.707 5.12 110.984C5.78133 111.251 6.54933 111.384 7.424 111.384C8.128 111.384 8.73067 111.299 9.232 111.128C9.744 110.957 10.16 110.712 10.48 110.392C10.8107 110.072 11.0507 109.699 11.2 109.272H13.312ZM22.3802 113V108.632C22.3802 108.195 22.3056 107.832 22.1562 107.544C22.0069 107.256 21.7669 107.037 21.4363 106.888C21.1163 106.739 20.6843 106.664 20.1403 106.664C19.6176 106.664 19.1429 106.765 18.7163 106.968C18.2896 107.16 17.9429 107.416 17.6763 107.736C17.4096 108.045 17.2603 108.376 17.2283 108.728L17.2123 107.848C17.2656 107.496 17.3883 107.144 17.5803 106.792C17.7723 106.44 18.0283 106.12 18.3483 105.832C18.6683 105.544 19.0523 105.315 19.5003 105.144C19.9589 104.963 20.4709 104.872 21.0363 104.872C21.5269 104.872 21.9803 104.936 22.3963 105.064C22.8123 105.181 23.1749 105.368 23.4843 105.624C23.7936 105.88 24.0336 106.2 24.2043 106.584C24.3749 106.957 24.4603 107.4 24.4603 107.912V113H22.3802ZM15.2603 113V101.848H17.3403V113H15.2603ZM30.2226 113.176C29.4333 113.176 28.7133 113.005 28.0626 112.664C27.4226 112.312 26.9106 111.827 26.5266 111.208C26.1533 110.579 25.9666 109.853 25.9666 109.032C25.9666 108.189 26.1586 107.459 26.5426 106.84C26.9266 106.221 27.444 105.741 28.0946 105.4C28.756 105.048 29.5026 104.872 30.3346 104.872C31.252 104.872 31.988 105.059 32.5426 105.432C33.108 105.795 33.5186 106.291 33.7746 106.92C34.0306 107.549 34.1586 108.253 34.1586 109.032C34.1586 109.501 34.084 109.981 33.9346 110.472C33.7853 110.952 33.556 111.4 33.2466 111.816C32.9373 112.221 32.532 112.552 32.0306 112.808C31.5293 113.053 30.9266 113.176 30.2226 113.176ZM30.8946 111.576C31.524 111.576 32.068 111.469 32.5266 111.256C32.9853 111.043 33.3373 110.744 33.5826 110.36C33.828 109.976 33.9506 109.533 33.9506 109.032C33.9506 108.488 33.8226 108.029 33.5666 107.656C33.3213 107.272 32.9693 106.984 32.5106 106.792C32.0626 106.589 31.524 106.488 30.8946 106.488C30.0093 106.488 29.3213 106.723 28.8306 107.192C28.34 107.651 28.0946 108.264 28.0946 109.032C28.0946 109.544 28.212 109.992 28.4466 110.376C28.6813 110.749 29.0066 111.043 29.4226 111.256C29.8493 111.469 30.34 111.576 30.8946 111.576ZM33.9506 105.048H36.0306V113H34.0946C34.0946 113 34.0786 112.899 34.0466 112.696C34.0253 112.483 34.004 112.216 33.9826 111.896C33.9613 111.576 33.9506 111.261 33.9506 110.952V105.048ZM37.9131 105.048H39.9931V113H37.9131V105.048ZM43.6891 104.872C44.1798 104.872 44.6331 104.936 45.0491 105.064C45.4651 105.192 45.8278 105.389 46.1371 105.656C46.4465 105.923 46.6865 106.264 46.8571 106.68C47.0278 107.085 47.1131 107.571 47.1131 108.136V113H45.0331V108.504C45.0331 107.832 44.8678 107.341 44.5371 107.032C44.2171 106.712 43.6891 106.552 42.9531 106.552C42.3985 106.552 41.8971 106.659 41.4491 106.872C41.0011 107.085 40.6385 107.357 40.3611 107.688C40.0838 108.008 39.9238 108.344 39.8811 108.696L39.8651 107.88C39.9185 107.507 40.0411 107.144 40.2331 106.792C40.4251 106.44 40.6811 106.12 41.0011 105.832C41.3318 105.533 41.7211 105.299 42.1691 105.128C42.6171 104.957 43.1238 104.872 43.6891 104.872ZM50.6171 104.872C51.1078 104.872 51.5611 104.936 51.9771 105.064C52.3931 105.192 52.7558 105.389 53.0651 105.656C53.3745 105.923 53.6145 106.264 53.7851 106.68C53.9665 107.085 54.0571 107.571 54.0571 108.136V113H51.9771V108.504C51.9771 107.832 51.8118 107.341 51.4811 107.032C51.1505 106.712 50.6171 106.552 49.8811 106.552C49.3265 106.552 48.8251 106.659 48.3771 106.872C47.9291 107.085 47.5665 107.357 47.2891 107.688C47.0118 108.008 46.8571 108.344 46.8251 108.696L46.7931 107.832C46.8465 107.48 46.9745 107.128 47.1771 106.776C47.3798 106.424 47.6465 106.104 47.9771 105.816C48.3078 105.528 48.6918 105.299 49.1291 105.128C49.5771 104.957 50.0731 104.872 50.6171 104.872ZM61.7364 113.192C61.0324 113.192 60.4297 113.069 59.9284 112.824C59.4377 112.568 59.0377 112.237 58.7284 111.832C58.419 111.416 58.1897 110.963 58.0404 110.472C57.891 109.981 57.8164 109.501 57.8164 109.032C57.8164 108.445 57.8857 107.901 58.0244 107.4C58.1737 106.899 58.403 106.461 58.7124 106.088C59.0217 105.704 59.4217 105.405 59.9124 105.192C60.4137 104.979 61.0217 104.872 61.7364 104.872C62.5364 104.872 63.2564 105.048 63.8964 105.4C64.5364 105.752 65.043 106.243 65.4164 106.872C65.8004 107.491 65.9924 108.211 65.9924 109.032C65.9924 109.875 65.8004 110.611 65.4164 111.24C65.0324 111.859 64.5204 112.339 63.8804 112.68C63.2404 113.021 62.5257 113.192 61.7364 113.192ZM61.0644 111.576C61.6297 111.576 62.1204 111.469 62.5364 111.256C62.963 111.043 63.2884 110.749 63.5124 110.376C63.747 109.992 63.8644 109.544 63.8644 109.032C63.8644 108.264 63.619 107.645 63.1284 107.176C62.6484 106.707 61.9604 106.472 61.0644 106.472C60.499 106.472 59.9817 106.573 59.5124 106.776C59.0537 106.979 58.691 107.272 58.4244 107.656C58.1577 108.029 58.0244 108.488 58.0244 109.032C58.0244 109.544 58.147 109.992 58.3924 110.376C58.6377 110.749 58.9897 111.043 59.4484 111.256C59.907 111.469 60.4457 111.576 61.0644 111.576ZM55.9444 105.048H57.9284L58.0244 107.16V116.2H55.9444V105.048ZM69.9065 101.56V103.384H67.4905V101.56H69.9065ZM67.6505 105.048H69.7305V113H67.6505V105.048ZM76.4918 113.192C75.4891 113.192 74.6038 113.032 73.8358 112.712C73.0784 112.392 72.4864 111.928 72.0598 111.32C71.6331 110.701 71.4198 109.944 71.4198 109.048C71.4198 108.152 71.6331 107.395 72.0598 106.776C72.4864 106.147 73.0784 105.672 73.8358 105.352C74.6038 105.032 75.4891 104.872 76.4918 104.872C77.4944 104.872 78.3691 105.032 79.1158 105.352C79.8731 105.672 80.4651 106.147 80.8918 106.776C81.3184 107.395 81.5318 108.152 81.5318 109.048C81.5318 109.944 81.3184 110.701 80.8918 111.32C80.4651 111.928 79.8731 112.392 79.1158 112.712C78.3691 113.032 77.4944 113.192 76.4918 113.192ZM76.4918 111.592C77.0464 111.592 77.5424 111.496 77.9798 111.304C78.4278 111.101 78.7798 110.813 79.0358 110.44C79.2918 110.056 79.4198 109.592 79.4198 109.048C79.4198 108.504 79.2918 108.04 79.0358 107.656C78.7798 107.261 78.4331 106.963 77.9958 106.76C77.5584 106.557 77.0571 106.456 76.4918 106.456C75.9371 106.456 75.4358 106.557 74.9878 106.76C74.5398 106.963 74.1824 107.256 73.9158 107.64C73.6598 108.024 73.5318 108.493 73.5318 109.048C73.5318 109.592 73.6598 110.056 73.9158 110.44C74.1718 110.813 74.5238 111.101 74.9718 111.304C75.4198 111.496 75.9264 111.592 76.4918 111.592ZM83.0694 105.048H85.1494V113H83.0694V105.048ZM88.8454 104.872C89.336 104.872 89.7894 104.936 90.2054 105.064C90.6214 105.192 90.984 105.389 91.2934 105.656C91.6027 105.923 91.8427 106.264 92.0134 106.68C92.184 107.085 92.2694 107.571 92.2694 108.136V113H90.1894V108.504C90.1894 107.832 90.024 107.341 89.6934 107.032C89.3734 106.712 88.8454 106.552 88.1094 106.552C87.5547 106.552 87.0534 106.659 86.6054 106.872C86.1574 107.085 85.7947 107.357 85.5174 107.688C85.24 108.008 85.08 108.344 85.0374 108.696L85.0214 107.88C85.0747 107.507 85.1974 107.144 85.3894 106.792C85.5814 106.44 85.8374 106.12 86.1574 105.832C86.488 105.533 86.8774 105.299 87.3254 105.128C87.7734 104.957 88.28 104.872 88.8454 104.872Z" fill="#222222"/>
</svg>
