<svg width="130" height="117" viewBox="0 0 130 117" fill="none" xmlns="http://www.w3.org/2000/svg">
<path d="M57.1333 17.889H47.1798L46.9576 17.0715L50.3527 14.3427C50.7895 13.9915 50.9598 13.4204 50.7866 12.8873C50.6133 12.3543 50.1397 11.9923 49.5801 11.9651L45.2295 11.7529L43.6836 7.68083C43.485 7.15776 42.9942 6.81975 42.4335 6.81975C41.8728 6.81975 41.3821 7.15788 41.1837 7.68083L39.6377 11.7529L35.2872 11.965C34.7275 11.9921 34.254 12.3542 34.0806 12.8872C33.9075 13.4202 34.0778 13.9914 34.5145 14.3425L37.9096 17.0713L37.6874 17.8888H27.7339C24.9777 17.8888 22.7354 20.1311 22.7354 22.8872V23.7759H22.1981C22.1981 23.7759 22.1981 23.7759 22.198 23.7759C21.7596 23.7759 21.3339 23.8611 20.9394 24.0234C21.2323 23.4222 21.3988 22.8578 21.4604 22.4104C21.4666 22.3659 21.4697 22.3209 21.4697 22.2759V18.473C21.4697 14.6882 18.3902 11.6091 14.6049 11.6091C14.0612 11.6091 13.6205 12.0499 13.6205 12.5935V17.4962C13.6205 20.438 11.3098 22.0669 8.8635 23.7915C8.49645 24.0502 8.11993 24.3163 7.75214 24.5862H1.85254C1.30892 24.5862 0.868164 25.027 0.868164 25.5706V41.7204C0.868164 42.264 1.30892 42.7048 1.85254 42.7048H7.69136C9.8117 44.614 11.9444 45.2339 14.4218 45.2339C16.3241 45.2339 18.4299 44.8687 20.8884 44.4424L21.4374 44.3474C21.6839 44.4053 21.9385 44.4359 22.1977 44.4359H22.198H22.1981H22.944C23.5635 46.5207 25.4876 48.0034 27.7337 48.0034H30.1459V55.1956C30.1459 55.5974 30.3901 55.9588 30.7628 56.1088C30.882 56.1567 31.0065 56.18 31.1301 56.18C31.393 56.18 31.6508 56.0747 31.8402 55.8776L39.4044 48.0034H57.1333C59.8894 48.0034 62.1317 45.7611 62.1317 43.005V22.8875C62.1317 20.1313 59.8896 17.889 57.1333 17.889ZM37.0447 13.8506L40.1463 13.6994C40.6776 13.6736 41.1429 13.3355 41.3313 12.8385L42.4335 9.9353L43.536 12.8388C43.7248 13.3357 44.1899 13.6735 44.7207 13.6994L47.8225 13.8506L45.402 15.7961C44.9876 16.1294 44.8099 16.6761 44.9493 17.189L45.764 20.1857L43.1656 18.4847C42.7211 18.1937 42.1463 18.1937 41.7013 18.4848L39.1031 20.1857L39.9178 17.189C40.0574 16.6761 39.8796 16.1292 39.4651 15.7961L37.0447 13.8506ZM22.1977 25.7447C22.1978 25.7447 22.1978 25.7447 22.1977 25.7447H28.0185C28.764 25.7447 29.3704 26.3512 29.3704 27.0966C29.3704 27.8422 28.7639 28.4487 28.0185 28.4487H22.198C21.4524 28.4487 20.8459 27.8422 20.8459 27.0966C20.8459 26.7381 20.9872 26.3992 21.2439 26.1427C21.5004 25.8861 21.8392 25.7447 22.1977 25.7447ZM22.1978 37.7943C21.4524 37.7942 20.8459 37.1877 20.8459 36.4422C20.8459 35.6966 21.4526 35.0903 22.198 35.0903H27.3632C28.1088 35.0903 28.7151 35.6968 28.7151 36.4422C28.7151 37.1877 28.1087 37.7943 27.3632 37.7943H22.1978ZM21.2137 33.1215C20.4682 33.1215 19.8617 32.515 19.8617 31.7696C19.8617 31.0241 20.4683 30.4176 21.2137 30.4176H29.0027C29.7483 30.4176 30.3546 31.0242 30.3547 31.7695C30.3546 32.515 29.7481 33.1215 29.0027 33.1215H21.2137ZM7.09852 40.7361H2.83691V26.5551H7.09421C7.10135 35.249 7.10123 39.1515 7.09852 40.7361ZM9.06247 26.0669C9.3648 25.8471 9.67475 25.6282 9.99763 25.4006C12.6185 23.5529 15.589 21.4588 15.589 17.4962V13.6772C17.8184 14.134 19.5007 16.1108 19.5007 18.473V22.2018C19.4023 22.7859 18.9989 23.7323 18.158 24.5738C17.8232 24.9089 17.7746 25.435 18.0422 25.8258C18.7454 26.8525 18.9835 27.8058 18.7703 28.7401C18.3588 30.5421 16.3369 31.8725 15.4866 32.3607C15.0152 32.6315 14.8526 33.2331 15.1233 33.7045C15.3053 34.0215 15.6369 34.1988 15.9778 34.1988C16.1441 34.1988 16.3126 34.1566 16.4672 34.0679C16.933 33.8004 17.5192 33.4243 18.109 32.9437C18.3672 33.6239 18.8411 34.1988 19.4489 34.5815C19.0882 35.1125 18.8772 35.7532 18.8772 36.4423C18.8772 37.3525 19.2452 38.1784 19.8404 38.7788C19.2452 39.3793 18.8772 40.2051 18.8772 41.1153C18.8772 41.6851 19.0216 42.2333 19.2919 42.7195C14.5203 43.5289 11.8436 43.762 9.06579 41.2938L9.06247 26.0669ZM25.9697 39.7632C26.7153 39.7632 27.3216 40.3697 27.3216 41.1153C27.3216 41.4738 27.1804 41.8126 26.9237 42.0692C26.667 42.3259 26.3283 42.4672 25.9697 42.4672H25.9696H22.198H22.1978C21.8394 42.4672 21.5005 42.3259 21.244 42.0694C20.9873 41.8127 20.8461 41.4739 20.8461 41.1153C20.8461 40.3697 21.4527 39.7632 22.1981 39.7632H25.9697ZM60.163 43.005C60.163 44.6756 58.8038 46.0347 57.1333 46.0347H38.985C38.717 46.0347 38.4607 46.1439 38.275 46.3371L32.1147 52.7501V47.019C32.1147 46.4754 31.6739 46.0347 31.1303 46.0347H27.7337C26.585 46.0347 25.576 45.3946 25.0627 44.4359H25.9695H25.9699C26.8542 44.4359 27.6873 44.0899 28.3157 43.4614C28.9441 42.8329 29.2904 41.9997 29.2904 41.1153C29.2904 40.4978 29.121 39.919 28.8263 39.4232C29.9257 38.8813 30.684 37.7487 30.684 36.4423C30.684 35.8611 30.534 35.3145 30.2706 34.8389C31.4746 34.3397 32.3236 33.152 32.3237 31.7696C32.3236 30.5865 31.7017 29.546 30.7677 28.9577C31.1283 28.4267 31.3394 27.7858 31.3394 27.0968C31.3394 25.2657 29.8498 23.7761 28.0187 23.7761H24.7041V22.8875C24.7041 21.2168 26.0631 19.8578 27.7337 19.8578H37.1521L36.767 21.2744C36.6198 21.8152 36.8175 22.3774 37.2708 22.7069C37.7241 23.0365 38.3201 23.0511 38.7894 22.7442L42.4336 20.3586L46.078 22.7442C46.3029 22.8915 46.5571 22.9647 46.8107 22.9647C47.0857 22.9647 47.3602 22.8786 47.5961 22.7072C48.0495 22.3778 48.2474 21.8156 48.1004 21.2748L47.7152 19.8579H57.1334C58.8039 19.8579 60.1631 21.217 60.1631 22.8876V43.005H60.163ZM57.6723 40.6067C57.6723 41.1503 57.2315 41.5911 56.6879 41.5911H34.5787C34.0351 41.5911 33.5943 41.1503 33.5943 40.6067C33.5943 40.0631 34.0351 39.6223 34.5787 39.6223H56.6879C57.2315 39.6223 57.6723 40.063 57.6723 40.6067ZM33.5943 25.841C33.5943 25.2973 34.0351 24.8566 34.5787 24.8566H48.8548C49.3985 24.8566 49.8392 25.2973 49.8392 25.841C49.8392 26.3846 49.3985 26.8253 48.8548 26.8253H34.5787C34.0352 26.8253 33.5943 26.3846 33.5943 25.841ZM33.5943 29.5324C33.5943 28.9887 34.0351 28.548 34.5787 28.548H46.3993C46.9429 28.548 47.3837 28.9887 47.3837 29.5324C47.3837 30.076 46.9429 30.5167 46.3993 30.5167H34.5787C34.0352 30.5167 33.5943 30.076 33.5943 29.5324ZM33.5943 33.2238C33.5943 32.6801 34.0351 32.2394 34.5787 32.2394H54.1705C54.7141 32.2394 55.1548 32.6801 55.1548 33.2238C55.1548 33.7674 54.7141 34.2081 54.1705 34.2081H34.5787C34.0352 34.2081 33.5943 33.7674 33.5943 33.2238ZM33.5943 36.9153C33.5943 36.3717 34.0351 35.9309 34.5787 35.9309H51.5437C52.0873 35.9309 52.528 36.3717 52.528 36.9153C52.528 37.4589 52.0873 37.8997 51.5437 37.8997H34.5787C34.0352 37.8997 33.5943 37.4589 33.5943 36.9153Z" fill="#FD3B3B"/>
<path d="M13.312 90.272C13.216 91.104 12.9227 91.8133 12.432 92.4C11.9413 92.9867 11.2747 93.4347 10.432 93.744C9.58933 94.0533 8.58667 94.208 7.424 94.208C6.45333 94.208 5.56267 94.096 4.752 93.872C3.952 93.648 3.25867 93.312 2.672 92.864C2.096 92.416 1.648 91.8613 1.328 91.2C1.008 90.528 0.848 89.744 0.848 88.848C0.848 87.952 1.008 87.168 1.328 86.496C1.648 85.824 2.096 85.264 2.672 84.816C3.25867 84.3573 3.952 84.016 4.752 83.792C5.56267 83.5573 6.45333 83.44 7.424 83.44C8.58667 83.44 9.58933 83.6 10.432 83.92C11.2853 84.24 11.9573 84.6987 12.448 85.296C12.9387 85.8827 13.2267 86.5973 13.312 87.44H11.2C11.0613 86.992 10.8267 86.608 10.496 86.288C10.176 85.9573 9.76 85.7067 9.248 85.536C8.736 85.3653 8.128 85.28 7.424 85.28C6.54933 85.28 5.78133 85.4187 5.12 85.696C4.45867 85.9627 3.94667 86.3627 3.584 86.896C3.22133 87.4187 3.04 88.0693 3.04 88.848C3.04 89.616 3.22133 90.2613 3.584 90.784C3.94667 91.3067 4.45867 91.7067 5.12 91.984C5.78133 92.2507 6.54933 92.384 7.424 92.384C8.128 92.384 8.73067 92.2987 9.232 92.128C9.744 91.9573 10.16 91.712 10.48 91.392C10.8107 91.072 11.0507 90.6987 11.2 90.272H13.312ZM24.3163 94H22.2362V86.048H24.3163V94ZM22.3483 90.176L22.3643 90.72C22.3429 90.8693 22.2896 91.088 22.2043 91.376C22.1189 91.6533 21.9856 91.952 21.8043 92.272C21.6336 92.592 21.4096 92.9013 21.1323 93.2C20.8549 93.488 20.5136 93.728 20.1083 93.92C19.7029 94.1013 19.2229 94.192 18.6683 94.192C18.2309 94.192 17.7989 94.1387 17.3723 94.032C16.9563 93.9253 16.5776 93.7493 16.2363 93.504C15.8949 93.248 15.6229 92.9067 15.4203 92.48C15.2176 92.0533 15.1163 91.5147 15.1163 90.864V86.048H17.1963V90.512C17.1963 91.024 17.2763 91.4293 17.4363 91.728C17.6069 92.016 17.8523 92.2187 18.1723 92.336C18.4923 92.4533 18.8709 92.512 19.3083 92.512C19.8843 92.512 20.3803 92.3893 20.7963 92.144C21.2123 91.888 21.5483 91.5787 21.8043 91.216C22.0709 90.8533 22.2523 90.5067 22.3483 90.176ZM25.89 91.36H27.81C27.9273 91.7227 28.1673 92.0213 28.53 92.256C28.9033 92.48 29.3887 92.592 29.986 92.592C30.3913 92.592 30.706 92.5547 30.93 92.48C31.154 92.4053 31.3087 92.2987 31.394 92.16C31.4793 92.0107 31.522 91.8453 31.522 91.664C31.522 91.44 31.4527 91.2693 31.314 91.152C31.1753 91.024 30.962 90.9227 30.674 90.848C30.386 90.7733 30.018 90.704 29.57 90.64C29.122 90.5653 28.69 90.4747 28.274 90.368C27.858 90.2613 27.49 90.1227 27.17 89.952C26.85 89.7707 26.594 89.5467 26.402 89.28C26.2207 89.0027 26.13 88.6667 26.13 88.272C26.13 87.888 26.2207 87.5467 26.402 87.248C26.594 86.9493 26.8553 86.6987 27.186 86.496C27.5273 86.2933 27.922 86.1387 28.37 86.032C28.8287 85.9253 29.3193 85.872 29.842 85.872C30.6313 85.872 31.2873 85.9893 31.81 86.224C32.3327 86.448 32.722 86.768 32.978 87.184C33.2447 87.5893 33.378 88.0587 33.378 88.592H31.538C31.4527 88.1973 31.282 87.9147 31.026 87.744C30.77 87.5627 30.3753 87.472 29.842 87.472C29.3193 87.472 28.9247 87.552 28.658 87.712C28.3913 87.872 28.258 88.0907 28.258 88.368C28.258 88.592 28.338 88.768 28.498 88.896C28.6687 89.0133 28.914 89.1093 29.234 89.184C29.5647 89.2587 29.9753 89.3387 30.466 89.424C30.882 89.5093 31.2767 89.6053 31.65 89.712C32.034 89.8187 32.3753 89.9573 32.674 90.128C32.9727 90.288 33.2073 90.5067 33.378 90.784C33.5593 91.0507 33.65 91.392 33.65 91.808C33.65 92.32 33.5007 92.752 33.202 93.104C32.914 93.456 32.498 93.728 31.954 93.92C31.41 94.1013 30.7593 94.192 30.002 94.192C29.33 94.192 28.7487 94.1227 28.258 93.984C27.778 93.8347 27.378 93.648 27.058 93.424C26.738 93.1893 26.4873 92.944 26.306 92.688C26.1353 92.4213 26.018 92.1707 25.954 91.936C25.89 91.7013 25.8687 91.5093 25.89 91.36ZM34.6813 86.048H40.8573V87.664H34.6813V86.048ZM36.7293 83.872H38.8093V94H36.7293V83.872ZM46.7574 94.192C45.7547 94.192 44.8694 94.032 44.1014 93.712C43.344 93.392 42.752 92.928 42.3254 92.32C41.8987 91.7013 41.6854 90.944 41.6854 90.048C41.6854 89.152 41.8987 88.3947 42.3254 87.776C42.752 87.1467 43.344 86.672 44.1014 86.352C44.8694 86.032 45.7547 85.872 46.7574 85.872C47.76 85.872 48.6347 86.032 49.3814 86.352C50.1387 86.672 50.7307 87.1467 51.1574 87.776C51.584 88.3947 51.7974 89.152 51.7974 90.048C51.7974 90.944 51.584 91.7013 51.1574 92.32C50.7307 92.928 50.1387 93.392 49.3814 93.712C48.6347 94.032 47.76 94.192 46.7574 94.192ZM46.7574 92.592C47.312 92.592 47.808 92.496 48.2454 92.304C48.6934 92.1013 49.0454 91.8133 49.3014 91.44C49.5574 91.056 49.6854 90.592 49.6854 90.048C49.6854 89.504 49.5574 89.04 49.3014 88.656C49.0454 88.2613 48.6987 87.9627 48.2614 87.76C47.824 87.5573 47.3227 87.456 46.7574 87.456C46.2027 87.456 45.7014 87.5573 45.2534 87.76C44.8054 87.9627 44.448 88.256 44.1814 88.64C43.9254 89.024 43.7974 89.4933 43.7974 90.048C43.7974 90.592 43.9254 91.056 44.1814 91.44C44.4374 91.8133 44.7894 92.1013 45.2374 92.304C45.6854 92.496 46.192 92.592 46.7574 92.592ZM53.335 86.048H55.415V94H53.335V86.048ZM59.111 85.872C59.6017 85.872 60.055 85.936 60.471 86.064C60.887 86.192 61.2497 86.3893 61.559 86.656C61.8683 86.9227 62.1083 87.264 62.279 87.68C62.4497 88.0853 62.535 88.5707 62.535 89.136V94H60.455V89.504C60.455 88.832 60.2897 88.3413 59.959 88.032C59.639 87.712 59.111 87.552 58.375 87.552C57.8203 87.552 57.319 87.6587 56.871 87.872C56.423 88.0853 56.0603 88.3573 55.783 88.688C55.5057 89.008 55.3457 89.344 55.303 89.696L55.287 88.88C55.3403 88.5067 55.463 88.144 55.655 87.792C55.847 87.44 56.103 87.12 56.423 86.832C56.7537 86.5333 57.143 86.2987 57.591 86.128C58.039 85.9573 58.5457 85.872 59.111 85.872ZM66.039 85.872C66.5297 85.872 66.983 85.936 67.399 86.064C67.815 86.192 68.1777 86.3893 68.487 86.656C68.7963 86.9227 69.0363 87.264 69.207 87.68C69.3883 88.0853 69.479 88.5707 69.479 89.136V94H67.399V89.504C67.399 88.832 67.2337 88.3413 66.903 88.032C66.5723 87.712 66.039 87.552 65.303 87.552C64.7483 87.552 64.247 87.6587 63.799 87.872C63.351 88.0853 62.9883 88.3573 62.711 88.688C62.4337 89.008 62.279 89.344 62.247 89.696L62.215 88.832C62.2683 88.48 62.3963 88.128 62.599 87.776C62.8017 87.424 63.0683 87.104 63.399 86.816C63.7297 86.528 64.1137 86.2987 64.551 86.128C64.999 85.9573 65.495 85.872 66.039 85.872ZM78.6143 91.36H80.6303C80.5449 91.904 80.3156 92.3893 79.9423 92.816C79.5796 93.2427 79.0836 93.5787 78.4543 93.824C77.8249 94.0693 77.0569 94.192 76.1503 94.192C75.1369 94.192 74.2409 94.032 73.4623 93.712C72.6836 93.3813 72.0756 92.9067 71.6383 92.288C71.2009 91.6693 70.9823 90.9227 70.9823 90.048C70.9823 89.1733 71.1956 88.4267 71.6223 87.808C72.0489 87.1787 72.6409 86.6987 73.3983 86.368C74.1663 86.0373 75.0623 85.872 76.0863 85.872C77.1316 85.872 78.0009 86.0373 78.6943 86.368C79.3876 86.6987 79.8996 87.2 80.2303 87.872C80.5716 88.5333 80.7156 89.3813 80.6623 90.416H73.0783C73.1316 90.8213 73.2809 91.1893 73.5263 91.52C73.7823 91.8507 74.1236 92.112 74.5503 92.304C74.9876 92.496 75.5049 92.592 76.1023 92.592C76.7636 92.592 77.3129 92.48 77.7503 92.256C78.1983 92.0213 78.4863 91.7227 78.6143 91.36ZM75.9903 87.456C75.2223 87.456 74.5983 87.6267 74.1183 87.968C73.6383 88.2987 73.3289 88.7093 73.1903 89.2H78.5983C78.5449 88.6667 78.2889 88.2453 77.8303 87.936C77.3823 87.616 76.7689 87.456 75.9903 87.456ZM82.21 86.048H84.29V94H82.21V86.048ZM87.346 87.76C86.7487 87.76 86.2313 87.8773 85.794 88.112C85.3567 88.336 85.0047 88.6133 84.738 88.944C84.4713 89.2747 84.2847 89.5947 84.178 89.904L84.162 89.024C84.1727 88.896 84.2153 88.7093 84.29 88.464C84.3647 88.208 84.4767 87.936 84.626 87.648C84.7753 87.3493 84.9727 87.0667 85.218 86.8C85.4633 86.5227 85.762 86.2987 86.114 86.128C86.466 85.9573 86.8767 85.872 87.346 85.872V87.76ZM13.312 109.272C13.216 110.104 12.9227 110.813 12.432 111.4C11.9413 111.987 11.2747 112.435 10.432 112.744C9.58933 113.053 8.58667 113.208 7.424 113.208C6.45333 113.208 5.56267 113.096 4.752 112.872C3.952 112.648 3.25867 112.312 2.672 111.864C2.096 111.416 1.648 110.861 1.328 110.2C1.008 109.528 0.848 108.744 0.848 107.848C0.848 106.952 1.008 106.168 1.328 105.496C1.648 104.824 2.096 104.264 2.672 103.816C3.25867 103.357 3.952 103.016 4.752 102.792C5.56267 102.557 6.45333 102.44 7.424 102.44C8.58667 102.44 9.58933 102.6 10.432 102.92C11.2853 103.24 11.9573 103.699 12.448 104.296C12.9387 104.883 13.2267 105.597 13.312 106.44H11.2C11.0613 105.992 10.8267 105.608 10.496 105.288C10.176 104.957 9.76 104.707 9.248 104.536C8.736 104.365 8.128 104.28 7.424 104.28C6.54933 104.28 5.78133 104.419 5.12 104.696C4.45867 104.963 3.94667 105.363 3.584 105.896C3.22133 106.419 3.04 107.069 3.04 107.848C3.04 108.616 3.22133 109.261 3.584 109.784C3.94667 110.307 4.45867 110.707 5.12 110.984C5.78133 111.251 6.54933 111.384 7.424 111.384C8.128 111.384 8.73067 111.299 9.232 111.128C9.744 110.957 10.16 110.712 10.48 110.392C10.8107 110.072 11.0507 109.699 11.2 109.272H13.312ZM22.3802 113V108.632C22.3802 108.195 22.3056 107.832 22.1562 107.544C22.0069 107.256 21.7669 107.037 21.4363 106.888C21.1163 106.739 20.6843 106.664 20.1403 106.664C19.6176 106.664 19.1429 106.765 18.7163 106.968C18.2896 107.16 17.9429 107.416 17.6763 107.736C17.4096 108.045 17.2603 108.376 17.2283 108.728L17.2123 107.848C17.2656 107.496 17.3883 107.144 17.5803 106.792C17.7723 106.44 18.0283 106.12 18.3483 105.832C18.6683 105.544 19.0523 105.315 19.5003 105.144C19.9589 104.963 20.4709 104.872 21.0363 104.872C21.5269 104.872 21.9803 104.936 22.3963 105.064C22.8123 105.181 23.1749 105.368 23.4843 105.624C23.7936 105.88 24.0336 106.2 24.2043 106.584C24.3749 106.957 24.4603 107.4 24.4603 107.912V113H22.3802ZM15.2603 113V101.848H17.3403V113H15.2603ZM31.0386 113.192C30.036 113.192 29.1506 113.032 28.3826 112.712C27.6253 112.392 27.0333 111.928 26.6066 111.32C26.18 110.701 25.9666 109.944 25.9666 109.048C25.9666 108.152 26.18 107.395 26.6066 106.776C27.0333 106.147 27.6253 105.672 28.3826 105.352C29.1506 105.032 30.036 104.872 31.0386 104.872C32.0413 104.872 32.916 105.032 33.6626 105.352C34.42 105.672 35.012 106.147 35.4386 106.776C35.8653 107.395 36.0786 108.152 36.0786 109.048C36.0786 109.944 35.8653 110.701 35.4386 111.32C35.012 111.928 34.42 112.392 33.6626 112.712C32.916 113.032 32.0413 113.192 31.0386 113.192ZM31.0386 111.592C31.5933 111.592 32.0893 111.496 32.5266 111.304C32.9746 111.101 33.3266 110.813 33.5826 110.44C33.8386 110.056 33.9666 109.592 33.9666 109.048C33.9666 108.504 33.8386 108.04 33.5826 107.656C33.3266 107.261 32.98 106.963 32.5426 106.76C32.1053 106.557 31.604 106.456 31.0386 106.456C30.484 106.456 29.9826 106.557 29.5346 106.76C29.0866 106.963 28.7293 107.256 28.4626 107.64C28.2066 108.024 28.0786 108.493 28.0786 109.048C28.0786 109.592 28.2066 110.056 28.4626 110.44C28.7186 110.813 29.0706 111.101 29.5186 111.304C29.9666 111.496 30.4733 111.592 31.0386 111.592ZM40.0003 101.56V103.384H37.5843V101.56H40.0003ZM37.7443 105.048H39.8243V113H37.7443V105.048ZM51.3375 109.864C51.2842 110.557 51.0602 111.155 50.6655 111.656C50.2815 112.157 49.7482 112.541 49.0655 112.808C48.3828 113.064 47.5722 113.192 46.6335 113.192C45.6522 113.192 44.7722 113.037 43.9935 112.728C43.2255 112.408 42.6175 111.944 42.1695 111.336C41.7322 110.717 41.5135 109.955 41.5135 109.048C41.5135 108.141 41.7322 107.379 42.1695 106.76C42.6175 106.141 43.2255 105.672 43.9935 105.352C44.7722 105.032 45.6522 104.872 46.6335 104.872C47.5722 104.872 48.3775 105.005 49.0495 105.272C49.7215 105.528 50.2495 105.901 50.6335 106.392C51.0282 106.883 51.2575 107.475 51.3215 108.168H49.4175C49.2362 107.635 48.9002 107.219 48.4095 106.92C47.9188 106.621 47.3268 106.472 46.6335 106.472C46.0788 106.472 45.5722 106.568 45.1135 106.76C44.6655 106.952 44.3028 107.24 44.0255 107.624C43.7588 107.997 43.6255 108.472 43.6255 109.048C43.6255 109.613 43.7588 110.088 44.0255 110.472C44.2922 110.845 44.6548 111.128 45.1135 111.32C45.5722 111.501 46.0788 111.592 46.6335 111.592C47.3802 111.592 47.9882 111.443 48.4575 111.144C48.9375 110.845 49.2628 110.419 49.4335 109.864H51.3375ZM60.1143 110.36H62.1303C62.0449 110.904 61.8156 111.389 61.4423 111.816C61.0796 112.243 60.5836 112.579 59.9543 112.824C59.3249 113.069 58.5569 113.192 57.6503 113.192C56.6369 113.192 55.7409 113.032 54.9623 112.712C54.1836 112.381 53.5756 111.907 53.1383 111.288C52.7009 110.669 52.4823 109.923 52.4823 109.048C52.4823 108.173 52.6956 107.427 53.1223 106.808C53.5489 106.179 54.1409 105.699 54.8983 105.368C55.6663 105.037 56.5623 104.872 57.5863 104.872C58.6316 104.872 59.5009 105.037 60.1943 105.368C60.8876 105.699 61.3996 106.2 61.7303 106.872C62.0716 107.533 62.2156 108.381 62.1623 109.416H54.5783C54.6316 109.821 54.7809 110.189 55.0263 110.52C55.2823 110.851 55.6236 111.112 56.0503 111.304C56.4876 111.496 57.0049 111.592 57.6023 111.592C58.2636 111.592 58.8129 111.48 59.2503 111.256C59.6983 111.021 59.9863 110.723 60.1143 110.36ZM57.4903 106.456C56.7223 106.456 56.0983 106.627 55.6183 106.968C55.1383 107.299 54.8289 107.709 54.6903 108.2H60.0983C60.0449 107.667 59.7889 107.245 59.3303 106.936C58.8823 106.616 58.2689 106.456 57.4903 106.456ZM69.4574 110.744V108.968H76.3054V110.744H69.4574ZM66.8814 113L71.7454 102.648H74.0494L78.9614 113H76.6414L72.3854 103.672H73.4094L69.1854 113H66.8814ZM89.7811 111.56L89.1251 111.544L91.7171 105.048H94.0051L90.5011 113H88.5491L85.9891 106.584H86.6931L84.0531 113H82.1011L78.6931 105.048H80.9811L83.4771 111.56H82.8211L85.1571 105.048H87.5411L89.7811 111.56ZM98.7383 113.176C97.9489 113.176 97.2289 113.005 96.5783 112.664C95.9383 112.312 95.4263 111.827 95.0423 111.208C94.6689 110.579 94.4823 109.853 94.4823 109.032C94.4823 108.189 94.6743 107.459 95.0583 106.84C95.4423 106.221 95.9596 105.741 96.6103 105.4C97.2716 105.048 98.0183 104.872 98.8503 104.872C99.7676 104.872 100.504 105.059 101.058 105.432C101.624 105.795 102.034 106.291 102.29 106.92C102.546 107.549 102.674 108.253 102.674 109.032C102.674 109.501 102.6 109.981 102.45 110.472C102.301 110.952 102.072 111.4 101.762 111.816C101.453 112.221 101.048 112.552 100.546 112.808C100.045 113.053 99.4423 113.176 98.7383 113.176ZM99.4103 111.576C100.04 111.576 100.584 111.469 101.042 111.256C101.501 111.043 101.853 110.744 102.098 110.36C102.344 109.976 102.466 109.533 102.466 109.032C102.466 108.488 102.338 108.029 102.082 107.656C101.837 107.272 101.485 106.984 101.026 106.792C100.578 106.589 100.04 106.488 99.4103 106.488C98.5249 106.488 97.8369 106.723 97.3463 107.192C96.8556 107.651 96.6103 108.264 96.6103 109.032C96.6103 109.544 96.7276 109.992 96.9623 110.376C97.1969 110.749 97.5223 111.043 97.9383 111.256C98.3649 111.469 98.8556 111.576 99.4103 111.576ZM102.466 105.048H104.546V113H102.61C102.61 113 102.594 112.899 102.562 112.696C102.541 112.483 102.52 112.216 102.498 111.896C102.477 111.576 102.466 111.261 102.466 110.952V105.048ZM106.429 105.048H108.509V113H106.429V105.048ZM111.565 106.76C110.967 106.76 110.45 106.877 110.013 107.112C109.575 107.336 109.223 107.613 108.957 107.944C108.69 108.275 108.503 108.595 108.397 108.904L108.381 108.024C108.391 107.896 108.434 107.709 108.509 107.464C108.583 107.208 108.695 106.936 108.845 106.648C108.994 106.349 109.191 106.067 109.437 105.8C109.682 105.523 109.981 105.299 110.333 105.128C110.685 104.957 111.095 104.872 111.565 104.872V106.76ZM116.723 113.176C115.923 113.176 115.197 113.005 114.547 112.664C113.907 112.312 113.4 111.827 113.027 111.208C112.653 110.579 112.467 109.853 112.467 109.032C112.467 108.189 112.648 107.459 113.011 106.84C113.384 106.221 113.891 105.741 114.531 105.4C115.171 105.048 115.901 104.872 116.723 104.872C117.437 104.872 118.045 104.979 118.547 105.192C119.048 105.405 119.453 105.704 119.763 106.088C120.072 106.461 120.296 106.899 120.435 107.4C120.584 107.901 120.659 108.445 120.659 109.032C120.659 109.501 120.584 109.981 120.435 110.472C120.285 110.952 120.056 111.4 119.747 111.816C119.437 112.221 119.032 112.552 118.531 112.808C118.029 113.053 117.427 113.176 116.723 113.176ZM117.395 111.576C118.024 111.576 118.568 111.469 119.027 111.256C119.485 111.043 119.837 110.744 120.083 110.36C120.328 109.976 120.451 109.533 120.451 109.032C120.451 108.488 120.323 108.029 120.067 107.656C119.821 107.272 119.469 106.979 119.011 106.776C118.563 106.573 118.024 106.472 117.395 106.472C116.509 106.472 115.821 106.707 115.331 107.176C114.84 107.645 114.595 108.264 114.595 109.032C114.595 109.544 114.712 109.992 114.947 110.376C115.181 110.749 115.507 111.043 115.923 111.256C116.349 111.469 116.84 111.576 117.395 111.576ZM120.451 101.848H122.531V113H120.595C120.563 112.755 120.531 112.44 120.499 112.056C120.467 111.661 120.451 111.293 120.451 110.952V101.848Z" fill="#222222"/>
</svg>
