<svg width="130" height="136" viewBox="0 0 130 136" fill="none" xmlns="http://www.w3.org/2000/svg">
<g clip-path="url(#clip0_88_1019)">
<path d="M59.4421 8.46907L56.75 6.0985L59.4421 3.72841C59.8607 3.35927 60.004 2.78393 59.8074 2.26194C59.6098 1.73948 59.122 1.40206 58.564 1.40206H47.4234V0.92333C47.4234 0.41336 47.0101 0 46.5001 0C45.9901 0 45.5768 0.41336 45.5768 0.92333V13.376L37.9935 17.4938C37.9517 17.1602 37.8517 16.8324 37.6936 16.5238L36.6251 14.4378C35.8917 13.0055 34.1296 12.4378 32.6982 13.1708L31.872 13.5938C31.1779 13.9495 30.6641 14.5531 30.4247 15.2953C30.1854 16.0369 30.2493 16.8276 30.605 17.5212L31.6735 19.6077C31.9229 20.0946 32.2916 20.4801 32.7251 20.7502C32.158 21.5139 31.8888 22.4531 31.6119 23.4288L31.4129 24.1335C31.274 24.6242 31.5595 25.1347 32.0503 25.2731C32.1339 25.2971 32.2185 25.3082 32.3017 25.3082C32.7045 25.3082 33.0746 25.0429 33.1899 24.6358L33.3889 23.9326C33.7936 22.5055 34.0421 21.7413 34.8333 21.3116L36.2517 20.5411L36.4266 20.4517C36.4848 20.4219 36.5391 20.3883 36.5944 20.3551L46.7034 14.8656C46.6395 16.1292 45.9594 17.3231 44.8394 18.0033L38.2656 21.9975C38.2579 22.0018 38.2502 22.0061 38.243 22.0109L36.1969 23.2539C35.7614 23.5187 35.6225 24.0869 35.8873 24.5228C36.1368 24.9338 36.6559 25.0799 37.0793 24.8737L35.5268 29.5668L34.392 30.032L31.3062 31.2966L32.1954 28.1532C32.3339 27.6624 32.0488 27.152 31.5581 27.0131C31.0669 26.8737 30.5569 27.1597 30.418 27.6504L29.0131 32.6189C28.9948 32.6828 28.9828 32.753 28.9799 32.8198L28.6122 39.5739C28.6011 39.8315 28.6559 40.3184 28.5367 40.5698L24.4531 49.161H21.4856C19.7471 49.161 18.333 50.5751 18.333 52.3131V54.9783C17.935 54.7961 17.4933 54.6942 17.0275 54.6942H9.49142C7.75339 54.6942 6.33931 56.1078 6.33931 57.8463V61.1532H4.12255C3.61258 61.1532 3.19922 61.5666 3.19922 62.0765C3.19922 62.5865 3.61258 62.9999 4.12255 62.9999H58.563C59.073 62.9999 59.4863 62.5865 59.4863 62.0765C59.4863 61.5666 59.073 61.1532 58.563 61.1532H56.1617V37.3538C56.1617 35.6157 54.7476 34.2017 53.0096 34.2017H47.4234V18.0936C48.4472 16.706 48.8264 14.8872 48.3511 13.1588C48.2766 12.8872 48.0819 12.6642 47.8224 12.5541C47.695 12.4998 47.5585 12.4758 47.4234 12.4811V10.7954H58.5635C59.122 10.7954 59.6098 10.458 59.8069 9.93602C60.004 9.41403 59.8607 8.83821 59.4421 8.46907ZM32.1825 15.8624C32.2704 15.5899 32.4588 15.3679 32.7136 15.2376L33.5398 14.8146C33.6956 14.7348 33.8619 14.6969 34.0262 14.6969C34.4156 14.6969 34.7919 14.9098 34.9813 15.2794L36.0503 17.3659C36.2997 17.8533 36.1382 18.444 35.6946 18.7425L35.3937 18.9054L34.7588 19.2308C34.2334 19.5 33.5864 19.2914 33.3173 18.7656L32.2483 16.6795C32.1181 16.4248 32.0945 16.1345 32.1825 15.8624ZM30.3272 49.445C30.0133 49.3018 29.672 49.2081 29.3135 49.1749L30.3272 47.8286V49.445ZM34.7112 42.005C35.1553 41.473 35.2779 40.8515 35.3769 40.3506C35.4019 40.2314 35.8575 37.7426 35.8575 37.7426C35.8575 37.7426 36.2887 38.0113 36.3339 38.0305C36.3651 38.0445 36.3872 38.0752 36.3906 38.1113L36.8928 43.2172H33.7984L34.7112 42.005ZM40.1714 36.9087L39.3918 43.2129H38.7482L38.2286 37.9306C38.1622 37.2538 37.7479 36.6631 37.1409 36.3694L36.2122 35.7806L36.8308 32.3521C36.8308 32.3521 39.4369 35.448 39.4975 35.5268C40.0368 36.2281 40.2214 36.5088 40.1714 36.9087ZM30.1979 41.3773C30.3844 40.8159 30.4709 40.2444 30.4564 39.6633L30.7919 33.5033L35.0625 31.7532L34.2863 36.0531C34.2839 36.0647 34.2815 36.0767 34.28 36.0882L33.6379 39.6436C33.5542 40.0118 33.4812 40.5703 33.2514 40.8736L27.0121 49.161H26.4978L30.1979 41.3773ZM8.18597 57.8459C8.18597 57.1263 8.7714 56.5409 9.49142 56.5409H17.0275C17.7476 56.5409 18.3335 57.1263 18.3335 57.8459V61.1532H8.18597V57.8459ZM20.1797 57.8459V52.3131C20.1797 51.5931 20.7656 51.0076 21.4856 51.0076H29.0217C29.7417 51.0076 30.3272 51.5931 30.3272 52.3131V61.1532H20.1801V57.8459H20.1797ZM54.315 37.3538V61.1532H44.168V55.6171C44.168 55.1071 43.7546 54.6937 43.2446 54.6937C42.7342 54.6937 42.3208 55.1071 42.3208 55.6171V61.1532H32.1738V46.3689C32.1738 45.6493 32.7592 45.0639 33.4793 45.0639H41.0154C41.7354 45.0639 42.3208 45.6493 42.3208 46.3689V50.9975C42.3208 51.5075 42.7342 51.9209 43.2442 51.9209C43.7546 51.9209 44.1675 51.5075 44.1675 50.9975V37.3538C44.1675 36.6338 44.7534 36.0483 45.4734 36.0483H46.4905C46.4934 36.0483 46.4967 36.0488 46.5001 36.0488C46.503 36.0488 46.5063 36.0483 46.5092 36.0483H53.0091C53.7291 36.0483 54.315 36.6343 54.315 37.3538ZM45.4734 34.2017C43.7354 34.2017 42.3213 35.6157 42.3213 37.3538V43.5013C41.9906 43.3504 41.6301 43.2547 41.2509 43.2269L42.0041 37.1361C42.1521 35.9488 41.5465 35.162 40.9611 34.4007C40.8991 34.3199 37.3101 30.0585 37.3101 30.0585L39.5119 23.4014L45.5768 19.7168V34.2017H45.4734ZM47.4234 8.94828V3.2492H57.1917L55.0879 5.10163C54.8014 5.35397 54.637 5.71734 54.637 6.09898C54.637 6.48062 54.8014 6.84399 55.0879 7.09633L57.1917 8.94876H47.4234V8.94828Z" fill="#FD3B3B"/>
</g>
<path d="M1.232 94V83.648H7.2C8.58667 83.648 9.63733 83.8827 10.352 84.352C11.0773 84.8107 11.44 85.4987 11.44 86.416C11.44 87.0027 11.296 87.4667 11.008 87.808C10.72 88.1387 10.3093 88.384 9.776 88.544C9.25333 88.704 8.63467 88.8053 7.92 88.848L7.984 88.736C8.50667 88.7467 8.99733 88.784 9.456 88.848C9.92533 88.912 10.336 89.0293 10.688 89.2C11.04 89.3707 11.3173 89.6107 11.52 89.92C11.7227 90.2187 11.824 90.6133 11.824 91.104C11.824 91.744 11.6533 92.2773 11.312 92.704C10.9707 93.12 10.496 93.4347 9.888 93.648C9.28 93.8613 8.576 93.9787 7.776 94H1.232ZM3.36 92.24H7.552C8.224 92.24 8.74133 92.1333 9.104 91.92C9.46667 91.696 9.648 91.344 9.648 90.864C9.648 90.512 9.54133 90.256 9.328 90.096C9.11467 89.936 8.832 89.84 8.48 89.808C8.128 89.7653 7.74933 89.744 7.344 89.744H3.36V92.24ZM3.36 88.032H7.12C7.792 88.032 8.30933 87.936 8.672 87.744C9.03467 87.5413 9.216 87.2 9.216 86.72C9.216 86.24 9.03467 85.904 8.672 85.712C8.30933 85.5093 7.82933 85.408 7.232 85.408H3.36V88.032ZM22.6444 94H20.5644V86.048H22.6444V94ZM20.6764 90.176L20.6924 90.72C20.671 90.8693 20.6177 91.088 20.5324 91.376C20.447 91.6533 20.3137 91.952 20.1324 92.272C19.9617 92.592 19.7377 92.9013 19.4604 93.2C19.183 93.488 18.8417 93.728 18.4364 93.92C18.031 94.1013 17.551 94.192 16.9964 94.192C16.559 94.192 16.127 94.1387 15.7004 94.032C15.2844 93.9253 14.9057 93.7493 14.5644 93.504C14.223 93.248 13.951 92.9067 13.7484 92.48C13.5457 92.0533 13.4444 91.5147 13.4444 90.864V86.048H15.5244V90.512C15.5244 91.024 15.6044 91.4293 15.7644 91.728C15.935 92.016 16.1804 92.2187 16.5004 92.336C16.8204 92.4533 17.199 92.512 17.6364 92.512C18.2124 92.512 18.7084 92.3893 19.1244 92.144C19.5404 91.888 19.8764 91.5787 20.1324 91.216C20.399 90.8533 20.5804 90.5067 20.6764 90.176ZM24.2181 91.36H26.1381C26.2555 91.7227 26.4955 92.0213 26.8581 92.256C27.2315 92.48 27.7168 92.592 28.3141 92.592C28.7195 92.592 29.0341 92.5547 29.2581 92.48C29.4821 92.4053 29.6368 92.2987 29.7221 92.16C29.8075 92.0107 29.8501 91.8453 29.8501 91.664C29.8501 91.44 29.7808 91.2693 29.6421 91.152C29.5035 91.024 29.2901 90.9227 29.0021 90.848C28.7141 90.7733 28.3461 90.704 27.8981 90.64C27.4501 90.5653 27.0181 90.4747 26.6021 90.368C26.1861 90.2613 25.8181 90.1227 25.4981 89.952C25.1781 89.7707 24.9221 89.5467 24.7301 89.28C24.5488 89.0027 24.4581 88.6667 24.4581 88.272C24.4581 87.888 24.5488 87.5467 24.7301 87.248C24.9221 86.9493 25.1835 86.6987 25.5141 86.496C25.8555 86.2933 26.2501 86.1387 26.6981 86.032C27.1568 85.9253 27.6475 85.872 28.1701 85.872C28.9595 85.872 29.6155 85.9893 30.1381 86.224C30.6608 86.448 31.0501 86.768 31.3061 87.184C31.5728 87.5893 31.7061 88.0587 31.7061 88.592H29.8661C29.7808 88.1973 29.6101 87.9147 29.3541 87.744C29.0981 87.5627 28.7035 87.472 28.1701 87.472C27.6475 87.472 27.2528 87.552 26.9861 87.712C26.7195 87.872 26.5861 88.0907 26.5861 88.368C26.5861 88.592 26.6661 88.768 26.8261 88.896C26.9968 89.0133 27.2421 89.1093 27.5621 89.184C27.8928 89.2587 28.3035 89.3387 28.7941 89.424C29.2101 89.5093 29.6048 89.6053 29.9781 89.712C30.3621 89.8187 30.7035 89.9573 31.0021 90.128C31.3008 90.288 31.5355 90.5067 31.7061 90.784C31.8875 91.0507 31.9781 91.392 31.9781 91.808C31.9781 92.32 31.8288 92.752 31.5301 93.104C31.2421 93.456 30.8261 93.728 30.2821 93.92C29.7381 94.1013 29.0875 94.192 28.3301 94.192C27.6581 94.192 27.0768 94.1227 26.5861 93.984C26.1061 93.8347 25.7061 93.648 25.3861 93.424C25.0661 93.1893 24.8155 92.944 24.6341 92.688C24.4635 92.4213 24.3461 92.1707 24.2821 91.936C24.2181 91.7013 24.1968 91.5093 24.2181 91.36ZM35.9534 82.56V84.384H33.5374V82.56H35.9534ZM33.6974 86.048H35.7774V94H33.6974V86.048ZM37.8506 86.048H39.9306V94H37.8506V86.048ZM43.6266 85.872C44.1173 85.872 44.5706 85.936 44.9866 86.064C45.4026 86.192 45.7653 86.3893 46.0746 86.656C46.384 86.9227 46.624 87.264 46.7946 87.68C46.9653 88.0853 47.0506 88.5707 47.0506 89.136V94H44.9706V89.504C44.9706 88.832 44.8053 88.3413 44.4746 88.032C44.1546 87.712 43.6266 87.552 42.8906 87.552C42.336 87.552 41.8346 87.6587 41.3866 87.872C40.9386 88.0853 40.576 88.3573 40.2986 88.688C40.0213 89.008 39.8613 89.344 39.8186 89.696L39.8026 88.88C39.856 88.5067 39.9786 88.144 40.1706 87.792C40.3626 87.44 40.6186 87.12 40.9386 86.832C41.2693 86.5333 41.6586 86.2987 42.1066 86.128C42.5546 85.9573 43.0613 85.872 43.6266 85.872ZM56.1924 91.36H58.2084C58.123 91.904 57.8937 92.3893 57.5204 92.816C57.1577 93.2427 56.6617 93.5787 56.0324 93.824C55.403 94.0693 54.635 94.192 53.7284 94.192C52.715 94.192 51.819 94.032 51.0404 93.712C50.2617 93.3813 49.6537 92.9067 49.2164 92.288C48.779 91.6693 48.5604 90.9227 48.5604 90.048C48.5604 89.1733 48.7737 88.4267 49.2004 87.808C49.627 87.1787 50.219 86.6987 50.9764 86.368C51.7444 86.0373 52.6404 85.872 53.6644 85.872C54.7097 85.872 55.579 86.0373 56.2724 86.368C56.9657 86.6987 57.4777 87.2 57.8084 87.872C58.1497 88.5333 58.2937 89.3813 58.2404 90.416H50.6564C50.7097 90.8213 50.859 91.1893 51.1044 91.52C51.3604 91.8507 51.7017 92.112 52.1284 92.304C52.5657 92.496 53.083 92.592 53.6804 92.592C54.3417 92.592 54.891 92.48 55.3284 92.256C55.7764 92.0213 56.0644 91.7227 56.1924 91.36ZM53.5684 87.456C52.8004 87.456 52.1764 87.6267 51.6964 87.968C51.2164 88.2987 50.907 88.7093 50.7684 89.2H56.1764C56.123 88.6667 55.867 88.2453 55.4084 87.936C54.9604 87.616 54.347 87.456 53.5684 87.456ZM59.4681 91.36H61.3881C61.5055 91.7227 61.7455 92.0213 62.1081 92.256C62.4815 92.48 62.9668 92.592 63.5641 92.592C63.9695 92.592 64.2841 92.5547 64.5081 92.48C64.7321 92.4053 64.8868 92.2987 64.9721 92.16C65.0575 92.0107 65.1001 91.8453 65.1001 91.664C65.1001 91.44 65.0308 91.2693 64.8921 91.152C64.7535 91.024 64.5401 90.9227 64.2521 90.848C63.9641 90.7733 63.5961 90.704 63.1481 90.64C62.7001 90.5653 62.2681 90.4747 61.8521 90.368C61.4361 90.2613 61.0681 90.1227 60.7481 89.952C60.4281 89.7707 60.1721 89.5467 59.9801 89.28C59.7988 89.0027 59.7081 88.6667 59.7081 88.272C59.7081 87.888 59.7988 87.5467 59.9801 87.248C60.1721 86.9493 60.4335 86.6987 60.7641 86.496C61.1055 86.2933 61.5001 86.1387 61.9481 86.032C62.4068 85.9253 62.8975 85.872 63.4201 85.872C64.2095 85.872 64.8655 85.9893 65.3881 86.224C65.9108 86.448 66.3001 86.768 66.5561 87.184C66.8228 87.5893 66.9561 88.0587 66.9561 88.592H65.1161C65.0308 88.1973 64.8601 87.9147 64.6041 87.744C64.3481 87.5627 63.9535 87.472 63.4201 87.472C62.8975 87.472 62.5028 87.552 62.2361 87.712C61.9695 87.872 61.8361 88.0907 61.8361 88.368C61.8361 88.592 61.9161 88.768 62.0761 88.896C62.2468 89.0133 62.4921 89.1093 62.8121 89.184C63.1428 89.2587 63.5535 89.3387 64.0441 89.424C64.4601 89.5093 64.8548 89.6053 65.2281 89.712C65.6121 89.8187 65.9535 89.9573 66.2521 90.128C66.5508 90.288 66.7855 90.5067 66.9561 90.784C67.1375 91.0507 67.2281 91.392 67.2281 91.808C67.2281 92.32 67.0788 92.752 66.7801 93.104C66.4921 93.456 66.0761 93.728 65.5321 93.92C64.9881 94.1013 64.3375 94.192 63.5801 94.192C62.9081 94.192 62.3268 94.1227 61.8361 93.984C61.3561 93.8347 60.9561 93.648 60.6361 93.424C60.3161 93.1893 60.0655 92.944 59.8841 92.688C59.7135 92.4213 59.5961 92.1707 59.5321 91.936C59.4681 91.7013 59.4468 91.5093 59.4681 91.36ZM68.4994 91.36H70.4194C70.5367 91.7227 70.7767 92.0213 71.1394 92.256C71.5127 92.48 71.998 92.592 72.5954 92.592C73.0007 92.592 73.3154 92.5547 73.5394 92.48C73.7634 92.4053 73.918 92.2987 74.0034 92.16C74.0887 92.0107 74.1314 91.8453 74.1314 91.664C74.1314 91.44 74.062 91.2693 73.9234 91.152C73.7847 91.024 73.5714 90.9227 73.2834 90.848C72.9954 90.7733 72.6274 90.704 72.1794 90.64C71.7314 90.5653 71.2994 90.4747 70.8834 90.368C70.4674 90.2613 70.0994 90.1227 69.7794 89.952C69.4594 89.7707 69.2034 89.5467 69.0114 89.28C68.83 89.0027 68.7394 88.6667 68.7394 88.272C68.7394 87.888 68.83 87.5467 69.0114 87.248C69.2034 86.9493 69.4647 86.6987 69.7954 86.496C70.1367 86.2933 70.5314 86.1387 70.9794 86.032C71.438 85.9253 71.9287 85.872 72.4514 85.872C73.2407 85.872 73.8967 85.9893 74.4194 86.224C74.942 86.448 75.3314 86.768 75.5874 87.184C75.854 87.5893 75.9874 88.0587 75.9874 88.592H74.1474C74.062 88.1973 73.8914 87.9147 73.6354 87.744C73.3794 87.5627 72.9847 87.472 72.4514 87.472C71.9287 87.472 71.534 87.552 71.2674 87.712C71.0007 87.872 70.8674 88.0907 70.8674 88.368C70.8674 88.592 70.9474 88.768 71.1074 88.896C71.278 89.0133 71.5234 89.1093 71.8434 89.184C72.174 89.2587 72.5847 89.3387 73.0754 89.424C73.4914 89.5093 73.886 89.6053 74.2594 89.712C74.6434 89.8187 74.9847 89.9573 75.2834 90.128C75.582 90.288 75.8167 90.5067 75.9874 90.784C76.1687 91.0507 76.2594 91.392 76.2594 91.808C76.2594 92.32 76.11 92.752 75.8114 93.104C75.5234 93.456 75.1074 93.728 74.5634 93.92C74.0194 94.1013 73.3687 94.192 72.6114 94.192C71.9394 94.192 71.358 94.1227 70.8674 93.984C70.3874 93.8347 69.9874 93.648 69.6674 93.424C69.3474 93.1893 69.0967 92.944 68.9154 92.688C68.7447 92.4213 68.6274 92.1707 68.5634 91.936C68.4994 91.7013 68.478 91.5093 68.4994 91.36ZM7.184 113.208C6.224 113.208 5.35467 113.096 4.576 112.872C3.808 112.648 3.14133 112.312 2.576 111.864C2.02133 111.416 1.59467 110.861 1.296 110.2C0.997333 109.539 0.848 108.776 0.848 107.912C0.848 107.037 1.00267 106.264 1.312 105.592C1.632 104.909 2.08 104.333 2.656 103.864C3.24267 103.395 3.936 103.043 4.736 102.808C5.54667 102.563 6.44267 102.44 7.424 102.44C8.58667 102.44 9.58933 102.605 10.432 102.936C11.2747 103.256 11.936 103.709 12.416 104.296C12.9067 104.883 13.184 105.581 13.248 106.392H11.2C11.0613 105.965 10.832 105.597 10.512 105.288C10.2027 104.968 9.792 104.723 9.28 104.552C8.768 104.371 8.14933 104.28 7.424 104.28C6.496 104.28 5.70133 104.429 5.04 104.728C4.38933 105.027 3.89333 105.448 3.552 105.992C3.21067 106.536 3.04 107.176 3.04 107.912C3.04 108.627 3.18933 109.245 3.488 109.768C3.78667 110.28 4.24533 110.675 4.864 110.952C5.49333 111.229 6.29333 111.368 7.264 111.368C8.01067 111.368 8.66667 111.272 9.232 111.08C9.808 110.877 10.288 110.611 10.672 110.28C11.056 109.939 11.328 109.56 11.488 109.144L12.32 108.84C12.1813 110.216 11.6587 111.288 10.752 112.056C9.856 112.824 8.66667 113.208 7.184 113.208ZM11.776 113C11.776 112.669 11.7973 112.291 11.84 111.864C11.8827 111.427 11.936 110.989 12 110.552C12.064 110.104 12.1227 109.693 12.176 109.32H7.44V107.96H13.616V113H11.776ZM15.585 105.048H17.665V113H15.585V105.048ZM20.721 106.76C20.1237 106.76 19.6063 106.877 19.169 107.112C18.7317 107.336 18.3797 107.613 18.113 107.944C17.8463 108.275 17.6597 108.595 17.553 108.904L17.537 108.024C17.5477 107.896 17.5903 107.709 17.665 107.464C17.7397 107.208 17.8517 106.936 18.001 106.648C18.1503 106.349 18.3477 106.067 18.593 105.8C18.8383 105.523 19.137 105.299 19.489 105.128C19.841 104.957 20.2517 104.872 20.721 104.872V106.76ZM26.6949 113.192C25.6922 113.192 24.8069 113.032 24.0389 112.712C23.2815 112.392 22.6895 111.928 22.2629 111.32C21.8362 110.701 21.6229 109.944 21.6229 109.048C21.6229 108.152 21.8362 107.395 22.2629 106.776C22.6895 106.147 23.2815 105.672 24.0389 105.352C24.8069 105.032 25.6922 104.872 26.6949 104.872C27.6975 104.872 28.5722 105.032 29.3189 105.352C30.0762 105.672 30.6682 106.147 31.0949 106.776C31.5215 107.395 31.7349 108.152 31.7349 109.048C31.7349 109.944 31.5215 110.701 31.0949 111.32C30.6682 111.928 30.0762 112.392 29.3189 112.712C28.5722 113.032 27.6975 113.192 26.6949 113.192ZM26.6949 111.592C27.2495 111.592 27.7455 111.496 28.1829 111.304C28.6309 111.101 28.9829 110.813 29.2389 110.44C29.4949 110.056 29.6229 109.592 29.6229 109.048C29.6229 108.504 29.4949 108.04 29.2389 107.656C28.9829 107.261 28.6362 106.963 28.1989 106.76C27.7615 106.557 27.2602 106.456 26.6949 106.456C26.1402 106.456 25.6389 106.557 25.1909 106.76C24.7429 106.963 24.3855 107.256 24.1189 107.64C23.8629 108.024 23.7349 108.493 23.7349 109.048C23.7349 109.592 23.8629 110.056 24.1189 110.44C24.3749 110.813 24.7269 111.101 25.1749 111.304C25.6229 111.496 26.1295 111.592 26.6949 111.592ZM43.328 111.56L42.672 111.544L45.264 105.048H47.552L44.048 113H42.096L39.536 106.584H40.24L37.6 113H35.648L32.24 105.048H34.528L37.024 111.56H36.368L38.704 105.048H41.088L43.328 111.56ZM48.2125 105.048H54.3885V106.664H48.2125V105.048ZM50.2605 102.872H52.3405V113H50.2605V102.872ZM62.974 113V108.632C62.974 108.195 62.8993 107.832 62.75 107.544C62.6007 107.256 62.3607 107.037 62.03 106.888C61.71 106.739 61.278 106.664 60.734 106.664C60.2113 106.664 59.7367 106.765 59.31 106.968C58.8833 107.16 58.5367 107.416 58.27 107.736C58.0033 108.045 57.854 108.376 57.822 108.728L57.806 107.848C57.8593 107.496 57.982 107.144 58.174 106.792C58.366 106.44 58.622 106.12 58.942 105.832C59.262 105.544 59.646 105.315 60.094 105.144C60.5527 104.963 61.0647 104.872 61.63 104.872C62.1207 104.872 62.574 104.936 62.99 105.064C63.406 105.181 63.7687 105.368 64.078 105.624C64.3873 105.88 64.6273 106.2 64.798 106.584C64.9687 106.957 65.054 107.4 65.054 107.912V113H62.974ZM55.854 113V101.848H57.934V113H55.854ZM9.28 130.944H8.272L14.224 121.648H16.352V132H14.224V124.48L14.736 124.624L9.984 132H7.6L2.848 124.656L3.36 124.512V132H1.232V121.648H3.36L9.28 130.944ZM20.9221 120.56V122.384H18.5061V120.56H20.9221ZM18.6661 124.048H20.7461V132H18.6661V124.048ZM22.9794 120.848H25.0594V132H22.9794V120.848ZM34.4111 129.36H36.4271C36.3418 129.904 36.1125 130.389 35.7391 130.816C35.3765 131.243 34.8805 131.579 34.2511 131.824C33.6218 132.069 32.8538 132.192 31.9471 132.192C30.9338 132.192 30.0378 132.032 29.2591 131.712C28.4805 131.381 27.8725 130.907 27.4351 130.288C26.9978 129.669 26.7791 128.923 26.7791 128.048C26.7791 127.173 26.9925 126.427 27.4191 125.808C27.8458 125.179 28.4378 124.699 29.1951 124.368C29.9631 124.037 30.8591 123.872 31.8831 123.872C32.9285 123.872 33.7978 124.037 34.4911 124.368C35.1845 124.699 35.6965 125.2 36.0271 125.872C36.3685 126.533 36.5125 127.381 36.4591 128.416H28.8751C28.9285 128.821 29.0778 129.189 29.3231 129.52C29.5791 129.851 29.9205 130.112 30.3471 130.304C30.7845 130.496 31.3018 130.592 31.8991 130.592C32.5605 130.592 33.1098 130.48 33.5471 130.256C33.9951 130.021 34.2831 129.723 34.4111 129.36ZM31.7871 125.456C31.0191 125.456 30.3951 125.627 29.9151 125.968C29.4351 126.299 29.1258 126.709 28.9871 127.2H34.3951C34.3418 126.667 34.0858 126.245 33.6271 125.936C33.1791 125.616 32.5658 125.456 31.7871 125.456ZM37.6869 129.36H39.6069C39.7242 129.723 39.9642 130.021 40.3269 130.256C40.7002 130.48 41.1855 130.592 41.7829 130.592C42.1882 130.592 42.5029 130.555 42.7269 130.48C42.9509 130.405 43.1055 130.299 43.1909 130.16C43.2762 130.011 43.3189 129.845 43.3189 129.664C43.3189 129.44 43.2495 129.269 43.1109 129.152C42.9722 129.024 42.7589 128.923 42.4709 128.848C42.1829 128.773 41.8149 128.704 41.3669 128.64C40.9189 128.565 40.4869 128.475 40.0709 128.368C39.6549 128.261 39.2869 128.123 38.9669 127.952C38.6469 127.771 38.3909 127.547 38.1989 127.28C38.0175 127.003 37.9269 126.667 37.9269 126.272C37.9269 125.888 38.0175 125.547 38.1989 125.248C38.3909 124.949 38.6522 124.699 38.9829 124.496C39.3242 124.293 39.7189 124.139 40.1669 124.032C40.6255 123.925 41.1162 123.872 41.6389 123.872C42.4282 123.872 43.0842 123.989 43.6069 124.224C44.1295 124.448 44.5189 124.768 44.7749 125.184C45.0415 125.589 45.1749 126.059 45.1749 126.592H43.3349C43.2495 126.197 43.0789 125.915 42.8229 125.744C42.5669 125.563 42.1722 125.472 41.6389 125.472C41.1162 125.472 40.7215 125.552 40.4549 125.712C40.1882 125.872 40.0549 126.091 40.0549 126.368C40.0549 126.592 40.1349 126.768 40.2949 126.896C40.4655 127.013 40.7109 127.109 41.0309 127.184C41.3615 127.259 41.7722 127.339 42.2629 127.424C42.6789 127.509 43.0735 127.605 43.4469 127.712C43.8309 127.819 44.1722 127.957 44.4709 128.128C44.7695 128.288 45.0042 128.507 45.1749 128.784C45.3562 129.051 45.4469 129.392 45.4469 129.808C45.4469 130.32 45.2975 130.752 44.9989 131.104C44.7109 131.456 44.2949 131.728 43.7509 131.92C43.2069 132.101 42.5562 132.192 41.7989 132.192C41.1269 132.192 40.5455 132.123 40.0549 131.984C39.5749 131.835 39.1749 131.648 38.8549 131.424C38.5349 131.189 38.2842 130.944 38.1029 130.688C37.9322 130.421 37.8149 130.171 37.7509 129.936C37.6869 129.701 37.6655 129.509 37.6869 129.36ZM46.4781 124.048H52.6541V125.664H46.4781V124.048ZM48.5261 121.872H50.6061V132H48.5261V121.872ZM58.5543 132.192C57.5516 132.192 56.6663 132.032 55.8983 131.712C55.1409 131.392 54.5489 130.928 54.1223 130.32C53.6956 129.701 53.4823 128.944 53.4823 128.048C53.4823 127.152 53.6956 126.395 54.1223 125.776C54.5489 125.147 55.1409 124.672 55.8983 124.352C56.6663 124.032 57.5516 123.872 58.5543 123.872C59.5569 123.872 60.4316 124.032 61.1783 124.352C61.9356 124.672 62.5276 125.147 62.9543 125.776C63.3809 126.395 63.5943 127.152 63.5943 128.048C63.5943 128.944 63.3809 129.701 62.9543 130.32C62.5276 130.928 61.9356 131.392 61.1783 131.712C60.4316 132.032 59.5569 132.192 58.5543 132.192ZM58.5543 130.592C59.1089 130.592 59.6049 130.496 60.0423 130.304C60.4903 130.101 60.8423 129.813 61.0983 129.44C61.3543 129.056 61.4823 128.592 61.4823 128.048C61.4823 127.504 61.3543 127.04 61.0983 126.656C60.8423 126.261 60.4956 125.963 60.0583 125.76C59.6209 125.557 59.1196 125.456 58.5543 125.456C57.9996 125.456 57.4983 125.557 57.0503 125.76C56.6023 125.963 56.2449 126.256 55.9783 126.64C55.7223 127.024 55.5943 127.493 55.5943 128.048C55.5943 128.592 55.7223 129.056 55.9783 129.44C56.2343 129.813 56.5863 130.101 57.0343 130.304C57.4823 130.496 57.9889 130.592 58.5543 130.592ZM65.1319 124.048H67.2119V132H65.1319V124.048ZM70.9079 123.872C71.3985 123.872 71.8519 123.936 72.2679 124.064C72.6839 124.192 73.0465 124.389 73.3559 124.656C73.6652 124.923 73.9052 125.264 74.0759 125.68C74.2465 126.085 74.3319 126.571 74.3319 127.136V132H72.2519V127.504C72.2519 126.832 72.0865 126.341 71.7559 126.032C71.4359 125.712 70.9079 125.552 70.1719 125.552C69.6172 125.552 69.1159 125.659 68.6679 125.872C68.2199 126.085 67.8572 126.357 67.5799 126.688C67.3025 127.008 67.1425 127.344 67.0999 127.696L67.0839 126.88C67.1372 126.507 67.2599 126.144 67.4519 125.792C67.6439 125.44 67.8999 125.12 68.2199 124.832C68.5505 124.533 68.9399 124.299 69.3879 124.128C69.8359 123.957 70.3425 123.872 70.9079 123.872ZM83.4736 129.36H85.4896C85.4043 129.904 85.175 130.389 84.8016 130.816C84.439 131.243 83.943 131.579 83.3136 131.824C82.6843 132.069 81.9163 132.192 81.0096 132.192C79.9963 132.192 79.1003 132.032 78.3216 131.712C77.543 131.381 76.935 130.907 76.4976 130.288C76.0603 129.669 75.8416 128.923 75.8416 128.048C75.8416 127.173 76.055 126.427 76.4816 125.808C76.9083 125.179 77.5003 124.699 78.2576 124.368C79.0256 124.037 79.9216 123.872 80.9456 123.872C81.991 123.872 82.8603 124.037 83.5536 124.368C84.247 124.699 84.759 125.2 85.0896 125.872C85.431 126.533 85.575 127.381 85.5216 128.416H77.9376C77.991 128.821 78.1403 129.189 78.3856 129.52C78.6416 129.851 78.983 130.112 79.4096 130.304C79.847 130.496 80.3643 130.592 80.9616 130.592C81.623 130.592 82.1723 130.48 82.6096 130.256C83.0576 130.021 83.3456 129.723 83.4736 129.36ZM80.8496 125.456C80.0816 125.456 79.4576 125.627 78.9776 125.968C78.4976 126.299 78.1883 126.709 78.0496 127.2H83.4576C83.4043 126.667 83.1483 126.245 82.6896 125.936C82.2416 125.616 81.6283 125.456 80.8496 125.456Z" fill="#222222"/>
<defs>
<clipPath id="clip0_88_1019">
<rect width="63" height="63" fill="white"/>
</clipPath>
</defs>
</svg>
