<svg width="130" height="117" viewBox="0 0 130 117" fill="none" xmlns="http://www.w3.org/2000/svg">
<path d="M45.2813 42.3281H50.0762C51.5183 42.3279 52.9253 41.8834 54.1058 41.0552C55.2864 40.227 56.1832 39.0552 56.6742 37.6993C57.1652 36.3434 57.2266 34.8691 56.8501 33.477C56.4736 32.085 55.6774 30.8426 54.5698 29.9191L46.5708 23.2529C45.3315 22.2223 43.7707 21.6575 42.1588 21.6562H20.8412C19.2293 21.6575 17.6686 22.2223 16.4293 23.2529L8.43022 29.9191C7.32266 30.8426 6.52646 32.085 6.14994 33.477C5.77342 34.8691 5.83485 36.3434 6.32587 37.6993C6.81689 39.0552 7.71367 40.227 8.89422 41.0552C10.0748 41.8834 11.4818 42.3279 12.9239 42.3281H17.7188C17.7201 44.2636 18.1345 46.1766 18.9345 47.9391C18.662 48.6807 18.6293 49.4892 18.841 50.2504L9.88316 46.1505C9.24335 45.8585 8.54049 45.7318 7.839 45.7819C7.13751 45.8321 6.45985 46.0576 5.86813 46.4377C5.27642 46.8178 4.7896 47.3404 4.45229 47.9575C4.11498 48.5746 3.93799 49.2665 3.93753 49.9698V50.1834C3.93453 50.9646 4.1505 51.731 4.56094 52.3956C4.97139 53.0603 5.55988 53.5966 6.25967 53.9437L17.7375 59.6827C19.5156 60.5677 21.4744 61.0292 23.4606 61.0312H59.0625V59.0625H45.2813V47.25H59.0625V45.2812H44.9604C45.1737 44.3114 45.2813 43.3212 45.2813 42.3281ZM43.3125 59.0625H23.4606C21.7797 59.0606 20.122 58.6694 18.6175 57.9196L7.14069 52.1807C6.76879 51.9965 6.45599 51.7117 6.23779 51.3587C6.01959 51.0056 5.90475 50.5985 5.90628 50.1834V49.9698C5.9053 49.5953 5.99869 49.2265 6.17782 48.8976C6.35696 48.5687 6.61607 48.2902 6.93124 48.0878C7.24641 47.8855 7.60747 47.7657 7.98111 47.7397C8.35475 47.7138 8.72892 47.7823 9.06908 47.9391L20.2624 53.0657C20.3907 53.1251 20.5305 53.156 20.6719 53.1562H30.5157C30.7767 53.1562 31.0271 53.0525 31.2117 52.8679C31.3963 52.6833 31.5 52.4329 31.5 52.1719C31.5 51.9108 31.3963 51.6604 31.2117 51.4758C31.0271 51.2912 30.7767 51.1875 30.5157 51.1875H22.6407C22.1185 51.1875 21.6178 50.9801 21.2485 50.6109C20.8793 50.2417 20.6719 49.7409 20.6719 49.2188C20.6719 48.6966 20.8793 48.1958 21.2485 47.8266C21.6178 47.4574 22.1185 47.25 22.6407 47.25H30.1879C30.3531 47.2502 30.5156 47.2085 30.6604 47.1289L30.9094 46.9921C32.8052 45.9487 34.9294 45.3898 37.0932 45.3651C39.257 45.3404 41.3934 45.8506 43.3125 46.8503V59.0625ZM19.6875 42.3281H21.6563C21.6589 43.3479 21.8186 44.3613 22.1298 45.3324C21.4682 45.4171 20.8394 45.6703 20.3037 46.0678C19.896 44.8631 19.6878 43.5999 19.6875 42.3281ZM34.3065 42.4394L37.7065 39.8918C38.0351 40.6743 38.6071 41.3301 39.3376 41.7621C39.3504 41.9511 39.375 42.1559 39.375 42.3301C39.3731 42.7333 39.3401 43.1358 39.2766 43.534C37.6607 43.3149 36.0199 43.3605 34.4187 43.6688C34.4372 43.5508 34.4487 43.4319 34.4532 43.3125C34.449 43.0157 34.3996 42.7212 34.3065 42.4394ZM31.5 40.3594C30.9186 40.3582 30.35 40.5295 29.866 40.8516L25.5131 37.5913C25.4944 37.5017 25.457 37.421 25.4323 37.3334C26.1661 36.4323 27.0914 35.7059 28.1409 35.207C29.1905 34.7082 30.3379 34.4493 31.5 34.4493C32.6621 34.4493 33.8096 34.7082 34.8592 35.207C35.9087 35.7059 36.834 36.4323 37.5677 37.3334C37.5431 37.421 37.5057 37.5017 37.487 37.5913L33.1341 40.8516C32.6501 40.5295 32.0814 40.3582 31.5 40.3594ZM32.4844 43.3125C32.4844 43.5072 32.4267 43.6975 32.3185 43.8594C32.2103 44.0213 32.0566 44.1474 31.8767 44.2219C31.6969 44.2964 31.4989 44.3159 31.308 44.278C31.117 44.24 30.9416 44.1462 30.804 44.0086C30.6663 43.8709 30.5726 43.6955 30.5346 43.5045C30.4966 43.3136 30.5161 43.1157 30.5906 42.9358C30.6651 42.7559 30.7913 42.6022 30.9531 42.494C31.115 42.3859 31.3053 42.3281 31.5 42.3281C31.7611 42.3281 32.0115 42.4318 32.1961 42.6164C32.3807 42.801 32.4844 43.0514 32.4844 43.3125ZM38.6259 35.5537C37.7094 34.5842 36.6047 33.812 35.3795 33.2842C34.1542 32.7564 32.8341 32.4842 31.5 32.4842C30.1659 32.4842 28.8459 32.7564 27.6206 33.2842C26.3953 33.812 25.2907 34.5842 24.3741 35.5537C23.8785 35.0804 23.2677 34.7451 22.6023 34.5811C23.7071 33.305 25.0735 32.2815 26.6087 31.58C28.1439 30.8785 29.8121 30.5154 31.5 30.5154C33.1879 30.5154 34.8561 30.8785 36.3914 31.58C37.9266 32.2815 39.293 33.305 40.3978 34.5811C39.7324 34.7451 39.1215 35.0804 38.6259 35.5537ZM25.2985 39.8918L28.6985 42.4394C28.5368 42.9219 28.508 43.4391 28.6152 43.9365C28.7225 44.434 28.9617 44.8934 29.3078 45.2665L24.2088 45.2812C23.8263 44.3435 23.6281 43.3409 23.625 42.3281C23.625 42.1509 23.6496 41.9491 23.6624 41.7601C24.3945 41.3295 24.9682 40.6743 25.2985 39.8918ZM43.094 44.5764C42.4793 44.3178 41.8482 44.0998 41.205 43.9238C41.2943 43.3965 41.3407 42.8629 41.3438 42.3281H43.3125C43.31 43.083 43.2351 43.8358 43.0891 44.5764H43.094ZM41.3438 40.3594C40.8216 40.3594 40.3209 40.152 39.9517 39.7827C39.5825 39.4135 39.375 38.9128 39.375 38.3906C39.375 37.8685 39.5825 37.3677 39.9517 36.9985C40.3209 36.6293 40.8216 36.4219 41.3438 36.4219H50.2032C50.4057 36.4222 50.6034 36.3601 50.7694 36.2439C50.9353 36.1278 51.0614 35.9633 51.1304 35.7729C51.1994 35.5824 51.208 35.3753 51.1549 35.1799C51.1019 34.9844 50.9899 34.81 50.8341 34.6805L44.9279 29.7586C44.7841 29.6386 44.6091 29.562 44.4233 29.538C44.2376 29.5139 44.0488 29.5433 43.8792 29.6228C43.7096 29.7023 43.5662 29.8285 43.4658 29.9867C43.3654 30.1448 43.3123 30.3283 43.3125 30.5156V34.4531H42.776C41.5137 32.6308 39.8284 31.1415 37.8646 30.113C35.9008 29.0844 33.7169 28.5471 31.5 28.5471C29.2831 28.5471 27.0993 29.0844 25.1355 30.113C23.1717 31.1415 21.4864 32.6308 20.224 34.4531H19.6875V30.5156C19.6878 30.3283 19.6346 30.1448 19.5343 29.9867C19.4339 29.8285 19.2905 29.7023 19.1209 29.6228C18.9513 29.5433 18.7625 29.5139 18.5767 29.538C18.391 29.562 18.2159 29.6386 18.0722 29.7586L12.1659 34.6805C12.0102 34.81 11.8981 34.9844 11.8451 35.1799C11.7921 35.3753 11.8007 35.5824 11.8697 35.7729C11.9387 35.9633 12.0648 36.1278 12.2307 36.2439C12.3966 36.3601 12.5944 36.4222 12.7969 36.4219H21.6563C22.1784 36.4219 22.6792 36.6293 23.0484 36.9985C23.4176 37.3677 23.625 37.8685 23.625 38.3906C23.625 38.9128 23.4176 39.4135 23.0484 39.7827C22.6792 40.152 22.1784 40.3594 21.6563 40.3594H12.9239C11.8864 40.3592 10.8741 40.0395 10.0248 39.4436C9.17552 38.8477 8.53041 38.0046 8.17726 37.0291C7.82411 36.0535 7.78007 34.9929 8.05114 33.9914C8.3222 32.99 8.8952 32.0963 9.69219 31.4321L17.6912 24.7659C18.5755 24.0289 19.6901 23.6252 20.8412 23.625H42.1588C43.3099 23.6252 44.4246 24.0289 45.3088 24.7659L53.3079 31.4321C54.1049 32.0963 54.6779 32.99 54.9489 33.9914C55.22 34.9929 55.1759 36.0535 54.8228 37.0291C54.4697 38.0046 53.8245 38.8477 52.9752 39.4436C52.1259 40.0395 51.1137 40.3592 50.0762 40.3594H41.3438ZM45.2813 34.4531V32.6173L47.4843 34.4531H45.2813ZM17.7188 32.6173V34.4531H15.5157L17.7188 32.6173Z" fill="#FD3B3B"/>
<path d="M49.2188 55.125H47.25V57.0938H49.2188V55.125Z" fill="#FD3B3B"/>
<path d="M40.3594 10.8281C40.3594 9.07591 39.8398 7.36304 38.8663 5.90612C37.8928 4.4492 36.5092 3.31368 34.8903 2.64313C33.2715 1.97258 31.4902 1.79714 29.7716 2.13898C28.0531 2.48082 26.4745 3.32459 25.2355 4.5636C23.9965 5.80261 23.1527 7.3812 22.8109 9.09975C22.469 10.8183 22.6445 12.5996 23.315 14.2185C23.9856 15.8373 25.1211 17.2209 26.578 18.1944C28.0349 19.1679 29.7478 19.6875 31.5 19.6875C33.8489 19.6849 36.1008 18.7507 37.7617 17.0898C39.4225 15.4289 40.3568 13.177 40.3594 10.8281ZM24.6094 10.8281C24.6094 9.46529 25.0135 8.13306 25.7707 6.9999C26.5278 5.86674 27.604 4.98355 28.8631 4.46202C30.1222 3.94048 31.5076 3.80403 32.8443 4.0699C34.1809 4.33578 35.4087 4.99205 36.3724 5.95572C37.3361 6.91939 37.9924 8.14718 38.2582 9.48383C38.5241 10.8205 38.3876 12.206 37.8661 13.4651C37.3446 14.7242 36.4614 15.8003 35.3282 16.5575C34.1951 17.3146 32.8628 17.7188 31.5 17.7188C29.6732 17.7164 27.9219 16.9897 26.6302 15.6979C25.3385 14.4062 24.6117 12.6549 24.6094 10.8281Z" fill="#FD3B3B"/>
<path d="M0.544 90.512H2.704C2.74667 90.8747 2.912 91.2053 3.2 91.504C3.49867 91.792 3.888 92.0213 4.368 92.192C4.848 92.352 5.38667 92.432 5.984 92.432C6.528 92.432 6.976 92.3733 7.328 92.256C7.68 92.1387 7.94133 91.9733 8.112 91.76C8.28267 91.5467 8.368 91.2907 8.368 90.992C8.368 90.704 8.26133 90.4853 8.048 90.336C7.83467 90.176 7.49867 90.048 7.04 89.952C6.58133 89.8453 5.97867 89.7387 5.232 89.632C4.64533 89.5467 4.09067 89.4293 3.568 89.28C3.04533 89.12 2.58133 88.9173 2.176 88.672C1.78133 88.4267 1.46667 88.128 1.232 87.776C1.008 87.4133 0.896 86.9867 0.896 86.496C0.896 85.888 1.06667 85.3547 1.408 84.896C1.76 84.4373 2.27733 84.08 2.96 83.824C3.64267 83.568 4.48 83.44 5.472 83.44C6.96533 83.44 8.112 83.76 8.912 84.4C9.72267 85.0293 10.1173 85.8987 10.096 87.008H8.016C7.97333 86.3787 7.70667 85.9253 7.216 85.648C6.736 85.3707 6.128 85.232 5.392 85.232C4.70933 85.232 4.144 85.3333 3.696 85.536C3.25867 85.7387 3.04 86.0853 3.04 86.576C3.04 86.768 3.09333 86.9387 3.2 87.088C3.30667 87.2267 3.488 87.3493 3.744 87.456C4 87.5627 4.34667 87.664 4.784 87.76C5.22133 87.856 5.76533 87.952 6.416 88.048C7.024 88.1333 7.57333 88.2507 8.064 88.4C8.56533 88.5387 8.992 88.7253 9.344 88.96C9.70667 89.184 9.984 89.472 10.176 89.824C10.368 90.176 10.464 90.608 10.464 91.12C10.464 91.7493 10.2987 92.2987 9.968 92.768C9.648 93.2267 9.14667 93.584 8.464 93.84C7.792 94.096 6.91733 94.224 5.84 94.224C5.072 94.224 4.39467 94.144 3.808 93.984C3.22133 93.8133 2.71467 93.5893 2.288 93.312C1.86133 93.0347 1.51467 92.7307 1.248 92.4C0.981333 92.0693 0.789333 91.7387 0.672 91.408C0.565333 91.0773 0.522667 90.7787 0.544 90.512ZM15.9414 94.176C15.152 94.176 14.432 94.0053 13.7814 93.664C13.1414 93.312 12.6294 92.8267 12.2454 92.208C11.872 91.5787 11.6854 90.8533 11.6854 90.032C11.6854 89.1893 11.8774 88.4587 12.2614 87.84C12.6454 87.2213 13.1627 86.7413 13.8134 86.4C14.4747 86.048 15.2214 85.872 16.0534 85.872C16.9707 85.872 17.7067 86.0587 18.2614 86.432C18.8267 86.7947 19.2374 87.2907 19.4934 87.92C19.7494 88.5493 19.8774 89.2533 19.8774 90.032C19.8774 90.5013 19.8027 90.9813 19.6534 91.472C19.504 91.952 19.2747 92.4 18.9654 92.816C18.656 93.2213 18.2507 93.552 17.7494 93.808C17.248 94.0533 16.6454 94.176 15.9414 94.176ZM16.6134 92.576C17.2427 92.576 17.7867 92.4693 18.2454 92.256C18.704 92.0427 19.056 91.744 19.3014 91.36C19.5467 90.976 19.6694 90.5333 19.6694 90.032C19.6694 89.488 19.5414 89.0293 19.2854 88.656C19.04 88.272 18.688 87.984 18.2294 87.792C17.7814 87.5893 17.2427 87.488 16.6134 87.488C15.728 87.488 15.04 87.7227 14.5494 88.192C14.0587 88.6507 13.8134 89.264 13.8134 90.032C13.8134 90.544 13.9307 90.992 14.1654 91.376C14.4 91.7493 14.7254 92.0427 15.1414 92.256C15.568 92.4693 16.0587 92.576 16.6134 92.576ZM19.6694 86.048H21.7494V94H19.8134C19.8134 94 19.7974 93.8987 19.7654 93.696C19.744 93.4827 19.7227 93.216 19.7014 92.896C19.68 92.576 19.6694 92.2613 19.6694 91.952V86.048ZM23.0719 86.192H29.4719V87.776H23.0719V86.192ZM27.9359 82.848H29.5839V84.528H28.4319C28.1225 84.5173 27.8559 84.5493 27.6319 84.624C27.4079 84.6987 27.2372 84.8373 27.1199 85.04C27.0025 85.232 26.9439 85.5093 26.9439 85.872V94H24.8639V85.616C24.8639 84.976 24.9812 84.4533 25.2159 84.048C25.4505 83.632 25.7972 83.328 26.2559 83.136C26.7145 82.944 27.2745 82.848 27.9359 82.848ZM37.9111 91.36H39.9271C39.8418 91.904 39.6125 92.3893 39.2391 92.816C38.8765 93.2427 38.3805 93.5787 37.7511 93.824C37.1218 94.0693 36.3538 94.192 35.4471 94.192C34.4338 94.192 33.5378 94.032 32.7591 93.712C31.9805 93.3813 31.3725 92.9067 30.9351 92.288C30.4978 91.6693 30.2791 90.9227 30.2791 90.048C30.2791 89.1733 30.4925 88.4267 30.9191 87.808C31.3458 87.1787 31.9378 86.6987 32.6951 86.368C33.4631 86.0373 34.3591 85.872 35.3831 85.872C36.4285 85.872 37.2978 86.0373 37.9911 86.368C38.6845 86.6987 39.1965 87.2 39.5271 87.872C39.8685 88.5333 40.0125 89.3813 39.9591 90.416H32.3751C32.4285 90.8213 32.5778 91.1893 32.8231 91.52C33.0791 91.8507 33.4205 92.112 33.8471 92.304C34.2845 92.496 34.8018 92.592 35.3991 92.592C36.0605 92.592 36.6098 92.48 37.0471 92.256C37.4951 92.0213 37.7831 91.7227 37.9111 91.36ZM35.2871 87.456C34.5191 87.456 33.8951 87.6267 33.4151 87.968C32.9351 88.2987 32.6258 88.7093 32.4871 89.2H37.8951C37.8418 88.6667 37.5858 88.2453 37.1271 87.936C36.6791 87.616 36.0658 87.456 35.2871 87.456ZM40.8375 86.048H47.0135V87.664H40.8375V86.048ZM42.8855 83.872H44.9655V94H42.8855V83.872ZM47.615 86.048H49.823L53.263 93.68L51.471 94L47.615 86.048ZM57.343 86.048L51.839 97.2H49.679L52.031 92.816L55.119 86.048H57.343ZM68.6051 83.648C69.7678 83.648 70.7385 83.7867 71.5171 84.064C72.2958 84.3413 72.9145 84.72 73.3731 85.2C73.8425 85.6693 74.1731 86.2133 74.3651 86.832C74.5678 87.4507 74.6691 88.1013 74.6691 88.784C74.6691 89.4667 74.5571 90.1227 74.3331 90.752C74.1198 91.3813 73.7731 91.9413 73.2931 92.432C72.8238 92.912 72.1998 93.296 71.4211 93.584C70.6531 93.8613 69.7145 94 68.6051 94H62.6851V83.648H68.6051ZM64.8131 92.176H68.5571C69.3251 92.176 69.9598 92.0853 70.4611 91.904C70.9731 91.712 71.3785 91.456 71.6771 91.136C71.9758 90.816 72.1891 90.4533 72.3171 90.048C72.4451 89.6427 72.5091 89.2213 72.5091 88.784C72.5091 88.3467 72.4451 87.9307 72.3171 87.536C72.1891 87.1413 71.9758 86.7893 71.6771 86.48C71.3785 86.1707 70.9731 85.9253 70.4611 85.744C69.9598 85.5627 69.3251 85.472 68.5571 85.472H64.8131V92.176ZM76.4756 86.048H78.5556V94H76.4756V86.048ZM81.6116 87.76C81.0143 87.76 80.497 87.8773 80.0596 88.112C79.6223 88.336 79.2703 88.6133 79.0036 88.944C78.737 89.2747 78.5503 89.5947 78.4436 89.904L78.4276 89.024C78.4383 88.896 78.481 88.7093 78.5556 88.464C78.6303 88.208 78.7423 87.936 78.8916 87.648C79.041 87.3493 79.2383 87.0667 79.4836 86.8C79.729 86.5227 80.0276 86.2987 80.3796 86.128C80.7316 85.9573 81.1423 85.872 81.6116 85.872V87.76ZM85.2815 82.56V84.384H82.8655V82.56H85.2815ZM83.0255 86.048H85.1055V94H83.0255V86.048ZM91.5628 92.64H90.8108L93.7228 86.048H95.9948L92.1708 94H90.2028L86.4588 86.048H88.7468L91.5628 92.64ZM104.099 91.36H106.115C106.029 91.904 105.8 92.3893 105.427 92.816C105.064 93.2427 104.568 93.5787 103.939 93.824C103.309 94.0693 102.541 94.192 101.635 94.192C100.621 94.192 99.7253 94.032 98.9466 93.712C98.168 93.3813 97.56 92.9067 97.1226 92.288C96.6853 91.6693 96.4666 90.9227 96.4666 90.048C96.4666 89.1733 96.68 88.4267 97.1066 87.808C97.5333 87.1787 98.1253 86.6987 98.8826 86.368C99.6506 86.0373 100.547 85.872 101.571 85.872C102.616 85.872 103.485 86.0373 104.179 86.368C104.872 86.6987 105.384 87.2 105.715 87.872C106.056 88.5333 106.2 89.3813 106.147 90.416H98.5626C98.616 90.8213 98.7653 91.1893 99.0106 91.52C99.2666 91.8507 99.608 92.112 100.035 92.304C100.472 92.496 100.989 92.592 101.587 92.592C102.248 92.592 102.797 92.48 103.235 92.256C103.683 92.0213 103.971 91.7227 104.099 91.36ZM101.475 87.456C100.707 87.456 100.083 87.6267 99.6026 87.968C99.1226 88.2987 98.8133 88.7093 98.6746 89.2H104.083C104.029 88.6667 103.773 88.2453 103.315 87.936C102.867 87.616 102.253 87.456 101.475 87.456ZM3.36 108.68V111.224H11.344V113H1.232V102.648H11.328V104.424H3.36V107H9.888V108.68H3.36ZM22.2649 105.048L18.1369 109.48L15.1609 113H12.6169L16.9209 108.344L19.7369 105.048H22.2649ZM12.6169 105.048H15.1609L18.1689 108.312L22.4889 113H19.9449L16.8569 109.528L12.6169 105.048ZM32.8531 109.864C32.7998 110.557 32.5758 111.155 32.1811 111.656C31.7971 112.157 31.2638 112.541 30.5811 112.808C29.8985 113.064 29.0878 113.192 28.1491 113.192C27.1678 113.192 26.2878 113.037 25.5091 112.728C24.7411 112.408 24.1331 111.944 23.6851 111.336C23.2478 110.717 23.0291 109.955 23.0291 109.048C23.0291 108.141 23.2478 107.379 23.6851 106.76C24.1331 106.141 24.7411 105.672 25.5091 105.352C26.2878 105.032 27.1678 104.872 28.1491 104.872C29.0878 104.872 29.8931 105.005 30.5651 105.272C31.2371 105.528 31.7651 105.901 32.1491 106.392C32.5438 106.883 32.7731 107.475 32.8371 108.168H30.9331C30.7518 107.635 30.4158 107.219 29.9251 106.92C29.4345 106.621 28.8425 106.472 28.1491 106.472C27.5945 106.472 27.0878 106.568 26.6291 106.76C26.1811 106.952 25.8185 107.24 25.5411 107.624C25.2745 107.997 25.1411 108.472 25.1411 109.048C25.1411 109.613 25.2745 110.088 25.5411 110.472C25.8078 110.845 26.1705 111.128 26.6291 111.32C27.0878 111.501 27.5945 111.592 28.1491 111.592C28.8958 111.592 29.5038 111.443 29.9731 111.144C30.4531 110.845 30.7785 110.419 30.9491 109.864H32.8531ZM41.6299 110.36H43.6459C43.5605 110.904 43.3312 111.389 42.9579 111.816C42.5952 112.243 42.0992 112.579 41.4699 112.824C40.8405 113.069 40.0725 113.192 39.1659 113.192C38.1525 113.192 37.2565 113.032 36.4779 112.712C35.6992 112.381 35.0912 111.907 34.6539 111.288C34.2165 110.669 33.9979 109.923 33.9979 109.048C33.9979 108.173 34.2112 107.427 34.6379 106.808C35.0645 106.179 35.6565 105.699 36.4139 105.368C37.1819 105.037 38.0779 104.872 39.1019 104.872C40.1472 104.872 41.0165 105.037 41.7099 105.368C42.4032 105.699 42.9152 106.2 43.2459 106.872C43.5872 107.533 43.7312 108.381 43.6779 109.416H36.0939C36.1472 109.821 36.2965 110.189 36.5419 110.52C36.7979 110.851 37.1392 111.112 37.5659 111.304C38.0032 111.496 38.5205 111.592 39.1179 111.592C39.7792 111.592 40.3285 111.48 40.7659 111.256C41.2139 111.021 41.5019 110.723 41.6299 110.36ZM39.0059 106.456C38.2379 106.456 37.6139 106.627 37.1339 106.968C36.6539 107.299 36.3445 107.709 36.2059 108.2H41.6139C41.5605 107.667 41.3045 107.245 40.8459 106.936C40.3979 106.616 39.7845 106.456 39.0059 106.456ZM45.3856 101.848H47.4656V113H45.3856V101.848ZM49.7294 101.848H51.8094V113H49.7294V101.848ZM61.1611 110.36H63.1771C63.0918 110.904 62.8625 111.389 62.4891 111.816C62.1265 112.243 61.6305 112.579 61.0011 112.824C60.3718 113.069 59.6038 113.192 58.6971 113.192C57.6838 113.192 56.7878 113.032 56.0091 112.712C55.2305 112.381 54.6225 111.907 54.1851 111.288C53.7478 110.669 53.5291 109.923 53.5291 109.048C53.5291 108.173 53.7425 107.427 54.1691 106.808C54.5958 106.179 55.1878 105.699 55.9451 105.368C56.7131 105.037 57.6091 104.872 58.6331 104.872C59.6785 104.872 60.5478 105.037 61.2411 105.368C61.9345 105.699 62.4465 106.2 62.7771 106.872C63.1185 107.533 63.2625 108.381 63.2091 109.416H55.6251C55.6785 109.821 55.8278 110.189 56.0731 110.52C56.3291 110.851 56.6705 111.112 57.0971 111.304C57.5345 111.496 58.0518 111.592 58.6491 111.592C59.3105 111.592 59.8598 111.48 60.2971 111.256C60.7451 111.021 61.0331 110.723 61.1611 110.36ZM58.5371 106.456C57.7691 106.456 57.1451 106.627 56.6651 106.968C56.1851 107.299 55.8758 107.709 55.7371 108.2H61.1451C61.0918 107.667 60.8358 107.245 60.3771 106.936C59.9291 106.616 59.3158 106.456 58.5371 106.456ZM64.7569 105.048H66.8369V113H64.7569V105.048ZM70.5329 104.872C71.0235 104.872 71.4769 104.936 71.8929 105.064C72.3089 105.192 72.6715 105.389 72.9809 105.656C73.2902 105.923 73.5302 106.264 73.7009 106.68C73.8715 107.085 73.9569 107.571 73.9569 108.136V113H71.8769V108.504C71.8769 107.832 71.7115 107.341 71.3809 107.032C71.0609 106.712 70.5329 106.552 69.7969 106.552C69.2422 106.552 68.7409 106.659 68.2929 106.872C67.8449 107.085 67.4822 107.357 67.2049 107.688C66.9275 108.008 66.7675 108.344 66.7249 108.696L66.7089 107.88C66.7622 107.507 66.8849 107.144 67.0769 106.792C67.2689 106.44 67.5249 106.12 67.8449 105.832C68.1755 105.533 68.5649 105.299 69.0129 105.128C69.4609 104.957 69.9675 104.872 70.5329 104.872ZM85.2906 109.864C85.2373 110.557 85.0133 111.155 84.6186 111.656C84.2346 112.157 83.7013 112.541 83.0186 112.808C82.336 113.064 81.5253 113.192 80.5866 113.192C79.6053 113.192 78.7253 113.037 77.9466 112.728C77.1786 112.408 76.5706 111.944 76.1226 111.336C75.6853 110.717 75.4666 109.955 75.4666 109.048C75.4666 108.141 75.6853 107.379 76.1226 106.76C76.5706 106.141 77.1786 105.672 77.9466 105.352C78.7253 105.032 79.6053 104.872 80.5866 104.872C81.5253 104.872 82.3306 105.005 83.0026 105.272C83.6746 105.528 84.2026 105.901 84.5866 106.392C84.9813 106.883 85.2106 107.475 85.2746 108.168H83.3706C83.1893 107.635 82.8533 107.219 82.3626 106.92C81.872 106.621 81.28 106.472 80.5866 106.472C80.032 106.472 79.5253 106.568 79.0666 106.76C78.6186 106.952 78.256 107.24 77.9786 107.624C77.712 107.997 77.5786 108.472 77.5786 109.048C77.5786 109.613 77.712 110.088 77.9786 110.472C78.2453 110.845 78.608 111.128 79.0666 111.32C79.5253 111.501 80.032 111.592 80.5866 111.592C81.3333 111.592 81.9413 111.443 82.4106 111.144C82.8906 110.845 83.216 110.419 83.3866 109.864H85.2906ZM94.0674 110.36H96.0834C95.998 110.904 95.7687 111.389 95.3954 111.816C95.0327 112.243 94.5367 112.579 93.9074 112.824C93.278 113.069 92.51 113.192 91.6034 113.192C90.59 113.192 89.694 113.032 88.9154 112.712C88.1367 112.381 87.5287 111.907 87.0914 111.288C86.654 110.669 86.4354 109.923 86.4354 109.048C86.4354 108.173 86.6487 107.427 87.0754 106.808C87.502 106.179 88.094 105.699 88.8514 105.368C89.6194 105.037 90.5154 104.872 91.5394 104.872C92.5847 104.872 93.454 105.037 94.1474 105.368C94.8407 105.699 95.3527 106.2 95.6834 106.872C96.0247 107.533 96.1687 108.381 96.1154 109.416H88.5314C88.5847 109.821 88.734 110.189 88.9794 110.52C89.2354 110.851 89.5767 111.112 90.0034 111.304C90.4407 111.496 90.958 111.592 91.5554 111.592C92.2167 111.592 92.766 111.48 93.2034 111.256C93.6514 111.021 93.9394 110.723 94.0674 110.36ZM91.4434 106.456C90.6754 106.456 90.0514 106.627 89.5714 106.968C89.0914 107.299 88.782 107.709 88.6434 108.2H94.0514C93.998 107.667 93.742 107.245 93.2834 106.936C92.8354 106.616 92.222 106.456 91.4434 106.456Z" fill="#222222"/>
</svg>
