<svg width="130" height="117" viewBox="0 0 130 117" fill="none" xmlns="http://www.w3.org/2000/svg">
<g clip-path="url(#clip0_88_1021)">
<path d="M54.5256 41.838C55.3291 40.7873 55.8078 39.4757 55.8078 38.0538V35.8743C55.8078 32.4318 53.0071 29.6313 49.5648 29.6313C46.1224 29.6313 43.3217 32.432 43.3217 35.8743V38.0538C43.3217 39.4748 43.7998 40.7856 44.6023 41.8359H37.618C39.3054 40.2219 40.3594 37.9512 40.3594 35.4375V29.7712C40.3594 24.8861 36.3851 20.9118 31.5 20.9118C26.6149 20.9118 22.6406 24.8861 22.6406 29.7712V35.4375C22.6406 37.9512 23.6946 40.2219 25.3819 41.8359H18.3976C19.2001 40.7855 19.6781 39.4747 19.6781 38.0538V35.8743C19.6781 32.4318 16.8775 29.6313 13.4351 29.6313C9.99276 29.6313 7.19209 32.4318 7.19209 35.8743V38.0538C7.19209 39.4758 7.67087 40.7873 8.47424 41.838C3.79403 41.8831 0 45.7027 0 50.3934V55.0531C0 55.7326 0.551004 56.2836 1.23047 56.2836H11.0742V61.7695C11.0742 62.449 11.6252 63 12.3047 63H15.7501C16.4296 63 16.9806 62.449 16.9806 61.7695C16.9806 61.0901 16.4296 60.5391 15.7501 60.5391H13.5352V54.5442C13.5352 49.1663 17.7003 44.746 22.9736 44.3317L29.6612 60.5391H26.8236C26.1441 60.5391 25.5931 61.0901 25.5931 61.7695C25.5931 62.449 26.1441 63 26.8236 63H50.6953C51.3748 63 51.9258 62.449 51.9258 61.7695V56.2836H61.7695C62.449 56.2836 63 55.7326 63 55.0531V50.3934C63 45.7027 59.206 41.8831 54.5256 41.838ZM45.7827 38.0538V35.8743C45.7827 33.7889 47.4794 32.0922 49.5648 32.0922C51.6502 32.0922 53.3469 33.7889 53.3469 35.8743V38.0538C53.3469 40.1392 51.6502 41.8359 49.5648 41.8359C47.4794 41.8359 45.7827 40.1392 45.7827 38.0538ZM31.5 23.3728C35.0281 23.3728 37.8984 26.2431 37.8984 29.7712V29.7835H37.8931C35.8567 29.7835 33.8791 29.1936 32.1738 28.0778C31.7646 27.8098 31.2356 27.8098 30.8263 28.0778C29.121 29.1936 27.1433 29.7835 25.107 29.7835H25.1016V29.7712C25.1016 26.2431 27.9719 23.3728 31.5 23.3728ZM25.1016 35.4375V32.2444H25.1069C27.3594 32.2444 29.5534 31.6606 31.5 30.5493C33.4466 31.6606 35.6407 32.2444 37.8931 32.2444H37.8984V35.4375C37.8984 38.9656 35.0281 41.8359 31.5 41.8359C27.9719 41.8359 25.1016 38.9656 25.1016 35.4375ZM9.65303 35.8743C9.65303 33.7889 11.3497 32.0922 13.4351 32.0922C15.5205 32.0922 17.2172 33.7889 17.2172 35.8743V38.0538C17.2172 40.1392 15.5205 41.8359 13.4351 41.8359C11.3497 41.8359 9.65303 40.1392 9.65303 38.0538V35.8743ZM11.0951 53.8227H2.46094V50.3934C2.46094 47.0318 5.1959 44.2969 8.55742 44.2969H16.2757C13.3058 46.4784 11.3149 49.9175 11.0951 53.8227ZM25.6399 44.2969H30.2695V47.25C30.2695 47.9295 30.8205 48.4805 31.5 48.4805C32.1795 48.4805 32.7305 47.9295 32.7305 47.25V44.2969H37.3601H37.3786L31.5 58.5436L25.6214 44.2969H25.6399ZM49.4648 60.5391H33.3388L40.0264 44.3318C45.2997 44.746 49.4648 49.1663 49.4648 54.5442V60.5391ZM60.5391 53.8227H51.9049C51.6851 49.9175 49.6942 46.4784 46.7243 44.2969H54.4426C57.8041 44.2969 60.5391 47.0318 60.5391 50.3934V53.8227Z" fill="#FD3B3B"/>
<path d="M23.047 9.48015L25.9841 11.6044L24.8607 15.0365C24.5281 16.0527 24.8721 17.1155 25.7373 17.744C26.6023 18.3725 27.7194 18.3714 28.5831 17.7409L31.4999 15.6118L34.4167 17.7408C34.8494 18.0565 35.3454 18.2145 35.8417 18.2145C36.3361 18.2145 36.8308 18.0576 37.2626 17.744C38.1277 17.1156 38.4717 16.0527 38.1391 15.0363L37.0157 11.6044L39.9529 9.48015C40.8184 8.85421 41.1651 7.79305 40.8361 6.77681C40.5071 5.76069 39.6044 5.10411 38.5365 5.10411H34.909L33.8001 1.67368C33.4712 0.656947 32.5686 0 31.4999 0C30.4312 0 29.5286 0.656947 29.1998 1.67381L28.0909 5.10423H24.4635C23.3954 5.10423 22.4928 5.76081 22.1638 6.77693C21.8347 7.79305 22.1814 8.85421 23.047 9.48015ZM28.9863 7.56504C29.5201 7.56504 29.993 7.22088 30.1572 6.71307L31.5002 2.55962L32.8426 6.71307C33.0069 7.22088 33.4797 7.56504 34.0135 7.56504L38.401 7.56541L34.8458 10.1365C34.4123 10.4501 34.2311 11.0079 34.3974 11.5164L35.7576 15.6727L32.2253 13.0945C32.0092 12.9368 31.7545 12.8579 31.4998 12.8579C31.2451 12.8579 30.9904 12.9368 30.7743 13.0945L27.2416 15.6726L28.6022 11.5164C28.7686 11.0079 28.5874 10.4501 28.1538 10.1365L24.5987 7.56517L28.9863 7.56504Z" fill="#FD3B3B"/>
<path d="M21.2871 60.5391C20.9635 60.5391 20.646 60.6706 20.4172 60.8996C20.1883 61.1286 20.0566 61.4459 20.0566 61.7695C20.0566 62.0931 20.1882 62.4106 20.4172 62.6393C20.646 62.8682 20.9635 63 21.2871 63C21.6107 63 21.9282 62.8683 22.1569 62.6393C22.3859 62.4106 22.5176 62.0931 22.5176 61.7695C22.5176 61.4459 22.3859 61.1285 22.1569 60.8996C21.9282 60.6706 21.6107 60.5391 21.2871 60.5391Z" fill="#FD3B3B"/>
</g>
<path d="M1.536 83.648H3.664V94H1.536V83.648ZM6.1475 86.048H8.2275V94H6.1475V86.048ZM11.9235 85.872C12.4142 85.872 12.8675 85.936 13.2835 86.064C13.6995 86.192 14.0622 86.3893 14.3715 86.656C14.6808 86.9227 14.9208 87.264 15.0915 87.68C15.2622 88.0853 15.3475 88.5707 15.3475 89.136V94H13.2675V89.504C13.2675 88.832 13.1022 88.3413 12.7715 88.032C12.4515 87.712 11.9235 87.552 11.1875 87.552C10.6328 87.552 10.1315 87.6587 9.6835 87.872C9.2355 88.0853 8.87283 88.3573 8.5955 88.688C8.31817 89.008 8.15817 89.344 8.1155 89.696L8.0995 88.88C8.15283 88.5067 8.2755 88.144 8.4675 87.792C8.6595 87.44 8.9155 87.12 9.2355 86.832C9.56617 86.5333 9.9555 86.2987 10.4035 86.128C10.8515 85.9573 11.3582 85.872 11.9235 85.872ZM21.1133 94.176C20.3133 94.176 19.5879 94.0053 18.9373 93.664C18.2973 93.312 17.7906 92.8267 17.4173 92.208C17.0439 91.5787 16.8573 90.8533 16.8573 90.032C16.8573 89.1893 17.0386 88.4587 17.4013 87.84C17.7746 87.2213 18.2813 86.7413 18.9213 86.4C19.5613 86.048 20.2919 85.872 21.1133 85.872C21.8279 85.872 22.4359 85.9787 22.9373 86.192C23.4386 86.4053 23.8439 86.704 24.1533 87.088C24.4626 87.4613 24.6866 87.8987 24.8253 88.4C24.9746 88.9013 25.0493 89.4453 25.0493 90.032C25.0493 90.5013 24.9746 90.9813 24.8253 91.472C24.6759 91.952 24.4466 92.4 24.1373 92.816C23.8279 93.2213 23.4226 93.552 22.9213 93.808C22.4199 94.0533 21.8173 94.176 21.1133 94.176ZM21.7853 92.576C22.4146 92.576 22.9586 92.4693 23.4173 92.256C23.8759 92.0427 24.2279 91.744 24.4733 91.36C24.7186 90.976 24.8413 90.5333 24.8413 90.032C24.8413 89.488 24.7133 89.0293 24.4573 88.656C24.2119 88.272 23.8599 87.9787 23.4013 87.776C22.9533 87.5733 22.4146 87.472 21.7853 87.472C20.8999 87.472 20.2119 87.7067 19.7213 88.176C19.2306 88.6453 18.9853 89.264 18.9853 90.032C18.9853 90.544 19.1026 90.992 19.3373 91.376C19.5719 91.7493 19.8973 92.0427 20.3133 92.256C20.7399 92.4693 21.2306 92.576 21.7853 92.576ZM24.8413 82.848H26.9213V94H24.9853C24.9533 93.7547 24.9213 93.44 24.8893 93.056C24.8573 92.6613 24.8413 92.2933 24.8413 91.952V82.848ZM38.3631 94H36.2831V86.048H38.3631V94ZM36.3951 90.176L36.4111 90.72C36.3898 90.8693 36.3365 91.088 36.2511 91.376C36.1658 91.6533 36.0325 91.952 35.8511 92.272C35.6805 92.592 35.4565 92.9013 35.1791 93.2C34.9018 93.488 34.5605 93.728 34.1551 93.92C33.7498 94.1013 33.2698 94.192 32.7151 94.192C32.2778 94.192 31.8458 94.1387 31.4191 94.032C31.0031 93.9253 30.6245 93.7493 30.2831 93.504C29.9418 93.248 29.6698 92.9067 29.4671 92.48C29.2645 92.0533 29.1631 91.5147 29.1631 90.864V86.048H31.2431V90.512C31.2431 91.024 31.3231 91.4293 31.4831 91.728C31.6538 92.016 31.8991 92.2187 32.2191 92.336C32.5391 92.4533 32.9178 92.512 33.3551 92.512C33.9311 92.512 34.4271 92.3893 34.8431 92.144C35.2591 91.888 35.5951 91.5787 35.8511 91.216C36.1178 90.8533 36.2991 90.5067 36.3951 90.176ZM39.9369 91.36H41.8569C41.9742 91.7227 42.2142 92.0213 42.5769 92.256C42.9502 92.48 43.4355 92.592 44.0329 92.592C44.4382 92.592 44.7529 92.5547 44.9769 92.48C45.2009 92.4053 45.3555 92.2987 45.4409 92.16C45.5262 92.0107 45.5689 91.8453 45.5689 91.664C45.5689 91.44 45.4995 91.2693 45.3609 91.152C45.2222 91.024 45.0089 90.9227 44.7209 90.848C44.4329 90.7733 44.0649 90.704 43.6169 90.64C43.1689 90.5653 42.7369 90.4747 42.3209 90.368C41.9049 90.2613 41.5369 90.1227 41.2169 89.952C40.8969 89.7707 40.6409 89.5467 40.4489 89.28C40.2675 89.0027 40.1769 88.6667 40.1769 88.272C40.1769 87.888 40.2675 87.5467 40.4489 87.248C40.6409 86.9493 40.9022 86.6987 41.2329 86.496C41.5742 86.2933 41.9689 86.1387 42.4169 86.032C42.8755 85.9253 43.3662 85.872 43.8889 85.872C44.6782 85.872 45.3342 85.9893 45.8569 86.224C46.3795 86.448 46.7689 86.768 47.0249 87.184C47.2915 87.5893 47.4249 88.0587 47.4249 88.592H45.5849C45.4995 88.1973 45.3289 87.9147 45.0729 87.744C44.8169 87.5627 44.4222 87.472 43.8889 87.472C43.3662 87.472 42.9715 87.552 42.7049 87.712C42.4382 87.872 42.3049 88.0907 42.3049 88.368C42.3049 88.592 42.3849 88.768 42.5449 88.896C42.7155 89.0133 42.9609 89.1093 43.2809 89.184C43.6115 89.2587 44.0222 89.3387 44.5129 89.424C44.9289 89.5093 45.3235 89.6053 45.6969 89.712C46.0809 89.8187 46.4222 89.9573 46.7209 90.128C47.0195 90.288 47.2542 90.5067 47.4249 90.784C47.6062 91.0507 47.6969 91.392 47.6969 91.808C47.6969 92.32 47.5475 92.752 47.2489 93.104C46.9609 93.456 46.5449 93.728 46.0009 93.92C45.4569 94.1013 44.8062 94.192 44.0489 94.192C43.3769 94.192 42.7955 94.1227 42.3049 93.984C41.8249 93.8347 41.4249 93.648 41.1049 93.424C40.7849 93.1893 40.5342 92.944 40.3529 92.688C40.1822 92.4213 40.0649 92.1707 40.0009 91.936C39.9369 91.7013 39.9155 91.5093 39.9369 91.36ZM48.7281 86.048H54.9041V87.664H48.7281V86.048ZM50.7761 83.872H52.8561V94H50.7761V83.872ZM56.2256 86.048H58.3056V94H56.2256V86.048ZM61.3616 87.76C60.7643 87.76 60.247 87.8773 59.8096 88.112C59.3723 88.336 59.0203 88.6133 58.7536 88.944C58.487 89.2747 58.3003 89.5947 58.1936 89.904L58.1776 89.024C58.1883 88.896 58.231 88.7093 58.3056 88.464C58.3803 88.208 58.4923 87.936 58.6416 87.648C58.791 87.3493 58.9883 87.0667 59.2336 86.8C59.479 86.5227 59.7776 86.2987 60.1296 86.128C60.4816 85.9573 60.8923 85.872 61.3616 85.872V87.76ZM61.9275 86.048H64.1355L67.5755 93.68L65.7835 94L61.9275 86.048ZM71.6555 86.048L66.1515 97.2H63.9915L66.3435 92.816L69.4315 86.048H71.6555ZM3.36 102.648V111.224H10.24V113H1.232V102.648H3.36ZM18.8799 110.36H20.8959C20.8105 110.904 20.5812 111.389 20.2079 111.816C19.8452 112.243 19.3492 112.579 18.7199 112.824C18.0905 113.069 17.3225 113.192 16.4159 113.192C15.4025 113.192 14.5065 113.032 13.7279 112.712C12.9492 112.381 12.3412 111.907 11.9039 111.288C11.4665 110.669 11.2479 109.923 11.2479 109.048C11.2479 108.173 11.4612 107.427 11.8879 106.808C12.3145 106.179 12.9065 105.699 13.6639 105.368C14.4319 105.037 15.3279 104.872 16.3519 104.872C17.3972 104.872 18.2665 105.037 18.9599 105.368C19.6532 105.699 20.1652 106.2 20.4959 106.872C20.8372 107.533 20.9812 108.381 20.9279 109.416H13.3439C13.3972 109.821 13.5465 110.189 13.7919 110.52C14.0479 110.851 14.3892 111.112 14.8159 111.304C15.2532 111.496 15.7705 111.592 16.3679 111.592C17.0292 111.592 17.5785 111.48 18.0159 111.256C18.4639 111.021 18.7519 110.723 18.8799 110.36ZM16.2559 106.456C15.4879 106.456 14.8639 106.627 14.3839 106.968C13.9039 107.299 13.5945 107.709 13.4559 108.2H18.8639C18.8105 107.667 18.5545 107.245 18.0959 106.936C17.6479 106.616 17.0345 106.456 16.2559 106.456ZM26.3476 113.176C25.5583 113.176 24.8383 113.005 24.1876 112.664C23.5476 112.312 23.0356 111.827 22.6516 111.208C22.2783 110.579 22.0916 109.853 22.0916 109.032C22.0916 108.189 22.2836 107.459 22.6676 106.84C23.0516 106.221 23.569 105.741 24.2196 105.4C24.881 105.048 25.6276 104.872 26.4596 104.872C27.377 104.872 28.113 105.059 28.6676 105.432C29.233 105.795 29.6436 106.291 29.8996 106.92C30.1556 107.549 30.2836 108.253 30.2836 109.032C30.2836 109.501 30.209 109.981 30.0596 110.472C29.9103 110.952 29.681 111.4 29.3716 111.816C29.0623 112.221 28.657 112.552 28.1556 112.808C27.6543 113.053 27.0516 113.176 26.3476 113.176ZM27.0196 111.576C27.649 111.576 28.193 111.469 28.6516 111.256C29.1103 111.043 29.4623 110.744 29.7076 110.36C29.953 109.976 30.0756 109.533 30.0756 109.032C30.0756 108.488 29.9476 108.029 29.6916 107.656C29.4463 107.272 29.0943 106.984 28.6356 106.792C28.1876 106.589 27.649 106.488 27.0196 106.488C26.1343 106.488 25.4463 106.723 24.9556 107.192C24.465 107.651 24.2196 108.264 24.2196 109.032C24.2196 109.544 24.337 109.992 24.5716 110.376C24.8063 110.749 25.1316 111.043 25.5476 111.256C25.9743 111.469 26.465 111.576 27.0196 111.576ZM30.0756 105.048H32.1556V113H30.2196C30.2196 113 30.2036 112.899 30.1716 112.696C30.1503 112.483 30.129 112.216 30.1076 111.896C30.0863 111.576 30.0756 111.261 30.0756 110.952V105.048ZM37.9101 113.176C37.1101 113.176 36.3848 113.005 35.7341 112.664C35.0941 112.312 34.5875 111.827 34.2141 111.208C33.8408 110.579 33.6541 109.853 33.6541 109.032C33.6541 108.189 33.8355 107.459 34.1981 106.84C34.5715 106.221 35.0781 105.741 35.7181 105.4C36.3581 105.048 37.0888 104.872 37.9101 104.872C38.6248 104.872 39.2328 104.979 39.7341 105.192C40.2355 105.405 40.6408 105.704 40.9501 106.088C41.2595 106.461 41.4835 106.899 41.6221 107.4C41.7715 107.901 41.8461 108.445 41.8461 109.032C41.8461 109.501 41.7715 109.981 41.6221 110.472C41.4728 110.952 41.2435 111.4 40.9341 111.816C40.6248 112.221 40.2195 112.552 39.7181 112.808C39.2168 113.053 38.6141 113.176 37.9101 113.176ZM38.5821 111.576C39.2115 111.576 39.7555 111.469 40.2141 111.256C40.6728 111.043 41.0248 110.744 41.2701 110.36C41.5155 109.976 41.6381 109.533 41.6381 109.032C41.6381 108.488 41.5101 108.029 41.2541 107.656C41.0088 107.272 40.6568 106.979 40.1981 106.776C39.7501 106.573 39.2115 106.472 38.5821 106.472C37.6968 106.472 37.0088 106.707 36.5181 107.176C36.0275 107.645 35.7821 108.264 35.7821 109.032C35.7821 109.544 35.8995 109.992 36.1341 110.376C36.3688 110.749 36.6941 111.043 37.1101 111.256C37.5368 111.469 38.0275 111.576 38.5821 111.576ZM41.6381 101.848H43.7181V113H41.7821C41.7501 112.755 41.7181 112.44 41.6861 112.056C41.6541 111.661 41.6381 111.293 41.6381 110.952V101.848ZM53.208 110.36H55.224C55.1387 110.904 54.9093 111.389 54.536 111.816C54.1733 112.243 53.6773 112.579 53.048 112.824C52.4187 113.069 51.6507 113.192 50.744 113.192C49.7307 113.192 48.8347 113.032 48.056 112.712C47.2773 112.381 46.6693 111.907 46.232 111.288C45.7947 110.669 45.576 109.923 45.576 109.048C45.576 108.173 45.7893 107.427 46.216 106.808C46.6427 106.179 47.2347 105.699 47.992 105.368C48.76 105.037 49.656 104.872 50.68 104.872C51.7253 104.872 52.5947 105.037 53.288 105.368C53.9813 105.699 54.4933 106.2 54.824 106.872C55.1653 107.533 55.3093 108.381 55.256 109.416H47.672C47.7253 109.821 47.8747 110.189 48.12 110.52C48.376 110.851 48.7173 111.112 49.144 111.304C49.5813 111.496 50.0987 111.592 50.696 111.592C51.3573 111.592 51.9067 111.48 52.344 111.256C52.792 111.021 53.08 110.723 53.208 110.36ZM50.584 106.456C49.816 106.456 49.192 106.627 48.712 106.968C48.232 107.299 47.9227 107.709 47.784 108.2H53.192C53.1387 107.667 52.8827 107.245 52.424 106.936C51.976 106.616 51.3627 106.456 50.584 106.456ZM56.8038 105.048H58.8838V113H56.8038V105.048ZM61.9398 106.76C61.3424 106.76 60.8251 106.877 60.3878 107.112C59.9504 107.336 59.5984 107.613 59.3318 107.944C59.0651 108.275 58.8784 108.595 58.7718 108.904L58.7558 108.024C58.7664 107.896 58.8091 107.709 58.8838 107.464C58.9584 107.208 59.0704 106.936 59.2198 106.648C59.3691 106.349 59.5664 106.067 59.8118 105.8C60.0571 105.523 60.3558 105.299 60.7078 105.128C61.0598 104.957 61.4704 104.872 61.9398 104.872V106.76ZM62.9056 110.36H64.8256C64.943 110.723 65.183 111.021 65.5456 111.256C65.919 111.48 66.4043 111.592 67.0016 111.592C67.407 111.592 67.7216 111.555 67.9456 111.48C68.1696 111.405 68.3243 111.299 68.4096 111.16C68.495 111.011 68.5376 110.845 68.5376 110.664C68.5376 110.44 68.4683 110.269 68.3296 110.152C68.191 110.024 67.9776 109.923 67.6896 109.848C67.4016 109.773 67.0336 109.704 66.5856 109.64C66.1376 109.565 65.7056 109.475 65.2896 109.368C64.8736 109.261 64.5056 109.123 64.1856 108.952C63.8656 108.771 63.6096 108.547 63.4176 108.28C63.2363 108.003 63.1456 107.667 63.1456 107.272C63.1456 106.888 63.2363 106.547 63.4176 106.248C63.6096 105.949 63.871 105.699 64.2016 105.496C64.543 105.293 64.9376 105.139 65.3856 105.032C65.8443 104.925 66.335 104.872 66.8576 104.872C67.647 104.872 68.303 104.989 68.8256 105.224C69.3483 105.448 69.7376 105.768 69.9936 106.184C70.2603 106.589 70.3936 107.059 70.3936 107.592H68.5536C68.4683 107.197 68.2976 106.915 68.0416 106.744C67.7856 106.563 67.391 106.472 66.8576 106.472C66.335 106.472 65.9403 106.552 65.6736 106.712C65.407 106.872 65.2736 107.091 65.2736 107.368C65.2736 107.592 65.3536 107.768 65.5136 107.896C65.6843 108.013 65.9296 108.109 66.2496 108.184C66.5803 108.259 66.991 108.339 67.4816 108.424C67.8976 108.509 68.2923 108.605 68.6656 108.712C69.0496 108.819 69.391 108.957 69.6896 109.128C69.9883 109.288 70.223 109.507 70.3936 109.784C70.575 110.051 70.6656 110.392 70.6656 110.808C70.6656 111.32 70.5163 111.752 70.2176 112.104C69.9296 112.456 69.5136 112.728 68.9696 112.92C68.4256 113.101 67.775 113.192 67.0176 113.192C66.3456 113.192 65.7643 113.123 65.2736 112.984C64.7936 112.835 64.3936 112.648 64.0736 112.424C63.7536 112.189 63.503 111.944 63.3216 111.688C63.151 111.421 63.0336 111.171 62.9696 110.936C62.9056 110.701 62.8843 110.509 62.9056 110.36ZM79.5209 113V108.632C79.5209 108.195 79.4462 107.832 79.2969 107.544C79.1475 107.256 78.9075 107.037 78.5769 106.888C78.2569 106.739 77.8249 106.664 77.2809 106.664C76.7582 106.664 76.2835 106.765 75.8569 106.968C75.4302 107.16 75.0835 107.416 74.8169 107.736C74.5502 108.045 74.4009 108.376 74.3689 108.728L74.3529 107.848C74.4062 107.496 74.5289 107.144 74.7209 106.792C74.9129 106.44 75.1689 106.12 75.4889 105.832C75.8089 105.544 76.1929 105.315 76.6409 105.144C77.0995 104.963 77.6115 104.872 78.1769 104.872C78.6675 104.872 79.1209 104.936 79.5369 105.064C79.9529 105.181 80.3155 105.368 80.6249 105.624C80.9342 105.88 81.1742 106.2 81.3449 106.584C81.5155 106.957 81.6009 107.4 81.6009 107.912V113H79.5209ZM72.4009 113V101.848H74.4809V113H72.4009ZM85.8753 101.56V103.384H83.4593V101.56H85.8753ZM83.6193 105.048H85.6993V113H83.6193V105.048ZM93.5645 113.192C92.8605 113.192 92.2578 113.069 91.7565 112.824C91.2658 112.568 90.8658 112.237 90.5565 111.832C90.2472 111.416 90.0178 110.963 89.8685 110.472C89.7192 109.981 89.6445 109.501 89.6445 109.032C89.6445 108.445 89.7138 107.901 89.8525 107.4C90.0018 106.899 90.2312 106.461 90.5405 106.088C90.8498 105.704 91.2498 105.405 91.7405 105.192C92.2418 104.979 92.8498 104.872 93.5645 104.872C94.3645 104.872 95.0845 105.048 95.7245 105.4C96.3645 105.752 96.8712 106.243 97.2445 106.872C97.6285 107.491 97.8205 108.211 97.8205 109.032C97.8205 109.875 97.6285 110.611 97.2445 111.24C96.8605 111.859 96.3485 112.339 95.7085 112.68C95.0685 113.021 94.3538 113.192 93.5645 113.192ZM92.8925 111.576C93.4578 111.576 93.9485 111.469 94.3645 111.256C94.7912 111.043 95.1165 110.749 95.3405 110.376C95.5752 109.992 95.6925 109.544 95.6925 109.032C95.6925 108.264 95.4472 107.645 94.9565 107.176C94.4765 106.707 93.7885 106.472 92.8925 106.472C92.3272 106.472 91.8098 106.573 91.3405 106.776C90.8818 106.979 90.5192 107.272 90.2525 107.656C89.9858 108.029 89.8525 108.488 89.8525 109.032C89.8525 109.544 89.9752 109.992 90.2205 110.376C90.4658 110.749 90.8178 111.043 91.2765 111.256C91.7352 111.469 92.2738 111.576 92.8925 111.576ZM87.7725 105.048H89.7565L89.8525 107.16V116.2H87.7725V105.048Z" fill="#222222"/>
<defs>
<clipPath id="clip0_88_1021">
<rect width="63" height="63" fill="white"/>
</clipPath>
</defs>
</svg>
