<svg width="130" height="136" viewBox="0 0 130 136" fill="none" xmlns="http://www.w3.org/2000/svg">
<g clip-path="url(#clip0_88_1018)">
<path d="M35.8235 42.1304C38.1865 40.6742 39.7656 38.0632 39.7656 35.0897V31.9306V28.7733C39.7656 24.216 36.058 20.5084 31.5006 20.5084C26.9433 20.5084 23.2357 24.216 23.2357 28.7733V31.9315V35.0896C23.2357 38.063 24.8146 40.674 27.1777 42.1302C20.3701 44.0811 15.217 50.2569 15.217 57.2674V62.0751C15.217 62.5858 15.6311 63 16.142 63H22.3726C22.8834 63 23.2975 62.586 23.2975 62.0751C23.2975 61.5643 22.8835 61.1501 22.3726 61.1501H17.0667V57.2674C17.0667 53.645 18.6124 50.1816 21.4191 47.5149C23.0969 45.9208 25.1281 44.7333 27.2952 44.0404L28.7602 46.8867L26.792 55.4309C26.7171 55.7557 26.823 56.0957 27.0688 56.3208L30.8761 59.8053C31.0528 59.967 31.2767 60.0479 31.5005 60.0479C31.7243 60.0479 31.9482 59.967 32.1248 59.8053L35.9321 56.3208C36.178 56.0957 36.2838 55.7557 36.209 55.4309L34.2407 46.8866L35.7057 44.0404C37.8728 44.7333 39.904 45.9209 41.5819 47.5149C44.3886 50.1816 45.9343 53.6451 45.9343 57.2674V61.1502H25.4553C24.9445 61.1502 24.5304 61.5643 24.5304 62.0752C24.5304 62.586 24.9444 63.0001 25.4553 63.0001H46.8593C47.3701 63.0001 47.7843 62.5861 47.7843 62.0752V57.2674C47.784 50.257 42.6311 44.0813 35.8235 42.1304ZM25.0853 28.7735C25.0853 25.2362 27.9632 22.3583 31.5005 22.3583C35.0378 22.3583 37.9157 25.2362 37.9157 28.7735V30.9177C35.0083 30.3659 33.8305 27.4073 33.7781 27.2719C33.6499 26.9333 33.3357 26.7009 32.9745 26.6767C32.6131 26.6524 32.2711 26.8417 32.0992 27.1604C32.0797 27.1967 30.1842 30.5984 25.0853 30.9732V28.7735ZM34.2854 55.3206L31.5004 57.8696L28.7154 55.3206L30.4734 47.6894H32.5273L34.2854 55.3206ZM29.1372 43.5774C29.2143 43.5632 29.2915 43.5501 29.3687 43.537C29.4205 43.5285 29.4723 43.5201 29.5242 43.5121C29.6384 43.4942 29.7527 43.4777 29.8673 43.4627C29.9823 43.4478 30.0975 43.4337 30.2128 43.4215C30.2742 43.415 30.3356 43.4087 30.397 43.4029C30.553 43.3885 30.7092 43.376 30.8651 43.3666C30.9023 43.3644 30.9396 43.3628 30.9769 43.3608C31.0836 43.3553 31.1902 43.3526 31.2968 43.3495C31.3648 43.3511 31.4322 43.3547 31.5005 43.3547C31.5688 43.3547 31.6362 43.3511 31.7041 43.3495C31.8107 43.3526 31.9174 43.3554 32.024 43.3608C32.0613 43.3628 32.0986 43.3644 32.136 43.3666C32.292 43.3758 32.4482 43.3884 32.6041 43.4029C32.6655 43.4087 32.7269 43.415 32.7883 43.4215C32.9036 43.4337 33.0186 43.4478 33.1338 43.4627C33.2482 43.4777 33.3627 43.4943 33.4769 43.5121C33.5288 43.5201 33.5806 43.5285 33.6324 43.537C33.7095 43.5499 33.7868 43.5631 33.8638 43.5774L32.6992 45.8396H30.3016L29.1372 43.5774ZM31.7483 41.4985C31.67 41.4963 31.5918 41.4935 31.5132 41.4924C31.5048 41.4922 31.4963 41.4922 31.4879 41.4924C31.4094 41.4935 31.3312 41.4963 31.2529 41.4985C27.8301 41.3678 25.0854 38.5439 25.0854 35.0897V32.827C29.1705 32.5709 31.5822 30.6525 32.7797 29.321C33.6224 30.6304 35.2451 32.4357 37.9158 32.7923V35.0896C37.9157 38.5439 35.1711 41.3677 31.7483 41.4985Z" fill="#FD3B3B"/>
<path d="M21.0958 13.3462C20.8908 12.7153 20.3558 12.2641 19.6993 12.1687L15.4937 11.5577L13.613 7.74693C13.3195 7.15212 12.7249 6.78261 12.0616 6.78261C11.3984 6.78261 10.8038 7.15224 10.5103 7.74693L8.63006 11.5576L4.42455 12.1686C3.7681 12.264 3.23309 12.7152 3.02809 13.3461C2.8231 13.9768 2.99093 14.6563 3.46589 15.1193L6.50909 18.0856L5.79062 22.2741C5.67853 22.9279 5.94222 23.5762 6.47883 23.966C6.78201 24.1863 7.13688 24.2982 7.49396 24.2982C7.76885 24.2982 8.04534 24.2319 8.30066 24.0975L12.0621 22.1201L15.8234 24.0975C16.4106 24.4064 17.1085 24.3559 17.6452 23.966C18.182 23.5761 18.4455 22.9279 18.3333 22.2741L17.6148 18.0857L20.658 15.1194C21.1331 14.6565 21.3008 13.9769 21.0958 13.3462ZM16.2788 16.8049C15.8711 17.2024 15.6851 17.7747 15.7812 18.3361L16.4691 22.3473L12.8668 20.4535C12.3628 20.1886 11.7609 20.1885 11.2569 20.4535L7.65466 22.3473L8.34262 18.3361C8.43897 17.7748 8.2528 17.2024 7.84502 16.8049L4.93077 13.9641L8.95822 13.3789C9.52166 13.2971 10.0087 12.9433 10.2608 12.4327L12.062 8.78311L13.863 12.4326C14.1151 12.9432 14.6019 13.297 15.1655 13.3788L19.1929 13.964L16.2788 16.8049Z" fill="#FD3B3B"/>
<path d="M40.5522 6.5637C40.3472 5.93296 39.8122 5.48175 39.1557 5.38639L34.9502 4.77521L33.0693 0.964443C32.7757 0.369633 32.1813 0 31.5179 0C30.8546 0 30.2601 0.369633 29.9665 0.96432L28.0858 4.77509L23.8803 5.38626C23.2238 5.48163 22.6888 5.93284 22.4839 6.56358C22.2789 7.19432 22.4466 7.87378 22.9216 8.33693L25.9649 11.3031L25.2466 15.4916C25.1345 16.1454 25.3982 16.7937 25.9348 17.1835C26.4714 17.5735 27.1693 17.6239 27.7566 17.3152L31.518 15.3377L35.2796 17.3152C35.535 17.4493 35.8113 17.5158 36.086 17.5158C36.4431 17.5158 36.798 17.4038 37.1012 17.1835C37.6379 16.7936 37.9015 16.1453 37.7894 15.4916L37.071 11.3032L40.1142 8.33693C40.5893 7.87403 40.757 7.19444 40.5522 6.5637ZM35.7347 10.0227C35.327 10.4202 35.1409 10.9927 35.2371 11.5539L35.9251 15.5651L32.3227 13.6712C32.0707 13.5388 31.7943 13.4724 31.5179 13.4724C31.2414 13.4724 30.9649 13.5388 30.7129 13.6712L27.1106 15.565L27.7986 11.5539C27.8949 10.9925 27.7088 10.4201 27.3011 10.0227L24.3868 7.18189L28.4142 6.59668C28.9777 6.51473 29.4648 6.16097 29.7166 5.65032L31.5177 2.00087L33.3187 5.6502C33.5708 6.16097 34.0576 6.51473 34.6213 6.59668L38.6487 7.18189L35.7347 10.0227Z" fill="#FD3B3B"/>
<path d="M59.9719 13.3461C59.7669 12.7152 59.2319 12.2641 58.5755 12.1686L54.37 11.5576L52.4893 7.74681C52.1959 7.152 51.6013 6.78249 50.9379 6.78249C50.2746 6.78249 49.6802 7.15212 49.3866 7.74681L47.5059 11.5576L43.3003 12.1686C42.6438 12.264 42.1088 12.7152 41.9038 13.3461C41.6988 13.9769 41.8667 14.6564 42.3416 15.1193L45.3848 18.0856L44.6665 22.2741C44.5544 22.9279 44.8181 23.5762 45.3547 23.966C45.6579 24.1863 46.0126 24.2982 46.3698 24.2982C46.6447 24.2982 46.9211 24.2319 47.1764 24.0976L50.9378 22.1201L54.6992 24.0974C55.2862 24.4062 55.9844 24.3557 56.5211 23.9659C57.0578 23.576 57.3214 22.9276 57.2093 22.274L56.4909 18.0855L59.534 15.1192C60.0091 14.6565 60.1768 13.9769 59.9719 13.3461ZM55.1548 16.8049C54.747 17.2025 54.5609 17.7748 54.6572 18.3361L55.3451 22.3473L51.7429 20.4536C51.4908 20.3211 51.2144 20.2547 50.9378 20.2547C50.6613 20.2547 50.3848 20.321 50.1328 20.4535L46.5305 22.3473L47.2185 18.3362C47.3148 17.7749 47.1288 17.2025 46.721 16.805L43.8067 13.9643L47.8343 13.379C48.3979 13.2972 48.8848 12.9433 49.1368 12.4328L50.9378 8.78323L52.739 12.4329C52.9911 12.9435 53.4779 13.2971 54.0413 13.379L58.0688 13.9643L55.1548 16.8049Z" fill="#FD3B3B"/>
</g>
<path d="M1.232 94V83.648H7.2C8.58667 83.648 9.63733 83.8827 10.352 84.352C11.0773 84.8107 11.44 85.4987 11.44 86.416C11.44 87.0027 11.296 87.4667 11.008 87.808C10.72 88.1387 10.3093 88.384 9.776 88.544C9.25333 88.704 8.63467 88.8053 7.92 88.848L7.984 88.736C8.50667 88.7467 8.99733 88.784 9.456 88.848C9.92533 88.912 10.336 89.0293 10.688 89.2C11.04 89.3707 11.3173 89.6107 11.52 89.92C11.7227 90.2187 11.824 90.6133 11.824 91.104C11.824 91.744 11.6533 92.2773 11.312 92.704C10.9707 93.12 10.496 93.4347 9.888 93.648C9.28 93.8613 8.576 93.9787 7.776 94H1.232ZM3.36 92.24H7.552C8.224 92.24 8.74133 92.1333 9.104 91.92C9.46667 91.696 9.648 91.344 9.648 90.864C9.648 90.512 9.54133 90.256 9.328 90.096C9.11467 89.936 8.832 89.84 8.48 89.808C8.128 89.7653 7.74933 89.744 7.344 89.744H3.36V92.24ZM3.36 88.032H7.12C7.792 88.032 8.30933 87.936 8.672 87.744C9.03467 87.5413 9.216 87.2 9.216 86.72C9.216 86.24 9.03467 85.904 8.672 85.712C8.30933 85.5093 7.82933 85.408 7.232 85.408H3.36V88.032ZM20.6924 91.36H22.7084C22.623 91.904 22.3937 92.3893 22.0204 92.816C21.6577 93.2427 21.1617 93.5787 20.5324 93.824C19.903 94.0693 19.135 94.192 18.2284 94.192C17.215 94.192 16.319 94.032 15.5404 93.712C14.7617 93.3813 14.1537 92.9067 13.7164 92.288C13.279 91.6693 13.0604 90.9227 13.0604 90.048C13.0604 89.1733 13.2737 88.4267 13.7004 87.808C14.127 87.1787 14.719 86.6987 15.4764 86.368C16.2444 86.0373 17.1404 85.872 18.1644 85.872C19.2097 85.872 20.079 86.0373 20.7724 86.368C21.4657 86.6987 21.9777 87.2 22.3084 87.872C22.6497 88.5333 22.7937 89.3813 22.7404 90.416H15.1564C15.2097 90.8213 15.359 91.1893 15.6044 91.52C15.8604 91.8507 16.2017 92.112 16.6284 92.304C17.0657 92.496 17.583 92.592 18.1804 92.592C18.8417 92.592 19.391 92.48 19.8284 92.256C20.2764 92.0213 20.5644 91.7227 20.6924 91.36ZM18.0684 87.456C17.3004 87.456 16.6764 87.6267 16.1964 87.968C15.7164 88.2987 15.407 88.7093 15.2684 89.2H20.6764C20.623 88.6667 20.367 88.2453 19.9084 87.936C19.4604 87.616 18.847 87.456 18.0684 87.456ZM23.9681 91.36H25.8881C26.0055 91.7227 26.2455 92.0213 26.6081 92.256C26.9815 92.48 27.4668 92.592 28.0641 92.592C28.4695 92.592 28.7841 92.5547 29.0081 92.48C29.2321 92.4053 29.3868 92.2987 29.4721 92.16C29.5575 92.0107 29.6001 91.8453 29.6001 91.664C29.6001 91.44 29.5308 91.2693 29.3921 91.152C29.2535 91.024 29.0401 90.9227 28.7521 90.848C28.4641 90.7733 28.0961 90.704 27.6481 90.64C27.2001 90.5653 26.7681 90.4747 26.3521 90.368C25.9361 90.2613 25.5681 90.1227 25.2481 89.952C24.9281 89.7707 24.6721 89.5467 24.4801 89.28C24.2988 89.0027 24.2081 88.6667 24.2081 88.272C24.2081 87.888 24.2988 87.5467 24.4801 87.248C24.6721 86.9493 24.9335 86.6987 25.2641 86.496C25.6055 86.2933 26.0001 86.1387 26.4481 86.032C26.9068 85.9253 27.3975 85.872 27.9201 85.872C28.7095 85.872 29.3655 85.9893 29.8881 86.224C30.4108 86.448 30.8001 86.768 31.0561 87.184C31.3228 87.5893 31.4561 88.0587 31.4561 88.592H29.6161C29.5308 88.1973 29.3601 87.9147 29.1041 87.744C28.8481 87.5627 28.4535 87.472 27.9201 87.472C27.3975 87.472 27.0028 87.552 26.7361 87.712C26.4695 87.872 26.3361 88.0907 26.3361 88.368C26.3361 88.592 26.4161 88.768 26.5761 88.896C26.7468 89.0133 26.9921 89.1093 27.3121 89.184C27.6428 89.2587 28.0535 89.3387 28.5441 89.424C28.9601 89.5093 29.3548 89.6053 29.7281 89.712C30.1121 89.8187 30.4535 89.9573 30.7521 90.128C31.0508 90.288 31.2855 90.5067 31.4561 90.784C31.6375 91.0507 31.7281 91.392 31.7281 91.808C31.7281 92.32 31.5788 92.752 31.2801 93.104C30.9921 93.456 30.5761 93.728 30.0321 93.92C29.4881 94.1013 28.8375 94.192 28.0801 94.192C27.4081 94.192 26.8268 94.1227 26.3361 93.984C25.8561 93.8347 25.4561 93.648 25.1361 93.424C24.8161 93.1893 24.5655 92.944 24.3841 92.688C24.2135 92.4213 24.0961 92.1707 24.0321 91.936C23.9681 91.7013 23.9468 91.5093 23.9681 91.36ZM32.7594 86.048H38.9354V87.664H32.7594V86.048ZM34.8074 83.872H36.8874V94H34.8074V83.872ZM13.312 109.272C13.216 110.104 12.9227 110.813 12.432 111.4C11.9413 111.987 11.2747 112.435 10.432 112.744C9.58933 113.053 8.58667 113.208 7.424 113.208C6.45333 113.208 5.56267 113.096 4.752 112.872C3.952 112.648 3.25867 112.312 2.672 111.864C2.096 111.416 1.648 110.861 1.328 110.2C1.008 109.528 0.848 108.744 0.848 107.848C0.848 106.952 1.008 106.168 1.328 105.496C1.648 104.824 2.096 104.264 2.672 103.816C3.25867 103.357 3.952 103.016 4.752 102.792C5.56267 102.557 6.45333 102.44 7.424 102.44C8.58667 102.44 9.58933 102.6 10.432 102.92C11.2853 103.24 11.9573 103.699 12.448 104.296C12.9387 104.883 13.2267 105.597 13.312 106.44H11.2C11.0613 105.992 10.8267 105.608 10.496 105.288C10.176 104.957 9.76 104.707 9.248 104.536C8.736 104.365 8.128 104.28 7.424 104.28C6.54933 104.28 5.78133 104.419 5.12 104.696C4.45867 104.963 3.94667 105.363 3.584 105.896C3.22133 106.419 3.04 107.069 3.04 107.848C3.04 108.616 3.22133 109.261 3.584 109.784C3.94667 110.307 4.45867 110.707 5.12 110.984C5.78133 111.251 6.54933 111.384 7.424 111.384C8.128 111.384 8.73067 111.299 9.232 111.128C9.744 110.957 10.16 110.712 10.48 110.392C10.8107 110.072 11.0507 109.699 11.2 109.272H13.312ZM24.3163 113H22.2362V105.048H24.3163V113ZM22.3483 109.176L22.3643 109.72C22.3429 109.869 22.2896 110.088 22.2043 110.376C22.1189 110.653 21.9856 110.952 21.8043 111.272C21.6336 111.592 21.4096 111.901 21.1323 112.2C20.8549 112.488 20.5136 112.728 20.1083 112.92C19.7029 113.101 19.2229 113.192 18.6683 113.192C18.2309 113.192 17.7989 113.139 17.3723 113.032C16.9563 112.925 16.5776 112.749 16.2363 112.504C15.8949 112.248 15.6229 111.907 15.4203 111.48C15.2176 111.053 15.1163 110.515 15.1163 109.864V105.048H17.1963V109.512C17.1963 110.024 17.2763 110.429 17.4363 110.728C17.6069 111.016 17.8523 111.219 18.1723 111.336C18.4923 111.453 18.8709 111.512 19.3083 111.512C19.8843 111.512 20.3803 111.389 20.7963 111.144C21.2123 110.888 21.5483 110.579 21.8043 110.216C22.0709 109.853 22.2523 109.507 22.3483 109.176ZM25.89 110.36H27.81C27.9273 110.723 28.1673 111.021 28.53 111.256C28.9033 111.48 29.3887 111.592 29.986 111.592C30.3913 111.592 30.706 111.555 30.93 111.48C31.154 111.405 31.3087 111.299 31.394 111.16C31.4793 111.011 31.522 110.845 31.522 110.664C31.522 110.44 31.4527 110.269 31.314 110.152C31.1753 110.024 30.962 109.923 30.674 109.848C30.386 109.773 30.018 109.704 29.57 109.64C29.122 109.565 28.69 109.475 28.274 109.368C27.858 109.261 27.49 109.123 27.17 108.952C26.85 108.771 26.594 108.547 26.402 108.28C26.2207 108.003 26.13 107.667 26.13 107.272C26.13 106.888 26.2207 106.547 26.402 106.248C26.594 105.949 26.8553 105.699 27.186 105.496C27.5273 105.293 27.922 105.139 28.37 105.032C28.8287 104.925 29.3193 104.872 29.842 104.872C30.6313 104.872 31.2873 104.989 31.81 105.224C32.3327 105.448 32.722 105.768 32.978 106.184C33.2447 106.589 33.378 107.059 33.378 107.592H31.538C31.4527 107.197 31.282 106.915 31.026 106.744C30.77 106.563 30.3753 106.472 29.842 106.472C29.3193 106.472 28.9247 106.552 28.658 106.712C28.3913 106.872 28.258 107.091 28.258 107.368C28.258 107.592 28.338 107.768 28.498 107.896C28.6687 108.013 28.914 108.109 29.234 108.184C29.5647 108.259 29.9753 108.339 30.466 108.424C30.882 108.509 31.2767 108.605 31.65 108.712C32.034 108.819 32.3753 108.957 32.674 109.128C32.9727 109.288 33.2073 109.507 33.378 109.784C33.5593 110.051 33.65 110.392 33.65 110.808C33.65 111.32 33.5007 111.752 33.202 112.104C32.914 112.456 32.498 112.728 31.954 112.92C31.41 113.101 30.7593 113.192 30.002 113.192C29.33 113.192 28.7487 113.123 28.258 112.984C27.778 112.835 27.378 112.648 27.058 112.424C26.738 112.189 26.4873 111.944 26.306 111.688C26.1353 111.421 26.018 111.171 25.954 110.936C25.89 110.701 25.8687 110.509 25.89 110.36ZM34.6813 105.048H40.8573V106.664H34.6813V105.048ZM36.7293 102.872H38.8093V113H36.7293V102.872ZM46.7574 113.192C45.7547 113.192 44.8694 113.032 44.1014 112.712C43.344 112.392 42.752 111.928 42.3254 111.32C41.8987 110.701 41.6854 109.944 41.6854 109.048C41.6854 108.152 41.8987 107.395 42.3254 106.776C42.752 106.147 43.344 105.672 44.1014 105.352C44.8694 105.032 45.7547 104.872 46.7574 104.872C47.76 104.872 48.6347 105.032 49.3814 105.352C50.1387 105.672 50.7307 106.147 51.1574 106.776C51.584 107.395 51.7974 108.152 51.7974 109.048C51.7974 109.944 51.584 110.701 51.1574 111.32C50.7307 111.928 50.1387 112.392 49.3814 112.712C48.6347 113.032 47.76 113.192 46.7574 113.192ZM46.7574 111.592C47.312 111.592 47.808 111.496 48.2454 111.304C48.6934 111.101 49.0454 110.813 49.3014 110.44C49.5574 110.056 49.6854 109.592 49.6854 109.048C49.6854 108.504 49.5574 108.04 49.3014 107.656C49.0454 107.261 48.6987 106.963 48.2614 106.76C47.824 106.557 47.3227 106.456 46.7574 106.456C46.2027 106.456 45.7014 106.557 45.2534 106.76C44.8054 106.963 44.448 107.256 44.1814 107.64C43.9254 108.024 43.7974 108.493 43.7974 109.048C43.7974 109.592 43.9254 110.056 44.1814 110.44C44.4374 110.813 44.7894 111.101 45.2374 111.304C45.6854 111.496 46.192 111.592 46.7574 111.592ZM53.335 105.048H55.415V113H53.335V105.048ZM59.111 104.872C59.6017 104.872 60.055 104.936 60.471 105.064C60.887 105.192 61.2497 105.389 61.559 105.656C61.8683 105.923 62.1083 106.264 62.279 106.68C62.4497 107.085 62.535 107.571 62.535 108.136V113H60.455V108.504C60.455 107.832 60.2897 107.341 59.959 107.032C59.639 106.712 59.111 106.552 58.375 106.552C57.8203 106.552 57.319 106.659 56.871 106.872C56.423 107.085 56.0603 107.357 55.783 107.688C55.5057 108.008 55.3457 108.344 55.303 108.696L55.287 107.88C55.3403 107.507 55.463 107.144 55.655 106.792C55.847 106.44 56.103 106.12 56.423 105.832C56.7537 105.533 57.143 105.299 57.591 105.128C58.039 104.957 58.5457 104.872 59.111 104.872ZM66.039 104.872C66.5297 104.872 66.983 104.936 67.399 105.064C67.815 105.192 68.1777 105.389 68.487 105.656C68.7963 105.923 69.0363 106.264 69.207 106.68C69.3883 107.085 69.479 107.571 69.479 108.136V113H67.399V108.504C67.399 107.832 67.2337 107.341 66.903 107.032C66.5723 106.712 66.039 106.552 65.303 106.552C64.7483 106.552 64.247 106.659 63.799 106.872C63.351 107.085 62.9883 107.357 62.711 107.688C62.4337 108.008 62.279 108.344 62.247 108.696L62.215 107.832C62.2683 107.48 62.3963 107.128 62.599 106.776C62.8017 106.424 63.0683 106.104 63.399 105.816C63.7297 105.528 64.1137 105.299 64.551 105.128C64.999 104.957 65.495 104.872 66.039 104.872ZM78.6143 110.36H80.6303C80.5449 110.904 80.3156 111.389 79.9423 111.816C79.5796 112.243 79.0836 112.579 78.4543 112.824C77.8249 113.069 77.0569 113.192 76.1503 113.192C75.1369 113.192 74.2409 113.032 73.4623 112.712C72.6836 112.381 72.0756 111.907 71.6383 111.288C71.2009 110.669 70.9823 109.923 70.9823 109.048C70.9823 108.173 71.1956 107.427 71.6223 106.808C72.0489 106.179 72.6409 105.699 73.3983 105.368C74.1663 105.037 75.0623 104.872 76.0863 104.872C77.1316 104.872 78.0009 105.037 78.6943 105.368C79.3876 105.699 79.8996 106.2 80.2303 106.872C80.5716 107.533 80.7156 108.381 80.6623 109.416H73.0783C73.1316 109.821 73.2809 110.189 73.5263 110.52C73.7823 110.851 74.1236 111.112 74.5503 111.304C74.9876 111.496 75.5049 111.592 76.1023 111.592C76.7636 111.592 77.3129 111.48 77.7503 111.256C78.1983 111.021 78.4863 110.723 78.6143 110.36ZM75.9903 106.456C75.2223 106.456 74.5983 106.627 74.1183 106.968C73.6383 107.299 73.3289 107.709 73.1903 108.2H78.5983C78.5449 107.667 78.2889 107.245 77.8303 106.936C77.3823 106.616 76.7689 106.456 75.9903 106.456ZM82.21 105.048H84.29V113H82.21V105.048ZM87.346 106.76C86.7487 106.76 86.2313 106.877 85.794 107.112C85.3567 107.336 85.0047 107.613 84.738 107.944C84.4713 108.275 84.2847 108.595 84.178 108.904L84.162 108.024C84.1727 107.896 84.2153 107.709 84.29 107.464C84.3647 107.208 84.4767 106.936 84.626 106.648C84.7753 106.349 84.9727 106.067 85.218 105.8C85.4633 105.523 85.762 105.299 86.114 105.128C86.466 104.957 86.8767 104.872 87.346 104.872V106.76ZM0.544 128.512H2.704C2.74667 128.875 2.912 129.205 3.2 129.504C3.49867 129.792 3.888 130.021 4.368 130.192C4.848 130.352 5.38667 130.432 5.984 130.432C6.528 130.432 6.976 130.373 7.328 130.256C7.68 130.139 7.94133 129.973 8.112 129.76C8.28267 129.547 8.368 129.291 8.368 128.992C8.368 128.704 8.26133 128.485 8.048 128.336C7.83467 128.176 7.49867 128.048 7.04 127.952C6.58133 127.845 5.97867 127.739 5.232 127.632C4.64533 127.547 4.09067 127.429 3.568 127.28C3.04533 127.12 2.58133 126.917 2.176 126.672C1.78133 126.427 1.46667 126.128 1.232 125.776C1.008 125.413 0.896 124.987 0.896 124.496C0.896 123.888 1.06667 123.355 1.408 122.896C1.76 122.437 2.27733 122.08 2.96 121.824C3.64267 121.568 4.48 121.44 5.472 121.44C6.96533 121.44 8.112 121.76 8.912 122.4C9.72267 123.029 10.1173 123.899 10.096 125.008H8.016C7.97333 124.379 7.70667 123.925 7.216 123.648C6.736 123.371 6.128 123.232 5.392 123.232C4.70933 123.232 4.144 123.333 3.696 123.536C3.25867 123.739 3.04 124.085 3.04 124.576C3.04 124.768 3.09333 124.939 3.2 125.088C3.30667 125.227 3.488 125.349 3.744 125.456C4 125.563 4.34667 125.664 4.784 125.76C5.22133 125.856 5.76533 125.952 6.416 126.048C7.024 126.133 7.57333 126.251 8.064 126.4C8.56533 126.539 8.992 126.725 9.344 126.96C9.70667 127.184 9.984 127.472 10.176 127.824C10.368 128.176 10.464 128.608 10.464 129.12C10.464 129.749 10.2987 130.299 9.968 130.768C9.648 131.227 9.14667 131.584 8.464 131.84C7.792 132.096 6.91733 132.224 5.84 132.224C5.072 132.224 4.39467 132.144 3.808 131.984C3.22133 131.813 2.71467 131.589 2.288 131.312C1.86133 131.035 1.51467 130.731 1.248 130.4C0.981333 130.069 0.789333 129.739 0.672 129.408C0.565333 129.077 0.522667 128.779 0.544 128.512ZM21.2694 132H19.1894V124.048H21.2694V132ZM19.3014 128.176L19.3174 128.72C19.296 128.869 19.2427 129.088 19.1574 129.376C19.072 129.653 18.9387 129.952 18.7574 130.272C18.5867 130.592 18.3627 130.901 18.0854 131.2C17.808 131.488 17.4667 131.728 17.0614 131.92C16.656 132.101 16.176 132.192 15.6214 132.192C15.184 132.192 14.752 132.139 14.3254 132.032C13.9094 131.925 13.5307 131.749 13.1894 131.504C12.848 131.248 12.576 130.907 12.3734 130.48C12.1707 130.053 12.0694 129.515 12.0694 128.864V124.048H14.1494V128.512C14.1494 129.024 14.2294 129.429 14.3894 129.728C14.56 130.016 14.8054 130.219 15.1254 130.336C15.4454 130.453 15.824 130.512 16.2614 130.512C16.8374 130.512 17.3334 130.389 17.7494 130.144C18.1654 129.888 18.5014 129.579 18.7574 129.216C19.024 128.853 19.2054 128.507 19.3014 128.176ZM28.9551 132.192C28.2511 132.192 27.6485 132.069 27.1471 131.824C26.6565 131.568 26.2565 131.237 25.9471 130.832C25.6378 130.416 25.4085 129.963 25.2591 129.472C25.1098 128.981 25.0351 128.501 25.0351 128.032C25.0351 127.445 25.1045 126.901 25.2431 126.4C25.3925 125.899 25.6218 125.461 25.9311 125.088C26.2405 124.704 26.6405 124.405 27.1311 124.192C27.6325 123.979 28.2405 123.872 28.9551 123.872C29.7551 123.872 30.4751 124.048 31.1151 124.4C31.7551 124.752 32.2618 125.243 32.6351 125.872C33.0191 126.491 33.2111 127.211 33.2111 128.032C33.2111 128.875 33.0191 129.611 32.6351 130.24C32.2511 130.859 31.7391 131.339 31.0991 131.68C30.4591 132.021 29.7445 132.192 28.9551 132.192ZM28.2831 130.576C28.8485 130.576 29.3391 130.469 29.7551 130.256C30.1818 130.043 30.5071 129.749 30.7311 129.376C30.9658 128.992 31.0831 128.544 31.0831 128.032C31.0831 127.264 30.8378 126.645 30.3471 126.176C29.8671 125.707 29.1791 125.472 28.2831 125.472C27.7178 125.472 27.2005 125.573 26.7311 125.776C26.2725 125.979 25.9098 126.272 25.6431 126.656C25.3765 127.029 25.2431 127.488 25.2431 128.032C25.2431 128.544 25.3658 128.992 25.6111 129.376C25.8565 129.749 26.2085 130.043 26.6671 130.256C27.1258 130.469 27.6645 130.576 28.2831 130.576ZM23.1631 124.048H25.1471L25.2431 126.16V135.2H23.1631V124.048ZM40.5333 132.192C39.8293 132.192 39.2266 132.069 38.7253 131.824C38.2346 131.568 37.8346 131.237 37.5253 130.832C37.2159 130.416 36.9866 129.963 36.8373 129.472C36.6879 128.981 36.6133 128.501 36.6133 128.032C36.6133 127.445 36.6826 126.901 36.8213 126.4C36.9706 125.899 37.1999 125.461 37.5093 125.088C37.8186 124.704 38.2186 124.405 38.7093 124.192C39.2106 123.979 39.8186 123.872 40.5333 123.872C41.3333 123.872 42.0533 124.048 42.6933 124.4C43.3333 124.752 43.8399 125.243 44.2133 125.872C44.5973 126.491 44.7893 127.211 44.7893 128.032C44.7893 128.875 44.5973 129.611 44.2133 130.24C43.8293 130.859 43.3173 131.339 42.6773 131.68C42.0373 132.021 41.3226 132.192 40.5333 132.192ZM39.8613 130.576C40.4266 130.576 40.9173 130.469 41.3333 130.256C41.7599 130.043 42.0853 129.749 42.3093 129.376C42.5439 128.992 42.6613 128.544 42.6613 128.032C42.6613 127.264 42.4159 126.645 41.9253 126.176C41.4453 125.707 40.7573 125.472 39.8613 125.472C39.2959 125.472 38.7786 125.573 38.3093 125.776C37.8506 125.979 37.4879 126.272 37.2213 126.656C36.9546 127.029 36.8213 127.488 36.8213 128.032C36.8213 128.544 36.9439 128.992 37.1893 129.376C37.4346 129.749 37.7866 130.043 38.2453 130.256C38.7039 130.469 39.2426 130.576 39.8613 130.576ZM34.7413 124.048H36.7253L36.8213 126.16V135.2H34.7413V124.048ZM51.0074 132.192C50.0047 132.192 49.1194 132.032 48.3514 131.712C47.594 131.392 47.002 130.928 46.5754 130.32C46.1487 129.701 45.9354 128.944 45.9354 128.048C45.9354 127.152 46.1487 126.395 46.5754 125.776C47.002 125.147 47.594 124.672 48.3514 124.352C49.1194 124.032 50.0047 123.872 51.0074 123.872C52.01 123.872 52.8847 124.032 53.6314 124.352C54.3887 124.672 54.9807 125.147 55.4074 125.776C55.834 126.395 56.0474 127.152 56.0474 128.048C56.0474 128.944 55.834 129.701 55.4074 130.32C54.9807 130.928 54.3887 131.392 53.6314 131.712C52.8847 132.032 52.01 132.192 51.0074 132.192ZM51.0074 130.592C51.562 130.592 52.058 130.496 52.4954 130.304C52.9434 130.101 53.2954 129.813 53.5514 129.44C53.8074 129.056 53.9354 128.592 53.9354 128.048C53.9354 127.504 53.8074 127.04 53.5514 126.656C53.2954 126.261 52.9487 125.963 52.5114 125.76C52.074 125.557 51.5727 125.456 51.0074 125.456C50.4527 125.456 49.9514 125.557 49.5034 125.76C49.0554 125.963 48.698 126.256 48.4314 126.64C48.1754 127.024 48.0474 127.493 48.0474 128.048C48.0474 128.592 48.1754 129.056 48.4314 129.44C48.6874 129.813 49.0394 130.101 49.4874 130.304C49.9354 130.496 50.442 130.592 51.0074 130.592ZM57.585 124.048H59.665V132H57.585V124.048ZM62.721 125.76C62.1237 125.76 61.6063 125.877 61.169 126.112C60.7317 126.336 60.3797 126.613 60.113 126.944C59.8463 127.275 59.6597 127.595 59.553 127.904L59.537 127.024C59.5477 126.896 59.5903 126.709 59.665 126.464C59.7397 126.208 59.8517 125.936 60.001 125.648C60.1503 125.349 60.3477 125.067 60.593 124.8C60.8383 124.523 61.137 124.299 61.489 124.128C61.841 123.957 62.2517 123.872 62.721 123.872V125.76ZM63.4938 124.048H69.6698V125.664H63.4938V124.048ZM65.5418 121.872H67.6218V132H65.5418V121.872Z" fill="#222222"/>
<defs>
<clipPath id="clip0_88_1018">
<rect width="63" height="63" fill="white"/>
</clipPath>
</defs>
</svg>
