<svg width="130" height="117" viewBox="0 0 130 117" fill="none" xmlns="http://www.w3.org/2000/svg">
<g clip-path="url(#clip0_88_1020)">
<path d="M63 26.4194H60.7167L57.3136 28.21C56.9305 27.9986 56.5321 27.8195 56.1024 27.7118L51.8216 26.6406V26.1539C53.7154 24.8322 54.871 22.6486 54.871 20.3226V18.5463C54.871 14.5989 51.7779 11.2955 47.9764 11.1804C47.7834 11.1754 47.5933 11.1824 47.4023 11.1918L48.5122 8.59344L43.1314 3.2141L39.9595 5.27861C38.7543 4.59987 37.4797 4.07146 36.1559 3.70083L35.3725 0H27.6285L26.8451 3.70183C25.5213 4.07245 24.2457 4.60086 23.0415 5.2796L19.8696 3.2151L14.4932 8.59145L15.5843 11.1918C15.5426 11.1898 15.5029 11.1824 15.4612 11.1814C13.5153 11.1248 11.6825 11.8348 10.2903 13.1864C8.89609 14.5369 8.12903 16.3494 8.12903 18.2903V20.3226C8.12903 22.6486 9.28359 24.8312 11.1774 26.1529V26.6406L8.38505 27.3387L3.32375 24.3871H0V45.4425L9.99657 48.7742H11.9435L12.1866 47.9228L15.2509 49.762C15.301 51.4281 16.6371 52.7688 18.3017 52.8273C18.3603 54.485 19.6925 55.8171 21.3501 55.8757C21.4087 57.5334 22.7409 58.8655 24.3985 58.9241C24.459 60.6204 25.8483 61.9839 27.5585 61.9839C28.1936 61.9839 28.8163 61.7859 29.3397 61.4331L30.2398 62.228C30.8039 62.7246 31.5303 63 32.2844 63H32.4725C34.1634 63 35.5392 61.6331 35.5606 59.9477C37.2331 59.9263 38.5876 58.5718 38.6089 56.8993C40.2825 56.8779 41.638 55.5214 41.6573 53.8479C43.3462 53.8082 44.7097 52.4284 44.7097 50.73C44.7097 50.6278 44.7047 50.5271 44.6943 50.4254L63 41.2733V26.4194ZM52.8387 18.5463V20.3226C52.8387 22.1261 51.8643 23.8111 50.2954 24.7195L49.7873 25.0132L49.7913 28.2288L54.868 29.497L43.6936 35.3785V32.6412C43.6936 31.2752 43.1418 30.0244 42.2383 29.1001L45.7258 28.2288V25.0108L45.2187 24.7175C43.6509 23.8111 42.6774 22.1261 42.6774 20.3226V18.2903C42.6774 16.9046 43.2252 15.6086 44.221 14.6436C45.2158 13.679 46.5355 13.1591 47.9154 13.2127C50.6298 13.294 52.8387 15.687 52.8387 18.5463ZM33.0321 34.5796L28.4323 33.1095C26.336 32.4377 24.0671 32.3375 21.9212 32.8128L21.3387 32.9418V32.6412C21.3387 31.24 22.2889 30.0234 23.6473 29.6831L29.4677 28.2288V25.0108L28.9607 24.7175C27.3928 23.8111 26.4194 22.1261 26.4194 20.3226V18.2903C26.4194 16.9046 26.9671 15.6086 27.9629 14.6436C28.9577 13.679 30.2859 13.1591 31.6573 13.2127C34.3718 13.294 36.5807 15.687 36.5807 18.5463V20.3226C36.5807 22.1261 35.6062 23.8111 34.0373 24.7195L33.5293 25.0132L33.5333 28.2288L39.3527 29.6831C40.7112 30.0234 41.6613 31.24 41.6613 32.6412V36.4487L41.4102 36.5807H40.7876L34.5405 34.7955C34.0483 34.6561 33.5412 34.599 33.0321 34.5796ZM21.5664 15.2082C23.4747 11.5108 27.3154 9.14516 31.5 9.14516C35.6449 9.14516 39.4693 11.4791 41.3919 15.1263C40.9081 16.0963 40.6452 17.1705 40.6452 18.2903V20.3226C40.6452 22.6486 41.7997 24.8312 43.6936 26.1529V26.6406L39.629 27.6583L35.5635 26.6406V26.1539C37.4574 24.8322 38.6129 22.6486 38.6129 20.3226V18.5463C38.6129 14.5989 35.5199 11.2955 31.7183 11.1804C29.7734 11.1233 27.9396 11.8338 26.5474 13.1854C25.1542 14.5369 24.3871 16.3494 24.3871 18.2903V20.3226C24.3871 22.6486 25.5417 24.8312 27.4355 26.1529V26.6406L23.371 27.6583L19.3055 26.6406V26.1539C21.1993 24.8322 22.3548 22.6486 22.3548 20.3226V18.5463C22.3548 17.3506 22.0671 16.2154 21.5664 15.2082ZM16.8931 9.0628L20.1395 5.81645L22.9969 7.67604L23.5436 7.34064C24.9135 6.50114 26.3941 5.8864 27.9436 5.51578L28.5687 5.36594L29.2757 2.03226H33.7253L34.4303 5.36494L35.0555 5.51429C36.605 5.88541 38.0855 6.50015 39.4554 7.33965L40.0021 7.67505L42.8595 5.81545L46.1019 9.05883L44.9493 11.7574C44.1649 12.0948 43.4375 12.5696 42.8044 13.1834C42.7628 13.2241 42.727 13.2677 42.6864 13.3094C40.2924 9.50388 36.0602 7.1129 31.5 7.1129C26.9071 7.1129 22.663 9.52621 20.275 13.3704C19.6359 12.7016 18.8758 12.1598 18.0333 11.7812L16.8931 9.0628ZM13.2097 28.2288V25.0108L12.7026 24.7175C11.1348 23.8111 10.1613 22.1261 10.1613 20.3226V18.2903C10.1613 16.9046 10.709 15.6086 11.7048 14.6436C12.6996 13.679 14.0224 13.1591 15.3992 13.2127C18.1137 13.294 20.3226 15.687 20.3226 18.5463V20.3226C20.3226 22.1261 19.3481 23.8111 17.7793 24.7195L17.2712 25.0132L17.2752 28.2288L20.7617 29.1001C19.8582 30.0244 19.3065 31.2752 19.3065 32.6412V33.3938L16.137 34.0984L16.2194 33.8106L16.2581 31.9327L10.8991 28.8064L13.2097 28.2288ZM2.03226 26.4194H2.77302L10.0809 30.6818L6.39348 45.4311L2.03226 43.9769V26.4194ZM10.326 46.7419L8.32601 46.0756L11.9083 31.7481L14.2258 33.0996V33.3899L10.4114 46.7419H10.326ZM17.2742 49.6673C17.2742 49.3676 17.3953 49.0739 17.6076 48.8615L19.3938 47.0754C19.6061 46.863 19.8999 46.7419 20.1995 46.7419C20.8277 46.7419 21.3387 47.253 21.3387 47.8811C21.3387 48.1808 21.2176 48.4745 21.0053 48.6869L19.2191 50.473C19.0068 50.6854 18.7131 50.8065 18.4134 50.8065C17.7852 50.8065 17.2742 50.2954 17.2742 49.6673ZM20.3226 52.7157C20.3226 52.416 20.4436 52.1223 20.656 51.9099L22.4422 50.1237C22.6545 49.9114 22.9482 49.7903 23.2479 49.7903C23.8761 49.7903 24.3871 50.3014 24.3871 50.9295C24.3871 51.2292 24.266 51.5229 24.0537 51.7353L22.2675 53.5214C22.0552 53.7338 21.7614 53.8548 21.4618 53.8548C20.8336 53.8548 20.3226 53.3438 20.3226 52.7157ZM23.371 55.7641C23.371 55.4644 23.492 55.1707 23.7044 54.9583L25.4906 53.1721C25.7029 52.9598 25.9966 52.8387 26.2963 52.8387C26.9244 52.8387 27.4355 53.3498 27.4355 53.9779C27.4355 54.2776 27.3144 54.5713 27.1021 54.7836L25.3159 56.5698C25.1035 56.7822 24.8098 56.9032 24.5101 56.9032C23.882 56.9032 23.371 56.3922 23.371 55.7641ZM27.5585 59.9516C26.9304 59.9516 26.4194 59.4406 26.4194 58.8124C26.4194 58.5128 26.5404 58.219 26.7528 58.0067L28.5389 56.2205C28.7513 56.0082 29.045 55.8871 29.3447 55.8871C29.9728 55.8871 30.4839 56.3981 30.4839 57.0263C30.4839 57.326 30.3628 57.6197 30.1505 57.832L28.3643 59.6182C28.1519 59.8306 27.8582 59.9516 27.5585 59.9516ZM32.4725 60.9677H32.2844C32.0254 60.9677 31.7774 60.8735 31.5844 60.7023L30.8242 60.032L31.5873 59.2689C31.8597 58.9965 32.0711 58.6725 32.2274 58.3247L33.1512 59.0938C33.3928 59.2952 33.5323 59.5919 33.5323 59.908C33.5323 60.4924 33.0569 60.9677 32.4725 60.9677ZM41.5849 51.8226H41.4092C41.1542 51.8226 40.9052 51.7323 40.7102 51.5686L35.1998 46.9766L33.8979 48.5385L39.249 52.997C39.4896 53.1984 39.629 53.4951 39.629 53.8112C39.629 54.3957 39.1537 54.871 38.5692 54.871H38.3475C38.1009 54.871 37.8597 54.7836 37.6697 54.6249L32.1505 50.026L30.8485 51.5879L36.1996 56.0469C36.4412 56.2468 36.5807 56.5435 36.5807 56.8596C36.5807 57.444 36.1053 57.9194 35.5209 57.9194C35.1309 57.9194 34.7508 57.7809 34.4516 57.5324L32.1837 55.642C31.6841 54.6209 30.6575 53.9089 29.4553 53.8663C29.3968 52.2086 28.0646 50.8764 26.407 50.8179C26.3484 49.1602 25.0162 47.828 23.3586 47.7695C23.299 46.0731 21.9098 44.7097 20.1995 44.7097C19.3645 44.7097 18.5473 45.0481 17.9569 45.6385L16.1707 47.4247C16.0641 47.5313 15.9758 47.6524 15.8859 47.7725L12.7646 45.8995L15.5009 36.3226L22.3608 34.7975C24.1604 34.3951 26.0577 34.4824 27.8126 35.0441L29.3095 35.5228L24.2348 38.0602C23.0753 38.6412 22.3548 39.8077 22.3548 41.1046V41.3055C22.3548 43.1825 23.882 44.7097 25.759 44.7097C26.3757 44.7097 26.9825 44.542 27.5099 44.2239L31.2936 41.955C32.0537 41.4995 33.0738 41.5993 33.7302 42.1897L42.3157 49.9164C42.5454 50.1247 42.6774 50.4204 42.6774 50.73C42.6774 51.3329 42.1877 51.8226 41.5849 51.8226ZM60.9677 40.017L43.8489 48.5772C43.7933 48.5182 43.7352 48.4621 43.6742 48.4075L35.0902 40.6809C34.338 40.0021 33.3656 39.629 32.3524 39.629C31.6116 39.629 30.8843 39.8305 30.2472 40.2125L26.462 42.4824C26.2497 42.6104 26.0071 42.6774 25.759 42.6774C25.0018 42.6774 24.3871 42.0627 24.3871 41.3055V41.1046C24.3871 40.5812 24.6778 40.1118 25.1452 39.8781L30.8133 37.0441C31.7833 36.5583 32.9349 36.4497 33.9803 36.7503L40.3658 38.5742L41.9123 38.6129L60.9677 28.5836V40.017Z" fill="#FD3B3B"/>
</g>
<path d="M13.312 90.272C13.216 91.104 12.9227 91.8133 12.432 92.4C11.9413 92.9867 11.2747 93.4347 10.432 93.744C9.58933 94.0533 8.58667 94.208 7.424 94.208C6.45333 94.208 5.56267 94.096 4.752 93.872C3.952 93.648 3.25867 93.312 2.672 92.864C2.096 92.416 1.648 91.8613 1.328 91.2C1.008 90.528 0.848 89.744 0.848 88.848C0.848 87.952 1.008 87.168 1.328 86.496C1.648 85.824 2.096 85.264 2.672 84.816C3.25867 84.3573 3.952 84.016 4.752 83.792C5.56267 83.5573 6.45333 83.44 7.424 83.44C8.58667 83.44 9.58933 83.6 10.432 83.92C11.2853 84.24 11.9573 84.6987 12.448 85.296C12.9387 85.8827 13.2267 86.5973 13.312 87.44H11.2C11.0613 86.992 10.8267 86.608 10.496 86.288C10.176 85.9573 9.76 85.7067 9.248 85.536C8.736 85.3653 8.128 85.28 7.424 85.28C6.54933 85.28 5.78133 85.4187 5.12 85.696C4.45867 85.9627 3.94667 86.3627 3.584 86.896C3.22133 87.4187 3.04 88.0693 3.04 88.848C3.04 89.616 3.22133 90.2613 3.584 90.784C3.94667 91.3067 4.45867 91.7067 5.12 91.984C5.78133 92.2507 6.54933 92.384 7.424 92.384C8.128 92.384 8.73067 92.2987 9.232 92.128C9.744 91.9573 10.16 91.712 10.48 91.392C10.8107 91.072 11.0507 90.6987 11.2 90.272H13.312ZM19.8043 94.192C18.8016 94.192 17.9163 94.032 17.1483 93.712C16.3909 93.392 15.7989 92.928 15.3723 92.32C14.9456 91.7013 14.7323 90.944 14.7323 90.048C14.7323 89.152 14.9456 88.3947 15.3723 87.776C15.7989 87.1467 16.3909 86.672 17.1483 86.352C17.9163 86.032 18.8016 85.872 19.8043 85.872C20.8069 85.872 21.6816 86.032 22.4283 86.352C23.1856 86.672 23.7776 87.1467 24.2043 87.776C24.6309 88.3947 24.8443 89.152 24.8443 90.048C24.8443 90.944 24.6309 91.7013 24.2043 92.32C23.7776 92.928 23.1856 93.392 22.4283 93.712C21.6816 94.032 20.8069 94.192 19.8043 94.192ZM19.8043 92.592C20.3589 92.592 20.8549 92.496 21.2923 92.304C21.7403 92.1013 22.0923 91.8133 22.3483 91.44C22.6043 91.056 22.7323 90.592 22.7323 90.048C22.7323 89.504 22.6043 89.04 22.3483 88.656C22.0923 88.2613 21.7456 87.9627 21.3083 87.76C20.8709 87.5573 20.3696 87.456 19.8043 87.456C19.2496 87.456 18.7483 87.5573 18.3003 87.76C17.8523 87.9627 17.4949 88.256 17.2283 88.64C16.9723 89.024 16.8443 89.4933 16.8443 90.048C16.8443 90.592 16.9723 91.056 17.2283 91.44C17.4843 91.8133 17.8363 92.1013 18.2843 92.304C18.7323 92.496 19.2389 92.592 19.8043 92.592ZM26.3819 86.048H28.4619V94H26.3819V86.048ZM32.1579 85.872C32.6485 85.872 33.1019 85.936 33.5179 86.064C33.9339 86.192 34.2965 86.3893 34.6059 86.656C34.9152 86.9227 35.1552 87.264 35.3259 87.68C35.4965 88.0853 35.5819 88.5707 35.5819 89.136V94H33.5019V89.504C33.5019 88.832 33.3365 88.3413 33.0059 88.032C32.6859 87.712 32.1579 87.552 31.4219 87.552C30.8672 87.552 30.3659 87.6587 29.9179 87.872C29.4699 88.0853 29.1072 88.3573 28.8299 88.688C28.5525 89.008 28.3925 89.344 28.3499 89.696L28.3339 88.88C28.3872 88.5067 28.5099 88.144 28.7019 87.792C28.8939 87.44 29.1499 87.12 29.4699 86.832C29.8005 86.5333 30.1899 86.2987 30.6379 86.128C31.0859 85.9573 31.5925 85.872 32.1579 85.872ZM39.0859 85.872C39.5765 85.872 40.0299 85.936 40.4459 86.064C40.8619 86.192 41.2245 86.3893 41.5339 86.656C41.8432 86.9227 42.0832 87.264 42.2539 87.68C42.4352 88.0853 42.5259 88.5707 42.5259 89.136V94H40.4459V89.504C40.4459 88.832 40.2805 88.3413 39.9499 88.032C39.6192 87.712 39.0859 87.552 38.3499 87.552C37.7952 87.552 37.2939 87.6587 36.8459 87.872C36.3979 88.0853 36.0352 88.3573 35.7579 88.688C35.4805 89.008 35.3259 89.344 35.2939 89.696L35.2619 88.832C35.3152 88.48 35.4432 88.128 35.6459 87.776C35.8485 87.424 36.1152 87.104 36.4459 86.816C36.7765 86.528 37.1605 86.2987 37.5979 86.128C38.0459 85.9573 38.5419 85.872 39.0859 85.872ZM44.4131 86.048H46.4931V94H44.4131V86.048ZM50.1891 85.872C50.6798 85.872 51.1331 85.936 51.5491 86.064C51.9651 86.192 52.3278 86.3893 52.6371 86.656C52.9465 86.9227 53.1865 87.264 53.3571 87.68C53.5278 88.0853 53.6131 88.5707 53.6131 89.136V94H51.5331V89.504C51.5331 88.832 51.3678 88.3413 51.0371 88.032C50.7171 87.712 50.1891 87.552 49.4531 87.552C48.8985 87.552 48.3971 87.6587 47.9491 87.872C47.5011 88.0853 47.1385 88.3573 46.8611 88.688C46.5838 89.008 46.4238 89.344 46.3811 89.696L46.3651 88.88C46.4185 88.5067 46.5411 88.144 46.7331 87.792C46.9251 87.44 47.1811 87.12 47.5011 86.832C47.8318 86.5333 48.2211 86.2987 48.6691 86.128C49.1171 85.9573 49.6238 85.872 50.1891 85.872ZM57.1171 85.872C57.6078 85.872 58.0611 85.936 58.4771 86.064C58.8931 86.192 59.2558 86.3893 59.5651 86.656C59.8745 86.9227 60.1145 87.264 60.2851 87.68C60.4665 88.0853 60.5571 88.5707 60.5571 89.136V94H58.4771V89.504C58.4771 88.832 58.3118 88.3413 57.9811 88.032C57.6505 87.712 57.1171 87.552 56.3811 87.552C55.8265 87.552 55.3251 87.6587 54.8771 87.872C54.4291 88.0853 54.0665 88.3573 53.7891 88.688C53.5118 89.008 53.3571 89.344 53.3251 89.696L53.2931 88.832C53.3465 88.48 53.4745 88.128 53.6771 87.776C53.8798 87.424 54.1465 87.104 54.4771 86.816C54.8078 86.528 55.1918 86.2987 55.6291 86.128C56.0771 85.9573 56.5731 85.872 57.1171 85.872ZM71.6444 94H69.5644V86.048H71.6444V94ZM69.6764 90.176L69.6924 90.72C69.671 90.8693 69.6177 91.088 69.5324 91.376C69.447 91.6533 69.3137 91.952 69.1324 92.272C68.9617 92.592 68.7377 92.9013 68.4604 93.2C68.183 93.488 67.8417 93.728 67.4364 93.92C67.031 94.1013 66.551 94.192 65.9964 94.192C65.559 94.192 65.127 94.1387 64.7004 94.032C64.2844 93.9253 63.9057 93.7493 63.5644 93.504C63.223 93.248 62.951 92.9067 62.7484 92.48C62.5457 92.0533 62.4444 91.5147 62.4444 90.864V86.048H64.5244V90.512C64.5244 91.024 64.6044 91.4293 64.7644 91.728C64.935 92.016 65.1804 92.2187 65.5004 92.336C65.8204 92.4533 66.199 92.512 66.6364 92.512C67.2124 92.512 67.7084 92.3893 68.1244 92.144C68.5404 91.888 68.8764 91.5787 69.1324 91.216C69.399 90.8533 69.5804 90.5067 69.6764 90.176ZM73.5381 86.048H75.6181V94H73.5381V86.048ZM79.3141 85.872C79.8048 85.872 80.2581 85.936 80.6741 86.064C81.0901 86.192 81.4528 86.3893 81.7621 86.656C82.0715 86.9227 82.3115 87.264 82.4821 87.68C82.6528 88.0853 82.7381 88.5707 82.7381 89.136V94H80.6581V89.504C80.6581 88.832 80.4928 88.3413 80.1621 88.032C79.8421 87.712 79.3141 87.552 78.5781 87.552C78.0235 87.552 77.5221 87.6587 77.0741 87.872C76.6261 88.0853 76.2635 88.3573 75.9861 88.688C75.7088 89.008 75.5488 89.344 75.5061 89.696L75.4901 88.88C75.5435 88.5067 75.6661 88.144 75.8581 87.792C76.0501 87.44 76.3061 87.12 76.6261 86.832C76.9568 86.5333 77.3461 86.2987 77.7941 86.128C78.2421 85.9573 78.7488 85.872 79.3141 85.872ZM87.0159 82.56V84.384H84.5999V82.56H87.0159ZM84.7599 86.048H86.8399V94H84.7599V86.048ZM88.3531 86.048H94.5291V87.664H88.3531V86.048ZM90.4011 83.872H92.4811V94H90.4011V83.872ZM95.1306 86.048H97.3386L100.779 93.68L98.9866 94L95.1306 86.048ZM104.859 86.048L99.3546 97.2H97.1946L99.5466 92.816L102.635 86.048H104.859ZM3.36 108.68V111.224H11.344V113H1.232V102.648H11.328V104.424H3.36V107H9.888V108.68H3.36ZM13.2569 105.048H15.3369V113H13.2569V105.048ZM19.0329 104.872C19.5235 104.872 19.9769 104.936 20.3929 105.064C20.8089 105.192 21.1715 105.389 21.4809 105.656C21.7902 105.923 22.0302 106.264 22.2009 106.68C22.3715 107.085 22.4569 107.571 22.4569 108.136V113H20.3769V108.504C20.3769 107.832 20.2115 107.341 19.8809 107.032C19.5609 106.712 19.0329 106.552 18.2969 106.552C17.7422 106.552 17.2409 106.659 16.7929 106.872C16.3449 107.085 15.9822 107.357 15.7049 107.688C15.4275 108.008 15.2675 108.344 15.2249 108.696L15.2089 107.88C15.2622 107.507 15.3849 107.144 15.5769 106.792C15.7689 106.44 16.0249 106.12 16.3449 105.832C16.6755 105.533 17.0649 105.299 17.5129 105.128C17.9609 104.957 18.4675 104.872 19.0329 104.872ZM28.3186 111.784C27.4546 111.784 26.692 111.656 26.0306 111.4C25.38 111.133 24.8733 110.744 24.5106 110.232C24.148 109.72 23.9666 109.101 23.9666 108.376C23.9666 107.661 24.1426 107.043 24.4946 106.52C24.8466 105.997 25.348 105.592 25.9986 105.304C26.66 105.016 27.4333 104.872 28.3186 104.872C28.564 104.872 28.7986 104.888 29.0226 104.92C29.2573 104.952 29.4866 104.995 29.7106 105.048L33.7266 105.064V106.632C33.1826 106.643 32.628 106.579 32.0626 106.44C31.508 106.291 31.0173 106.131 30.5906 105.96L30.5426 105.848C30.9053 106.019 31.2466 106.232 31.5666 106.488C31.8866 106.733 32.1426 107.021 32.3346 107.352C32.5373 107.672 32.6386 108.045 32.6386 108.472C32.6386 109.165 32.4626 109.763 32.1106 110.264C31.7586 110.755 31.2573 111.133 30.6066 111.4C29.9666 111.656 29.204 111.784 28.3186 111.784ZM30.9906 116.28V115.896C30.9906 115.405 30.8306 115.064 30.5106 114.872C30.2013 114.68 29.7746 114.584 29.2306 114.584H26.7506C26.2706 114.584 25.8653 114.547 25.5346 114.472C25.2146 114.397 24.9586 114.291 24.7666 114.152C24.5746 114.013 24.436 113.848 24.3506 113.656C24.2653 113.475 24.2226 113.277 24.2226 113.064C24.2226 112.637 24.3613 112.317 24.6386 112.104C24.916 111.88 25.2893 111.731 25.7586 111.656C26.228 111.581 26.7453 111.565 27.3106 111.608L28.3186 111.784C27.6466 111.805 27.1453 111.864 26.8146 111.96C26.4946 112.045 26.3346 112.221 26.3346 112.488C26.3346 112.648 26.3986 112.776 26.5266 112.872C26.6546 112.957 26.836 113 27.0706 113H29.6786C30.3933 113 31.0013 113.075 31.5026 113.224C32.0146 113.384 32.404 113.645 32.6706 114.008C32.9373 114.381 33.0706 114.888 33.0706 115.528V116.28H30.9906ZM28.3186 110.28C28.7773 110.28 29.1773 110.205 29.5186 110.056C29.8706 109.907 30.1426 109.693 30.3346 109.416C30.5266 109.128 30.6226 108.787 30.6226 108.392C30.6226 107.987 30.5266 107.64 30.3346 107.352C30.1426 107.064 29.876 106.845 29.5346 106.696C29.1933 106.536 28.788 106.456 28.3186 106.456C27.86 106.456 27.4546 106.536 27.1026 106.696C26.7506 106.845 26.4786 107.064 26.2866 107.352C26.0946 107.64 25.9986 107.987 25.9986 108.392C25.9986 108.787 26.0946 109.128 26.2866 109.416C26.4786 109.693 26.7453 109.907 27.0866 110.056C27.4386 110.205 27.8493 110.28 28.3186 110.28ZM38.8164 113.176C38.027 113.176 37.307 113.005 36.6564 112.664C36.0164 112.312 35.5044 111.827 35.1204 111.208C34.747 110.579 34.5604 109.853 34.5604 109.032C34.5604 108.189 34.7524 107.459 35.1364 106.84C35.5204 106.221 36.0377 105.741 36.6884 105.4C37.3497 105.048 38.0964 104.872 38.9284 104.872C39.8457 104.872 40.5817 105.059 41.1364 105.432C41.7017 105.795 42.1124 106.291 42.3684 106.92C42.6244 107.549 42.7524 108.253 42.7524 109.032C42.7524 109.501 42.6777 109.981 42.5284 110.472C42.379 110.952 42.1497 111.4 41.8404 111.816C41.531 112.221 41.1257 112.552 40.6244 112.808C40.123 113.053 39.5204 113.176 38.8164 113.176ZM39.4884 111.576C40.1177 111.576 40.6617 111.469 41.1204 111.256C41.579 111.043 41.931 110.744 42.1764 110.36C42.4217 109.976 42.5444 109.533 42.5444 109.032C42.5444 108.488 42.4164 108.029 42.1604 107.656C41.915 107.272 41.563 106.984 41.1044 106.792C40.6564 106.589 40.1177 106.488 39.4884 106.488C38.603 106.488 37.915 106.723 37.4244 107.192C36.9337 107.651 36.6884 108.264 36.6884 109.032C36.6884 109.544 36.8057 109.992 37.0404 110.376C37.275 110.749 37.6004 111.043 38.0164 111.256C38.443 111.469 38.9337 111.576 39.4884 111.576ZM42.5444 105.048H44.6244V113H42.6884C42.6884 113 42.6724 112.899 42.6404 112.696C42.619 112.483 42.5977 112.216 42.5764 111.896C42.555 111.576 42.5444 111.261 42.5444 110.952V105.048ZM50.4749 111.784C49.6109 111.784 48.8482 111.656 48.1869 111.4C47.5362 111.133 47.0295 110.744 46.6669 110.232C46.3042 109.72 46.1229 109.101 46.1229 108.376C46.1229 107.661 46.2989 107.043 46.6509 106.52C47.0029 105.997 47.5042 105.592 48.1549 105.304C48.8162 105.016 49.5895 104.872 50.4749 104.872C50.7202 104.872 50.9549 104.888 51.1789 104.92C51.4135 104.952 51.6429 104.995 51.8669 105.048L55.8829 105.064V106.632C55.3389 106.643 54.7842 106.579 54.2189 106.44C53.6642 106.291 53.1735 106.131 52.7469 105.96L52.6989 105.848C53.0615 106.019 53.4029 106.232 53.7229 106.488C54.0429 106.733 54.2989 107.021 54.4909 107.352C54.6935 107.672 54.7949 108.045 54.7949 108.472C54.7949 109.165 54.6189 109.763 54.2669 110.264C53.9149 110.755 53.4135 111.133 52.7629 111.4C52.1229 111.656 51.3602 111.784 50.4749 111.784ZM53.1469 116.28V115.896C53.1469 115.405 52.9869 115.064 52.6669 114.872C52.3575 114.68 51.9309 114.584 51.3869 114.584H48.9069C48.4269 114.584 48.0215 114.547 47.6909 114.472C47.3709 114.397 47.1149 114.291 46.9229 114.152C46.7309 114.013 46.5922 113.848 46.5069 113.656C46.4215 113.475 46.3789 113.277 46.3789 113.064C46.3789 112.637 46.5175 112.317 46.7949 112.104C47.0722 111.88 47.4455 111.731 47.9149 111.656C48.3842 111.581 48.9015 111.565 49.4669 111.608L50.4749 111.784C49.8029 111.805 49.3015 111.864 48.9709 111.96C48.6509 112.045 48.4909 112.221 48.4909 112.488C48.4909 112.648 48.5549 112.776 48.6829 112.872C48.8109 112.957 48.9922 113 49.2269 113H51.8349C52.5495 113 53.1575 113.075 53.6589 113.224C54.1709 113.384 54.5602 113.645 54.8269 114.008C55.0935 114.381 55.2269 114.888 55.2269 115.528V116.28H53.1469ZM50.4749 110.28C50.9335 110.28 51.3335 110.205 51.6749 110.056C52.0269 109.907 52.2989 109.693 52.4909 109.416C52.6829 109.128 52.7789 108.787 52.7789 108.392C52.7789 107.987 52.6829 107.64 52.4909 107.352C52.2989 107.064 52.0322 106.845 51.6909 106.696C51.3495 106.536 50.9442 106.456 50.4749 106.456C50.0162 106.456 49.6109 106.536 49.2589 106.696C48.9069 106.845 48.6349 107.064 48.4429 107.352C48.2509 107.64 48.1549 107.987 48.1549 108.392C48.1549 108.787 48.2509 109.128 48.4429 109.416C48.6349 109.693 48.9015 109.907 49.2429 110.056C49.5949 110.205 50.0055 110.28 50.4749 110.28ZM64.3486 110.36H66.3646C66.2793 110.904 66.05 111.389 65.6766 111.816C65.314 112.243 64.818 112.579 64.1886 112.824C63.5593 113.069 62.7913 113.192 61.8846 113.192C60.8713 113.192 59.9753 113.032 59.1966 112.712C58.418 112.381 57.81 111.907 57.3726 111.288C56.9353 110.669 56.7166 109.923 56.7166 109.048C56.7166 108.173 56.93 107.427 57.3566 106.808C57.7833 106.179 58.3753 105.699 59.1326 105.368C59.9006 105.037 60.7966 104.872 61.8206 104.872C62.866 104.872 63.7353 105.037 64.4286 105.368C65.122 105.699 65.634 106.2 65.9646 106.872C66.306 107.533 66.45 108.381 66.3966 109.416H58.8126C58.866 109.821 59.0153 110.189 59.2606 110.52C59.5166 110.851 59.858 111.112 60.2846 111.304C60.722 111.496 61.2393 111.592 61.8366 111.592C62.498 111.592 63.0473 111.48 63.4846 111.256C63.9326 111.021 64.2206 110.723 64.3486 110.36ZM61.7246 106.456C60.9566 106.456 60.3326 106.627 59.8526 106.968C59.3726 107.299 59.0633 107.709 58.9246 108.2H64.3326C64.2793 107.667 64.0233 107.245 63.5646 106.936C63.1166 106.616 62.5033 106.456 61.7246 106.456ZM67.9444 105.048H70.0244V113H67.9444V105.048ZM73.7204 104.872C74.211 104.872 74.6644 104.936 75.0804 105.064C75.4964 105.192 75.859 105.389 76.1684 105.656C76.4777 105.923 76.7177 106.264 76.8884 106.68C77.059 107.085 77.1444 107.571 77.1444 108.136V113H75.0644V108.504C75.0644 107.832 74.899 107.341 74.5684 107.032C74.2484 106.712 73.7204 106.552 72.9844 106.552C72.4297 106.552 71.9284 106.659 71.4804 106.872C71.0324 107.085 70.6697 107.357 70.3924 107.688C70.115 108.008 69.955 108.344 69.9124 108.696L69.8964 107.88C69.9497 107.507 70.0724 107.144 70.2644 106.792C70.4564 106.44 70.7124 106.12 71.0324 105.832C71.363 105.533 71.7524 105.299 72.2004 105.128C72.6484 104.957 73.155 104.872 73.7204 104.872ZM80.6484 104.872C81.139 104.872 81.5924 104.936 82.0084 105.064C82.4244 105.192 82.787 105.389 83.0964 105.656C83.4057 105.923 83.6457 106.264 83.8164 106.68C83.9977 107.085 84.0884 107.571 84.0884 108.136V113H82.0084V108.504C82.0084 107.832 81.843 107.341 81.5124 107.032C81.1817 106.712 80.6484 106.552 79.9124 106.552C79.3577 106.552 78.8564 106.659 78.4084 106.872C77.9604 107.085 77.5977 107.357 77.3204 107.688C77.043 108.008 76.8884 108.344 76.8564 108.696L76.8244 107.832C76.8777 107.48 77.0057 107.128 77.2084 106.776C77.411 106.424 77.6777 106.104 78.0084 105.816C78.339 105.528 78.723 105.299 79.1604 105.128C79.6084 104.957 80.1044 104.872 80.6484 104.872ZM93.2236 110.36H95.2396C95.1543 110.904 94.925 111.389 94.5516 111.816C94.189 112.243 93.693 112.579 93.0636 112.824C92.4343 113.069 91.6663 113.192 90.7596 113.192C89.7463 113.192 88.8503 113.032 88.0716 112.712C87.293 112.381 86.685 111.907 86.2476 111.288C85.8103 110.669 85.5916 109.923 85.5916 109.048C85.5916 108.173 85.805 107.427 86.2316 106.808C86.6583 106.179 87.2503 105.699 88.0076 105.368C88.7756 105.037 89.6716 104.872 90.6956 104.872C91.741 104.872 92.6103 105.037 93.3036 105.368C93.997 105.699 94.509 106.2 94.8396 106.872C95.181 107.533 95.325 108.381 95.2716 109.416H87.6876C87.741 109.821 87.8903 110.189 88.1356 110.52C88.3916 110.851 88.733 111.112 89.1596 111.304C89.597 111.496 90.1143 111.592 90.7116 111.592C91.373 111.592 91.9223 111.48 92.3596 111.256C92.8076 111.021 93.0956 110.723 93.2236 110.36ZM90.5996 106.456C89.8316 106.456 89.2076 106.627 88.7276 106.968C88.2476 107.299 87.9383 107.709 87.7996 108.2H93.2076C93.1543 107.667 92.8983 107.245 92.4396 106.936C91.9916 106.616 91.3783 106.456 90.5996 106.456ZM96.8194 105.048H98.8994V113H96.8194V105.048ZM102.595 104.872C103.086 104.872 103.539 104.936 103.955 105.064C104.371 105.192 104.734 105.389 105.043 105.656C105.353 105.923 105.593 106.264 105.763 106.68C105.934 107.085 106.019 107.571 106.019 108.136V113H103.939V108.504C103.939 107.832 103.774 107.341 103.443 107.032C103.123 106.712 102.595 106.552 101.859 106.552C101.305 106.552 100.803 106.659 100.355 106.872C99.9074 107.085 99.5447 107.357 99.2674 107.688C98.99 108.008 98.83 108.344 98.7874 108.696L98.7714 107.88C98.8247 107.507 98.9474 107.144 99.1394 106.792C99.3314 106.44 99.5874 106.12 99.9074 105.832C100.238 105.533 100.627 105.299 101.075 105.128C101.523 104.957 102.03 104.872 102.595 104.872ZM107.353 105.048H113.529V106.664H107.353V105.048ZM109.401 102.872H111.481V113H109.401V102.872Z" fill="#222222"/>
<defs>
<clipPath id="clip0_88_1020">
<rect width="63" height="63" fill="white"/>
</clipPath>
</defs>
</svg>
