<?xml version="1.0" standalone="no"?>
<!DOCTYPE svg PUBLIC "-//W3C//DTD SVG 20010904//EN"
 "http://www.w3.org/TR/2001/REC-SVG-20010904/DTD/svg10.dtd">
<svg version="1.0" xmlns="http://www.w3.org/2000/svg"
 width="243.000000pt" height="236.000000pt" viewBox="0 0 243.000000 236.000000"
 preserveAspectRatio="xMidYMid meet">
<metadata>
Created by potrace 1.16, written by Peter Selinger 2001-2019
</metadata>
<g transform="translate(0.000000,236.000000) scale(0.100000,-0.100000)"
fill="#000000" stroke="none">
<path d="M668 1486 c-8 -7 -38 -16 -69 -20 -49 -6 -64 -15 -142 -78 -48 -39
-87 -74 -87 -79 0 -5 10 -9 21 -9 12 0 37 -10 56 -21 31 -19 45 -21 121 -16
121 8 122 8 123 76 0 31 4 80 8 109 8 55 -2 67 -31 38z"/>
<path d="M1367 1180 c-264 -4 -306 -7 -329 -22 -15 -10 -29 -27 -33 -38 -4
-13 -15 -20 -31 -20 -18 0 -24 -5 -24 -21 0 -14 -5 -19 -14 -16 -8 3 -17 -1
-20 -9 -6 -16 -36 -19 -36 -4 0 6 -7 10 -16 10 -14 0 -15 -7 -10 -40 3 -22 4
-40 1 -40 -2 0 -16 23 -30 50 -21 42 -30 50 -54 50 -28 0 -53 -20 -64 -53 -6
-16 -8 -16 -26 2 -10 10 -24 20 -31 23 -6 2 -15 19 -20 38 l-8 35 -1 -40 -1
-41 -57 -13 c-85 -19 -161 -25 -176 -12 -7 5 -32 13 -54 17 -23 3 -44 13 -47
20 -7 17 -48 18 -64 2 -7 -7 -12 -22 -12 -35 0 -12 -8 -26 -17 -32 -15 -8 -11
-15 30 -57 43 -43 47 -51 48 -98 0 -28 6 -67 13 -86 l13 -34 214 -23 c118 -12
240 -27 271 -33 116 -22 389 -30 816 -23 238 3 435 10 438 15 3 4 -2 8 -10 8
-17 0 -21 12 -8 24 4 4 16 33 27 63 16 44 28 61 55 75 35 19 150 131 182 178
10 14 18 32 18 40 0 9 -5 7 -16 -8 -15 -22 -19 -22 -236 -22 -122 0 -219 2
-217 4 2 3 74 6 159 7 136 3 253 13 210 18 -11 2 -9 5 5 11 11 5 14 9 8 9 -7
1 -13 7 -13 15 0 11 7 13 29 6 16 -4 32 -5 36 -2 4 4 4 -7 0 -23 -6 -29 -6
-29 9 -11 21 26 20 69 -3 97 -16 21 -30 23 -152 30 -198 12 -413 15 -752 9z
m-852 -374 c19 -13 91 -27 213 -42 35 -4 52 -10 52 -20 0 -11 -31 -14 -171
-14 l-171 0 6 31 c3 17 6 38 6 45 0 18 40 18 65 0z m1281 -43 c4 -16 13 -40
21 -55 l14 -28 -53 0 c-74 1 -457 35 -463 42 -3 3 0 17 6 32 15 31 15 31 217
10 139 -15 154 -15 165 -1 7 9 26 18 42 20 17 2 33 5 37 6 4 0 11 -11 14 -26z"/>
</g>
</svg>
