<svg width="164" height="178" viewBox="0 0 164 178" fill="none" xmlns="http://www.w3.org/2000/svg">
<g filter="url(#filter0_d_7_2098)">
<rect x="8" y="6" width="142" height="158" rx="20" fill="url(#paint0_linear_7_2098)" shape-rendering="crispEdges"/>
<rect x="8.5" y="6.5" width="141" height="157" rx="19.5" stroke="url(#paint1_linear_7_2098)" shape-rendering="crispEdges"/>
<mask id="path-3-outside-1_7_2098" maskUnits="userSpaceOnUse" x="39" y="55" width="80" height="35" fill="black">
<rect fill="white" x="39" y="55" width="80" height="35"/>
<path d="M53.648 68.184C55.12 68.184 56.464 68.424 57.68 68.904C58.896 69.352 59.952 70.024 60.848 70.92C61.744 71.784 62.432 72.856 62.912 74.136C63.424 75.384 63.68 76.808 63.68 78.408C63.68 80.552 63.184 82.392 62.192 83.928C61.232 85.464 59.904 86.648 58.208 87.48C56.544 88.312 54.672 88.728 52.592 88.728C51.024 88.728 49.552 88.504 48.176 88.056C46.8 87.64 45.584 87.016 44.528 86.184C43.472 85.352 42.608 84.344 41.936 83.16C41.296 82.008 40.928 80.68 40.832 79.176H45.344C45.472 80.328 45.84 81.304 46.448 82.104C47.088 82.936 47.92 83.544 48.944 83.928C50 84.344 51.184 84.552 52.496 84.552C53.36 84.552 54.192 84.424 54.992 84.168C55.792 83.912 56.496 83.528 57.104 83.016C57.744 82.504 58.24 81.864 58.592 81.096C58.944 80.328 59.12 79.432 59.12 78.408C59.12 77.384 58.944 76.488 58.592 75.72C58.272 74.952 57.824 74.312 57.248 73.8C56.672 73.256 55.984 72.856 55.184 72.6C54.416 72.312 53.6 72.168 52.736 72.168C51.872 72.168 50.992 72.28 50.096 72.504C49.232 72.696 48.432 73.064 47.696 73.608C46.992 74.152 46.384 74.904 45.872 75.864L41.744 75.048L42.848 57H60.992V61.128H47.168L46.304 74.088L45.872 73.752C46.224 72.472 46.8 71.432 47.6 70.632C48.4 69.8 49.328 69.192 50.384 68.808C51.44 68.392 52.528 68.184 53.648 68.184ZM81.014 81.528C78.678 81.528 76.534 81.032 74.582 80.04C72.63 79.048 71.078 77.624 69.926 75.768C68.774 73.912 68.198 71.688 68.198 69.096C68.198 66.472 68.774 64.232 69.926 62.376C71.078 60.488 72.63 59.048 74.582 58.056C76.534 57.064 78.678 56.568 81.014 56.568C83.35 56.568 85.478 57.064 87.398 58.056C89.318 59.048 90.854 60.488 92.006 62.376C93.158 64.232 93.734 66.472 93.734 69.096C93.734 71.688 93.158 73.912 92.006 75.768C90.854 77.624 89.318 79.048 87.398 80.04C85.478 81.032 83.35 81.528 81.014 81.528ZM81.014 77.496C82.422 77.496 83.734 77.176 84.95 76.536C86.198 75.864 87.206 74.904 87.974 73.656C88.742 72.376 89.126 70.856 89.126 69.096C89.126 67.304 88.742 65.784 87.974 64.536C87.206 63.256 86.198 62.28 84.95 61.608C83.734 60.904 82.422 60.552 81.014 60.552C79.606 60.552 78.262 60.888 76.982 61.56C75.734 62.232 74.726 63.208 73.958 64.488C73.19 65.736 72.806 67.272 72.806 69.096C72.806 70.856 73.19 72.376 73.958 73.656C74.726 74.904 75.734 75.864 76.982 76.536C78.23 77.176 79.574 77.496 81.014 77.496ZM98.5719 66.168H117.34V69.912H98.5719V66.168ZM109.9 59.256V76.824H106.012V59.256H109.9Z"/>
</mask>
<path d="M53.648 68.184C55.12 68.184 56.464 68.424 57.68 68.904C58.896 69.352 59.952 70.024 60.848 70.92C61.744 71.784 62.432 72.856 62.912 74.136C63.424 75.384 63.68 76.808 63.68 78.408C63.68 80.552 63.184 82.392 62.192 83.928C61.232 85.464 59.904 86.648 58.208 87.48C56.544 88.312 54.672 88.728 52.592 88.728C51.024 88.728 49.552 88.504 48.176 88.056C46.8 87.64 45.584 87.016 44.528 86.184C43.472 85.352 42.608 84.344 41.936 83.16C41.296 82.008 40.928 80.68 40.832 79.176H45.344C45.472 80.328 45.84 81.304 46.448 82.104C47.088 82.936 47.92 83.544 48.944 83.928C50 84.344 51.184 84.552 52.496 84.552C53.36 84.552 54.192 84.424 54.992 84.168C55.792 83.912 56.496 83.528 57.104 83.016C57.744 82.504 58.24 81.864 58.592 81.096C58.944 80.328 59.12 79.432 59.12 78.408C59.12 77.384 58.944 76.488 58.592 75.72C58.272 74.952 57.824 74.312 57.248 73.8C56.672 73.256 55.984 72.856 55.184 72.6C54.416 72.312 53.6 72.168 52.736 72.168C51.872 72.168 50.992 72.28 50.096 72.504C49.232 72.696 48.432 73.064 47.696 73.608C46.992 74.152 46.384 74.904 45.872 75.864L41.744 75.048L42.848 57H60.992V61.128H47.168L46.304 74.088L45.872 73.752C46.224 72.472 46.8 71.432 47.6 70.632C48.4 69.8 49.328 69.192 50.384 68.808C51.44 68.392 52.528 68.184 53.648 68.184ZM81.014 81.528C78.678 81.528 76.534 81.032 74.582 80.04C72.63 79.048 71.078 77.624 69.926 75.768C68.774 73.912 68.198 71.688 68.198 69.096C68.198 66.472 68.774 64.232 69.926 62.376C71.078 60.488 72.63 59.048 74.582 58.056C76.534 57.064 78.678 56.568 81.014 56.568C83.35 56.568 85.478 57.064 87.398 58.056C89.318 59.048 90.854 60.488 92.006 62.376C93.158 64.232 93.734 66.472 93.734 69.096C93.734 71.688 93.158 73.912 92.006 75.768C90.854 77.624 89.318 79.048 87.398 80.04C85.478 81.032 83.35 81.528 81.014 81.528ZM81.014 77.496C82.422 77.496 83.734 77.176 84.95 76.536C86.198 75.864 87.206 74.904 87.974 73.656C88.742 72.376 89.126 70.856 89.126 69.096C89.126 67.304 88.742 65.784 87.974 64.536C87.206 63.256 86.198 62.28 84.95 61.608C83.734 60.904 82.422 60.552 81.014 60.552C79.606 60.552 78.262 60.888 76.982 61.56C75.734 62.232 74.726 63.208 73.958 64.488C73.19 65.736 72.806 67.272 72.806 69.096C72.806 70.856 73.19 72.376 73.958 73.656C74.726 74.904 75.734 75.864 76.982 76.536C78.23 77.176 79.574 77.496 81.014 77.496ZM98.5719 66.168H117.34V69.912H98.5719V66.168ZM109.9 59.256V76.824H106.012V59.256H109.9Z" fill="#222222"/>
<path d="M57.68 68.904L57.3128 69.8342L57.3235 69.8384L57.3343 69.8423L57.68 68.904ZM60.848 70.92L60.1409 71.6271L60.1473 71.6335L60.1539 71.6398L60.848 70.92ZM62.912 74.136L61.9757 74.4871L61.981 74.5014L61.9868 74.5156L62.912 74.136ZM62.192 83.928L61.352 83.3855L61.3479 83.3917L61.344 83.398L62.192 83.928ZM58.208 87.48L57.7676 86.5822L57.7608 86.5856L58.208 87.48ZM48.176 88.056L48.4856 87.1051L48.4755 87.1019L48.4654 87.0988L48.176 88.056ZM44.528 86.184L43.9091 86.9695L44.528 86.184ZM41.936 83.16L41.0618 83.6457L41.0663 83.6536L41.936 83.16ZM40.832 79.176V78.176H39.7661L39.834 79.2397L40.832 79.176ZM45.344 79.176L46.3379 79.0656L46.239 78.176H45.344V79.176ZM46.448 82.104L45.6518 82.7091L45.6554 82.7137L46.448 82.104ZM48.944 83.928L49.3105 82.9976L49.3028 82.9946L49.2951 82.9917L48.944 83.928ZM54.992 84.168L54.6872 83.2156H54.6872L54.992 84.168ZM57.104 83.016L56.4793 82.2351L56.4695 82.243L56.4599 82.2511L57.104 83.016ZM58.592 81.096L59.5011 81.5127L58.592 81.096ZM58.592 75.72L57.6689 76.1046L57.6756 76.1208L57.6829 76.1367L58.592 75.72ZM57.248 73.8L56.5614 74.527L56.5724 74.5374L56.5836 74.5474L57.248 73.8ZM55.184 72.6L54.8329 73.5363L54.8559 73.5449L54.8792 73.5524L55.184 72.6ZM50.096 72.504L50.3129 73.4802L50.3258 73.4773L50.3385 73.4741L50.096 72.504ZM47.696 73.608L47.1016 72.8038L47.093 72.8102L47.0846 72.8167L47.696 73.608ZM45.872 75.864L45.6781 76.845L46.4054 76.9888L46.7544 76.3346L45.872 75.864ZM41.744 75.048L40.7459 74.9869L40.6925 75.8595L41.5501 76.029L41.744 75.048ZM42.848 57V56H41.9073L41.8499 56.9389L42.848 57ZM60.992 57H61.992V56H60.992V57ZM60.992 61.128V62.128H61.992V61.128H60.992ZM47.168 61.128V60.128H46.2324L46.1702 61.0615L47.168 61.128ZM46.304 74.088L45.6901 74.8774L47.1765 76.0335L47.3018 74.1545L46.304 74.088ZM45.872 73.752L44.9078 73.4868L44.7306 74.1311L45.2581 74.5414L45.872 73.752ZM47.6 70.632L48.3071 71.3391L48.314 71.3322L48.3208 71.3251L47.6 70.632ZM50.384 68.808L50.7257 69.7478L50.7382 69.7433L50.7505 69.7384L50.384 68.808ZM53.648 69.184C55.0101 69.184 56.2276 69.4058 57.3128 69.8342L58.0472 67.9738C56.7004 67.4422 55.2299 67.184 53.648 67.184V69.184ZM57.3343 69.8423C58.4177 70.2415 59.3496 70.8358 60.1409 71.6271L61.5551 70.2129C60.5544 69.2122 59.3743 68.4625 58.0257 67.9657L57.3343 69.8423ZM60.1539 71.6398C60.9325 72.3907 61.5427 73.3327 61.9757 74.4871L63.8483 73.7849C63.3213 72.3793 62.5555 71.1773 61.5421 70.2002L60.1539 71.6398ZM61.9868 74.5156C62.4411 75.6229 62.68 76.9144 62.68 78.408H64.68C64.68 76.7016 64.4069 75.1451 63.8372 73.7564L61.9868 74.5156ZM62.68 78.408C62.68 80.3934 62.2226 82.0374 61.352 83.3855L63.032 84.4705C64.1454 82.7466 64.68 80.7106 64.68 78.408H62.68ZM61.344 83.398C60.4873 84.7688 59.3036 85.8287 57.7676 86.5822L58.6484 88.3778C60.5044 87.4673 61.9768 86.1592 63.04 84.458L61.344 83.398ZM57.7608 86.5856C56.2513 87.3403 54.5353 87.728 52.592 87.728V89.728C54.8087 89.728 56.8367 89.2837 58.6552 88.3744L57.7608 86.5856ZM52.592 87.728C51.1204 87.728 49.7536 87.518 48.4856 87.1051L47.8664 89.0069C49.3504 89.49 50.9276 89.728 52.592 89.728V87.728ZM48.4654 87.0988C47.2006 86.7164 46.0981 86.148 45.1469 85.3985L43.9091 86.9695C45.0699 87.884 46.3994 88.5636 47.8866 89.0132L48.4654 87.0988ZM45.1469 85.3985C44.1939 84.6477 43.4146 83.7392 42.8057 82.6664L41.0663 83.6536C41.8014 84.9488 42.7501 86.0563 43.9091 86.9695L45.1469 85.3985ZM42.8102 82.6744C42.2519 81.6695 41.9179 80.4895 41.83 79.1123L39.834 79.2397C39.9381 80.8705 40.3401 82.3465 41.0618 83.6456L42.8102 82.6744ZM40.832 80.176H45.344V78.176H40.832V80.176ZM44.3501 79.2864C44.495 80.5901 44.9185 81.7442 45.6518 82.7091L47.2442 81.4989C46.7615 80.8638 46.449 80.0659 46.3379 79.0656L44.3501 79.2864ZM45.6554 82.7137C46.4141 83.7 47.4018 84.4177 48.5929 84.8643L49.2951 82.9917C48.4382 82.6703 47.7619 82.172 47.2406 81.4943L45.6554 82.7137ZM48.5775 84.8584C49.7669 85.327 51.0779 85.552 52.496 85.552V83.552C51.2901 83.552 50.2331 83.361 49.3105 82.9976L48.5775 84.8584ZM52.496 85.552C53.4604 85.552 54.3954 85.4089 55.2968 85.1204L54.6872 83.2156C53.9886 83.4392 53.2596 83.552 52.496 83.552V85.552ZM55.2968 85.1204C56.2139 84.8269 57.0347 84.3817 57.7481 83.7809L56.4599 82.2511C55.9573 82.6743 55.3701 82.9971 54.6872 83.2156L55.2968 85.1204ZM57.7287 83.7969C58.4944 83.1843 59.0861 82.4181 59.5011 81.5127L57.6829 80.6793C57.3939 81.3099 56.9936 81.8237 56.4793 82.2351L57.7287 83.7969ZM59.5011 81.5127C59.9243 80.5892 60.12 79.5459 60.12 78.408H58.12C58.12 79.3181 57.9637 80.0668 57.6829 80.6793L59.5011 81.5127ZM60.12 78.408C60.12 77.2701 59.9243 76.2268 59.5011 75.3033L57.6829 76.1367C57.9637 76.7492 58.12 77.4979 58.12 78.408H60.12ZM59.5151 75.3354C59.1419 74.4398 58.6096 73.6723 57.9124 73.0526L56.5836 74.5474C57.0384 74.9517 57.4021 75.4642 57.6689 76.1046L59.5151 75.3354ZM57.9346 73.073C57.2433 72.4201 56.4225 71.9464 55.4888 71.6476L54.8792 73.5524C55.5455 73.7656 56.1007 74.0919 56.5614 74.527L57.9346 73.073ZM55.5351 71.6637C54.6489 71.3314 53.7134 71.168 52.736 71.168V73.168C53.4866 73.168 54.1831 73.2926 54.8329 73.5363L55.5351 71.6637ZM52.736 71.168C51.7848 71.168 50.8233 71.2914 49.8535 71.5339L50.3385 73.4741C51.1607 73.2686 51.9592 73.168 52.736 73.168V71.168ZM49.8791 71.5278C48.8739 71.7512 47.9461 72.1796 47.1016 72.8038L48.2904 74.4122C48.9179 73.9484 49.5901 73.6408 50.3129 73.4802L49.8791 71.5278ZM47.0846 72.8167C46.2465 73.4643 45.5537 74.3357 44.9896 75.3934L46.7544 76.3346C47.2143 75.4723 47.7375 74.8397 48.3074 74.3993L47.0846 72.8167ZM46.0659 74.883L41.9379 74.067L41.5501 76.029L45.6781 76.845L46.0659 74.883ZM42.7421 75.1091L43.8461 57.0611L41.8499 56.9389L40.7459 74.9869L42.7421 75.1091ZM42.848 58H60.992V56H42.848V58ZM59.992 57V61.128H61.992V57H59.992ZM60.992 60.128H47.168V62.128H60.992V60.128ZM46.1702 61.0615L45.3062 74.0215L47.3018 74.1545L48.1658 61.1945L46.1702 61.0615ZM46.9179 73.2986L46.4859 72.9626L45.2581 74.5414L45.6901 74.8774L46.9179 73.2986ZM46.8362 74.0172C47.1503 72.8751 47.6494 71.9968 48.3071 71.3391L46.8929 69.9249C45.9506 70.8672 45.2977 72.0689 44.9078 73.4868L46.8362 74.0172ZM48.3208 71.3251C49.0179 70.6001 49.8173 70.0781 50.7257 69.7478L50.0423 67.8682C48.8387 68.3059 47.7821 68.9999 46.8792 69.9389L48.3208 71.3251ZM50.7505 69.7384C51.6914 69.3678 52.6552 69.184 53.648 69.184V67.184C52.4008 67.184 51.1886 67.4162 50.0175 67.8776L50.7505 69.7384ZM74.582 80.04L75.035 79.1485L74.582 80.04ZM69.926 75.768L70.7756 75.2406L69.926 75.768ZM69.926 62.376L70.7757 62.9034L70.7796 62.8969L69.926 62.376ZM74.582 58.056L75.035 58.9475L74.582 58.056ZM92.006 62.376L91.1523 62.8969L91.1564 62.9034L92.006 62.376ZM92.006 75.768L92.8556 76.2954V76.2954L92.006 75.768ZM87.398 80.04L86.939 79.1516L87.398 80.04ZM84.95 76.536L85.4158 77.421L85.4241 77.4165L84.95 76.536ZM87.974 73.656L88.8257 74.1801L88.8315 74.1705L87.974 73.656ZM87.974 64.536L87.1165 65.0505L87.1223 65.0601L87.974 64.536ZM84.95 61.608L84.449 62.4734L84.4623 62.4812L84.4759 62.4885L84.95 61.608ZM76.982 61.56L76.5171 60.6746L76.5079 60.6795L76.982 61.56ZM73.958 64.488L74.8097 65.0121L74.8155 65.0025L73.958 64.488ZM73.958 73.656L73.1005 74.1705L73.1063 74.1801L73.958 73.656ZM76.982 76.536L76.5079 77.4165L76.5167 77.4212L76.5257 77.4258L76.982 76.536ZM81.014 80.528C78.8247 80.528 76.8374 80.0644 75.035 79.1485L74.129 80.9315C76.2306 81.9996 78.5313 82.528 81.014 82.528V80.528ZM75.035 79.1485C73.2456 78.2391 71.831 76.9409 70.7756 75.2406L69.0764 76.2954C70.325 78.3071 72.0144 79.8569 74.129 80.9315L75.035 79.1485ZM70.7756 75.2406C69.7389 73.5704 69.198 71.5368 69.198 69.096H67.198C67.198 71.8392 67.8091 74.2536 69.0764 76.2954L70.7756 75.2406ZM69.198 69.096C69.198 66.6206 69.7401 64.5717 70.7756 62.9034L69.0764 61.8486C67.8079 63.8923 67.198 66.3234 67.198 69.096H69.198ZM70.7796 62.8969C71.8361 61.1655 73.2501 59.8546 75.035 58.9475L74.129 57.1645C72.0099 58.2414 70.3199 59.8105 69.0724 61.8551L70.7796 62.8969ZM75.035 58.9475C76.8374 58.0316 78.8247 57.568 81.014 57.568V55.568C78.5313 55.568 76.2306 56.0964 74.129 57.1645L75.035 58.9475ZM81.014 57.568C83.2035 57.568 85.1722 58.0316 86.939 58.9444L87.857 57.1676C85.7838 56.0964 83.4965 55.568 81.014 55.568V57.568ZM86.939 58.9444C88.6923 59.8503 90.0934 61.1614 91.1524 62.8969L92.8596 61.8551C91.6146 59.8146 89.9437 58.2457 87.857 57.1676L86.939 58.9444ZM91.1564 62.9034C92.1919 64.5717 92.734 66.6206 92.734 69.096H94.734C94.734 66.3234 94.1241 63.8923 92.8556 61.8486L91.1564 62.9034ZM92.734 69.096C92.734 71.5368 92.1931 73.5704 91.1564 75.2406L92.8556 76.2954C94.1229 74.2536 94.734 71.8392 94.734 69.096H92.734ZM91.1564 75.2406C90.0985 76.945 88.6968 78.2434 86.939 79.1516L87.857 80.9284C89.9393 79.8526 91.6095 78.303 92.8556 76.2954L91.1564 75.2406ZM86.939 79.1516C85.1722 80.0644 83.2035 80.528 81.014 80.528V82.528C83.4965 82.528 85.7838 81.9996 87.857 80.9284L86.939 79.1516ZM81.014 78.496C82.5801 78.496 84.0525 78.1384 85.4157 77.4209L84.4843 75.6511C83.4155 76.2136 82.2639 76.496 81.014 76.496V78.496ZM85.4241 77.4165C86.8325 76.6581 87.9686 75.5728 88.8257 74.1801L87.1223 73.1319C86.4434 74.2352 85.5635 75.0699 84.4759 75.6555L85.4241 77.4165ZM88.8315 74.1705C89.7083 72.7092 90.126 71.0045 90.126 69.096H88.126C88.126 70.7075 87.7757 72.0428 87.1165 73.1415L88.8315 74.1705ZM90.126 69.096C90.126 67.1602 89.7102 65.4493 88.8257 64.0119L87.1223 65.0601C87.7738 66.1187 88.126 67.4478 88.126 69.096H90.126ZM88.8315 64.0215C87.9761 62.5958 86.839 61.4894 85.4241 60.7275L84.4759 62.4885C85.557 63.0706 86.4359 63.9162 87.1165 65.0505L88.8315 64.0215ZM85.451 60.7426C84.0824 59.9502 82.5976 59.552 81.014 59.552V61.552C82.2464 61.552 83.3856 61.8578 84.449 62.4734L85.451 60.7426ZM81.014 59.552C79.4396 59.552 77.9366 59.9294 76.5172 60.6746L77.4468 62.4454C78.5874 61.8466 79.7724 61.552 81.014 61.552V59.552ZM76.5079 60.6795C75.093 61.4414 73.9559 62.5478 73.1005 63.9735L74.8155 65.0025C75.4961 63.8682 76.375 63.0226 77.4561 62.4405L76.5079 60.6795ZM73.1063 63.9639C72.2202 65.4039 71.806 67.132 71.806 69.096H73.806C73.806 67.412 74.1598 66.0681 74.8097 65.0121L73.1063 63.9639ZM71.806 69.096C71.806 71.0045 72.2237 72.7092 73.1005 74.1705L74.8155 73.1415C74.1563 72.0428 73.806 70.7075 73.806 69.096H71.806ZM73.1063 74.1801C73.9634 75.5728 75.0995 76.6581 76.5079 77.4165L77.4561 75.6555C76.3685 75.0699 75.4886 74.2352 74.8097 73.1319L73.1063 74.1801ZM76.5257 77.4258C77.9188 78.1402 79.4197 78.496 81.014 78.496V76.496C79.7283 76.496 78.5412 76.2118 77.4383 75.6462L76.5257 77.4258ZM98.5719 66.168V65.168H97.5719V66.168H98.5719ZM117.34 66.168H118.34V65.168H117.34V66.168ZM117.34 69.912V70.912H118.34V69.912H117.34ZM98.5719 69.912H97.5719V70.912H98.5719V69.912ZM109.9 59.256H110.9V58.256H109.9V59.256ZM109.9 76.824V77.824H110.9V76.824H109.9ZM106.012 76.824H105.012V77.824H106.012V76.824ZM106.012 59.256V58.256H105.012V59.256H106.012ZM98.5719 67.168H117.34V65.168H98.5719V67.168ZM116.34 66.168V69.912H118.34V66.168H116.34ZM117.34 68.912H98.5719V70.912H117.34V68.912ZM99.5719 69.912V66.168H97.5719V69.912H99.5719ZM108.9 59.256V76.824H110.9V59.256H108.9ZM109.9 75.824H106.012V77.824H109.9V75.824ZM107.012 76.824V59.256H105.012V76.824H107.012ZM106.012 60.256H109.9V58.256H106.012V60.256Z" fill="#222222" mask="url(#path-3-outside-1_7_2098)"/>
<path opacity="0.6" d="M56.1714 111.892C56.0874 112.573 55.8541 113.157 55.4714 113.642C55.0981 114.127 54.6081 114.501 54.0014 114.762C53.3947 115.023 52.7041 115.154 51.9294 115.154C51.2294 115.154 50.5854 115.047 49.9974 114.832C49.4187 114.617 48.9147 114.309 48.4854 113.908C48.0561 113.507 47.7201 113.017 47.4774 112.438C47.2347 111.85 47.1134 111.192 47.1134 110.464C47.1134 109.727 47.2347 109.069 47.4774 108.49C47.7201 107.911 48.0561 107.421 48.4854 107.02C48.9147 106.609 49.4187 106.297 49.9974 106.082C50.5854 105.867 51.2294 105.76 51.9294 105.76C52.7134 105.76 53.4087 105.895 54.0154 106.166C54.6221 106.427 55.1121 106.805 55.4854 107.3C55.8681 107.785 56.1014 108.369 56.1854 109.05H54.8974C54.7761 108.611 54.5754 108.238 54.2954 107.93C54.0154 107.622 53.6747 107.389 53.2734 107.23C52.8721 107.062 52.4241 106.978 51.9294 106.978C51.2947 106.978 50.7161 107.113 50.1934 107.384C49.6707 107.655 49.2507 108.047 48.9334 108.56C48.6254 109.073 48.4714 109.708 48.4714 110.464C48.4714 111.211 48.6254 111.845 48.9334 112.368C49.2507 112.881 49.6707 113.273 50.1934 113.544C50.7161 113.805 51.2947 113.936 51.9294 113.936C52.4241 113.936 52.8674 113.857 53.2594 113.698C53.6607 113.539 54.0014 113.306 54.2814 112.998C54.5614 112.69 54.7667 112.321 54.8974 111.892H56.1714ZM60.6654 115.14C60.0681 115.14 59.5221 114.986 59.0274 114.678C58.5327 114.37 58.1407 113.945 57.8514 113.404C57.5621 112.853 57.4174 112.223 57.4174 111.514C57.4174 110.805 57.5621 110.179 57.8514 109.638C58.1501 109.087 58.5561 108.658 59.0694 108.35C59.5827 108.033 60.1567 107.874 60.7914 107.874C61.4914 107.874 62.0327 108.037 62.4154 108.364C62.8074 108.691 63.0781 109.129 63.2274 109.68C63.3861 110.231 63.4654 110.842 63.4654 111.514C63.4654 111.887 63.4187 112.284 63.3254 112.704C63.2321 113.124 63.0827 113.521 62.8774 113.894C62.6721 114.267 62.3874 114.571 62.0234 114.804C61.6594 115.028 61.2067 115.14 60.6654 115.14ZM61.0434 113.978C61.5381 113.978 61.9534 113.871 62.2894 113.656C62.6347 113.432 62.8914 113.133 63.0594 112.76C63.2274 112.387 63.3114 111.971 63.3114 111.514C63.3114 111.019 63.2227 110.585 63.0454 110.212C62.8774 109.839 62.6207 109.549 62.2754 109.344C61.9394 109.139 61.5287 109.036 61.0434 109.036C60.3154 109.036 59.7507 109.269 59.3494 109.736C58.9574 110.203 58.7614 110.795 58.7614 111.514C58.7614 111.999 58.8594 112.429 59.0554 112.802C59.2514 113.166 59.5174 113.455 59.8534 113.67C60.1987 113.875 60.5954 113.978 61.0434 113.978ZM63.3114 108.014H64.6554V115H63.4234C63.4234 115 63.4141 114.916 63.3954 114.748C63.3767 114.571 63.3581 114.361 63.3394 114.118C63.3207 113.875 63.3114 113.661 63.3114 113.474V108.014ZM66.4084 108.014H67.7524V115H66.4084V108.014ZM70.1184 109.204C69.633 109.204 69.2177 109.316 68.8724 109.54C68.5364 109.764 68.2657 110.039 68.0604 110.366C67.8644 110.693 67.7337 111.005 67.6684 111.304L67.6544 110.506C67.6637 110.413 67.687 110.268 67.7244 110.072C67.771 109.867 67.8504 109.638 67.9624 109.386C68.0744 109.134 68.2237 108.896 68.4104 108.672C68.597 108.439 68.8304 108.247 69.1104 108.098C69.3904 107.949 69.7264 107.874 70.1184 107.874V109.204ZM73.2019 105.914H81.1679V107.118H73.2019V105.914ZM76.5059 106.978H77.8639V115H76.5059V106.978ZM80.7627 108.014H82.1907L84.8647 114.72L83.7027 115L80.7627 108.014ZM87.8887 108.014L83.7027 117.8H82.2887L84.0947 114.006L86.4747 108.014H87.8887ZM93.0253 115.154C92.484 115.154 92.0313 115.037 91.6673 114.804C91.3033 114.571 91.0187 114.267 90.8133 113.894C90.608 113.521 90.4587 113.124 90.3653 112.704C90.272 112.284 90.2253 111.887 90.2253 111.514C90.2253 111.01 90.2673 110.539 90.3513 110.1C90.4447 109.661 90.594 109.274 90.7993 108.938C91.0047 108.602 91.2893 108.341 91.6533 108.154C92.0173 107.967 92.4747 107.874 93.0253 107.874C93.632 107.874 94.178 108.033 94.6633 108.35C95.1487 108.658 95.536 109.087 95.8253 109.638C96.124 110.189 96.2733 110.814 96.2733 111.514C96.2733 112.233 96.124 112.867 95.8253 113.418C95.5267 113.959 95.13 114.384 94.6353 114.692C94.15 115 93.6133 115.154 93.0253 115.154ZM92.6473 113.978C93.0953 113.978 93.492 113.875 93.8373 113.67C94.1827 113.455 94.4487 113.166 94.6353 112.802C94.8313 112.429 94.9293 111.999 94.9293 111.514C94.9293 110.795 94.7287 110.203 94.3273 109.736C93.9353 109.269 93.3753 109.036 92.6473 109.036C92.2087 109.036 91.8167 109.139 91.4713 109.344C91.1353 109.549 90.8693 109.839 90.6733 110.212C90.4773 110.585 90.3793 111.019 90.3793 111.514C90.3793 111.981 90.4633 112.401 90.6313 112.774C90.8087 113.138 91.0653 113.432 91.4013 113.656C91.7373 113.871 92.1527 113.978 92.6473 113.978ZM89.0353 108.014H90.3233L90.3793 109.596V117.8H89.0353V108.014ZM103.066 112.732H104.34C104.265 113.189 104.088 113.6 103.808 113.964C103.528 114.328 103.159 114.617 102.702 114.832C102.245 115.047 101.708 115.154 101.092 115.154C100.364 115.154 99.7153 115 99.1459 114.692C98.5766 114.384 98.1286 113.959 97.8019 113.418C97.4753 112.877 97.3119 112.247 97.3119 111.528C97.3119 110.8 97.4706 110.165 97.7879 109.624C98.1053 109.073 98.5439 108.644 99.1039 108.336C99.6639 108.028 100.303 107.874 101.022 107.874C101.778 107.874 102.413 108.023 102.926 108.322C103.439 108.621 103.817 109.064 104.06 109.652C104.312 110.231 104.415 110.954 104.368 111.822H98.6419C98.6886 112.242 98.8146 112.615 99.0199 112.942C99.2346 113.269 99.5146 113.525 99.8599 113.712C100.215 113.899 100.621 113.992 101.078 113.992C101.591 113.992 102.021 113.875 102.366 113.642C102.711 113.409 102.945 113.105 103.066 112.732ZM101.036 109.022C100.429 109.022 99.9253 109.185 99.5239 109.512C99.1226 109.829 98.8566 110.254 98.7259 110.786H103.024C102.987 110.217 102.781 109.783 102.408 109.484C102.035 109.176 101.577 109.022 101.036 109.022ZM105.475 112.732H106.707C106.754 113.105 106.922 113.413 107.211 113.656C107.501 113.889 107.907 114.006 108.429 114.006C108.765 114.006 109.027 113.969 109.213 113.894C109.4 113.81 109.531 113.698 109.605 113.558C109.689 113.418 109.731 113.264 109.731 113.096C109.731 112.881 109.675 112.718 109.563 112.606C109.451 112.485 109.293 112.387 109.087 112.312C108.882 112.228 108.639 112.149 108.359 112.074C108.051 111.99 107.743 111.892 107.435 111.78C107.127 111.668 106.843 111.533 106.581 111.374C106.329 111.215 106.124 111.019 105.965 110.786C105.816 110.543 105.741 110.249 105.741 109.904C105.741 109.615 105.802 109.344 105.923 109.092C106.054 108.84 106.236 108.625 106.469 108.448C106.712 108.261 106.992 108.121 107.309 108.028C107.627 107.925 107.977 107.874 108.359 107.874C108.891 107.874 109.339 107.972 109.703 108.168C110.067 108.355 110.343 108.621 110.529 108.966C110.725 109.311 110.828 109.708 110.837 110.156H109.661C109.596 109.764 109.461 109.479 109.255 109.302C109.05 109.115 108.742 109.022 108.331 109.022C107.93 109.022 107.622 109.101 107.407 109.26C107.193 109.419 107.085 109.633 107.085 109.904C107.085 110.109 107.16 110.277 107.309 110.408C107.459 110.529 107.659 110.637 107.911 110.73C108.163 110.823 108.448 110.921 108.765 111.024C109.064 111.127 109.349 111.234 109.619 111.346C109.899 111.449 110.147 111.575 110.361 111.724C110.585 111.864 110.758 112.051 110.879 112.284C111.01 112.508 111.075 112.788 111.075 113.124C111.075 113.535 110.973 113.894 110.767 114.202C110.562 114.501 110.263 114.734 109.871 114.902C109.489 115.07 109.022 115.154 108.471 115.154C107.967 115.154 107.538 115.093 107.183 114.972C106.838 114.851 106.544 114.692 106.301 114.496C106.068 114.3 105.886 114.095 105.755 113.88C105.634 113.656 105.55 113.441 105.503 113.236C105.466 113.031 105.457 112.863 105.475 112.732ZM51.0525 128.746V127.542H55.9245V128.746H51.0525ZM49.0785 131L52.7885 121.914H54.2165L57.9545 131H56.4985L53.2505 122.796H53.7545L50.5205 131H49.0785ZM61.6469 129.964H61.2129L63.4809 124.014H64.9369L62.0669 131H60.8069L57.9649 124.014H59.4349L61.6469 129.964ZM68.725 131.14C68.1277 131.14 67.5817 130.986 67.087 130.678C66.5923 130.37 66.2003 129.945 65.911 129.404C65.6217 128.853 65.477 128.223 65.477 127.514C65.477 126.805 65.6217 126.179 65.911 125.638C66.2097 125.087 66.6157 124.658 67.129 124.35C67.6423 124.033 68.2163 123.874 68.851 123.874C69.551 123.874 70.0923 124.037 70.475 124.364C70.867 124.691 71.1377 125.129 71.287 125.68C71.4457 126.231 71.525 126.842 71.525 127.514C71.525 127.887 71.4783 128.284 71.385 128.704C71.2917 129.124 71.1423 129.521 70.937 129.894C70.7317 130.267 70.447 130.571 70.083 130.804C69.719 131.028 69.2663 131.14 68.725 131.14ZM69.103 129.978C69.5977 129.978 70.013 129.871 70.349 129.656C70.6943 129.432 70.951 129.133 71.119 128.76C71.287 128.387 71.371 127.971 71.371 127.514C71.371 127.019 71.2823 126.585 71.105 126.212C70.937 125.839 70.6803 125.549 70.335 125.344C69.999 125.139 69.5883 125.036 69.103 125.036C68.375 125.036 67.8103 125.269 67.409 125.736C67.017 126.203 66.821 126.795 66.821 127.514C66.821 127.999 66.919 128.429 67.115 128.802C67.311 129.166 67.577 129.455 67.913 129.67C68.2583 129.875 68.655 129.978 69.103 129.978ZM71.371 124.014H72.715V131H71.483C71.483 131 71.4737 130.916 71.455 130.748C71.4363 130.571 71.4177 130.361 71.399 130.118C71.3803 129.875 71.371 129.661 71.371 129.474V124.014ZM76.0779 121.13V122.572H74.4119V121.13H76.0779ZM74.5799 124.014H75.9099V131H74.5799V124.014ZM77.9439 121.214H79.2879V131H77.9439V121.214ZM84.0922 131.14C83.4948 131.14 82.9488 130.986 82.4542 130.678C81.9595 130.37 81.5675 129.945 81.2782 129.404C80.9888 128.853 80.8442 128.223 80.8442 127.514C80.8442 126.805 80.9888 126.179 81.2782 125.638C81.5768 125.087 81.9828 124.658 82.4962 124.35C83.0095 124.033 83.5835 123.874 84.2182 123.874C84.9182 123.874 85.4595 124.037 85.8422 124.364C86.2342 124.691 86.5048 125.129 86.6542 125.68C86.8128 126.231 86.8922 126.842 86.8922 127.514C86.8922 127.887 86.8455 128.284 86.7522 128.704C86.6588 129.124 86.5095 129.521 86.3042 129.894C86.0988 130.267 85.8142 130.571 85.4502 130.804C85.0862 131.028 84.6335 131.14 84.0922 131.14ZM84.4702 129.978C84.9648 129.978 85.3802 129.871 85.7162 129.656C86.0615 129.432 86.3182 129.133 86.4862 128.76C86.6542 128.387 86.7382 127.971 86.7382 127.514C86.7382 127.019 86.6495 126.585 86.4722 126.212C86.3042 125.839 86.0475 125.549 85.7022 125.344C85.3662 125.139 84.9555 125.036 84.4702 125.036C83.7422 125.036 83.1775 125.269 82.7762 125.736C82.3842 126.203 82.1882 126.795 82.1882 127.514C82.1882 127.999 82.2862 128.429 82.4822 128.802C82.6782 129.166 82.9442 129.455 83.2802 129.67C83.6255 129.875 84.0222 129.978 84.4702 129.978ZM86.7382 124.014H88.0822V131H86.8502C86.8502 131 86.8408 130.916 86.8222 130.748C86.8035 130.571 86.7848 130.361 86.7662 130.118C86.7475 129.875 86.7382 129.661 86.7382 129.474V124.014ZM93.9264 131.14C93.3757 131.14 92.9184 131.028 92.5544 130.804C92.1997 130.571 91.9151 130.267 91.7004 129.894C91.4951 129.521 91.3457 129.124 91.2524 128.704C91.1591 128.284 91.1124 127.887 91.1124 127.514C91.1124 127.01 91.1544 126.539 91.2384 126.1C91.3317 125.661 91.4811 125.274 91.6864 124.938C91.8917 124.602 92.1764 124.341 92.5404 124.154C92.9044 123.967 93.3664 123.874 93.9264 123.874C94.5517 123.874 95.1071 124.033 95.5924 124.35C96.0871 124.658 96.4744 125.087 96.7544 125.638C97.0344 126.179 97.1744 126.805 97.1744 127.514C97.1744 128.223 97.0297 128.853 96.7404 129.404C96.4511 129.945 96.0591 130.37 95.5644 130.678C95.0791 130.986 94.5331 131.14 93.9264 131.14ZM93.5484 129.978C93.9964 129.978 94.3884 129.875 94.7244 129.67C95.0697 129.455 95.3357 129.166 95.5224 128.802C95.7184 128.429 95.8164 127.999 95.8164 127.514C95.8164 126.795 95.6157 126.203 95.2144 125.736C94.8224 125.269 94.2671 125.036 93.5484 125.036C93.0631 125.036 92.6477 125.139 92.3024 125.344C91.9664 125.549 91.7097 125.839 91.5324 126.212C91.3551 126.585 91.2664 127.019 91.2664 127.514C91.2664 127.971 91.3504 128.387 91.5184 128.76C91.6957 129.133 91.9524 129.432 92.2884 129.656C92.6337 129.871 93.0537 129.978 93.5484 129.978ZM91.2664 121.214V129.474C91.2664 129.689 91.2524 129.945 91.2244 130.244C91.2057 130.543 91.1871 130.795 91.1684 131H89.9364V121.214H91.2664ZM98.6978 121.214H100.042V131H98.6978V121.214ZM107.352 128.732H108.626C108.551 129.189 108.374 129.6 108.094 129.964C107.814 130.328 107.445 130.617 106.988 130.832C106.531 131.047 105.994 131.154 105.378 131.154C104.65 131.154 104.001 131 103.432 130.692C102.863 130.384 102.415 129.959 102.088 129.418C101.761 128.877 101.598 128.247 101.598 127.528C101.598 126.8 101.757 126.165 102.074 125.624C102.391 125.073 102.83 124.644 103.39 124.336C103.95 124.028 104.589 123.874 105.308 123.874C106.064 123.874 106.699 124.023 107.212 124.322C107.725 124.621 108.103 125.064 108.346 125.652C108.598 126.231 108.701 126.954 108.654 127.822H102.928C102.975 128.242 103.101 128.615 103.306 128.942C103.521 129.269 103.801 129.525 104.146 129.712C104.501 129.899 104.907 129.992 105.364 129.992C105.877 129.992 106.307 129.875 106.652 129.642C106.997 129.409 107.231 129.105 107.352 128.732ZM105.322 125.022C104.715 125.022 104.211 125.185 103.81 125.512C103.409 125.829 103.143 126.254 103.012 126.786H107.31C107.273 126.217 107.067 125.783 106.694 125.484C106.321 125.176 105.863 125.022 105.322 125.022Z" fill="#222222"/>
</g>
<circle opacity="0.25" cx="11.5" cy="154.5" r="11.5" fill="white"/>
<circle opacity="0.5" cx="11.5" cy="154.5" r="8.05" fill="white"/>
<circle cx="11.5" cy="154.5" r="3.45" fill="white"/>
<defs>
<filter id="filter0_d_7_2098" x="-2" y="-4" width="166" height="182" filterUnits="userSpaceOnUse" color-interpolation-filters="sRGB">
<feFlood flood-opacity="0" result="BackgroundImageFix"/>
<feColorMatrix in="SourceAlpha" type="matrix" values="0 0 0 0 0 0 0 0 0 0 0 0 0 0 0 0 0 0 127 0" result="hardAlpha"/>
<feOffset dx="4" dy="4"/>
<feGaussianBlur stdDeviation="5"/>
<feComposite in2="hardAlpha" operator="out"/>
<feColorMatrix type="matrix" values="0 0 0 0 0 0 0 0 0 0 0 0 0 0 0 0 0 0 0.1 0"/>
<feBlend mode="normal" in2="BackgroundImageFix" result="effect1_dropShadow_7_2098"/>
<feBlend mode="normal" in="SourceGraphic" in2="effect1_dropShadow_7_2098" result="shape"/>
</filter>
<linearGradient id="paint0_linear_7_2098" x1="35.0476" y1="6.00001" x2="180.976" y2="30.1087" gradientUnits="userSpaceOnUse">
<stop stop-color="white" stop-opacity="0.6"/>
<stop offset="1" stop-color="white" stop-opacity="0.2"/>
</linearGradient>
<linearGradient id="paint1_linear_7_2098" x1="35.0476" y1="6.00001" x2="180.976" y2="30.1087" gradientUnits="userSpaceOnUse">
<stop stop-color="white" stop-opacity="0.6"/>
<stop offset="1" stop-color="white" stop-opacity="0.2"/>
</linearGradient>
</defs>
</svg>
