<svg width="23" height="16" viewBox="0 0 23 16" fill="none" xmlns="http://www.w3.org/2000/svg">
<path d="M12.1517 0.351766C8.41064 0.140909 4.80127 1.76522 2.47812 4.70513C0.154964 7.64504 -0.590856 11.5322 0.479219 15.1231C0.579237 15.446 0.877621 15.6662 1.2156 15.6667H21.7849C22.1229 15.6661 22.4212 15.4457 22.5209 15.1227C23.5272 11.7516 22.935 8.10538 20.9137 5.22594C18.8923 2.34651 15.6642 0.550724 12.1517 0.351766ZM21.7849 14.9L1.21369 14.9027C0.24449 11.655 0.866154 8.14038 2.89058 5.4222C4.915 2.70403 8.10432 1.10169 11.4935 1.10003C11.698 1.10003 11.9033 1.10565 12.1096 1.1169C15.3873 1.30198 18.4 2.97756 20.2862 5.66461C22.1724 8.35166 22.7246 11.7544 21.7849 14.9Z" fill="#FD3B3B"/>
<path d="M11.5001 1.8667C8.5078 1.86874 5.67455 3.21415 3.78189 5.53179C1.88922 7.84943 1.13714 10.8944 1.73311 13.8267C1.77964 14.0295 1.97952 14.1582 2.18343 14.1166C2.38733 14.0749 2.52077 13.8782 2.48406 13.6734C2.38734 13.1932 2.32901 12.7061 2.30964 12.2167H3.45006C3.66177 12.2167 3.83339 12.0451 3.83339 11.8334C3.83339 11.6217 3.66177 11.45 3.45006 11.45H2.30964C2.36461 10.0958 2.72025 8.77081 3.35078 7.57108L4.33671 8.14033C4.45538 8.2099 4.60223 8.21055 4.72151 8.14204C4.84079 8.07353 4.91421 7.94635 4.91391 7.80879C4.91361 7.67124 4.83962 7.54439 4.72004 7.4764L3.73564 6.90792C4.46322 5.76557 5.43226 4.79652 6.57461 4.06895L7.14309 5.05335C7.21108 5.17293 7.33793 5.24691 7.47549 5.24722C7.61305 5.24752 7.74022 5.17409 7.80873 5.05481C7.87725 4.93553 7.8766 4.78868 7.80703 4.67002L7.23778 3.68408C9.90662 2.28313 13.0935 2.28313 15.7623 3.68408L15.1931 4.67002C15.1235 4.78868 15.1229 4.93553 15.1914 5.05481C15.2599 5.17409 15.3871 5.24752 15.5246 5.24722C15.6622 5.24691 15.789 5.17293 15.857 5.05335L16.4255 4.06895C17.5679 4.79652 18.5369 5.76557 19.2645 6.90792L18.2801 7.4764C18.1605 7.54439 18.0865 7.67124 18.0862 7.80879C18.0859 7.94635 18.1593 8.07353 18.2786 8.14204C18.3979 8.21055 18.5447 8.2099 18.6634 8.14033L19.6493 7.57108C20.2799 8.77081 20.6355 10.0958 20.6905 11.45H19.5501C19.3384 11.45 19.1667 11.6217 19.1667 11.8334C19.1667 12.0451 19.3384 12.2167 19.5501 12.2167H20.6905C20.6711 12.7061 20.6128 13.1932 20.5161 13.6734C20.4741 13.8806 20.6079 14.0826 20.8151 14.1249C20.8403 14.1302 20.866 14.1329 20.8917 14.133C21.0738 14.1328 21.2306 14.0047 21.267 13.8263C21.8628 10.8941 21.1107 7.84921 19.2181 5.53167C17.3254 3.21412 14.4922 1.86876 11.5001 1.8667Z" fill="#FD3B3B"/>
<path d="M12.8312 9.96112L12.2995 4.13446C12.2632 3.7199 11.916 3.40186 11.4999 3.40186C11.0837 3.40186 10.7366 3.7199 10.7002 4.13446L10.1686 9.96112C9.35222 10.5406 9.00445 11.5815 9.30856 12.5353C9.61266 13.4891 10.4988 14.1366 11.4999 14.1366C12.501 14.1366 13.3871 13.4891 13.6912 12.5353C13.9953 11.5815 13.6475 10.5406 12.8312 9.96112ZM11.4638 4.20001C11.4693 4.18485 11.4837 4.17475 11.4999 4.17475C11.516 4.17475 11.5304 4.18485 11.5359 4.20001L12.0281 9.59542C11.6811 9.51054 11.3187 9.51054 10.9716 9.59542L11.4638 4.20001ZM11.4999 13.3667C10.653 13.3667 9.96654 12.6802 9.96654 11.8333C9.96654 10.9865 10.653 10.3 11.4999 10.3C12.3467 10.3 13.0332 10.9865 13.0332 11.8333C13.0332 12.6802 12.3467 13.3667 11.4999 13.3667Z" fill="#FD3B3B"/>
</svg>
