<svg width="106" height="24" viewBox="0 0 106 24" fill="none" xmlns="http://www.w3.org/2000/svg">
<g clip-path="url(#clip0_7_2109)">
<path opacity="0.5" d="M15 12C15.0002 12.3418 14.9798 12.6832 14.9391 13.0222C14.9391 13.0291 14.9376 13.0359 14.9367 13.0428C14.9055 13.3009 14.8626 13.555 14.8081 13.805C14.5579 14.9538 14.073 16.0296 13.3881 16.9555C12.7033 17.8814 11.8352 18.6347 10.846 19.1616C10.3005 19.4525 9.72335 19.6705 9.12773 19.8106L9.10547 19.8159C8.57807 19.9387 8.0398 20.0004 7.5 20C3.35801 20 0 16.4181 0 12C0 7.58187 3.35801 4 7.5 4C11.642 4 15 7.58187 15 12Z" fill="#222222"/>
<path d="M14.9391 13.0222C14.9391 13.0291 14.9376 13.0359 14.9367 13.0428C14.9055 13.3009 14.8626 13.555 14.8081 13.805C14.5579 14.9538 14.073 16.0296 13.3881 16.9555C12.7033 17.8814 11.8352 18.6347 10.846 19.1616C10.3005 19.4525 9.72335 19.6705 9.12773 19.8106L5.00977 16.4062L5.24414 15.1875C6.62109 10.9619 6.73828 7.47844 8.55469 8.15625L9.99023 7.625L14.9391 13.0222Z" fill="#222222"/>
<path d="M7.01367 9.2251V11.1126H9.63867V12.7376H7.01367V14.7751H9.99023V16.4001H5.00977V7.6001H9.99023V9.2251H7.01367Z" fill="white"/>
</g>
<rect x="31" y="9.77271" width="9.33343" height="9.22724" fill="#222222"/>
<rect x="35.6666" y="5" width="9.33343" height="9.22724" fill="#222222"/>
<rect x="35.6666" y="9.77271" width="4.66672" height="4.45453" fill="white"/>
<path fill-rule="evenodd" clip-rule="evenodd" d="M64.2073 5.8492C63.6708 6.22434 63.1856 6.66787 62.7645 7.16715C64.4855 7.00737 66.6719 7.26827 69.2104 8.53751C71.9211 9.89283 74.1039 9.93866 75.623 9.64563C75.4852 9.22829 75.3117 8.82719 75.1061 8.44589C73.3671 8.62931 71.1377 8.38653 68.5396 7.08749C66.8897 6.26257 65.4354 5.92275 64.2073 5.8492ZM74.0903 6.99999C72.717 5.46562 70.7213 4.5 68.5 4.5C67.8477 4.5 67.2148 4.58329 66.6114 4.73981C67.4286 4.96278 68.2967 5.28899 69.2104 5.74585C71.1126 6.69695 72.7549 7.00318 74.0903 6.99999ZM75.9478 11.1105C74.1126 11.4729 71.5783 11.3985 68.5396 9.87914C65.6987 8.45872 63.4377 8.47661 61.9127 8.81549C61.834 8.83297 61.7571 8.85134 61.6821 8.87047C61.4825 9.30468 61.3231 9.76128 61.2088 10.2354C61.3309 10.2028 61.4571 10.1718 61.5873 10.1428C63.4373 9.73173 66.0513 9.74958 69.2104 11.3292C72.0513 12.7496 74.3123 12.7317 75.8373 12.3928C75.8896 12.3812 75.9411 12.3692 75.9917 12.3568C75.9972 12.2386 76 12.1196 76 12C76 11.6991 75.9823 11.4022 75.9478 11.1105ZM75.7468 13.9396C73.9294 14.2573 71.4689 14.1354 68.5396 12.6708C65.6987 11.2504 63.4377 11.2683 61.9127 11.6071C61.5742 11.6823 61.2697 11.7739 61.0011 11.8707C61.0004 11.9137 61 11.9568 61 12C61 16.1421 64.3579 19.5 68.5 19.5C71.9714 19.5 74.892 17.1416 75.7468 13.9396Z" fill="#222222"/>
<path d="M94.4257 15.3927L96.261 14.2904L95.5858 10.6331L94.4257 15.3927Z" fill="#222222"/>
<path d="M99.0072 18.1272L100.843 17.0243L100.168 13.3682L99.0072 18.1272Z" fill="#222222"/>
<path d="M103.605 7.24152L101.313 5.87402L99.4785 6.9763L99.0228 4.50653L96.7317 3.13965L94.4556 4.50653L96.7466 5.87402L97.8775 12.0005L99.0371 7.2409L101.329 8.60901L103.589 20.8614L105.865 19.4946L103.605 7.24152Z" fill="#222222"/>
<path d="M99.037 7.24096L97.8774 12.0006L96.7466 5.87409L94.4555 4.50659L92.1345 14.0253L94.4256 15.3928L95.5858 10.6331L96.7167 16.7596L99.0071 18.1271L100.168 13.3681L101.299 19.4946L103.589 20.8615L101.329 8.60908L99.037 7.24096Z" fill="white"/>
<path d="M103.657 20.9821L105.933 19.6146C105.983 19.5849 106.008 19.5262 105.998 19.4681L103.736 7.215C103.729 7.17544 103.705 7.14082 103.671 7.12041L101.38 5.75292C101.338 5.72819 101.286 5.72819 101.244 5.75292L99.5735 6.7569L99.1531 4.48001C99.1459 4.44045 99.122 4.40583 99.0879 4.38542L96.7974 3.01855C96.7555 2.99382 96.7041 2.99382 96.6623 3.01855L94.3861 4.38604C94.3843 4.38728 94.3831 4.38913 94.3813 4.39037C94.3754 4.39408 94.3706 4.39841 94.3652 4.40335C94.3622 4.40644 94.3586 4.40892 94.3556 4.41262C94.3508 4.41819 94.3467 4.42375 94.3431 4.42993C94.3407 4.43364 94.3383 4.43674 94.3365 4.44045C94.3329 4.44786 94.3299 4.45528 94.3275 4.46332C94.3263 4.46641 94.3251 4.46888 94.3245 4.47197C94.3245 4.47259 94.3239 4.47259 94.3239 4.47321L92.0042 13.9913C91.9892 14.0519 92.0155 14.1149 92.0676 14.1458L94.3592 15.5133C94.3658 15.517 94.373 15.5201 94.3802 15.5226C94.3819 15.5232 94.3837 15.5245 94.3861 15.5251C94.3987 15.5294 94.4112 15.5313 94.4238 15.5313C94.425 15.5313 94.4256 15.5319 94.4268 15.5319C94.4298 15.5319 94.4322 15.5306 94.4352 15.5306C94.4423 15.53 94.4495 15.5294 94.4561 15.5275C94.4603 15.5263 94.4645 15.5251 94.4687 15.5238C94.4722 15.5226 94.4758 15.522 94.4794 15.5207C94.4824 15.5195 94.4848 15.5177 94.4878 15.5158C94.4902 15.5146 94.4926 15.5139 94.4944 15.5127L96.1653 14.5087L96.5857 16.7856C96.5929 16.8252 96.6168 16.8598 96.6509 16.8802L98.9414 18.2471C98.9479 18.2508 98.9551 18.2539 98.9617 18.2564C98.9635 18.257 98.9653 18.2582 98.9677 18.2588C98.9802 18.2632 98.9928 18.265 99.0054 18.265C99.0065 18.265 99.0071 18.2656 99.0083 18.2656C99.0113 18.2656 99.0137 18.265 99.0167 18.2644C99.0239 18.2638 99.0311 18.2632 99.0376 18.2613L99.0502 18.2576C99.0538 18.2564 99.0574 18.2557 99.061 18.2545C99.064 18.2533 99.0664 18.2514 99.0693 18.2496C99.0717 18.2483 99.0741 18.2477 99.0759 18.2465L100.747 17.2425L101.168 19.52C101.175 19.5596 101.199 19.5942 101.233 19.6146L103.524 20.9815C103.525 20.9827 103.527 20.9827 103.529 20.9839C103.531 20.9852 103.532 20.9864 103.535 20.9876C103.54 20.9901 103.544 20.9907 103.549 20.9926C103.552 20.9938 103.556 20.9951 103.559 20.9957C103.569 20.9981 103.58 21 103.59 21C103.603 21 103.616 20.9975 103.628 20.9938C103.632 20.9926 103.636 20.9907 103.64 20.9889C103.645 20.9876 103.651 20.9858 103.657 20.9821ZM96.7322 3.30045L98.9019 4.59562L99.3462 7.00234C99.3546 7.04685 99.3827 7.08394 99.4228 7.10311C99.4628 7.12165 99.5083 7.1198 99.546 7.09692L101.314 6.03483L103.484 7.32999L105.715 19.4235L103.686 20.6427L101.46 8.5825C101.453 8.54293 101.429 8.50831 101.395 8.48791L99.1034 7.12041C99.0939 7.11485 99.0831 7.11052 99.0723 7.10743C99.0687 7.1062 99.0652 7.1062 99.0622 7.10558C99.055 7.10434 99.0472 7.10249 99.04 7.10249C99.0388 7.10249 99.0376 7.10187 99.0364 7.10187C99.0317 7.10187 99.0269 7.10311 99.0215 7.10311C99.0185 7.10372 99.0149 7.10372 99.0119 7.10434C99.0024 7.1062 98.9928 7.10867 98.9838 7.113C98.945 7.12969 98.9162 7.16493 98.9055 7.20697L97.8942 11.3564L96.8775 5.84751C96.8704 5.80794 96.8464 5.77332 96.8124 5.75292L94.7228 4.50598L96.7322 3.30045ZM94.6343 15.1065L95.5678 11.2773L96.1109 14.22L94.6343 15.1065ZM99.2159 17.8409L100.15 14.0117L100.693 16.9538L99.2159 17.8409ZM100.975 16.9983L100.3 13.3415C100.288 13.2772 100.235 13.2303 100.172 13.2284C100.109 13.2265 100.053 13.2704 100.038 13.3335L98.9204 17.9139L96.8375 16.6706L96.3931 14.2639L95.718 10.6065C95.706 10.5422 95.6528 10.4953 95.5894 10.4934C95.5738 10.4934 95.5589 10.4959 95.5445 10.5008C95.5021 10.5157 95.4662 10.5515 95.4548 10.5985L94.3383 15.1795L92.2894 13.9567L94.5422 4.71864L96.6252 5.96188L97.7441 12.026C97.7561 12.0903 97.8093 12.1372 97.8727 12.1391C97.9361 12.1428 97.9917 12.0971 98.0072 12.034L99.1238 7.45302L101.207 8.69687L103.402 20.5889L101.418 19.4056L100.975 16.9983Z" fill="#222222"/>
<defs>
<clipPath id="clip0_7_2109">
<rect width="15" height="16" fill="white" transform="translate(0 4)"/>
</clipPath>
</defs>
</svg>
