<svg width="296" height="46" viewBox="0 0 296 46" fill="none" xmlns="http://www.w3.org/2000/svg">
<path fill-rule="evenodd" clip-rule="evenodd" d="M23.0009 14.1395C27.3994 14.1395 31.3821 15.9224 34.2644 18.8057C37.1468 21.6881 38.9307 25.6708 38.9307 30.0702C38.9307 34.4697 37.1477 38.4514 34.2644 41.3338C31.3811 44.2161 27.3994 45.9991 23.0009 45.9991C18.6024 45.9991 14.6197 44.2161 11.7364 41.3338C8.85403 38.4514 7.07107 34.4687 7.07107 30.0702C7.07107 25.6717 8.85403 21.689 11.7364 18.8057C14.6197 15.9224 18.6024 14.1395 23.0009 14.1395ZM7.82639 5.4188C7.76567 5.22652 7.61663 5.06552 7.40963 4.99928C7.07199 4.89072 6.71043 5.07656 6.60187 5.4142L5.44543 8.99852L1.72495 8.99116C1.51059 8.97552 1.29255 9.06844 1.15731 9.2552C0.94847 9.54316 1.01287 9.9452 1.30083 10.1531L4.35247 12.3611L3.18131 15.9418L3.18315 15.9427C3.12243 16.1313 3.14911 16.3456 3.27423 16.5186C3.48307 16.8047 3.88327 16.8682 4.16939 16.6594L7.21367 14.4385L10.2184 16.6299C10.3831 16.7698 10.614 16.8231 10.8339 16.7514C11.1715 16.6419 11.3564 16.2785 11.246 15.9418L10.0749 12.3611L13.1265 10.1531L13.1256 10.1522C13.2866 10.0354 13.3906 9.84676 13.3906 9.6324C13.3906 9.2782 13.1035 8.99116 12.7493 8.99116L8.98191 8.99852L7.82639 5.4188ZM7.90275 9.83664L7.21275 7.7004L6.52275 9.83664C6.43995 10.0952 6.19799 10.2819 5.91187 10.2819L3.66523 10.2773L5.48499 11.5938C5.70487 11.753 5.80699 12.041 5.71867 12.3133L5.02039 14.4495L6.82543 13.133C7.04531 12.9665 7.35627 12.9545 7.59087 13.1256L9.40603 14.4495L8.71511 12.3372C8.61759 12.0732 8.70223 11.7668 8.94143 11.5938L10.7612 10.2773L8.54491 10.2819C8.26155 10.2957 7.99383 10.1191 7.90275 9.83664ZM39.4008 5.4188C39.3401 5.22652 39.191 5.06552 38.984 4.99928C38.6464 4.89072 38.2848 5.07656 38.1763 5.4142L37.0198 8.99852L33.2994 8.99116C33.085 8.97552 32.8669 9.06844 32.7317 9.2552C32.5229 9.54316 32.5873 9.9452 32.8752 10.1531L35.9269 12.3611L34.7557 15.9418L34.7575 15.9427C34.6968 16.1313 34.7235 16.3456 34.8486 16.5186C35.0575 16.8047 35.4577 16.8682 35.7438 16.6594L38.7881 14.4385L41.7928 16.6299C41.9575 16.7698 42.1884 16.8231 42.4083 16.7514C42.7459 16.6419 42.9308 16.2785 42.8204 15.9418L41.6493 12.3611L44.7009 10.1531L44.7 10.1522C44.861 10.0354 44.965 9.84676 44.965 9.6324C44.965 9.2782 44.6779 8.99116 44.3237 8.99116L40.5563 8.99852L39.4008 5.4188ZM39.4781 9.83664L38.7881 7.7004L38.0981 9.83664C38.0153 10.0952 37.7733 10.2819 37.4872 10.2819L35.2405 10.2773L37.0603 11.5938C37.2802 11.753 37.3823 12.041 37.294 12.3133L36.5957 14.4495L38.4007 13.133C38.6206 12.9665 38.9316 12.9545 39.1662 13.1256L40.9813 14.4495L40.2904 12.3372C40.1929 12.0732 40.2775 11.7668 40.5167 11.5938L42.3365 10.2773L40.1202 10.2819C39.8359 10.2957 39.5682 10.1191 39.4781 9.83664ZM23.6136 0.451724L24.7691 4.03144L28.5365 4.02408C28.8907 4.02408 29.1777 4.31112 29.1777 4.66532C29.1777 4.87876 29.0729 5.06828 28.9128 5.18512L28.9137 5.18604L25.8621 7.39404L27.0332 10.9747C27.1427 11.3123 26.9587 11.6748 26.6211 11.7843C26.4012 11.856 26.1703 11.8018 26.0056 11.6628L23.0009 9.4714L19.9566 11.6923C19.6705 11.9011 19.2694 11.8376 19.0614 11.5515C18.9354 11.3786 18.9087 11.1642 18.9704 10.9756L18.9685 10.9747L20.1397 7.39404L17.088 5.18604C16.8001 4.9772 16.7366 4.57516 16.9445 4.28812C17.0798 4.10136 17.2978 4.00844 17.5121 4.02408L21.2326 4.03144L22.39 0.447124C22.4986 0.109484 22.8601 -0.0763561 23.1978 0.0322039C23.4038 0.0984439 23.5529 0.259444 23.6136 0.451724ZM23.6909 4.86956L23.0009 2.73332L22.3109 4.86956C22.2281 5.12808 21.9861 5.31484 21.7 5.31484L19.4543 5.31024L21.274 6.62676C21.4939 6.78592 21.596 7.07388 21.5077 7.3462L20.8094 9.48244L22.6145 8.16592C22.8344 7.9994 23.1453 7.98744 23.3799 8.15856L25.1951 9.48244L24.5042 7.37012C24.4066 7.10608 24.4913 6.79972 24.7305 6.62676L26.5502 5.31024L24.334 5.31484C24.0487 5.32772 23.781 5.152 23.6909 4.86956ZM19.4754 27.4418L19.4883 35.7816H27.8649C28.1446 35.7816 28.4003 35.6877 28.5972 35.5267C28.795 35.3648 28.9385 35.1348 28.9947 34.8625L30.2394 28.8006C30.2762 28.6221 30.2744 28.451 30.2348 28.2918C30.1953 28.1327 30.118 27.98 30.0021 27.8383C29.888 27.6975 29.7546 27.5917 29.6074 27.5218C29.4611 27.4519 29.2937 27.4169 29.1087 27.4169H24.7093C24.3533 27.4169 24.0653 27.129 24.0653 26.7729C24.0653 26.68 24.0846 26.5926 24.1205 26.5126L24.2604 26.1151C24.9577 24.1298 25.3276 23.0764 24.3579 22.1757C24.2604 22.0846 24.1536 22.0239 24.0432 21.9935C23.9328 21.9632 23.8086 21.9613 23.6771 21.9898C23.5455 22.0184 23.4333 22.0708 23.3459 22.1435C23.2575 22.2171 23.1858 22.3164 23.1352 22.4397L21.4065 26.5779C21.0588 27.4096 20.2225 27.4684 19.4754 27.4418ZM18.2058 36.3372L18.1911 26.8327C18.0651 26.1556 16.9243 25.9992 16.9243 27.1924V36.0695C16.9243 37.1468 17.9179 37.3189 18.2058 36.3372ZM27.8649 37.0696C28.4464 37.0696 28.9836 36.8681 29.4077 36.5231C29.83 36.1781 30.1355 35.6914 30.2532 35.1201L31.498 29.0582C31.5734 28.6902 31.5679 28.3296 31.4833 27.9855C31.3986 27.6423 31.2367 27.3203 30.9993 27.0287C30.7611 26.7361 30.4777 26.5126 30.1566 26.3598C29.8356 26.2071 29.4832 26.1289 29.1097 26.1289H25.6164C26.3975 23.886 26.7305 22.6246 25.2337 21.2345C24.9844 21.0027 24.6946 20.8417 24.3809 20.7552C24.0672 20.6687 23.7369 20.6595 23.4057 20.7313C23.0736 20.803 22.7773 20.9484 22.5262 21.1572C22.2759 21.3652 22.079 21.632 21.9475 21.9466L20.2188 26.0848C20.1765 26.1869 19.7137 26.1694 19.3163 26.1492C18.5104 24.3423 15.6354 24.7296 15.6354 27.1934V36.0704C15.6354 38.4523 18.3705 39.0752 19.2988 37.0696H27.8649ZM23.0009 16.8277C19.3448 16.8277 16.0337 18.3098 13.638 20.7064C11.2414 23.103 9.75931 26.4132 9.75931 30.0693C9.75931 33.7254 11.2414 37.0364 13.638 39.4321C16.0346 41.8287 19.3448 43.3108 23.0009 43.3108C26.6569 43.3108 29.968 41.8287 32.3637 39.4321C34.7603 37.0355 36.2424 33.7254 36.2424 30.0693C36.2424 26.4132 34.7603 23.1021 32.3637 20.7064C29.968 18.3098 26.6569 16.8277 23.0009 16.8277ZM31.4529 21.6172C29.29 19.4543 26.3018 18.1157 23.0009 18.1157C19.6999 18.1157 16.7118 19.4534 14.5479 21.6172C12.385 23.7802 11.0464 26.7683 11.0464 30.0693C11.0464 33.3702 12.3841 36.3584 14.5479 38.5222C16.7108 40.6852 19.6999 42.0238 23.0009 42.0238C26.3018 42.0238 29.29 40.6861 31.4529 38.5222C33.6158 36.3593 34.9544 33.3702 34.9544 30.0693C34.9544 26.7683 33.6167 23.7802 31.4529 21.6172ZM33.3545 19.7156C30.7049 17.066 27.0443 15.4275 23.0009 15.4275C18.9575 15.4275 15.2968 17.066 12.6472 19.7156C9.99759 22.3652 8.35907 26.0259 8.35907 30.0693C8.35907 34.1127 9.99759 37.7734 12.6472 40.423C15.2968 43.0726 18.9575 44.7111 23.0009 44.7111C27.0443 44.7111 30.7049 43.0726 33.3545 40.423C36.0041 37.7734 37.6427 34.1127 37.6427 30.0693C37.6427 26.0259 36.0041 22.3652 33.3545 19.7156Z" fill="#222222"/>
<path d="M87.8366 29.468H90.9566V35.3H87.8366V29.468ZM89.3966 30.812C87.3326 30.812 85.5646 30.492 84.0926 29.852C82.6366 29.196 81.5166 28.268 80.7326 27.068C79.9646 25.868 79.5806 24.428 79.5806 22.748C79.5806 21.052 79.9646 19.604 80.7326 18.404C81.5166 17.204 82.6366 16.284 84.0926 15.644C85.5646 14.988 87.3326 14.66 89.3966 14.66C91.4766 14.66 93.2446 14.988 94.7006 15.644C96.1566 16.284 97.2686 17.204 98.0366 18.404C98.8206 19.604 99.2126 21.052 99.2126 22.748C99.2126 24.428 98.8206 25.868 98.0366 27.068C97.2686 28.268 96.1566 29.196 94.7006 29.852C93.2446 30.492 91.4766 30.812 89.3966 30.812ZM89.3966 28.052C90.6766 28.052 91.7966 27.86 92.7566 27.476C93.7326 27.092 94.4926 26.508 95.0366 25.724C95.5966 24.94 95.8766 23.948 95.8766 22.748C95.8766 21.548 95.5966 20.556 95.0366 19.772C94.4926 18.988 93.7326 18.404 92.7566 18.02C91.7966 17.62 90.6766 17.42 89.3966 17.42C88.1326 17.42 87.0046 17.62 86.0126 18.02C85.0206 18.404 84.2446 18.988 83.6846 19.772C83.1246 20.556 82.8446 21.548 82.8446 22.748C82.8446 23.948 83.1246 24.94 83.6846 25.724C84.2446 26.508 85.0206 27.092 86.0126 27.476C87.0046 27.86 88.1326 28.052 89.3966 28.052ZM115.72 30.5H112.6V18.572H115.72V30.5ZM112.768 24.764L112.792 25.58C112.76 25.804 112.68 26.132 112.552 26.564C112.424 26.98 112.224 27.428 111.952 27.908C111.696 28.388 111.36 28.852 110.944 29.3C110.528 29.732 110.016 30.092 109.408 30.38C108.8 30.652 108.08 30.788 107.248 30.788C106.592 30.788 105.944 30.708 105.304 30.548C104.68 30.388 104.112 30.124 103.6 29.756C103.088 29.372 102.68 28.86 102.376 28.22C102.072 27.58 101.92 26.772 101.92 25.796V18.572H105.04V25.268C105.04 26.036 105.16 26.644 105.4 27.092C105.656 27.524 106.024 27.828 106.504 28.004C106.984 28.18 107.552 28.268 108.208 28.268C109.072 28.268 109.816 28.084 110.44 27.716C111.064 27.332 111.568 26.868 111.952 26.324C112.352 25.78 112.624 25.26 112.768 24.764ZM124.369 30.764C123.185 30.764 122.105 30.508 121.129 29.996C120.169 29.468 119.401 28.74 118.825 27.812C118.265 26.868 117.985 25.78 117.985 24.548C117.985 23.284 118.273 22.188 118.849 21.26C119.425 20.332 120.201 19.612 121.177 19.1C122.169 18.572 123.289 18.308 124.537 18.308C125.913 18.308 127.017 18.588 127.849 19.148C128.697 19.692 129.313 20.436 129.697 21.38C130.081 22.324 130.273 23.38 130.273 24.548C130.273 25.252 130.161 25.972 129.937 26.708C129.713 27.428 129.369 28.1 128.905 28.724C128.441 29.332 127.833 29.828 127.081 30.212C126.329 30.58 125.425 30.764 124.369 30.764ZM125.377 28.364C126.321 28.364 127.137 28.204 127.825 27.884C128.513 27.564 129.041 27.116 129.409 26.54C129.777 25.964 129.961 25.3 129.961 24.548C129.961 23.732 129.769 23.044 129.385 22.484C129.017 21.908 128.489 21.476 127.801 21.188C127.129 20.884 126.321 20.732 125.377 20.732C124.049 20.732 123.017 21.084 122.281 21.788C121.545 22.476 121.177 23.396 121.177 24.548C121.177 25.316 121.353 25.988 121.705 26.564C122.057 27.124 122.545 27.564 123.169 27.884C123.809 28.204 124.545 28.364 125.377 28.364ZM129.961 18.572H133.081V30.5H130.177C130.177 30.5 130.153 30.348 130.105 30.044C130.073 29.724 130.041 29.324 130.009 28.844C129.977 28.364 129.961 27.892 129.961 27.428V18.572ZM136.145 13.772H139.265V30.5H136.145V13.772ZM145.996 13.34V16.076H142.372V13.34H145.996ZM142.612 18.572H145.732V30.5H142.612V18.572ZM148.002 18.572H157.266V20.996H148.002V18.572ZM151.074 15.308H154.194V30.5H151.074V15.308ZM158.169 18.572H161.481L166.641 30.02L163.953 30.5L158.169 18.572ZM172.761 18.572L164.505 35.3H161.265L164.793 28.724L169.425 18.572H172.761ZM185.238 30.764C184.502 30.764 183.798 30.668 183.126 30.476C182.47 30.284 181.894 30.012 181.398 29.66C180.902 29.308 180.51 28.884 180.222 28.388C179.934 27.876 179.79 27.308 179.79 26.684C179.79 25.916 179.974 25.268 180.342 24.74C180.71 24.196 181.214 23.756 181.854 23.42C182.51 23.084 183.262 22.836 184.11 22.676C184.958 22.5 185.862 22.396 186.822 22.364L186.918 22.508C186.006 22.476 185.15 22.404 184.35 22.292C183.566 22.164 182.878 21.964 182.286 21.692C181.71 21.42 181.254 21.068 180.918 20.636C180.598 20.188 180.438 19.628 180.438 18.956C180.438 18.092 180.71 17.34 181.254 16.7C181.798 16.044 182.582 15.54 183.606 15.188C184.63 14.836 185.846 14.66 187.254 14.66C188.23 14.66 189.118 14.756 189.918 14.948C190.734 15.14 191.43 15.436 192.006 15.836C192.598 16.22 193.054 16.708 193.374 17.3C193.694 17.876 193.854 18.556 193.854 19.34H190.926C190.91 18.684 190.574 18.188 189.918 17.852C189.278 17.5 188.406 17.324 187.302 17.324C186.118 17.324 185.222 17.516 184.614 17.9C184.006 18.268 183.702 18.78 183.702 19.436C183.702 19.9 183.846 20.3 184.134 20.636C184.422 20.972 184.862 21.228 185.454 21.404C186.062 21.58 186.822 21.668 187.734 21.668H197.07V23.468H194.046V30.5H191.142C191.078 30.036 191.03 29.58 190.998 29.132C190.966 28.668 190.942 28.156 190.926 27.596C190.926 27.02 190.926 26.332 190.926 25.532L191.142 26.18C191.014 26.724 190.814 27.268 190.542 27.812C190.286 28.356 189.926 28.852 189.462 29.3C189.014 29.748 188.438 30.108 187.734 30.38C187.046 30.636 186.214 30.764 185.238 30.764ZM186.558 28.364C187.534 28.364 188.342 28.196 188.982 27.86C189.622 27.508 190.102 27.06 190.422 26.516C190.758 25.956 190.926 25.38 190.926 24.788V23.468H187.734C186.342 23.468 185.222 23.676 184.374 24.092C183.526 24.492 183.102 25.132 183.102 26.012C183.102 26.7 183.398 27.268 183.99 27.716C184.582 28.148 185.438 28.364 186.558 28.364ZM210.762 30.5L203.898 14.972H207.426L213.306 28.988H212.202L218.058 14.972H221.538L214.746 30.5H210.762ZM227.705 30.764C226.521 30.764 225.441 30.508 224.465 29.996C223.505 29.468 222.737 28.74 222.161 27.812C221.601 26.868 221.321 25.78 221.321 24.548C221.321 23.284 221.609 22.188 222.185 21.26C222.761 20.332 223.537 19.612 224.513 19.1C225.505 18.572 226.625 18.308 227.873 18.308C229.249 18.308 230.353 18.588 231.185 19.148C232.033 19.692 232.649 20.436 233.033 21.38C233.417 22.324 233.609 23.38 233.609 24.548C233.609 25.252 233.497 25.972 233.273 26.708C233.049 27.428 232.705 28.1 232.241 28.724C231.777 29.332 231.169 29.828 230.417 30.212C229.665 30.58 228.761 30.764 227.705 30.764ZM228.713 28.364C229.657 28.364 230.473 28.204 231.161 27.884C231.849 27.564 232.377 27.116 232.745 26.54C233.113 25.964 233.297 25.3 233.297 24.548C233.297 23.732 233.105 23.044 232.721 22.484C232.353 21.908 231.825 21.476 231.137 21.188C230.465 20.884 229.657 20.732 228.713 20.732C227.385 20.732 226.353 21.084 225.617 21.788C224.881 22.476 224.513 23.396 224.513 24.548C224.513 25.316 224.689 25.988 225.041 26.564C225.393 27.124 225.881 27.564 226.505 27.884C227.145 28.204 227.881 28.364 228.713 28.364ZM233.297 18.572H236.417V30.5H233.513C233.513 30.5 233.489 30.348 233.441 30.044C233.409 29.724 233.377 29.324 233.345 28.844C233.313 28.364 233.297 27.892 233.297 27.428V18.572ZM239.241 18.572H242.361V30.5H239.241V18.572ZM246.945 21.14C246.049 21.14 245.273 21.316 244.617 21.668C243.961 22.004 243.433 22.42 243.033 22.916C242.633 23.412 242.353 23.892 242.193 24.356L242.169 23.036C242.185 22.844 242.249 22.564 242.361 22.196C242.473 21.812 242.641 21.404 242.865 20.972C243.089 20.524 243.385 20.1 243.753 19.7C244.121 19.284 244.569 18.948 245.097 18.692C245.625 18.436 246.241 18.308 246.945 18.308V21.14ZM252.45 13.34V16.076H248.826V13.34H252.45ZM249.066 18.572H252.186V30.5H249.066V18.572ZM266.167 26.54H269.191C269.063 27.356 268.719 28.084 268.159 28.724C267.615 29.364 266.871 29.868 265.927 30.236C264.983 30.604 263.831 30.788 262.471 30.788C260.951 30.788 259.607 30.548 258.439 30.068C257.271 29.572 256.359 28.86 255.703 27.932C255.047 27.004 254.719 25.884 254.719 24.572C254.719 23.26 255.039 22.14 255.679 21.212C256.319 20.268 257.207 19.548 258.343 19.052C259.495 18.556 260.839 18.308 262.375 18.308C263.943 18.308 265.247 18.556 266.287 19.052C267.327 19.548 268.095 20.3 268.591 21.308C269.103 22.3 269.319 23.572 269.239 25.124H257.863C257.943 25.732 258.167 26.284 258.535 26.78C258.919 27.276 259.431 27.668 260.071 27.956C260.727 28.244 261.503 28.388 262.399 28.388C263.391 28.388 264.215 28.22 264.871 27.884C265.543 27.532 265.975 27.084 266.167 26.54ZM262.231 20.684C261.079 20.684 260.143 20.94 259.423 21.452C258.703 21.948 258.239 22.564 258.031 23.3H266.143C266.063 22.5 265.679 21.868 264.991 21.404C264.319 20.924 263.399 20.684 262.231 20.684ZM270.557 18.572H279.821V20.996H270.557V18.572ZM273.629 15.308H276.749V30.5H273.629V15.308ZM280.723 18.572H284.035L289.195 30.02L286.507 30.5L280.723 18.572ZM295.315 18.572L287.059 35.3H283.819L287.347 28.724L291.979 18.572H295.315Z" fill="#222222"/>
</svg>
