<svg width="255" height="46" viewBox="0 0 255 46" fill="none" xmlns="http://www.w3.org/2000/svg">
<path d="M17.6787 6.62369C17.8542 6.79915 18.0841 6.88684 18.314 6.88684C18.5439 6.88684 18.7739 6.79915 18.9493 6.62369C19.3002 6.27285 19.3002 5.70396 18.9493 5.35303L16.9149 3.3186C16.5641 2.96785 15.9952 2.96785 15.6442 3.3186C15.2934 3.66944 15.2934 4.23834 15.6442 4.58926L17.6787 6.62369Z" fill="#222222"/>
<path d="M26.7874 6.88672C27.0173 6.88672 27.2473 6.79903 27.4227 6.62356L29.4571 4.58914C29.808 4.2383 29.808 3.66941 29.4571 3.31848C29.1063 2.96773 28.5374 2.96773 28.1865 3.31848L26.152 5.3529C25.8012 5.70374 25.8012 6.27263 26.152 6.62356C26.3275 6.79903 26.5575 6.88672 26.7874 6.88672Z" fill="#222222"/>
<path d="M22.5508 4.67394C23.047 4.67394 23.4492 4.27171 23.4492 3.7755V0.898438C23.4492 0.402231 23.047 0 22.5508 0C22.0546 0 21.6523 0.402231 21.6523 0.898438V3.7755C21.6523 4.27171 22.0546 4.67394 22.5508 4.67394Z" fill="#222222"/>
<path d="M38.5045 24.7432C38.1322 24.371 37.6851 24.1009 37.1972 23.9471C37.5551 23.4183 37.747 22.7958 37.746 22.1448C37.746 21.283 37.4106 20.473 36.8017 19.864C36.3605 19.4228 35.8142 19.1252 35.2194 18.9945C35.344 18.6481 35.4086 18.2793 35.408 17.9009C35.408 17.0391 35.0726 16.2291 34.4637 15.62C34.1074 15.2638 33.6826 15.0011 33.219 14.8443L36.932 11.1313C37.5422 10.521 37.8776 9.71063 37.8763 8.85055C37.8763 7.97341 37.5308 7.15331 36.9032 6.54121C35.6458 5.3152 33.5931 5.34718 32.3276 6.61254L22.517 16.4231C22.4425 15.9638 22.368 15.5046 22.2933 15.0451C22.0137 13.3225 21.0928 11.7961 19.6993 10.7463C18.8504 10.1083 17.6883 10.1908 16.9363 10.9427C16.5866 11.2925 16.3718 11.761 16.3313 12.2625L15.6377 20.9284C15.5043 22.5927 14.7807 24.1594 13.6001 25.34L12.9041 26.036L12.7163 25.8481C12.3654 25.4973 11.7966 25.4973 11.4457 25.8481L6.81418 30.4795C6.64572 30.6481 6.55103 30.8766 6.55103 31.1148C6.55103 31.3531 6.64572 31.5816 6.81418 31.7501L10.9488 35.8847C11.2996 36.2355 11.8685 36.2355 12.2194 35.8847C12.5703 35.5339 12.5703 34.965 12.2194 34.6141L8.72012 31.1148L12.0812 27.7539L24.7973 40.47L21.4363 43.8309L17.9371 40.3316C17.5863 39.9808 17.0174 39.9808 16.6664 40.3316C16.3156 40.6825 16.3156 41.2514 16.6664 41.6023L20.8011 45.7369C20.9765 45.9123 21.2064 46 21.4363 46C21.6662 46 21.8962 45.9123 22.0716 45.7369L26.7032 41.1054C27.054 40.7545 27.054 40.1856 26.7032 39.8347L26.5211 39.6527C26.7939 39.4051 27.0898 39.1831 27.406 38.9934L29.2872 37.8652C30.3749 37.2132 31.3816 36.4276 32.2793 35.5299L38.5046 29.3047C39.1148 28.6944 39.4501 27.884 39.4489 27.0239C39.4488 26.1622 39.1135 25.3522 38.5045 24.7432ZM37.2339 28.0342L31.0086 34.2594C30.2151 35.0531 29.325 35.7478 28.3632 36.3243L26.4819 37.4526C26.0397 37.7178 25.6261 38.0295 25.2486 38.3802L14.1749 27.3064L14.8708 26.6105C16.353 25.1284 17.2615 23.1613 17.429 21.0718L18.1226 12.4062C18.1289 12.328 18.1574 12.263 18.2071 12.2133C18.2744 12.146 18.4473 12.0529 18.619 12.182C19.6397 12.9511 20.3147 14.0701 20.5198 15.3332C20.6884 16.3706 20.8562 17.4071 21.024 18.4435C21.078 18.7765 21.3138 19.0512 21.6348 19.1548C21.9557 19.2586 22.3077 19.1737 22.5463 18.9352L33.5981 7.8832C34.1718 7.30955 35.0917 7.28467 35.6487 7.82768C35.9264 8.09865 36.0794 8.46198 36.0794 8.8519C36.08 9.2323 35.9315 9.59068 35.6614 9.86075C33.7697 11.7523 28.8944 16.6276 27.0687 18.4534C26.7179 18.8043 26.7179 19.3731 27.0687 19.724C27.2442 19.8994 27.4741 19.9871 27.704 19.9871C27.9339 19.9871 28.1639 19.8994 28.3393 19.724L31.1726 16.8906C31.7296 16.3337 32.6361 16.3335 33.193 16.8907C33.4626 17.1603 33.6112 17.519 33.6112 17.9021C33.6117 18.2826 33.4632 18.6409 33.193 18.9111C32.59 19.514 30.9828 21.1213 30.3596 21.7444C30.0088 22.0952 30.0088 22.6641 30.3596 23.015C30.5351 23.1905 30.765 23.2782 30.9949 23.2782C31.2248 23.2782 31.4548 23.1905 31.6302 23.015L33.5106 21.1346C33.7806 20.8646 34.1393 20.7159 34.5208 20.7159C34.9023 20.7159 35.261 20.8645 35.531 21.1346C35.8006 21.4042 35.9492 21.763 35.9492 22.1461C35.9497 22.5266 35.8012 22.8849 35.531 23.1549C35.322 23.364 33.817 24.869 33.6506 25.0354C33.2998 25.3862 33.2998 25.9551 33.6506 26.306C33.8261 26.4815 34.056 26.5692 34.2859 26.5692C34.5158 26.5692 34.7458 26.4815 34.9212 26.306L35.2133 26.0139C35.4833 25.7439 35.8422 25.5951 36.2235 25.5951C36.605 25.5951 36.9638 25.7438 37.2337 26.0139C37.5034 26.2834 37.6519 26.6422 37.6519 27.0253C37.6525 27.4057 37.504 27.764 37.2339 28.0342Z" fill="#222222"/>
<path d="M14.4429 39.0066C14.9391 39.0066 15.3413 38.6043 15.3413 38.1082C15.3413 37.612 14.9391 37.2097 14.4429 37.2097C13.9467 37.2097 13.5444 37.612 13.5444 38.1082C13.5444 38.6043 13.9467 39.0066 14.4429 39.0066Z" fill="#222222"/>
<path d="M83.0517 24.02V27.836H95.0277V30.5H79.8597V14.972H95.0037V17.636H83.0517V21.5H92.8437V24.02H83.0517ZM103.4 30.764C102.216 30.764 101.136 30.508 100.16 29.996C99.2003 29.468 98.4323 28.74 97.8563 27.812C97.2963 26.868 97.0163 25.78 97.0163 24.548C97.0163 23.284 97.3043 22.188 97.8803 21.26C98.4563 20.332 99.2323 19.612 100.208 19.1C101.2 18.572 102.32 18.308 103.568 18.308C104.944 18.308 106.048 18.588 106.88 19.148C107.728 19.692 108.344 20.436 108.728 21.38C109.112 22.324 109.304 23.38 109.304 24.548C109.304 25.252 109.192 25.972 108.968 26.708C108.744 27.428 108.4 28.1 107.936 28.724C107.472 29.332 106.864 29.828 106.112 30.212C105.36 30.58 104.456 30.764 103.4 30.764ZM104.408 28.364C105.352 28.364 106.168 28.204 106.856 27.884C107.544 27.564 108.072 27.116 108.44 26.54C108.808 25.964 108.992 25.3 108.992 24.548C108.992 23.732 108.8 23.044 108.416 22.484C108.048 21.908 107.52 21.476 106.832 21.188C106.16 20.884 105.352 20.732 104.408 20.732C103.08 20.732 102.048 21.084 101.312 21.788C100.576 22.476 100.208 23.396 100.208 24.548C100.208 25.316 100.384 25.988 100.736 26.564C101.088 27.124 101.576 27.564 102.2 27.884C102.84 28.204 103.576 28.364 104.408 28.364ZM108.992 18.572H112.112V30.5H109.208C109.208 30.5 109.184 30.348 109.136 30.044C109.104 29.724 109.072 29.324 109.04 28.844C109.008 28.364 108.992 27.892 108.992 27.428V18.572ZM114.456 26.54H117.336C117.512 27.084 117.872 27.532 118.416 27.884C118.976 28.22 119.704 28.388 120.6 28.388C121.208 28.388 121.68 28.332 122.016 28.22C122.352 28.108 122.584 27.948 122.712 27.74C122.84 27.516 122.904 27.268 122.904 26.996C122.904 26.66 122.8 26.404 122.592 26.228C122.384 26.036 122.064 25.884 121.632 25.772C121.2 25.66 120.648 25.556 119.976 25.46C119.304 25.348 118.656 25.212 118.032 25.052C117.408 24.892 116.856 24.684 116.376 24.428C115.896 24.156 115.512 23.82 115.224 23.42C114.952 23.004 114.816 22.5 114.816 21.908C114.816 21.332 114.952 20.82 115.224 20.372C115.512 19.924 115.904 19.548 116.4 19.244C116.912 18.94 117.504 18.708 118.176 18.548C118.864 18.388 119.6 18.308 120.384 18.308C121.568 18.308 122.552 18.484 123.336 18.836C124.12 19.172 124.704 19.652 125.088 20.276C125.488 20.884 125.688 21.588 125.688 22.388H122.928C122.8 21.796 122.544 21.372 122.16 21.116C121.776 20.844 121.184 20.708 120.384 20.708C119.6 20.708 119.008 20.828 118.608 21.068C118.208 21.308 118.008 21.636 118.008 22.052C118.008 22.388 118.128 22.652 118.368 22.844C118.624 23.02 118.992 23.164 119.472 23.276C119.968 23.388 120.584 23.508 121.32 23.636C121.944 23.764 122.536 23.908 123.096 24.068C123.672 24.228 124.184 24.436 124.632 24.692C125.08 24.932 125.432 25.26 125.688 25.676C125.96 26.076 126.096 26.588 126.096 27.212C126.096 27.98 125.872 28.628 125.424 29.156C124.992 29.684 124.368 30.092 123.552 30.38C122.736 30.652 121.76 30.788 120.624 30.788C119.616 30.788 118.744 30.684 118.008 30.476C117.288 30.252 116.688 29.972 116.208 29.636C115.728 29.284 115.352 28.916 115.08 28.532C114.824 28.132 114.648 27.756 114.552 27.404C114.456 27.052 114.424 26.764 114.456 26.54ZM126.958 18.572H130.27L135.43 30.02L132.742 30.5L126.958 18.572ZM141.55 18.572L133.294 35.3H130.054L133.582 28.724L138.214 18.572H141.55ZM149.563 30.5V14.972H158.515C160.595 14.972 162.171 15.324 163.243 16.028C164.331 16.716 164.875 17.748 164.875 19.124C164.875 20.004 164.659 20.7 164.227 21.212C163.795 21.708 163.179 22.076 162.379 22.316C161.595 22.556 160.667 22.708 159.595 22.772L159.691 22.604C160.475 22.62 161.211 22.676 161.899 22.772C162.603 22.868 163.219 23.044 163.747 23.3C164.275 23.556 164.691 23.916 164.995 24.38C165.299 24.828 165.451 25.42 165.451 26.156C165.451 27.116 165.195 27.916 164.683 28.556C164.171 29.18 163.459 29.652 162.547 29.972C161.635 30.292 160.579 30.468 159.379 30.5H149.563ZM152.755 27.86H159.043C160.051 27.86 160.827 27.7 161.371 27.38C161.915 27.044 162.187 26.516 162.187 25.796C162.187 25.268 162.027 24.884 161.707 24.644C161.387 24.404 160.963 24.26 160.435 24.212C159.907 24.148 159.339 24.116 158.731 24.116H152.755V27.86ZM152.755 21.548H158.395C159.403 21.548 160.179 21.404 160.723 21.116C161.267 20.812 161.539 20.3 161.539 19.58C161.539 18.86 161.267 18.356 160.723 18.068C160.179 17.764 159.459 17.612 158.563 17.612H152.755V21.548ZM174.913 30.788C173.409 30.788 172.081 30.548 170.929 30.068C169.793 29.588 168.905 28.892 168.265 27.98C167.625 27.052 167.305 25.916 167.305 24.572C167.305 23.228 167.625 22.092 168.265 21.164C168.905 20.22 169.793 19.508 170.929 19.028C172.081 18.548 173.409 18.308 174.913 18.308C176.417 18.308 177.729 18.548 178.849 19.028C179.985 19.508 180.873 20.22 181.513 21.164C182.153 22.092 182.473 23.228 182.473 24.572C182.473 25.916 182.153 27.052 181.513 27.98C180.873 28.892 179.985 29.588 178.849 30.068C177.729 30.548 176.417 30.788 174.913 30.788ZM174.913 28.388C175.745 28.388 176.489 28.244 177.145 27.956C177.817 27.652 178.345 27.22 178.729 26.66C179.113 26.084 179.305 25.388 179.305 24.572C179.305 23.756 179.113 23.06 178.729 22.484C178.345 21.892 177.825 21.444 177.169 21.14C176.513 20.836 175.761 20.684 174.913 20.684C174.081 20.684 173.329 20.836 172.657 21.14C171.985 21.444 171.449 21.884 171.049 22.46C170.665 23.036 170.473 23.74 170.473 24.572C170.473 25.388 170.665 26.084 171.049 26.66C171.433 27.22 171.961 27.652 172.633 27.956C173.305 28.244 174.065 28.388 174.913 28.388ZM191.812 30.788C190.308 30.788 188.98 30.548 187.828 30.068C186.692 29.588 185.804 28.892 185.164 27.98C184.524 27.052 184.204 25.916 184.204 24.572C184.204 23.228 184.524 22.092 185.164 21.164C185.804 20.22 186.692 19.508 187.828 19.028C188.98 18.548 190.308 18.308 191.812 18.308C193.316 18.308 194.628 18.548 195.748 19.028C196.884 19.508 197.772 20.22 198.412 21.164C199.052 22.092 199.372 23.228 199.372 24.572C199.372 25.916 199.052 27.052 198.412 27.98C197.772 28.892 196.884 29.588 195.748 30.068C194.628 30.548 193.316 30.788 191.812 30.788ZM191.812 28.388C192.644 28.388 193.388 28.244 194.044 27.956C194.716 27.652 195.244 27.22 195.628 26.66C196.012 26.084 196.204 25.388 196.204 24.572C196.204 23.756 196.012 23.06 195.628 22.484C195.244 21.892 194.724 21.444 194.068 21.14C193.412 20.836 192.66 20.684 191.812 20.684C190.98 20.684 190.228 20.836 189.556 21.14C188.884 21.444 188.348 21.884 187.948 22.46C187.564 23.036 187.372 23.74 187.372 24.572C187.372 25.388 187.564 26.084 187.948 26.66C188.332 27.22 188.86 27.652 189.532 27.956C190.204 28.244 190.964 28.388 191.812 28.388ZM201.894 13.772H205.014V30.5H201.894V13.772ZM215.07 18.572L207.966 24.836L208.038 22.916L215.622 30.5H211.662L205.086 23.804L210.822 18.572H215.07ZM220.84 13.34V16.076H217.216V13.34H220.84ZM217.456 18.572H220.576V30.5H217.456V18.572ZM223.686 18.572H226.806V30.5H223.686V18.572ZM232.35 18.308C233.086 18.308 233.766 18.404 234.39 18.596C235.014 18.788 235.558 19.084 236.022 19.484C236.486 19.884 236.846 20.396 237.102 21.02C237.358 21.628 237.486 22.356 237.486 23.204V30.5H234.366V23.756C234.366 22.748 234.118 22.012 233.622 21.548C233.142 21.068 232.35 20.828 231.246 20.828C230.414 20.828 229.662 20.988 228.99 21.308C228.318 21.628 227.774 22.036 227.358 22.532C226.942 23.012 226.702 23.516 226.638 24.044L226.614 22.82C226.694 22.26 226.878 21.716 227.166 21.188C227.454 20.66 227.838 20.18 228.318 19.748C228.814 19.3 229.398 18.948 230.07 18.692C230.742 18.436 231.502 18.308 232.35 18.308ZM246.279 28.676C244.983 28.676 243.839 28.484 242.847 28.1C241.871 27.7 241.111 27.116 240.567 26.348C240.023 25.58 239.751 24.652 239.751 23.564C239.751 22.492 240.015 21.564 240.543 20.78C241.071 19.996 241.823 19.388 242.799 18.956C243.791 18.524 244.951 18.308 246.279 18.308C246.647 18.308 246.999 18.332 247.335 18.38C247.687 18.428 248.031 18.492 248.367 18.572L254.391 18.596V20.948C253.575 20.964 252.743 20.868 251.895 20.66C251.063 20.436 250.327 20.196 249.687 19.94L249.615 19.772C250.159 20.028 250.671 20.348 251.151 20.732C251.631 21.1 252.015 21.532 252.303 22.028C252.607 22.508 252.759 23.068 252.759 23.708C252.759 24.748 252.495 25.644 251.967 26.396C251.439 27.132 250.687 27.7 249.711 28.1C248.751 28.484 247.607 28.676 246.279 28.676ZM250.287 35.42V34.844C250.287 34.108 250.047 33.596 249.567 33.308C249.103 33.02 248.463 32.876 247.647 32.876H243.927C243.207 32.876 242.599 32.82 242.103 32.708C241.623 32.596 241.239 32.436 240.951 32.228C240.663 32.02 240.455 31.772 240.327 31.484C240.199 31.212 240.135 30.916 240.135 30.596C240.135 29.956 240.343 29.476 240.759 29.156C241.175 28.82 241.735 28.596 242.439 28.484C243.143 28.372 243.919 28.348 244.767 28.412L246.279 28.676C245.271 28.708 244.519 28.796 244.023 28.94C243.543 29.068 243.303 29.332 243.303 29.732C243.303 29.972 243.399 30.164 243.591 30.308C243.783 30.436 244.055 30.5 244.407 30.5H248.319C249.391 30.5 250.303 30.612 251.055 30.836C251.823 31.076 252.407 31.468 252.807 32.012C253.207 32.572 253.407 33.332 253.407 34.292V35.42H250.287ZM246.279 26.42C246.967 26.42 247.567 26.308 248.079 26.084C248.607 25.86 249.015 25.54 249.303 25.124C249.591 24.692 249.735 24.18 249.735 23.588C249.735 22.98 249.591 22.46 249.303 22.028C249.015 21.596 248.615 21.268 248.103 21.044C247.591 20.804 246.983 20.684 246.279 20.684C245.591 20.684 244.983 20.804 244.455 21.044C243.927 21.268 243.519 21.596 243.231 22.028C242.943 22.46 242.799 22.98 242.799 23.588C242.799 24.18 242.943 24.692 243.231 25.124C243.519 25.54 243.919 25.86 244.431 26.084C244.959 26.308 245.575 26.42 246.279 26.42Z" fill="#222222"/>
</svg>
