<svg width="375" height="46" viewBox="0 0 375 46" fill="none" xmlns="http://www.w3.org/2000/svg">
<g clip-path="url(#clip0_8528_141)">
<path d="M45.5431 19.1534C45.3503 17.3931 43.9263 16.0257 42.1576 15.9021C40.6068 15.7929 39.0549 15.706 37.5454 15.6441C34.8557 15.531 32.1317 15.4851 29.436 15.5053C29.6149 11.6686 29.497 7.81526 29.0787 4.00006C28.8923 2.2945 27.5137 0.969452 25.8009 0.84941C19.9433 0.438787 14.0061 0.355225 8.15458 0.601239C6.69278 0.661979 5.20025 0.745451 3.71842 0.84941C2.00566 0.969452 0.626436 2.29432 0.438825 3.99997C-0.14593 9.33951 -0.14629 14.7562 0.437837 20.1C0.625807 21.8088 2.00548 23.1359 3.71797 23.2558L4.06282 23.2802C4.55314 23.313 4.93717 23.7233 4.93717 24.2143V27.4183C4.93717 28.1755 5.35839 28.8544 6.03668 29.1903C6.31693 29.3291 6.61713 29.3974 6.91543 29.3974C7.33837 29.3974 7.75744 29.26 8.10993 28.9914C8.77923 28.4821 9.41619 27.9631 10.0031 27.449C10.283 27.2038 10.3112 26.778 10.0659 26.4981C9.8207 26.2181 9.3949 26.19 9.11501 26.4352C8.55128 26.929 7.9384 27.4282 7.29335 27.9192C7.09927 28.0671 6.85317 28.0906 6.63474 27.9825C6.41568 27.874 6.28485 27.6631 6.28485 27.4183V24.2143C6.28485 23.0164 5.34833 22.0154 4.15528 21.9356L3.81249 21.9112C2.74999 21.8369 1.89407 21.0131 1.77762 19.9531C1.20409 14.707 1.20445 9.38893 1.77852 4.14697C1.89478 3.08968 2.75026 2.26826 3.81276 2.19377C5.28193 2.09071 6.76143 2.00796 8.21092 1.94776C14.0122 1.70399 19.8989 1.78665 25.7067 2.19377C26.7686 2.26826 27.6234 3.08951 27.739 4.1467C28.3141 9.39333 28.3141 14.7135 27.739 19.9594C27.7153 20.1757 27.6602 20.3854 27.5747 20.584C27.2489 21.345 26.5325 21.8534 25.7047 21.9112C21.8242 22.1844 17.8733 22.3127 13.961 22.2932C13.9557 22.2932 13.9505 22.2932 13.9453 22.2932C13.1954 22.2932 12.4958 22.6569 12.0715 23.2679C11.7736 23.6962 11.4096 24.1483 10.9897 24.6117C10.7398 24.8875 10.7607 25.3136 11.0365 25.5636C11.3122 25.8135 11.7384 25.7926 11.9884 25.5168C12.447 25.0107 12.8472 24.5131 13.1783 24.0371C13.3506 23.7888 13.6369 23.641 13.9463 23.641H13.9529C14.4523 23.6436 14.9523 23.6436 15.4527 23.6413C15.2468 27.7116 15.3672 31.8312 15.8122 35.8994C15.8526 36.2622 15.9451 36.6127 16.0862 36.9388C16.6285 38.2068 17.8211 39.0539 19.1976 39.1494C23.2722 39.4359 27.4172 39.57 31.5167 39.5499H31.5234C31.8532 39.5499 32.1597 39.7081 32.3443 39.974C33.7305 41.9688 35.9724 43.8732 37.609 45.1194C37.971 45.3952 38.4011 45.5363 38.8353 45.5363C39.1415 45.5363 39.4497 45.4662 39.7373 45.3237C40.4333 44.9791 40.8658 44.2823 40.8658 43.5052V40.1735C40.8658 39.6488 41.2759 39.2099 41.8003 39.1746L41.8154 39.1736C41.9305 39.1657 42.0456 39.1579 42.1579 39.1494C43.9268 39.0259 45.3506 37.6555 45.5439 35.8907C45.5638 35.709 45.5827 35.5272 45.6018 35.3444C45.6402 34.9742 45.3714 34.6429 45.0011 34.6045C44.6299 34.5658 44.2996 34.835 44.2612 35.2052C44.2425 35.3855 44.2237 35.5649 44.2041 35.7443C44.082 36.8602 43.182 37.7268 42.0605 37.8052C41.9476 37.8137 41.8355 37.8214 41.7235 37.829L41.709 37.83C40.4804 37.9128 39.518 38.9423 39.518 40.1736V43.5053C39.518 43.7703 39.3764 43.9986 39.1393 44.116C38.9025 44.2332 38.6358 44.2076 38.4258 44.0474C36.8662 42.8597 34.7371 41.0557 33.4514 39.2053C33.0148 38.5764 32.295 38.2023 31.5245 38.2023C31.5193 38.2023 31.5142 38.2023 31.509 38.2023C27.4433 38.2226 23.3333 38.0891 19.2917 37.8049C18.4213 37.7445 17.668 37.2096 17.3244 36.4066C17.2355 36.2008 17.1774 35.9799 17.1519 35.7515C16.7119 31.7288 16.5952 27.6539 16.8032 23.6289C19.8108 23.5896 22.8256 23.4649 25.7988 23.2557C27.1327 23.1627 28.2879 22.3422 28.813 21.116C28.9511 20.7956 29.0405 20.4557 29.0786 20.106C29.1972 19.0246 29.2905 17.94 29.361 16.8536C32.0618 16.8319 34.7928 16.8772 37.4893 16.9905C38.9863 17.052 40.5251 17.1381 42.0631 17.2464C43.1813 17.3245 44.0813 18.1881 44.2031 19.2999C44.6847 23.6986 44.7794 28.1556 44.4845 32.5466C44.4596 32.918 44.7404 33.2392 45.1116 33.2641C45.1271 33.2652 45.1423 33.2657 45.1575 33.2657C45.509 33.2657 45.8053 32.9929 45.8293 32.6369C46.1297 28.1673 46.0333 23.6307 45.5431 19.1534Z" fill="#222222"/>
<path d="M39.3177 28.8529C39.3284 28.323 39.127 27.8197 38.7505 27.4355C38.684 27.3677 38.613 27.3048 38.5382 27.2474C38.7335 26.9398 38.8468 26.5751 38.8468 26.1843C38.8468 25.6527 38.6397 25.1533 38.2647 24.7788C37.8899 24.4034 37.3906 24.1967 36.8589 24.1967H34.2026L35.202 22.0677C35.7682 20.8626 35.2481 19.4212 34.0425 18.8548C33.7186 18.7028 33.3738 18.6256 33.0173 18.6256C32.0849 18.6256 31.226 19.1709 30.8295 20.015L30.2135 21.3276C29.9006 21.9938 29.4108 22.5362 28.7973 22.8962C28.2007 23.2458 27.7316 23.7587 27.4308 24.3815C27.2168 24.2844 26.98 24.229 26.73 24.229H24.7008C23.7619 24.229 22.998 24.9928 22.998 25.9318V34.1269C22.998 35.0659 23.7619 35.8297 24.7008 35.8297H26.73C27.0506 35.8297 27.3498 35.7391 27.6061 35.5843C28.0859 35.8918 28.6439 36.0573 29.2269 36.0573H36.3872C37.4831 36.0573 38.3748 35.1654 38.3748 34.0693C38.3748 33.8241 38.3306 33.5846 38.2437 33.357C38.2415 33.351 38.2392 33.345 38.2368 33.3389C38.1917 33.2251 38.137 33.1167 38.0728 33.0144C38.5434 32.6505 38.8469 32.0805 38.8469 31.441C38.8469 31.0608 38.741 30.697 38.5434 30.3836C39.0034 30.0266 39.3056 29.4731 39.3177 28.8529ZM24.7006 34.4819C24.5048 34.4819 24.3456 34.3227 24.3456 34.1269V25.9318C24.3456 25.736 24.5048 25.5767 24.7006 25.5767H26.7298C26.9256 25.5767 27.0849 25.736 27.0849 25.9318V34.1269C27.0849 34.3227 26.9256 34.4819 26.7298 34.4819H24.7006ZM37.3308 29.4533H36.8587C36.4864 29.4533 36.1848 29.755 36.1848 30.1272C36.1848 30.4994 36.4864 30.8011 36.8587 30.8011C37.03 30.8011 37.1906 30.8673 37.3115 30.9884C37.4324 31.1091 37.499 31.2697 37.499 31.4409C37.499 31.7939 37.2118 32.0812 36.8587 32.0812H36.387C36.0148 32.0812 35.7132 32.3829 35.7132 32.7551C35.7132 33.1272 36.0148 33.429 36.387 33.429C36.5582 33.429 36.719 33.4955 36.8397 33.6162C36.9002 33.6767 36.9473 33.7472 36.9799 33.826C36.9808 33.8284 36.9817 33.8307 36.9826 33.833C37.0119 33.908 37.0268 33.9874 37.0268 34.0692C37.0268 34.4222 36.7398 34.7094 36.387 34.7094H29.2268C28.9295 34.7094 28.6448 34.6303 28.3941 34.4849C28.4189 34.3694 28.4327 34.2497 28.4327 34.1268C28.4327 34.1268 28.4327 25.9215 28.4326 25.9192C28.427 25.6106 28.4874 25.3115 28.6123 25.0302C28.7947 24.6201 29.0941 24.2842 29.4788 24.0589C30.3282 23.5605 31.0041 22.8141 31.4332 21.9005L32.0493 20.5879C32.2247 20.2146 32.6046 19.9734 33.0171 19.9734C33.1739 19.9734 33.326 20.0074 33.4691 20.0747C34.0021 20.3251 34.2321 20.962 33.9818 21.4948L32.5405 24.5651C32.4451 24.7684 32.4571 25.0061 32.5728 25.1986C32.5833 25.2159 32.5894 25.225 32.5958 25.2348C32.7198 25.4278 32.9334 25.5445 33.1628 25.5445H36.8587C37.03 25.5445 37.1906 25.6107 37.3115 25.7319C37.4325 25.8525 37.499 26.0132 37.499 26.1843C37.499 26.5376 37.2118 26.8249 36.8587 26.8249C36.4864 26.8249 36.1848 27.1267 36.1848 27.4988C36.1848 27.871 36.4864 28.1727 36.8587 28.1727H37.3011C37.4822 28.1727 37.6595 28.2478 37.7879 28.3788C37.9089 28.5022 37.9736 28.6609 37.9702 28.826C37.9635 29.172 37.6766 29.4533 37.3308 29.4533Z" fill="#222222"/>
<path d="M20.984 9.15256C20.984 7.77846 20.3112 6.66052 19.4842 6.66052C18.6573 6.66052 17.9846 7.77846 17.9846 9.15256C17.9846 10.5267 18.6573 11.6446 19.4842 11.6446C20.3112 11.6446 20.984 10.5267 20.984 9.15256Z" fill="#222222"/>
<path d="M11.5335 9.15256C11.5335 7.77846 10.8608 6.66052 10.0338 6.66052C9.2069 6.66052 8.53418 7.77846 8.53418 9.15256C8.53418 10.5267 9.2069 11.6446 10.0338 11.6446C10.8608 11.6446 11.5335 10.5267 11.5335 9.15256Z" fill="#222222"/>
<path d="M14.7591 18.027C17.1758 18.027 19.3443 16.5874 20.2837 14.3594C20.4282 14.0164 20.2674 13.6213 19.9245 13.4766C19.5813 13.3322 19.1863 13.4929 19.0417 13.8358C18.3136 15.5631 16.6325 16.6792 14.7591 16.6792C12.8856 16.6792 11.2046 15.5631 10.4764 13.8358C10.3319 13.4929 9.93641 13.3323 9.59363 13.4766C9.25075 13.6212 9.08992 14.0164 9.23449 14.3594C10.1737 16.5874 12.3423 18.027 14.7591 18.027Z" fill="#222222"/>
</g>
<path d="M98.2727 24.908C98.1287 26.156 97.6887 27.22 96.9527 28.1C96.2167 28.98 95.2167 29.652 93.9527 30.116C92.6887 30.58 91.1847 30.812 89.4407 30.812C87.9847 30.812 86.6487 30.644 85.4327 30.308C84.2327 29.972 83.1927 29.468 82.3127 28.796C81.4487 28.124 80.7767 27.292 80.2967 26.3C79.8167 25.292 79.5767 24.116 79.5767 22.772C79.5767 21.428 79.8167 20.252 80.2967 19.244C80.7767 18.236 81.4487 17.396 82.3127 16.724C83.1927 16.036 84.2327 15.524 85.4327 15.188C86.6487 14.836 87.9847 14.66 89.4407 14.66C91.1847 14.66 92.6887 14.9 93.9527 15.38C95.2327 15.86 96.2407 16.548 96.9767 17.444C97.7127 18.324 98.1447 19.396 98.2727 20.66H95.1047C94.8967 19.988 94.5447 19.412 94.0487 18.932C93.5687 18.436 92.9447 18.06 92.1767 17.804C91.4087 17.548 90.4967 17.42 89.4407 17.42C88.1287 17.42 86.9767 17.628 85.9847 18.044C84.9927 18.444 84.2247 19.044 83.6807 19.844C83.1367 20.628 82.8647 21.604 82.8647 22.772C82.8647 23.924 83.1367 24.892 83.6807 25.676C84.2247 26.46 84.9927 27.06 85.9847 27.476C86.9767 27.876 88.1287 28.076 89.4407 28.076C90.4967 28.076 91.4007 27.948 92.1527 27.692C92.9207 27.436 93.5447 27.068 94.0247 26.588C94.5207 26.108 94.8807 25.548 95.1047 24.908H98.2727ZM114.779 30.5H111.659V18.572H114.779V30.5ZM111.827 24.764L111.851 25.58C111.819 25.804 111.739 26.132 111.611 26.564C111.483 26.98 111.283 27.428 111.011 27.908C110.755 28.388 110.419 28.852 110.003 29.3C109.587 29.732 109.075 30.092 108.467 30.38C107.859 30.652 107.139 30.788 106.307 30.788C105.651 30.788 105.003 30.708 104.363 30.548C103.739 30.388 103.171 30.124 102.659 29.756C102.147 29.372 101.739 28.86 101.435 28.22C101.131 27.58 100.979 26.772 100.979 25.796V18.572H104.099V25.268C104.099 26.036 104.219 26.644 104.459 27.092C104.715 27.524 105.083 27.828 105.563 28.004C106.043 28.18 106.611 28.268 107.267 28.268C108.131 28.268 108.875 28.084 109.499 27.716C110.123 27.332 110.627 26.868 111.011 26.324C111.411 25.78 111.683 25.26 111.827 24.764ZM117.14 26.54H120.02C120.196 27.084 120.556 27.532 121.1 27.884C121.66 28.22 122.388 28.388 123.284 28.388C123.892 28.388 124.364 28.332 124.7 28.22C125.036 28.108 125.268 27.948 125.396 27.74C125.524 27.516 125.588 27.268 125.588 26.996C125.588 26.66 125.484 26.404 125.276 26.228C125.068 26.036 124.748 25.884 124.316 25.772C123.884 25.66 123.332 25.556 122.66 25.46C121.988 25.348 121.34 25.212 120.716 25.052C120.092 24.892 119.54 24.684 119.06 24.428C118.58 24.156 118.196 23.82 117.908 23.42C117.636 23.004 117.5 22.5 117.5 21.908C117.5 21.332 117.636 20.82 117.908 20.372C118.196 19.924 118.588 19.548 119.084 19.244C119.596 18.94 120.188 18.708 120.86 18.548C121.548 18.388 122.284 18.308 123.068 18.308C124.252 18.308 125.236 18.484 126.02 18.836C126.804 19.172 127.388 19.652 127.772 20.276C128.172 20.884 128.372 21.588 128.372 22.388H125.612C125.484 21.796 125.228 21.372 124.844 21.116C124.46 20.844 123.868 20.708 123.068 20.708C122.284 20.708 121.692 20.828 121.292 21.068C120.892 21.308 120.692 21.636 120.692 22.052C120.692 22.388 120.812 22.652 121.052 22.844C121.308 23.02 121.676 23.164 122.156 23.276C122.652 23.388 123.268 23.508 124.004 23.636C124.628 23.764 125.22 23.908 125.78 24.068C126.356 24.228 126.868 24.436 127.316 24.692C127.764 24.932 128.116 25.26 128.372 25.676C128.644 26.076 128.78 26.588 128.78 27.212C128.78 27.98 128.556 28.628 128.108 29.156C127.676 29.684 127.052 30.092 126.236 30.38C125.42 30.652 124.444 30.788 123.308 30.788C122.3 30.788 121.428 30.684 120.692 30.476C119.972 30.252 119.372 29.972 118.892 29.636C118.412 29.284 118.036 28.916 117.764 28.532C117.508 28.132 117.332 27.756 117.236 27.404C117.14 27.052 117.108 26.764 117.14 26.54ZM130.327 18.572H139.591V20.996H130.327V18.572ZM133.399 15.308H136.519V30.5H133.399V15.308ZM148.441 30.788C146.937 30.788 145.609 30.548 144.457 30.068C143.321 29.588 142.433 28.892 141.793 27.98C141.153 27.052 140.833 25.916 140.833 24.572C140.833 23.228 141.153 22.092 141.793 21.164C142.433 20.22 143.321 19.508 144.457 19.028C145.609 18.548 146.937 18.308 148.441 18.308C149.945 18.308 151.257 18.548 152.377 19.028C153.513 19.508 154.401 20.22 155.041 21.164C155.681 22.092 156.001 23.228 156.001 24.572C156.001 25.916 155.681 27.052 155.041 27.98C154.401 28.892 153.513 29.588 152.377 30.068C151.257 30.548 149.945 30.788 148.441 30.788ZM148.441 28.388C149.273 28.388 150.017 28.244 150.673 27.956C151.345 27.652 151.873 27.22 152.257 26.66C152.641 26.084 152.833 25.388 152.833 24.572C152.833 23.756 152.641 23.06 152.257 22.484C151.873 21.892 151.353 21.444 150.697 21.14C150.041 20.836 149.289 20.684 148.441 20.684C147.609 20.684 146.857 20.836 146.185 21.14C145.513 21.444 144.977 21.884 144.577 22.46C144.193 23.036 144.001 23.74 144.001 24.572C144.001 25.388 144.193 26.084 144.577 26.66C144.961 27.22 145.489 27.652 146.161 27.956C146.833 28.244 147.593 28.388 148.441 28.388ZM158.307 18.572H161.427V30.5H158.307V18.572ZM166.971 18.308C167.707 18.308 168.387 18.404 169.011 18.596C169.635 18.788 170.179 19.084 170.643 19.484C171.107 19.884 171.467 20.396 171.723 21.02C171.979 21.628 172.107 22.356 172.107 23.204V30.5H168.987V23.756C168.987 22.748 168.739 22.012 168.243 21.548C167.763 21.068 166.971 20.828 165.867 20.828C165.035 20.828 164.283 20.988 163.611 21.308C162.939 21.628 162.395 22.036 161.979 22.532C161.563 23.012 161.323 23.516 161.259 24.044L161.235 22.82C161.315 22.26 161.499 21.716 161.787 21.188C162.075 20.66 162.459 20.18 162.939 19.748C163.435 19.3 164.019 18.948 164.691 18.692C165.363 18.436 166.123 18.308 166.971 18.308ZM177.363 18.308C178.099 18.308 178.779 18.404 179.403 18.596C180.027 18.788 180.571 19.084 181.035 19.484C181.499 19.884 181.859 20.396 182.115 21.02C182.387 21.628 182.523 22.356 182.523 23.204V30.5H179.403V23.756C179.403 22.748 179.155 22.012 178.659 21.548C178.163 21.068 177.363 20.828 176.259 20.828C175.427 20.828 174.675 20.988 174.003 21.308C173.331 21.628 172.787 22.036 172.371 22.532C171.955 23.012 171.723 23.516 171.675 24.044L171.627 22.748C171.707 22.22 171.899 21.692 172.203 21.164C172.507 20.636 172.907 20.156 173.403 19.724C173.899 19.292 174.475 18.948 175.131 18.692C175.803 18.436 176.547 18.308 177.363 18.308ZM196.226 26.54H199.25C199.122 27.356 198.778 28.084 198.218 28.724C197.674 29.364 196.93 29.868 195.986 30.236C195.042 30.604 193.89 30.788 192.53 30.788C191.01 30.788 189.666 30.548 188.498 30.068C187.33 29.572 186.418 28.86 185.762 27.932C185.106 27.004 184.778 25.884 184.778 24.572C184.778 23.26 185.098 22.14 185.738 21.212C186.378 20.268 187.266 19.548 188.402 19.052C189.554 18.556 190.898 18.308 192.434 18.308C194.002 18.308 195.306 18.556 196.346 19.052C197.386 19.548 198.154 20.3 198.65 21.308C199.162 22.3 199.378 23.572 199.298 25.124H187.922C188.002 25.732 188.226 26.284 188.594 26.78C188.978 27.276 189.49 27.668 190.13 27.956C190.786 28.244 191.562 28.388 192.458 28.388C193.45 28.388 194.274 28.22 194.93 27.884C195.602 27.532 196.034 27.084 196.226 26.54ZM192.29 20.684C191.138 20.684 190.202 20.94 189.482 21.452C188.762 21.948 188.298 22.564 188.09 23.3H196.202C196.122 22.5 195.738 21.868 195.05 21.404C194.378 20.924 193.458 20.684 192.29 20.684ZM201.62 18.572H204.74V30.5H201.62V18.572ZM209.324 21.14C208.428 21.14 207.652 21.316 206.996 21.668C206.34 22.004 205.812 22.42 205.412 22.916C205.012 23.412 204.732 23.892 204.572 24.356L204.548 23.036C204.564 22.844 204.628 22.564 204.74 22.196C204.852 21.812 205.02 21.404 205.244 20.972C205.468 20.524 205.764 20.1 206.132 19.7C206.5 19.284 206.948 18.948 207.476 18.692C208.004 18.436 208.62 18.308 209.324 18.308V21.14ZM216.418 25.268H219.658C219.722 25.812 219.97 26.308 220.402 26.756C220.85 27.188 221.434 27.532 222.154 27.788C222.874 28.028 223.682 28.148 224.578 28.148C225.394 28.148 226.066 28.06 226.594 27.884C227.122 27.708 227.514 27.46 227.77 27.14C228.026 26.82 228.154 26.436 228.154 25.988C228.154 25.556 227.994 25.228 227.674 25.004C227.354 24.764 226.85 24.572 226.162 24.428C225.474 24.268 224.57 24.108 223.45 23.948C222.57 23.82 221.738 23.644 220.954 23.42C220.17 23.18 219.474 22.876 218.866 22.508C218.274 22.14 217.802 21.692 217.45 21.164C217.114 20.62 216.946 19.98 216.946 19.244C216.946 18.332 217.202 17.532 217.714 16.844C218.242 16.156 219.018 15.62 220.042 15.236C221.066 14.852 222.322 14.66 223.81 14.66C226.05 14.66 227.77 15.14 228.97 16.1C230.186 17.044 230.778 18.348 230.746 20.012H227.626C227.562 19.068 227.162 18.388 226.426 17.972C225.706 17.556 224.794 17.348 223.69 17.348C222.666 17.348 221.818 17.5 221.146 17.804C220.49 18.108 220.162 18.628 220.162 19.364C220.162 19.652 220.242 19.908 220.402 20.132C220.562 20.34 220.834 20.524 221.218 20.684C221.602 20.844 222.122 20.996 222.778 21.14C223.434 21.284 224.25 21.428 225.226 21.572C226.138 21.7 226.962 21.876 227.698 22.1C228.45 22.308 229.09 22.588 229.618 22.94C230.162 23.276 230.578 23.708 230.866 24.236C231.154 24.764 231.298 25.412 231.298 26.18C231.298 27.124 231.05 27.948 230.554 28.652C230.074 29.34 229.322 29.876 228.298 30.26C227.29 30.644 225.978 30.836 224.362 30.836C223.21 30.836 222.194 30.716 221.314 30.476C220.434 30.22 219.674 29.884 219.034 29.468C218.394 29.052 217.874 28.596 217.474 28.1C217.074 27.604 216.786 27.108 216.61 26.612C216.45 26.116 216.386 25.668 216.418 25.268ZM239.514 30.764C238.33 30.764 237.25 30.508 236.274 29.996C235.314 29.468 234.546 28.74 233.97 27.812C233.41 26.868 233.13 25.78 233.13 24.548C233.13 23.284 233.418 22.188 233.994 21.26C234.57 20.332 235.346 19.612 236.322 19.1C237.314 18.572 238.434 18.308 239.682 18.308C241.058 18.308 242.162 18.588 242.994 19.148C243.842 19.692 244.458 20.436 244.842 21.38C245.226 22.324 245.418 23.38 245.418 24.548C245.418 25.252 245.306 25.972 245.082 26.708C244.858 27.428 244.514 28.1 244.05 28.724C243.586 29.332 242.978 29.828 242.226 30.212C241.474 30.58 240.57 30.764 239.514 30.764ZM240.522 28.364C241.466 28.364 242.282 28.204 242.97 27.884C243.658 27.564 244.186 27.116 244.554 26.54C244.922 25.964 245.106 25.3 245.106 24.548C245.106 23.732 244.914 23.044 244.53 22.484C244.162 21.908 243.634 21.476 242.946 21.188C242.274 20.884 241.466 20.732 240.522 20.732C239.194 20.732 238.162 21.084 237.426 21.788C236.69 22.476 236.322 23.396 236.322 24.548C236.322 25.316 236.498 25.988 236.85 26.564C237.202 27.124 237.69 27.564 238.314 27.884C238.954 28.204 239.69 28.364 240.522 28.364ZM245.106 18.572H248.226V30.5H245.322C245.322 30.5 245.298 30.348 245.25 30.044C245.218 29.724 245.186 29.324 245.154 28.844C245.122 28.364 245.106 27.892 245.106 27.428V18.572ZM250.209 18.572H259.473V20.996H250.209V18.572ZM253.281 15.308H256.401V30.5H253.281V15.308ZM265.032 13.34V16.076H261.408V13.34H265.032ZM261.648 18.572H264.768V30.5H261.648V18.572ZM267.398 26.54H270.278C270.454 27.084 270.814 27.532 271.358 27.884C271.918 28.22 272.646 28.388 273.542 28.388C274.15 28.388 274.622 28.332 274.958 28.22C275.294 28.108 275.526 27.948 275.654 27.74C275.782 27.516 275.846 27.268 275.846 26.996C275.846 26.66 275.742 26.404 275.534 26.228C275.326 26.036 275.006 25.884 274.574 25.772C274.142 25.66 273.59 25.556 272.918 25.46C272.246 25.348 271.598 25.212 270.974 25.052C270.35 24.892 269.798 24.684 269.318 24.428C268.838 24.156 268.454 23.82 268.166 23.42C267.894 23.004 267.758 22.5 267.758 21.908C267.758 21.332 267.894 20.82 268.166 20.372C268.454 19.924 268.846 19.548 269.342 19.244C269.854 18.94 270.446 18.708 271.118 18.548C271.806 18.388 272.542 18.308 273.326 18.308C274.51 18.308 275.494 18.484 276.278 18.836C277.062 19.172 277.646 19.652 278.03 20.276C278.43 20.884 278.63 21.588 278.63 22.388H275.87C275.742 21.796 275.486 21.372 275.102 21.116C274.718 20.844 274.126 20.708 273.326 20.708C272.542 20.708 271.95 20.828 271.55 21.068C271.15 21.308 270.95 21.636 270.95 22.052C270.95 22.388 271.07 22.652 271.31 22.844C271.566 23.02 271.934 23.164 272.414 23.276C272.91 23.388 273.526 23.508 274.262 23.636C274.886 23.764 275.478 23.908 276.038 24.068C276.614 24.228 277.126 24.436 277.574 24.692C278.022 24.932 278.374 25.26 278.63 25.676C278.902 26.076 279.038 26.588 279.038 27.212C279.038 27.98 278.814 28.628 278.366 29.156C277.934 29.684 277.31 30.092 276.494 30.38C275.678 30.652 274.702 30.788 273.566 30.788C272.558 30.788 271.686 30.684 270.95 30.476C270.23 30.252 269.63 29.972 269.15 29.636C268.67 29.284 268.294 28.916 268.021 28.532C267.766 28.132 267.59 27.756 267.494 27.404C267.398 27.052 267.366 26.764 267.398 26.54ZM280.584 18.788H290.184V21.164H280.584V18.788ZM287.88 13.772H290.352V16.292H288.624C288.16 16.276 287.76 16.324 287.424 16.436C287.088 16.548 286.832 16.756 286.656 17.06C286.48 17.348 286.392 17.764 286.392 18.308V30.5H283.272V17.924C283.272 16.964 283.448 16.18 283.8 15.572C284.152 14.948 284.672 14.492 285.36 14.204C286.048 13.916 286.888 13.772 287.88 13.772ZM297.779 30.764C296.595 30.764 295.515 30.508 294.539 29.996C293.579 29.468 292.811 28.74 292.235 27.812C291.675 26.868 291.395 25.78 291.395 24.548C291.395 23.284 291.683 22.188 292.259 21.26C292.835 20.332 293.611 19.612 294.587 19.1C295.579 18.572 296.699 18.308 297.947 18.308C299.323 18.308 300.427 18.588 301.259 19.148C302.107 19.692 302.723 20.436 303.107 21.38C303.491 22.324 303.683 23.38 303.683 24.548C303.683 25.252 303.571 25.972 303.347 26.708C303.123 27.428 302.779 28.1 302.315 28.724C301.851 29.332 301.243 29.828 300.491 30.212C299.739 30.58 298.835 30.764 297.779 30.764ZM298.787 28.364C299.731 28.364 300.547 28.204 301.235 27.884C301.923 27.564 302.451 27.116 302.819 26.54C303.187 25.964 303.371 25.3 303.371 24.548C303.371 23.732 303.179 23.044 302.795 22.484C302.427 21.908 301.899 21.476 301.211 21.188C300.539 20.884 299.731 20.732 298.787 20.732C297.459 20.732 296.427 21.084 295.691 21.788C294.955 22.476 294.587 23.396 294.587 24.548C294.587 25.316 294.763 25.988 295.115 26.564C295.467 27.124 295.955 27.564 296.579 27.884C297.219 28.204 297.955 28.364 298.787 28.364ZM303.371 18.572H306.491V30.5H303.587C303.587 30.5 303.563 30.348 303.515 30.044C303.483 29.724 303.451 29.324 303.419 28.844C303.387 28.364 303.371 27.892 303.371 27.428V18.572ZM323.475 25.796C323.395 26.836 323.059 27.732 322.467 28.484C321.891 29.236 321.091 29.812 320.067 30.212C319.043 30.596 317.827 30.788 316.419 30.788C314.947 30.788 313.627 30.556 312.459 30.092C311.307 29.612 310.395 28.916 309.723 28.004C309.067 27.076 308.739 25.932 308.739 24.572C308.739 23.212 309.067 22.068 309.723 21.14C310.395 20.212 311.307 19.508 312.459 19.028C313.627 18.548 314.947 18.308 316.419 18.308C317.827 18.308 319.035 18.508 320.043 18.908C321.051 19.292 321.843 19.852 322.419 20.588C323.011 21.324 323.355 22.212 323.451 23.252H320.595C320.323 22.452 319.819 21.828 319.083 21.38C318.347 20.932 317.459 20.708 316.419 20.708C315.587 20.708 314.827 20.852 314.139 21.14C313.467 21.428 312.923 21.86 312.507 22.436C312.107 22.996 311.907 23.708 311.907 24.572C311.907 25.42 312.107 26.132 312.507 26.708C312.907 27.268 313.451 27.692 314.139 27.98C314.827 28.252 315.587 28.388 316.419 28.388C317.539 28.388 318.451 28.164 319.155 27.716C319.875 27.268 320.363 26.628 320.619 25.796H323.475ZM324.928 18.572H334.192V20.996H324.928V18.572ZM328 15.308H331.12V30.5H328V15.308ZM339.75 13.34V16.076H336.126V13.34H339.75ZM336.366 18.572H339.486V30.5H336.366V18.572ZM349.628 30.788C348.124 30.788 346.796 30.548 345.644 30.068C344.508 29.588 343.62 28.892 342.98 27.98C342.34 27.052 342.02 25.916 342.02 24.572C342.02 23.228 342.34 22.092 342.98 21.164C343.62 20.22 344.508 19.508 345.644 19.028C346.796 18.548 348.124 18.308 349.628 18.308C351.132 18.308 352.444 18.548 353.564 19.028C354.7 19.508 355.588 20.22 356.228 21.164C356.868 22.092 357.188 23.228 357.188 24.572C357.188 25.916 356.868 27.052 356.228 27.98C355.588 28.892 354.7 29.588 353.564 30.068C352.444 30.548 351.132 30.788 349.628 30.788ZM349.628 28.388C350.46 28.388 351.204 28.244 351.86 27.956C352.532 27.652 353.06 27.22 353.444 26.66C353.828 26.084 354.02 25.388 354.02 24.572C354.02 23.756 353.828 23.06 353.444 22.484C353.06 21.892 352.54 21.444 351.884 21.14C351.228 20.836 350.476 20.684 349.628 20.684C348.796 20.684 348.044 20.836 347.372 21.14C346.7 21.444 346.164 21.884 345.764 22.46C345.38 23.036 345.188 23.74 345.188 24.572C345.188 25.388 345.38 26.084 345.764 26.66C346.148 27.22 346.676 27.652 347.348 27.956C348.02 28.244 348.78 28.388 349.628 28.388ZM359.495 18.572H362.615V30.5H359.495V18.572ZM368.159 18.308C368.895 18.308 369.575 18.404 370.199 18.596C370.823 18.788 371.367 19.084 371.831 19.484C372.295 19.884 372.655 20.396 372.911 21.02C373.167 21.628 373.295 22.356 373.295 23.204V30.5H370.175V23.756C370.175 22.748 369.927 22.012 369.431 21.548C368.951 21.068 368.159 20.828 367.055 20.828C366.223 20.828 365.471 20.988 364.799 21.308C364.127 21.628 363.583 22.036 363.167 22.532C362.751 23.012 362.511 23.516 362.447 24.044L362.423 22.82C362.503 22.26 362.687 21.716 362.975 21.188C363.263 20.66 363.647 20.18 364.127 19.748C364.623 19.3 365.207 18.948 365.879 18.692C366.551 18.436 367.311 18.308 368.159 18.308Z" fill="#222222"/>
<defs>
<clipPath id="clip0_8528_141">
<rect width="46" height="46" fill="white"/>
</clipPath>
</defs>
</svg>
